<svg xmlns="http://www.w3.org/2000/svg" viewBox="0 0 20 18.14214">
  <path d="M15.34 5.2a2.03 2.03 0 0 0 1.77 1.05H18A2.03 2.03 0 0 0 20 4.23v-.87a2.03 2.03 0 0 0-2.03-2.03h-.86a2.03 2.03 0 0 0-2 2.03v.13L10 9.2l-5.07-5.7v-.17A2.03 2.03 0 0 0 2.9 1.33h-.87A2.03 2.03 0 0 0 0 3.36v.87a2.03 2.03 0 0 0 2.03 2.02h.86A2.03 2.03 0 0 0 4.65 5.2a2.1 2.1 0 0 0 .18-.45l4.2 4.73-4.13-.02V9.3a2 2 0 0 0-.25-.97v2.82a2 2 0 0 0 .25-.83l4.35.02-4.33 4.87a2 2 0 0 0-.26-.92 2.03 2.03 0 0 0-1.77-1.05H2A2.03 2.03 0 0 0 0 15.25v.86a2.03 2.03 0 0 0 2.03 2.05h.86a2.03 2.03 0 0 0 1.96-1.57l5.1-5.75 5.18 5.83a2.03 2.03 0 0 0 1.96 1.5h.87A2.03 2.03 0 0 0 20 16.1v-.85a2.03 2.03 0 0 0-2.03-2.03h-.86a2.03 2.03 0 0 0-1.75 1.05 2 2 0 0 0-.26.98l-4.38-4.9h4.4a2.05 2.05 0 0 0 2 1.85H18a2.03 2.03 0 0 0 2-2.03V9.3a2.03 2.03 0 0 0-2.03-2.02h-.86a2.05 2.05 0 0 0-2 2.02v.2l-4.18-.02 4.24-4.76a2.1 2.1 0 0 0 .2.48zm.6-1.84A1.17 1.17 0 0 1 17.1 2.2h.87a1.17 1.17 0 0 1 1.17 1.16v.87a1.17 1.17 0 0 1-1.17 1.16h-.86a1.17 1.17 0 0 1-1-.63 1.14 1.14 0 0 1-.15-.55zm-11.88.87a1.14 1.14 0 0 1-.15.55 1.16 1.16 0 0 1-1 .6h-.86A1.17 1.17 0 0 1 .86 4.24v-.87A1.17 1.17 0 0 1 2.03 2.2h.86a1.17 1.17 0 0 1 1.15 1.16zm0 11.88a1.17 1.17 0 0 1-1.16 1.2h-.87a1.17 1.17 0 0 1-1.17-1.2v-.85a1.17 1.17 0 0 1 1.17-1.17h.86a1.17 1.17 0 0 1 1 .6 1.14 1.14 0 0 1 .15.57zm11.88-.84a1.14 1.14 0 0 1 .15-.56 1.17 1.17 0 0 1 1-.62h.86a1.17 1.17 0 0 1 1.17 1.17v.86a1.17 1.17 0 0 1-1.17 1.2h-.86a1.17 1.17 0 0 1-1.16-1.18zm0-5.95a1.14 1.14 0 0 1 .18-.6 1.16 1.16 0 0 1 1-.55h.85a1.17 1.17 0 0 1 1.17 1.16v.88a1.17 1.17 0 0 1-1.17 1.16h-.86a1.17 1.17 0 0 1-1-.6 1.14 1.14 0 0 1-.15-.56zm-13.9 2.9h.85a2.03 2.03 0 0 0 1.75-1.05V8.33A2.03 2.03 0 0 0 2.9 7.28h-.87A2.03 2.03 0 0 0 0 9.3v.87a2.03 2.03 0 0 0 2.03 2.03zM.85 9.3a1.17 1.17 0 0 1 1.17-1.16h.86a1.17 1.17 0 0 1 1 .6 1.14 1.14 0 0 1 .15.56v.87a1.14 1.14 0 0 1-.15.56 1.17 1.17 0 0 1-1 .6h-.87a1.17 1.17 0 0 1-1.17-1.16zM8.24 1h.02v3.57h1V.07H8.4L7.2.64l.18.8.86-.42zm3.43 3.64c1.15 0 1.7-.95 1.7-2.34 0-1.23-.46-2.3-1.67-2.3C10.54 0 10 1.03 10 2.33c0 1.27.5 2.3 1.67 2.3zM11.7.8c.4 0 .62.52.62 1.5 0 1.04-.22 1.55-.62 1.55s-.66-.5-.65-1.52c0-1.05.25-1.54.64-1.54z"/>
</svg>
