<svg xmlns="http://www.w3.org/2000/svg" viewBox="0 0 21 21">
  <path fill="#a10000" d="M10.5 0A10.5 10.5 0 1 0 21 10.5 10.5 10.5 0 0 0 10.5 0zm0 18.38a7.88 7.88 0 1 1 7.88-7.88 7.88 7.88 0 0 1-7.88 7.88z"/>
  <path fill="#1f3b73" d="M5.02 7.35h1.9V14H5.66V8.54H4.3zm6.7 3.05a2.02 2.02 0 0 1 .94 1.72 2.06 2.06 0 0 1-.3 1.07 1.86 1.86 0 0 1-.76.7 2.72 2.72 0 0 1-1.24.26 2.9 2.9 0 0 1-1.28-.24 1.82 1.82 0 0 1-.75-.72 2.1 2.1 0 0 1-.3-1.08 2.02 2.02 0 0 1 .24-.95 2.3 2.3 0 0 1 .68-.77 2.18 2.18 0 0 1-.45-.65 1.75 1.75 0 0 1-.14-.72 1.83 1.83 0 0 1 .25-.95 1.73 1.73 0 0 1 .7-.66 2.2 2.2 0 0 1 1.07-.24 2.13 2.13 0 0 1 1.03.24 1.76 1.76 0 0 1 .68.68 1.86 1.86 0 0 1 .26.95 1.63 1.63 0 0 1-.13.66 2.58 2.58 0 0 1-.47.7zm-1.36.67a1.1 1.1 0 0 0-.76.28.86.86 0 0 0-.32.66.9.9 0 0 0 .3.7 1.08 1.08 0 0 0 .77.28 1.1 1.1 0 0 0 .77-.26.86.86 0 0 0 .3-.66.9.9 0 0 0-.3-.7 1.05 1.05 0 0 0-.76-.27zM10.3 8.4a.7.7 0 0 0-.5.2.72.72 0 0 0-.2.54.74.74 0 1 0 1.47-.02.7.7 0 0 0-.2-.52.75.75 0 0 0-.56-.2zm3.93 1.7V8.43h1.13v1.7h1.7v1.12h-1.7v1.7h-1.13v-1.7h-1.7V10.1z"/>
</svg>
