<svg xmlns="http://www.w3.org/2000/svg" viewBox="0 0 20 18.15376">
  <path d="M2.03 12.2h.86a2.03 2.03 0 0 0 1.75-1.04V8.34A2.03 2.03 0 0 0 2.9 7.3h-.87A2.03 2.03 0 0 0 0 9.3v.86a2.03 2.03 0 0 0 2.03 2.03zM.86 9.33a1.17 1.17 0 0 1 1.17-1.17h.86a1.17 1.17 0 0 1 1 .6 1.14 1.14 0 0 1 .15.57v.86a1.14 1.14 0 0 1-.15.55 1.17 1.17 0 0 1-1 .6h-.87A1.17 1.17 0 0 1 .86 10.2zM15.34 5.2a2.03 2.03 0 0 0 1.77 1.07H18A2.03 2.03 0 0 0 20 4.24v-.87a2.03 2.03 0 0 0-2.03-2.03h-.86a2.03 2.03 0 0 0-2 2.03v.13L10 9.24l-5.07-5.7v-.17A2.03 2.03 0 0 0 2.9 1.34h-.87A2.03 2.03 0 0 0 0 3.37v.87a2.03 2.03 0 0 0 2.03 2.03h.86A2.03 2.03 0 0 0 4.65 5.2a2.1 2.1 0 0 0 .18-.43l4.2 4.72-4.13-.04V9.3a2 2 0 0 0-.25-.97v2.82a2 2 0 0 0 .25-.82h4.35L4.92 15.2a2 2 0 0 0-.26-.93 2.03 2.03 0 0 0-1.77-1.05H2A2.03 2.03 0 0 0 0 15.26v.86a2.03 2.03 0 0 0 2.03 2.03h.86a2.03 2.03 0 0 0 1.96-1.57l5.1-5.75 5.18 5.83a2.03 2.03 0 0 0 1.96 1.5h.87A2.03 2.03 0 0 0 20 16.1v-.86a2.03 2.03 0 0 0-2.03-2.03h-.86a2.03 2.03 0 0 0-1.75 1.06 2 2 0 0 0-.26.98l-4.38-4.9 4.4.02a2.05 2.05 0 0 0 2 1.83H18a2.03 2.03 0 0 0 2-2v-.86a2.03 2.03 0 0 0-2.03-2.03h-.86a2.05 2.05 0 0 0-2 2v.2h-4.2l4.24-4.77a2.1 2.1 0 0 0 .2.48zm.6-1.83A1.17 1.17 0 0 1 17.1 2.2h.87a1.17 1.17 0 0 1 1.17 1.17v.87a1.17 1.17 0 0 1-1.17 1.16h-.86a1.17 1.17 0 0 1-1-.6 1.14 1.14 0 0 1-.15-.56zm-11.88.87a1.14 1.14 0 0 1-.15.55 1.16 1.16 0 0 1-1 .6h-.86A1.17 1.17 0 0 1 .86 4.23v-.87A1.17 1.17 0 0 1 2.03 2.2h.86a1.17 1.17 0 0 1 1.15 1.17zm0 11.88A1.17 1.17 0 0 1 2.9 17.3h-.87a1.17 1.17 0 0 1-1.17-1.2v-.86a1.17 1.17 0 0 1 1.17-1.17h.86a1.17 1.17 0 0 1 1 .6 1.14 1.14 0 0 1 .15.56zm11.88-.86a1.14 1.14 0 0 1 .15-.56 1.17 1.17 0 0 1 1-.6h.86a1.17 1.17 0 0 1 1.17 1.16v.86a1.17 1.17 0 0 1-1.17 1.17h-.86a1.17 1.17 0 0 1-1.16-1.2zm0-5.94a1.14 1.14 0 0 1 .18-.6 1.16 1.16 0 0 1 1-.57h.85a1.17 1.17 0 0 1 1.17 1.17v.86a1.17 1.17 0 0 1-1.17 1.17h-.86a1.17 1.17 0 0 1-1-.6 1.14 1.14 0 0 1-.15-.57zM9.8 3.72H8.13V3.7l.42-.34a2.8 2.8 0 0 0 1.2-1.94 1.4 1.4 0 0 0-1.6-1.4 2.48 2.48 0 0 0-1.48.45l.3.76a1.63 1.63 0 0 1 .96-.38c.52 0 .74.3.74.66 0 .55-.5 1.05-1.47 1.93l-.57.52v.64H9.8zm2.1.93c1.15 0 1.7-.95 1.7-2.34 0-1.2-.46-2.3-1.67-2.3-1.16 0-1.7 1.05-1.7 2.35 0 1.27.5 2.3 1.67 2.3zM11.92.8c.42 0 .64.53.64 1.53 0 1.02-.22 1.53-.63 1.53s-.66-.5-.65-1.52c0-1.04.25-1.53.64-1.53z"/>
</svg>
