<svg xmlns="http://www.w3.org/2000/svg" viewBox="0 0 19.25 20.11"><title>50-40Ball_test</title><path d="M5.18 5.46V5.4a.9.9 0 0 0-.85-.3 1.47 1.47 0 0 0-.76.44.66.66 0 0 0-.14.15l-.3-.4.87-.9-.47-.4-1.25 1.23 1 1.34a2.62 2.62 0 0 1 .28-.33c.45-.45.78-.5 1-.26a.55.55 0 0 1-.1.8 1.7 1.7 0 0 1-.64.4l.38.5a1.9 1.9 0 0 0 .8-.5 1.23 1.23 0 0 0 .18-1.72zm-.43-2.78c-.6.6-.35 1.4.3 2s1.44.9 2 .32.4-1.34-.3-2-1.4-.92-2-.32zm1.95 2c-.2.2-.6.08-1.1-.44s-.66-.95-.45-1.14.6-.1 1.1.44.65.9.45 1.1zM3.72 8.2a2.8 2.8 0 0 1-1.43-.77 3.42 3.42 0 0 1 .34-4.8 3.44 3.44 0 0 1 4.8-.36 2.9 2.9 0 0 1 .82 2.14.43.43 0 0 0 .4.44.42.42 0 0 0 .43-.4A3.7 3.7 0 0 0 8 1.66 3.58 3.58 0 0 0 6.7.84a5.9 5.9 0 0 1 4.83 2.5.42.42 0 0 0 .7-.5 6.74 6.74 0 1 0-10 8.94.42.42 0 0 0 .27.1.34.34 0 0 0 .3-.13.42.42 0 0 0 0-.6 5.93 5.93 0 0 1-2-4.4s0-.1 0-.14A3.55 3.55 0 0 0 1.7 8a3.62 3.62 0 0 0 1.86 1h.08a.42.42 0 0 0 .08-.84zm13.35-.87a7.32 7.32 0 0 0-8.13-1.7 7.52 7.52 0 1 0 8.13 1.7zm-5.35-1.26a3.9 3.9 0 0 1 4.16 3.57 3.9 3.9 0 0 1-4.16 3.57 3.9 3.9 0 0 1-4.15-3.55 3.9 3.9 0 0 1 4.15-3.57zm4.73 11.27a6.7 6.7 0 0 1-10.76-1.8A6.6 6.6 0 0 1 7 7.9l.34-.3a4 4 0 0 0-.6 2 4.73 4.73 0 0 0 5 4.4 4.73 4.73 0 0 0 5-4.4 4 4 0 0 0-.6-2.05c.1.1.23.2.34.3a6.68 6.68 0 0 1 0 9.46zm-5.95-5.92h.82v-.86h.43v-.63h-.43V7.8h-1L8.92 10v.55h1.6v.86zm-.8-1.5l.48-.78c.12-.23.2-.44.33-.68 0 .23 0 .45 0 .68v.8h-.8zm3.4 1.56c.93 0 1.38-.77 1.38-1.9s-.37-1.84-1.34-1.85-1.38.83-1.38 1.88.42 1.9 1.35 1.9zm0-3.1c.35 0 .52.42.52 1.22s-.17 1.23-.5 1.23-.53-.4-.52-1.22.2-1.2.5-1.2zm3.9 3.8a.43.43 0 0 0-.42.42 4.9 4.9 0 0 1-4.9 4.9.42.42 0 0 0 0 .84 5.76 5.76 0 0 0 5.75-5.74.43.43 0 0 0-.43-.42z"/></svg>