<svg xmlns="http://www.w3.org/2000/svg" viewBox="0 0 20 17.20267">
  <path d="M11.7 3a1.28 1.28 0 0 0-.52-1.13A2.05 2.05 0 0 0 10 1.54a1.95 1.95 0 0 0-.3 0l.1-.68h1.74V0H9.06l-.3 2.36a3.9 3.9 0 0 1 .6-.05c.9 0 1.28.3 1.28.77 0 .48-.47.68-.9.68a2.58 2.58 0 0 1-1.02-.22l-.18.8a2.85 2.85 0 0 0 1.25.25 1.7 1.7 0 0 0 1.9-1.48V3zm3.64 1.26A2.03 2.03 0 0 0 17.1 5.3h.87a2.03 2.03 0 0 0 2.03-2v-.9a2.03 2.03 0 0 0-2.03-2h-.86a2.03 2.03 0 0 0-2 2v.13L9.98 8.3 4.92 2.6v-.18A2.03 2.03 0 0 0 2.9.4h-.87A2.03 2.03 0 0 0 0 2.4v.87a2.03 2.03 0 0 0 2.03 2h.86a2.03 2.03 0 0 0 1.76-1.05 2.1 2.1 0 0 0 .18-.43l4.2 4.7H4.9v-.16a2 2 0 0 0-.25-.98v2.8a2 2 0 0 0 .25-.8h4.35l-4.33 4.87a2 2 0 0 0-.26-.94 2.03 2.03 0 0 0-1.77-1.06H2A2.03 2.03 0 0 0 0 14.3v.87a2.03 2.03 0 0 0 2.03 2.03h.86a2.03 2.03 0 0 0 1.96-1.57l5.1-5.75 5.18 5.83a2.03 2.03 0 0 0 1.96 1.5h.87A2.03 2.03 0 0 0 20 15.18v-.86a2.03 2.03 0 0 0-2.03-2h-.86a2.03 2.03 0 0 0-1.75 1.04 2 2 0 0 0-.26.98v.02l-4.38-4.9h4.4a2.05 2.05 0 0 0 2 1.84H18a2.03 2.03 0 0 0 2-2.05v-.86a2.03 2.03 0 0 0-2.03-2.03h-.86a2.05 2.05 0 0 0-2 2.03v.2l-4.2-.02 4.25-4.77a2.1 2.1 0 0 0 .2.48zm.6-1.84a1.17 1.17 0 0 1 1.17-1.16H18a1.17 1.17 0 0 1 1.17 1.16v.87a1.17 1.17 0 0 1-1.17 1.14h-.86a1.17 1.17 0 0 1-1-.6 1.14 1.14 0 0 1-.16-.56zM4.06 3.3a1.14 1.14 0 0 1-.15.54 1.16 1.16 0 0 1-1 .6h-.86A1.17 1.17 0 0 1 .86 3.3v-.9a1.17 1.17 0 0 1 1.17-1.16h.86A1.17 1.17 0 0 1 4.04 2.4zm0 11.87a1.17 1.17 0 0 1-1.17 1.17H2a1.17 1.17 0 0 1-1.17-1.17v-.86a1.17 1.17 0 0 1 1.17-1.15h.86a1.17 1.17 0 0 1 1 .6 1.14 1.14 0 0 1 .16.57zm11.88-.86a1.14 1.14 0 0 1 .15-.54 1.17 1.17 0 0 1 1-.6h.86a1.17 1.17 0 0 1 1.17 1.16v.87a1.17 1.17 0 0 1-1.17 1.16h-.86a1.17 1.17 0 0 1-1.16-1.17zm0-5.92a1.14 1.14 0 0 1 .18-.6 1.16 1.16 0 0 1 1-.57h.85a1.17 1.17 0 0 1 1.17 1.18v.86a1.17 1.17 0 0 1-1.17 1.16h-.86a1.17 1.17 0 0 1-1-.6 1.14 1.14 0 0 1-.15-.57zm-13.9 2.88h.85a2.03 2.03 0 0 0 1.75-1.05V7.4A2.03 2.03 0 0 0 2.9 6.33h-.87A2.03 2.03 0 0 0 0 8.37v.86a2.03 2.03 0 0 0 2.03 2.03zM.85 8.36A1.17 1.17 0 0 1 2.03 7.2h.86a1.17 1.17 0 0 1 1 .6 1.14 1.14 0 0 1 .15.57v.86a1.14 1.14 0 0 1-.15.56 1.17 1.17 0 0 1-1 .6h-.87A1.17 1.17 0 0 1 .86 9.2z"/>
</svg>
