<svg xmlns="http://www.w3.org/2000/svg" viewBox="0 0 18.904 20.75399">
  <path d="M15.7 18.78a.36.36 0 0 1-.35.35H12.4v-.02l-.28.04H3.94a.36.36 0 0 1-.34-.22.34.34 0 0 1-.02-.12V1.12a.36.36 0 0 1 .36-.35h11.4a.36.36 0 0 1 .35.2.35.35 0 0 1 0 .15V4h.77V1.12a1.1 1.1 0 0 0-.08-.44A1.13 1.13 0 0 0 15.34 0H3.95A1.12 1.12 0 0 0 2.8 1.12v17.66a1.1 1.1 0 0 0 .1.44 1.12 1.12 0 0 0 .97.67l-1.03.1a.36.36 0 0 1-.4-.34L.78 2.1a.35.35 0 0 1 .08-.27.37.37 0 0 1 .26-.13l.86-.1-.1-.77-.83.1a1.12 1.12 0 0 0-.77.42 1.1 1.1 0 0 0-.26.82l1.7 17.57a1.13 1.13 0 0 0 1.12 1h.1l9.23-.84h3.2a1.12 1.12 0 0 0 1.13-1.12v-2.86h-.77zM10.36 5.52a.73.73 0 0 0-.34.07.65.65 0 0 0-.23.16L7.65 8.64a5.95 5.95 0 0 0-.77 1.33 3.2 3.2 0 0 0-.27 1.17 3.4 3.4 0 0 0 .2 1.2 2.52 2.52 0 0 0 .56.9 2.48 2.48 0 0 0 .87.57 3.1 3.1 0 0 0 1.14.2 3.16 3.16 0 0 0 1.18-.2 2.72 2.72 0 0 0 .9-.57 2.64 2.64 0 0 0 .6-.87 2.74 2.74 0 0 0 .2-1.08 2.7 2.7 0 0 0-.2-1.06 2.27 2.27 0 0 0-1.33-1.27 2.73 2.73 0 0 0-.96-.16 2.6 2.6 0 0 0-.8.1 2.47 2.47 0 0 0-.65.32l2.92-3.68zM8.7 9.7a1.94 1.94 0 0 1 .78-.14 2.05 2.05 0 0 1 .72.12 1.54 1.54 0 0 1 .92.92 2.03 2.03 0 0 1 .13.74 1.9 1.9 0 0 1-.13.72 1.66 1.66 0 0 1-.37.56 1.72 1.72 0 0 1-.6.38 2.05 2.05 0 0 1-.76.13 1.96 1.96 0 0 1-.76-.13 1.54 1.54 0 0 1-.55-.37 1.6 1.6 0 0 1-.35-.56 2.22 2.22 0 0 1-.12-.74 1.8 1.8 0 0 1 .13-.68 1.68 1.68 0 0 1 .36-.56 1.75 1.75 0 0 1 .58-.4zm7.82-.12v-2.5h-.86v2.5H13.3v.8h2.36v2.5h.86v-2.5h2.38v-.8h-2.38z"/>
</svg>
