<svg xmlns="http://www.w3.org/2000/svg" viewBox="0 0 20 18.1331">
  <path d="M17.67.2l-.26.16a7.04 7.04 0 0 1-5.2.43C10.5.06 6.6-.7 3.5 1.1V.8H0v7.8h3.48v-.43a2.48 2.48 0 0 1 2-1.9 6.8 6.8 0 0 1 2.38.26c.46.1.94.2 1.4.26a10.93 10.93 0 0 0-3.73 4.26c-1.04 2-1.2 5-1.2 6.63v.42h9.53v-.43a32.12 32.12 0 0 1 .6-5.5 20.03 20.03 0 0 1 5.23-9.84l.3-.34zM13.62 12a32.93 32.93 0 0 0-.62 5.26H5.2a14.55 14.55 0 0 1 1.1-5.78 10.85 10.85 0 0 1 5.02-4.92l.23-.13-.43-.76a4.27 4.27 0 0 1-3.07 0 7.53 7.53 0 0 0-2.7-.27 3.44 3.44 0 0 0-2.68 2.33H.87V1.68H2.6v1.1l.7-.52C6.2.13 10.16.9 11.86 1.6a7.98 7.98 0 0 0 5.74-.35l1.13.9a20.64 20.64 0 0 0-5.1 9.84z"/>
</svg>
