<svg xmlns="http://www.w3.org/2000/svg" viewBox="0 0 19.3 20.17"><title>80-75Ball</title><path d="M3.67 7.24c.3.3.9.37 1.48-.2s.6-1.16.18-1.57a.85.85 0 0 0-1-.15.8.8 0 0 0-.17-.84c-.27-.27-.8-.36-1.34.17A1 1 0 0 0 2.62 6a.77.77 0 0 0 .84.17.85.85 0 0 0 .2 1.07zM4.1 6a.57.57 0 0 1 .73 0 .4.4 0 0 1 0 .57.44.44 0 0 1-.62 0A.48.48 0 0 1 4.1 6zm-.96-.45a.37.37 0 0 1 0-.52.44.44 0 0 1 .53-.03.44.44 0 0 1 .06.52c-.2.16-.43.2-.6.05zM7.1 5.08c.58-.58.38-1.35-.32-2.06s-1.4-.93-2-.32-.35 1.4.3 2.06 1.43.9 2.02.32zm-2-2c.22-.2.6-.05 1.1.45s.66.9.46 1.1-.58.08-1.1-.44-.56-.9-.4-1.1zM3.73 8.23a2.8 2.8 0 0 1-1.44-.76 3.43 3.43 0 0 1 .36-4.8 3.43 3.43 0 0 1 4.8-.38 2.92 2.92 0 0 1 .83 2.14.43.43 0 0 0 .4.43.43.43 0 0 0 .43-.4 3.74 3.74 0 0 0-1.07-2.78A3.56 3.56 0 0 0 6.7.84a6 6 0 0 1 4.85 2.5.42.42 0 0 0 .58.1.42.42 0 0 0 .1-.6 6.76 6.76 0 1 0-10 9 .4.4 0 0 0 .28.12.38.38 0 0 0 .3-.14.42.42 0 0 0 0-.6 5.92 5.92 0 0 1-2-4.4s0-.07 0-.1a3.56 3.56 0 0 0 .86 1.4 3.64 3.64 0 0 0 1.87 1h.08a.42.42 0 0 0 .1-.85zM17.1 7.3a7.54 7.54 0 1 0 0 10.68 7.54 7.54 0 0 0 0-10.7zm-5.34-1.25c2.3 0 4.17 1.6 4.17 3.58s-1.87 3.58-4.17 3.58S7.6 11.6 7.6 9.64s1.86-3.58 4.16-3.58zm4.74 11.3A6.7 6.7 0 0 1 7 7.88c.1-.1.23-.2.35-.3a4 4 0 0 0-.6 2.06 4.75 4.75 0 0 0 5 4.42 4.75 4.75 0 0 0 5-4.42 4 4 0 0 0-.6-2.06l.33.3a6.86 6.86 0 0 1 .02 9.48zM10.8 8.5l-1.48 2.9h.9l1.5-3.08V7.8H9.14v.68h1.66zM14.48 10.28v-.08a1 1 0 0 0-.48-.9 2 2 0 0 0-1.15-.3l.08-.55h1.4V7.8h-2l-.23 1.9a3.5 3.5 0 0 1 .5 0c.72 0 1 .22 1 .6s-.38.54-.74.54a2 2 0 0 1-.82-.18l-.15.63a2.37 2.37 0 0 0 1 .2 1.38 1.38 0 0 0 1.58-1.22zM17.08 12.2a.43.43 0 0 0-.42.4 4.9 4.9 0 0 1-4.9 4.92.42.42 0 0 0 0 .85 5.75 5.75 0 0 0 5.75-5.75.43.43 0 0 0-.42-.43z"/></svg>