<svg xmlns="http://www.w3.org/2000/svg" viewBox="0 0 20.02 20.02">
  <path d="M3.95 9.37a1.47 1.47 0 0 0 2.07.08l.08-.08a1.3 1.3 0 0 0 .44-.94h.02a1.53 1.53 0 0 1 .2 1.06 1.98 1.98 0 0 1-.47.87 2.85 2.85 0 0 1-.37.35l.64.64a4.27 4.27 0 0 0 .37-.37 2.9 2.9 0 0 0 .83-1.8A2.9 2.9 0 0 0 6.8 7 1.86 1.86 0 0 0 4 6.84a1.76 1.76 0 0 0-.1 2.5l.05.04zm.6-1.9l.02-.03c.37-.37.87-.14 1.23.22a.52.52 0 0 1 .16.25.72.72 0 0 1-1.26.6.74.74 0 0 1-.16-1zm5.95-.02c.9-.88.58-2.04-.48-3.1-.95-.95-2.13-1.4-3.04-.5-.9.9-.53 2.1.47 3.1.98.98 2.17 1.4 3.06.5zM7.58 4.48c.32-.32.9-.08 1.65.68.78.8 1 1.35.7 1.66s-.9.12-1.67-.67c-.8-.8-.98-1.37-.68-1.67zM10 0a10 10 0 1 0 10.02 10 10 10 0 0 0-10-10zM3.7 3.67a6.13 6.13 0 0 1 4.28-1.85 4.57 4.57 0 0 1 3.26 1.3c1.92 1.9 1.67 5.3-.56 7.53s-5.62 2.48-7.54.56-1.67-5.3.56-7.52zm7.75 15.37A9.08 9.08 0 0 1 1 8.62a5.3 5.3 0 0 0 1.5 3.2 5.4 5.4 0 0 0 3.87 1.56 6.96 6.96 0 0 0 4.9-2.1c2.57-2.58 2.82-6.52.56-8.78A5.3 5.3 0 0 0 8.6 1a9.13 9.13 0 1 1 2.83 18.04zm5.72-9.48a.44.44 0 0 0-.44.44A6.72 6.72 0 0 1 10 16.72a.44.44 0 1 0 0 .88 7.62 7.62 0 0 0 7.6-7.6.44.44 0 0 0-.43-.44z"/>
</svg>
