<svg xmlns="http://www.w3.org/2000/svg" viewBox="0 0 19.54302 19.948">
  <path d="M6.02 3.6c0-.3-.3-.5-.82-.5s-.82.2-.82.5v2.53a.82.82 0 0 0 .82.82h2.9v-.63H5.2a.2.2 0 0 1-.2-.2v-2.4a1 1 0 0 1 .4 0v2.2h2.7V5.3H6zm5.34 2.08a5.68 5.68 0 1 0-5.68 5.68 5.68 5.68 0 0 0 5.68-5.68zm-5.68 5.08a5.08 5.08 0 1 1 5.08-5.08 5.08 5.08 0 0 1-5.08 5.08zm13.84-5.33h-6.2v.63h5.6v13.26H6.6v-5.97H6v6.6h13.52V5.43h-.02zM9.38 13.08a3.52 3.52 0 1 0 1.03-2.5 3.52 3.52 0 0 0-1 2.5zm.87-1.52l.1.78-.5.52a2.98 2.98 0 0 1 .4-1.3zm.05 3.1a3.17 3.17 0 0 1-.4-1.14l.8-.83.82.17.38 1.18-.53.8zm.44.57l.6.1.25.5a2.98 2.98 0 0 1-.87-.6zm2.8.83a2.82 2.82 0 0 1-.64.07 2.96 2.96 0 0 1-.66-.07l-.5-.92.53-.8h1.24l.55.8zM12 12.76l.93-.67.94.66-.36 1.1h-1.13zm2.23 3.08l.28-.5.6-.1a3.13 3.13 0 0 1-.86.6zm1.35-4.28a3.02 3.02 0 0 1 .4 1.3l-.5-.52zm.37 1.97a2.96 2.96 0 0 1-.42 1.15l-1.07.2-.52-.82.4-1.18.82-.2zm-.86-2.62a.9.9 0 0 0 .1.1L15 12.25l-.84.2-1.02-.76v-.77l1.15-.54a2.98 2.98 0 0 1 .77.56zm-2.17-.86a2.87 2.87 0 0 1 .78.1l-.77.37-.78-.36a2.87 2.87 0 0 1 .78-.1zm-2.16.9a2.98 2.98 0 0 1 .77-.57l1.16.55v.78l-1.02.74-.83-.18-.15-1.22a.9.9 0 0 1 .1-.1z"/>
</svg>
