<svg xmlns="http://www.w3.org/2000/svg" viewBox="0 0 20.17 20.18"><title>All</title><path d="M18.83 5a10.1 10.1 0 1 0-3.7 13.78A10.12 10.12 0 0 0 18.83 5zM10.1 19.34a9.25 9.25 0 1 1 9.23-9.25 9.25 9.25 0 0 1-9.24 9.24zM10.1 2.5a7.6 7.6 0 1 0 0 15.2 7.6 7.6 0 0 0 0-15.2zm0 14.22a6.63 6.63 0 1 1 0-13.25 6.62 6.62 0 0 1 0 13.25zM7.53 8.5l-1.26 3.2h.47a.2.2 0 0 0 .13 0 .2.2 0 0 0 .07-.08l.24-.65H8.5l.24.65a.22.22 0 0 0 .07.08.2.2 0 0 0 .14 0h.46L8.14 8.5zm-.2 2l.4-1.07.05-.17.05-.26.06.2.1.2.4 1.08zM10.35 8.5h-.6v3.2h1.87v-.5h-1.3l.03-2.7zM12.64 8.5h-.6v3.2h1.87v-.5h-1.27V8.5z"/></svg>