<svg xmlns="http://www.w3.org/2000/svg" viewBox="0 0 19.82106 19.82">
  <path d="M13.12 6.7a.33.33 0 0 0-.24-.1.35.35 0 0 0-.24.1l-1 1-.98-.96a.3.3 0 0 0-.24-.1.35.35 0 0 0-.24.1.37.37 0 0 0-.1.24.35.35 0 0 0 .1.24l.97.97L9.9 9.4l-.96-.97a.33.33 0 0 0-.24-.1.35.35 0 0 0-.24.1.37.37 0 0 0-.1.24.35.35 0 0 0 .1.23l.97.97L8.2 11.1l-.95-.98a.3.3 0 0 0-.24-.1.35.35 0 0 0-.23.1.36.36 0 0 0 0 .5l.95.97-1 1a.33.33 0 0 0-.1.24.35.35 0 0 0 .1.24.3.3 0 0 0 .24.1.35.35 0 0 0 .24-.1l1-1 .98.97a.33.33 0 0 0 .24.1.35.35 0 0 0 .24-.1.3.3 0 0 0 .1-.24.35.35 0 0 0-.1-.23l-.97-.98 1.2-1.2.98.97a.33.33 0 0 0 .24.1.35.35 0 0 0 .24-.1.37.37 0 0 0 .1-.24.35.35 0 0 0-.1-.24l-.97-1 1.2-1.2.97.96a.33.33 0 0 0 .24.1.35.35 0 0 0 .25-.1.3.3 0 0 0 .1-.24.35.35 0 0 0-.1-.24l-.97-.98 1-1a.36.36 0 0 0 .02-.52zm6.58-4.23A2.9 2.9 0 0 0 17.36.1a15.4 15.4 0 0 0-1.92-.1C12.8 0 7.84.54 4.2 4.2-.95 9.32.05 17.02.1 17.34a2.9 2.9 0 0 0 2.37 2.36 14.68 14.68 0 0 0 1.92.12c2.6 0 7.57-.55 11.22-4.2C20.76 10.5 19.76 2.8 19.7 2.48zM8.4 18.5l-.1-.02-5.8-5.78c-.05.37-.1.67-.1.88a.44.44 0 0 1-.05.2l4.93 4.92-.37.05a19.3 19.3 0 0 1-2.62.18 13.8 13.8 0 0 1-1.7-.1 2.06 2.06 0 0 1-1.62-1.6c0-.07-1-7.57 3.86-12.43A14.6 14.6 0 0 1 15.14.87a11.5 11.5 0 0 1 1.6.1c.76.1 2.02.84 2.13 1.6a17.95 17.95 0 0 1-.1 4.35l-.05.37-4.84-4.9a10.62 10.62 0 0 0-1.15.1l5.8 5.85v.06a13.32 13.32 0 0 1-3.5 6.6 13.3 13.3 0 0 1-6.6 3.48z"/>
</svg>
