<svg xmlns="http://www.w3.org/2000/svg" viewBox="0 0 14.1451 20.171">
  <path d="M1.26 5.84h.77V7.1h-.77zm0-2.92h.77v1.25h-.77zm0-2.92h.77v1.25h-.77zm10.86 5.84h.76V7.1h-.77zm0-2.92h.76v1.25h-.77zm0-2.92h.76v1.25h-.77zM7.07 7.96c-.96 0-1.22 1.97-1.22 3.14 0 2.38.86 2.64 1.22 2.64s1.22-.26 1.22-2.64c0-1.17-.28-3.14-1.24-3.14zm0 5c-.07 0-.45-.33-.45-1.86a4.5 4.5 0 0 1 .45-2.33 4.5 4.5 0 0 1 .45 2.33c0 1.53-.38 1.87-.45 1.87zm5.66-4.92l-.3-.22-.23.3a6.68 6.68 0 0 0-1.32 3.18h-.92v-.03A27.3 27.3 0 0 0 8.93 5.7c-1.1-4-1.6-4-1.86-4s-.76 0-1.85 4a27.3 27.3 0 0 0-1.04 5.57v.03h-.9a6.68 6.68 0 0 0-1.33-3.2l-.24-.28-.3.22C1.38 8.1 0 9.14 0 12.52a5.65 5.65 0 0 0 1.34 4l.28.37.3-.38a6.4 6.4 0 0 0 1.32-2.37h1.9a6.66 6.66 0 0 0 .45 1.07l.1.17h2.73l.12-.18A6.66 6.66 0 0 0 9 14.15h1.9a6.4 6.4 0 0 0 1.3 2.37l.3.36.3-.4a5.65 5.65 0 0 0 1.33-3.98c0-3.37-1.35-4.43-1.4-4.48zm-.25 7.6a4.18 4.18 0 0 1-.85-1.87v-.38H8.47l-.1.24c-.1.3-.25.72-.37.98H6.14c-.12-.26-.27-.7-.37-.98l-.1-.26H2.52v.37a4.18 4.18 0 0 1-.84 1.87A4.75 4.75 0 0 1 .8 12.5a6.22 6.22 0 0 1 .83-3.55 5.4 5.4 0 0 1 .9 2.72v.37h2.43v-.8a31 31 0 0 1 2.12-8.62 31 31 0 0 1 2.12 8.62v.8h2.43v-.38a5.4 5.4 0 0 1 .9-2.73 6.22 6.22 0 0 1 .84 3.55 4.75 4.75 0 0 1-.9 3.12zm-5.4 2.6l-.9-2.1-.73.3 1.62 3.73 1.6-3.74-.7-.3-.9 2.1z"/>
</svg>
