<svg xmlns="http://www.w3.org/2000/svg" viewBox="0 0 20.01746 19.94985">
  <path d="M14.77 6.45a.37.37 0 0 0-.08.5 7.73 7.73 0 1 1-1.7-1.7.36.36 0 0 0 .4-.58 8.45 8.45 0 1 0 1.87 1.86.37.37 0 0 0-.5-.08zm-2.85.3a.36.36 0 0 0-.1-.5 6.26 6.26 0 0 0-7.77.85 6.22 6.22 0 0 0 8.8 8.8 6.26 6.26 0 0 0 .84-7.76.36.36 0 0 0-.63.4 5.5 5.5 0 0 1-8.52 6.85 5.5 5.5 0 0 1 0-7.8 5.52 5.52 0 0 1 6.86-.74.36.36 0 0 0 .5-.1zm-1.62 1.6a.37.37 0 0 0-.17-.48 4 4 0 1 0 1.95 1.95.36.36 0 1 0-.66.3 3.28 3.28 0 1 1-1.6-1.6.37.37 0 0 0 .5-.17zM8.14 10.5a.36.36 0 1 0-.2-.7 1.74 1.74 0 0 0-.75.44 1.78 1.78 0 0 0 2.5 2.52 1.7 1.7 0 0 0 .44-.74.36.36 0 0 0-.7-.2 1.1 1.1 0 0 1-.25.43 1.06 1.06 0 0 1-1.5-1.5 1.03 1.03 0 0 1 .43-.26zM20 3.34a.37.37 0 0 0-.23-.26L18 2.52l.92-.93a.36.36 0 0 0-.5-.53l-.93.9-.56-1.73A.37.37 0 0 0 16.7 0a.36.36 0 0 0-.35.1l-2.38 2.4a.35.35 0 0 0-.1.35l.65 2.04.02.02-6.24 6.25a.36.36 0 1 0 .52.5l6.22-6.2a.36.36 0 0 0 .1.03l2.03.64a.43.43 0 0 0 .1.02.38.38 0 0 0 .27-.1l2.38-2.4a.36.36 0 0 0 .1-.32zm-5.37-.5l1.8-1.8.47 1.47a.08.08 0 0 0 .02.06l-1.8 1.8zm2.54 2.55l-1.57-.5 1.82-1.83a.36.36 0 0 0 .1.04l1.46.47z"/>
</svg>
