<svg xmlns="http://www.w3.org/2000/svg" viewBox="0 0 16.19016 20.01">
  <path d="M16.16 4.22a1.37 1.37 0 0 0-.66-.9 1.32 1.32 0 0 0-1.02-.2c-.7.16-1.16.92-1.56 1.6-.2.32-.52.86-.66.9-.36-.1-.8-.25-1.26-.4-.28-.1-.57-.2-.86-.28a2.55 2.55 0 1 0-2.47-.4H7.6a17.02 17.02 0 0 0-2.2.5c-.15.05-.3.1-.45.13-.2.06-.4.1-.58.13-.7.14-1.52.3-1.65 1.4l-.1.64c-.2 1.12-.48 2.66.22 3.4a1.35 1.35 0 0 0 1.23.35c1-.16 1.12-1.3 1.2-2a2 2 0 0 1 .02-.3v-.3c0-.1.03-.32.07-.35l.04-.02.4-.1.4-.1-1.94 6.87c-.34-.1-.73-.2-1.08-.27l-.38-.08-.3-.07a2 2 0 0 0-2.08.27A1.47 1.47 0 0 0 0 15.72v.05l.04.3v.06a1.5 1.5 0 0 0 .7.9 8.16 8.16 0 0 0 1.67.53c.16.04.3.07.37.1l.7.2c1.06.38 2.67.93 3.2-.62l1.27-3.3 2.34.95a10.72 10.72 0 0 1-.25 1.52c-.3 1.42-.45 2.38-.12 2.9a1.56 1.56 0 0 0 1.3.68h.07l.3-.03h.05a1.5 1.5 0 0 0 .8-.52c.42-.53 1-4.4 1-4.45a3.06 3.06 0 0 1 .06-.32c.12-.7.27-1.6-.62-2.14l-.06-.03-3.54-1.34c.1-.35.3-.76.44-1.13l.23-.56c.04-.08.08-.2.12-.34A4.56 4.56 0 0 1 10.48 8a10.1 10.1 0 0 1 .98.45c1.04.52 2.02 1 3.15-.8.1-.17.25-.36.4-.57.6-.87 1.36-1.94 1.17-2.86zM9.28.75a1.8 1.8 0 1 1-1.8 1.8A1.8 1.8 0 0 1 9.3.75zm5.1 5.9c-.16.2-.3.4-.4.58-.77 1.23-1.13 1.06-2.18.53a9.6 9.6 0 0 0-1.14-.5.56.56 0 0 0-.47.02c-.43.2-.66.85-.9 1.6l-.1.3-.2.54a11.47 11.47 0 0 0-.6 1.56.4.4 0 0 0 .24.44l3.83 1.47c.38.23.37.6.24 1.34 0 .12-.03.23-.04.35a26.83 26.83 0 0 1-.86 4.06.72.72 0 0 1-.36.25l-.25.04a.8.8 0 0 1-.67-.35 5.95 5.95 0 0 1 .23-2.34 7.06 7.06 0 0 0 .25-2 .38.38 0 0 0-.22-.3L7.86 13.1a.32.32 0 0 0-.14-.03.4.4 0 0 0-.15.03.4.4 0 0 0-.2.2l-1.4 3.67c-.26.73-.88.65-2.27.17-.25-.1-.5-.17-.73-.24l-.37-.1a9.2 9.2 0 0 1-1.48-.45.73.73 0 0 1-.33-.42l-.05-.25a.72.72 0 0 1 .2-.5c.3-.33.72-.25 1.34-.08l.3.08.4.1a11.82 11.82 0 0 1 1.35.34.4.4 0 0 0 .3-.02.4.4 0 0 0 .2-.23l2.2-7.77A.38.38 0 0 0 7 7.27a.4.4 0 0 0-.3-.15 5.38 5.38 0 0 0-1.1.2 2.84 2.84 0 0 0-.35.1c-.63.13-.67.7-.7 1.06v.25l-.04.3c-.05.66-.14 1.26-.52 1.3-.4.07-.54-.08-.58-.12-.44-.43-.18-1.86-.03-2.72l.1-.7c.06-.5.3-.6 1.04-.73.2-.04.44-.08.66-.14l.46-.12a15.45 15.45 0 0 1 2.1-.5 8.5 8.5 0 0 1 3.07.65c.47.16.92.3 1.3.4.65.17 1.06-.5 1.5-1.22.3-.5.7-1.16 1.1-1.25a.55.55 0 0 1 .42.1.62.62 0 0 1 .33.43c.12.6-.56 1.56-1.06 2.27z"/>
</svg>
