<svg xmlns="http://www.w3.org/2000/svg" viewBox="0 0 19.97 20.02">
  <path d="M19.96 9.92v-7.2a.33.33 0 0 0-.36-.3.32.32 0 0 0-.36.3v6.85H.7V2.7a.33.33 0 0 0-.35-.27.33.33 0 0 0-.35.28v16.6a.36.36 0 0 0 .72 0v-8.9h18.53v8.9a.36.36 0 0 0 .72 0V9.93zM12.04 3.6h-.5v-.5a.3.3 0 0 0-.1-.22.3.3 0 0 0-.22-.1.27.27 0 0 0-.2.1.3.3 0 0 0-.1.22v.5h-.5v-.5a.3.3 0 0 0-.1-.22.3.3 0 0 0-.22-.1.32.32 0 0 0-.3.3v.5h-.52v-.5a.3.3 0 0 0-.1-.2.3.3 0 0 0-.2-.1.32.32 0 0 0-.32.3v.5h-.52a.27.27 0 0 0-.2.08.52.52 0 0 0-.08.22.3.3 0 0 0 .1.22.3.3 0 0 0 .2.1h.52v.48a.3.3 0 0 0 .1.22.3.3 0 0 0 .2.1.3.3 0 0 0 .23-.1.3.3 0 0 0 .1-.22v-.5h.5v.5a.3.3 0 0 0 .1.22.3.3 0 0 0 .23.1.32.32 0 0 0 .3-.3v-.5h.52v.5a.3.3 0 0 0 .1.2.3.3 0 0 0 .2.1.27.27 0 0 0 .22-.1.3.3 0 0 0 .1-.2v-.5h.5a.32.32 0 0 0 .32-.3.3.3 0 0 0-.1-.22.45.45 0 0 0-.25-.1zm-7.1 1.8a7.5 7.5 0 0 0 5.15 2.37 7.88 7.88 0 0 0 5.75-3 1.5 1.5 0 0 0 0-1.72 7.77 7.77 0 0 0-.6-.68A7.53 7.53 0 0 0 10.1 0a7.85 7.85 0 0 0-5.74 3 1.47 1.47 0 0 0 0 1.72 7.77 7.77 0 0 0 .6.68zm9-2.77c-.1-.1-.24-.22-.43-.36l-.2-.15-.02 4a6.07 6.07 0 0 1-3.18.96 5.95 5.95 0 0 1-3.2-1l.03-4-.2.15c-.17.1-.3.2-.38.28a.38.38 0 0 0-.06.07l-.08.04v3a7.76 7.76 0 0 1-.8-.7c-.3-.3-.48-.53-.53-.58a.82.82 0 0 1 0-.87A7.32 7.32 0 0 1 10.1.7a6.6 6.6 0 0 1 4.55 2.08 5.3 5.3 0 0 1 .48.54c.18.25.33.83.16 1.05a7.72 7.72 0 0 1-1.35 1.28L14 2.67zm-5.77 13.8h.5v.5a.3.3 0 0 0 .1.2.3.3 0 0 0 .22.1.27.27 0 0 0 .2-.1.3.3 0 0 0 .1-.2v-.5h.5v.5a.3.3 0 0 0 .1.2.3.3 0 0 0 .2.1.32.32 0 0 0 .3-.3v-.5h.5v.5a.3.3 0 0 0 .1.22.3.3 0 0 0 .23.1.32.32 0 0 0 .3-.3v-.5h.53a.27.27 0 0 0 .2-.1.3.3 0 0 0 .1-.2.3.3 0 0 0-.1-.23.3.3 0 0 0-.2-.1h-.52v-.48a.3.3 0 0 0-.1-.22.3.3 0 0 0-.2-.1.3.3 0 0 0-.23.1.3.3 0 0 0-.1.22v.5h-.5v-.5a.3.3 0 0 0-.1-.22.3.3 0 0 0-.2-.1.32.32 0 0 0-.3.3v.5h-.5v-.5a.3.3 0 0 0-.1-.2.3.3 0 0 0-.23-.1.27.27 0 0 0-.2.1.3.3 0 0 0-.1.2v.5h-.52a.32.32 0 0 0-.3.3.3.3 0 0 0 .08.22.33.33 0 0 0 .23.1zm7.1-1.8a7.5 7.5 0 0 0-5.15-2.38h-.03a7.88 7.88 0 0 0-5.76 3 1.5 1.5 0 0 0 0 1.72 6.33 6.33 0 0 0 .6.68 7.53 7.53 0 0 0 5.16 2.37 7.85 7.85 0 0 0 5.75-3 1.5 1.5 0 0 0 0-1.72 7.77 7.77 0 0 0-.6-.68zm-9 2.76l.43.34.2.15.04-4a6.07 6.07 0 0 1 3.18-.97 5.95 5.95 0 0 1 3.18 1l-.02 4 .2-.14c.17-.1.3-.2.38-.3a.38.38 0 0 0 .06-.04l.06-.04v-3a7.76 7.76 0 0 1 .8.72 5.28 5.28 0 0 1 .52.57.82.82 0 0 1 0 .9 7.32 7.32 0 0 1-5.2 2.7 6.6 6.6 0 0 1-4.55-2.06 5.3 5.3 0 0 1-.48-.54c-.18-.24-.33-.82-.16-1.04a7.72 7.72 0 0 1 1.35-1.28l-.02 2.96z"/>
</svg>
