<svg xmlns="http://www.w3.org/2000/svg" viewBox="0 0 21.58557 21.59863">
  <path d="M20.15 5.4a10.8 10.8 0 1 0-3.95 14.75A10.83 10.83 0 0 0 20.15 5.4zM10.8 20.7a9.9 9.9 0 1 1 9.9-9.9 9.9 9.9 0 0 1-9.9 9.9zm0-18.03a8.13 8.13 0 0 0 0 16.26 8.13 8.13 0 0 0 0-16.26zm0 15.22a7.1 7.1 0 0 1 0-14.2 7.1 7.1 0 1 1 .02 14.2h-.02zM7.6 8.54l-1.76 4.5h.66a.28.28 0 0 0 .17-.07.3.3 0 0 0 .1-.13l.33-.92h1.86l.33.92a.3.3 0 0 0 .1.13.28.28 0 0 0 .16.06h.65l-1.75-4.5zm-.3 2.8l.56-1.5c.03-.06.06-.14.08-.23l.1-.3q.03.16.08.3l.08.23.54 1.5zm3.03-.5h1.6v.64h-1.6zm2.1-1.62h2.25l-2.3 3.25a.5.5 0 0 0-.06.1.33.33 0 0 0-.03.13v.35h3.4v-.65h-2.35l2.32-3.28a.45.45 0 0 0 .08-.26v-.3h-3.32z"/>
</svg>
