<svg xmlns="http://www.w3.org/2000/svg" viewBox="0 0 16.67806 20.10042">
  <path d="M15.97 6.42H6.7a.7.7 0 0 0-.7.7V19.4a.7.7 0 0 0 .7.7h9.27a.7.7 0 0 0 .7-.7V7.12a.7.7 0 0 0-.7-.7zm-.14 12.83h-9V7.27h9zM.85.85h9v4.7h.84V.85A.85.85 0 0 0 9.82 0h-9A.85.85 0 0 0 0 .85v12.4a.85.85 0 0 0 .85.86h4.28v-.83H.85zm11.65 15l-.1-.04a4.58 4.58 0 0 0-1.07-.15 4.58 4.58 0 0 0-1.06.17l-.1.04a.43.43 0 0 0 .2.83l.1-.04a4 4 0 0 1 .86-.15 4 4 0 0 1 .85.15l.13.03a.43.43 0 0 0 .2-.83zm-2.94-.68a1.98 1.98 0 0 0 .83.15 2.23 2.23 0 0 0 .92-.2 2.35 2.35 0 0 0 1.77.05 1.74 1.74 0 0 0 1-1.66c0-.87-.8-1.5-1.5-2.1-.38-.27-.8-.6-.87-.83a.43.43 0 0 0-.8 0c-.08.22-.5.56-.87.85-.7.58-1.5 1.22-1.5 2.1a1.74 1.74 0 0 0 1 1.67zM9.4 13.5c0-.47.64-.98 1.2-1.42a7.77 7.77 0 0 0 .73-.64 7.78 7.78 0 0 0 .74.64c.56.44 1.2.95 1.2 1.43a.9.9 0 0 1-.54.9 1.44 1.44 0 0 1-1.1-.1.43.43 0 0 0-.58 0 1.44 1.44 0 0 1-1.1.1.9.9 0 0 1-.54-.9zM3 9.9V4.2A1.72 1.72 0 0 0 4.2 3h2.25A1.72 1.72 0 0 0 7.7 4.2v1.34h.85V3.42h-.43a.86.86 0 0 1-.85-.86v-.42H3.42v.42a.86.86 0 0 1-.86.86h-.42v7.27h.42a.86.86 0 0 1 .86.84v.42h1.7v-.85h-.9A1.72 1.72 0 0 0 3 9.9zM1.7 1.7h.86v.86H1.7zm0 9.85h.86v.85H1.7zM8.13 1.7h.85v.86h-.85z"/>
</svg>
