<svg xmlns="http://www.w3.org/2000/svg" viewBox="0 0 15.85278 20.00534">
  <path d="M15.83 18.22l-.55-1.46-2.4-6.35c-.36-.9-.7-1.82-1.06-2.75V5.68a1.43 1.43 0 0 0-.1-.65V5a.4.4 0 0 0 .15-.32 5.25 5.25 0 0 0-1.1-3.57 3.34 3.34 0 0 0-1.9-1 4.75 4.75 0 0 0-2.6.2 3.4 3.4 0 0 0-1.9 1.96 6.65 6.65 0 0 0-.4 2.42.4.4 0 0 0 .17.34l-.05.13a1.87 1.87 0 0 0-.07.58v1.95a.14.14 0 0 0-.02.06L3.3 9.6.9 15.96.1 18.03l-.07.18a.97.97 0 0 0 .07.6 1.67 1.67 0 0 0 .7.96 2.08 2.08 0 0 0 1.46.2 1.45 1.45 0 0 0 .76-.38 1.94 1.94 0 0 0 2.43 0A1.9 1.9 0 0 0 6.8 20a1.7 1.7 0 0 0 1.12-.48.57.57 0 0 0 .08.07 1.98 1.98 0 0 0 2.42-.04 1.94 1.94 0 0 0 2.43 0 1.94 1.94 0 0 0 1.94.3 1.52 1.52 0 0 0 .85-.82 1.33 1.33 0 0 0 .17-.83zM4.9 3.82l.02-.17c0-.07.02-.13.03-.2l.1-.45a2.98 2.98 0 0 1 .8-1.44L6 1.44l.04-.05a.88.88 0 0 1 .1-.08l.2-.12a.54.54 0 0 1 .12-.04l.06-.03h.02A3.44 3.44 0 0 1 7.64.9a3.36 3.36 0 0 1 2.1.46.27.27 0 0 1 .07.05l.07.06.2.18.16.2h.02a.83.83 0 0 1 .08.13 3.83 3.83 0 0 1 .25.44.5.5 0 0 1 .02.08.5.5 0 0 0 .04.1 2.25 2.25 0 0 1 .08.23 3.45 3.45 0 0 1 .12.47l.05.24a.3.3 0 0 1 .02.1.1.1 0 0 0 0 .07 6.98 6.98 0 0 1 .06.8.76.76 0 0 0-.16-.02H5a.76.76 0 0 0-.14 0c0-.22.02-.45.04-.67zm-.86 3.83c0 .07-.03.08 0 0zm10.88 10.9l-.04.1a.64.64 0 0 1-.08.14l-.03.03-.1.1a.68.68 0 0 1-.3.14 1.52 1.52 0 0 1-.44.03.77.77 0 0 1-.15 0l-.1-.04-.07-.02a.62.62 0 0 1-.23-.18l-.03-.03-.03-.04a.7.7 0 0 1-.1-.2.44.44 0 0 0-.74 0c-.04.1-.08.16-.12.23 0-.02-.05.05-.05.06l-.07.05c.04-.03.03-.02 0 0a1.04 1.04 0 0 1-.6.17 1.1 1.1 0 0 1-.56-.13l-.06-.06a.6.6 0 0 1-.07-.08l-.06-.1a.6.6 0 0 1-.07-.13.44.44 0 0 0-.77 0 1.6 1.6 0 0 1-.13.22l-.08.08-.03.03c-.04 0-.05.02-.07.03a.67.67 0 0 1-.23.1 1.2 1.2 0 0 1-.37.03 1.12 1.12 0 0 1-.3-.05.2.2 0 0 0-.08-.03l-.04-.02a.64.64 0 0 0-.1-.06c0-.03-.03-.06-.06-.08l-.05-.06a.64.64 0 0 1-.1-.15v-.05a.1.1 0 0 1-.03-.04.44.44 0 0 0-.85 0 .08.08 0 0 0 0 .04 1 1 0 0 1-.08.15l-.03.04-.02.02a.94.94 0 0 1-.1.1.72.72 0 0 1-.07.03.6.6 0 0 1-.07.03H7.1a.94.94 0 0 1-.37.07 1.12 1.12 0 0 1-.63-.1l-.05-.04a.6.6 0 0 1-.08-.08l-.06-.1a.6.6 0 0 1-.05-.13.44.44 0 0 0-.76 0l-.13.22c0-.02-.05.05-.05.06l-.05.06c.04-.05.03-.04 0 0a1.04 1.04 0 0 1-.6.15 1.1 1.1 0 0 1-.56-.13l-.06-.05a.6.6 0 0 1-.08-.08c.02 0-.05-.08-.06-.1a.6.6 0 0 1-.08-.14.44.44 0 0 0-.76 0l-.07.14c-.03.03-.1.15-.07.08a.57.57 0 0 1-.24.2h-.04a.7.7 0 0 1-.08.04.93.93 0 0 1-.2.04 1.25 1.25 0 0 1-.44-.02.58.58 0 0 1-.3-.13H1.2l-.04-.03a.27.27 0 0 1-.05-.06v-.02L1 18.75s0-.03-.02-.04a.26.26 0 0 0-.02-.06.94.94 0 0 1-.08-.24l1.56-4.13L4.68 8.4l.2-.52a.64.64 0 0 0 .04-.2V5.53 5.42a.12.12 0 0 0 0-.03c0 .03.08-.07.02-.03l.03-.02h5.85c.1 0 .12.02.12.1v2.2a.5.5 0 0 0 0 .16.56.56 0 0 0 .04.13l1.55 4.1 2.22 5.85.2.5a.26.26 0 0 1-.03.14zm-8.9-9.27a.44.44 0 0 0-.54.3l-1.73 5.2-.25.75a.44.44 0 1 0 .85.23l1.73-5.2.25-.74a.45.45 0 0 0-.3-.54zm4.63 1.05l-.25-.75a.45.45 0 0 0-.54-.3.45.45 0 0 0-.3.53l1.72 5.2.25.76a.45.45 0 0 0 .54.3.45.45 0 0 0 .3-.53l-1.72-5.2zm-3.16.1v5.94a.44.44 0 0 0 .86 0v-5.94a.44.44 0 0 0-.88 0z"/>
</svg>
