<svg xmlns="http://www.w3.org/2000/svg" viewBox="0 0 20.02 20.01">
  <path d="M10 20a10 10 0 1 1 10.02-10 10.02 10.02 0 0 1-10 10zM10 .83A9.18 9.18 0 1 0 19.2 10 9.2 9.2 0 0 0 10 .82zm2.3 9.5a.32.32 0 0 1 0-.64h2.06a.32.32 0 1 1 0 .62zm2.22-1.83h-.06l-2.03-.36a.32.32 0 0 1-.2-.13.35.35 0 0 1-.07-.22.33.33 0 0 1 .32-.27h.05l2.03.36a.32.32 0 0 1 .2.13.35.35 0 0 1 .07.23.3.3 0 0 1-.3.27zm.4-1.8a.27.27 0 0 1-.1-.02l-1.9-.8a.32.32 0 0 1-.17-.4.33.33 0 0 1 .3-.2.5.5 0 0 1 .12 0l1.9.8a.35.35 0 0 1 .18.18.36.36 0 0 1 0 .25.34.34 0 0 1-.3.2zm.74-1.64a.37.37 0 0 1-.18-.05l-1.72-1.1a.32.32 0 0 1-.1-.45.33.33 0 0 1 .28-.15.4.4 0 0 1 .18.05l1.72 1.13a.32.32 0 0 1 .1.45.32.32 0 0 1-.28.16zm-3.16 7.37a.32.32 0 0 1-.33-.27.3.3 0 0 1 .06-.24.3.3 0 0 1 .2-.13l2.04-.37h.06a.32.32 0 0 1 .32.27.33.33 0 0 1-.27.38l-2.03.35zm.53 2.22a.33.33 0 0 1-.3-.2.32.32 0 0 1 .17-.42l1.9-.8a.27.27 0 0 1 .12-.02.33.33 0 0 1 .3.2.32.32 0 0 1-.17.44l-1.9.8a.18.18 0 0 1-.12.02zm.92 2a.3.3 0 0 1-.27-.15.32.32 0 0 1 .1-.45l1.7-1.13a.35.35 0 0 1 .2-.05.3.3 0 0 1 .26.15.32.32 0 0 1-.1.45l-1.7 1.13a.4.4 0 0 1-.2.05zm-8.3-6.32a.32.32 0 1 1 0-.64H7.7a.32.32 0 1 1 0 .62zM5.5 8.5a.32.32 0 0 1-.32-.28.33.33 0 0 1 .26-.37l2.03-.35h.05a.32.32 0 0 1 .32.27.33.33 0 0 1-.05.24.3.3 0 0 1-.23.15l-2.03.35zm-.4-1.8a.33.33 0 0 1-.3-.2.32.32 0 0 1 .16-.4l1.9-.8a.27.27 0 0 1 .12-.03.33.33 0 0 1 .3.2.33.33 0 0 1-.17.43l-1.9.8a.25.25 0 0 1-.1 0zm-.75-1.64a.3.3 0 0 1-.27-.15.32.32 0 0 1 .1-.43l1.7-1.13a.35.35 0 0 1 .2-.05.3.3 0 0 1 .26.14.32.32 0 0 1-.1.45L4.54 5a.3.3 0 0 1-.2.06zm3.18 7.37h-.05l-2.03-.35a.32.32 0 0 1-.2-.13.35.35 0 0 1-.07-.24.33.33 0 0 1 .32-.25h.05l2.03.35a.3.3 0 0 1 .26.36.3.3 0 0 1-.3.27zm-.55 2.22a.27.27 0 0 1-.12-.03l-1.9-.8a.32.32 0 0 1-.17-.4.33.33 0 0 1 .3-.2.5.5 0 0 1 .1 0l1.9.8a.3.3 0 0 1 .17.18.36.36 0 0 1 0 .25.3.3 0 0 1-.3.2zm-.9 2a.37.37 0 0 1-.2-.05l-1.72-1.13a.32.32 0 0 1-.1-.45.33.33 0 0 1 .28-.15.37.37 0 0 1 .18.05l1.72 1.13a.32.32 0 0 1 .1.45.3.3 0 0 1-.28.15z"/>
</svg>
