<svg xmlns="http://www.w3.org/2000/svg" viewBox="0 0 20.02 20.01">
  <path d="M10 20a10 10 0 1 1 10.02-10 10.02 10.02 0 0 1-10 10zm2.83-10.3a30.7 30.7 0 0 1-9.15 6.6l-.24.1.2.2A9.1 9.1 0 0 0 10 19.18a8.93 8.93 0 0 0 3.2-.58l.2-.07-.1-.18a6.2 6.2 0 0 1 .6-6.36 4.98 4.98 0 0 1 .37-.43l.1-.1-.07-.14a14.93 14.93 0 0 0-1.17-1.64L13 9.52zm1.7 2.82a5.4 5.4 0 0 0-.46 5.47l.08.17.2-.1a8.82 8.82 0 0 0 1.86-1.33l.08-.05v-.13a14.58 14.58 0 0 0-1.34-4.1l-.13-.26-.26.3zm3.8-1.88a4.74 4.74 0 0 0-2.76.9l-.13.1.08.16a15.2 15.2 0 0 1 1.4 3.77l.08.4.25-.33a9.22 9.22 0 0 0 1.9-4.74l.02-.18-.18-.03a3.56 3.56 0 0 0-.67-.07zM.93 8.6a9.33 9.33 0 0 0-.1 1.4 9.1 9.1 0 0 0 1.95 5.65l.1.12.14-.08C14.64 9.93 15.35 3.8 15.37 2.64v-.08l-.08-.08A9.13 9.13 0 0 0 11.42.93L11.15.9l.06.28a7.37 7.37 0 0 1-.53 4.88l-.07.14.12.1c.44.33.83.65 1.2.97l-.5.66c-.37-.32-.74-.62-1.15-.94l-.14-.13L10 7a6.98 6.98 0 0 1-5.13 2.4 8.32 8.32 0 0 1-3.66-.94L1 8.34zM16.1 3.57a11.55 11.55 0 0 1-2.5 5.2l-.1.12.1.1a15.25 15.25 0 0 1 1.3 1.75l.1.17.17-.1a5.36 5.36 0 0 1 3.13-1 4.63 4.63 0 0 1 .65.05l.22.03v-.22a9.15 9.15 0 0 0-2.76-6.2l-.24-.25zM3.35 3.7a9.27 9.27 0 0 0-2.13 3.66l-.05.15.14.1a7.68 7.68 0 0 0 3.6 1 5.97 5.97 0 0 0 4.4-2 4.72 4.72 0 0 0 .7-1.05 6.67 6.67 0 0 0 .3-4.57l-.03-.14H10a9.07 9.07 0 0 0-5.58 1.9l-.3.23.35.1a22.57 22.57 0 0 1 4.22 1.9 3.28 3.28 0 0 1-.48.7 21.1 21.1 0 0 0-4.7-2l-.1-.04z"/>
</svg>
