<svg xmlns="http://www.w3.org/2000/svg" viewBox="0 0 19.97384 17.7811">
  <path d="M10.87 0a8.4 8.4 0 1 0 8.4 8.4 8.42 8.42 0 0 0-8.4-8.4zm0 .62a8.3 8.3 0 0 1 1.5.14A16.1 16.1 0 0 0 4.7 5.7a7.26 7.26 0 0 1-.87-.63A7.8 7.8 0 0 1 10.87.62zm2.76.5a7.92 7.92 0 0 1 2.03 1.15 17.83 17.83 0 0 0-7.83 4.88 12.9 12.9 0 0 1-2.6-1.1 14.86 14.86 0 0 1 8.4-4.92zm2.6 1.65a8.28 8.28 0 0 1 1.18 1.4 15.33 15.33 0 0 0-6.6 3.88c-.77-.26-1.53-.47-2.3-.7a16.76 16.76 0 0 1 7.75-4.58zm1.5 1.96a7.83 7.83 0 0 1-.93 8.74c.78-3.07.06-5.54-.5-8.26.47-.16.94-.32 1.43-.46zm-2 .7c.6 3.03 1.37 5.56.13 8.96a7.9 7.9 0 0 1-2.15 1.26 16.98 16.98 0 0 0-.12-9.07 14.7 14.7 0 0 1 2.15-1.17zm-12.16.24c2.3 1.85 4.7 2.2 7 2.98.03.82.07 1.64.07 2.44-3.2-.86-5.56-1.98-7.45-4a7.23 7.23 0 0 1 .36-1.44zm9.46 1.3A16.2 16.2 0 0 1 13 15.9a7.86 7.86 0 0 1-2.13.3h-.43c1-2.47.88-5.1.75-7.67A14.57 14.57 0 0 1 13 6.97zm-9.93.9a15.6 15.6 0 0 0 7.54 3.85 14.53 14.53 0 0 1-.27 2.56 11.22 11.22 0 0 1-7.03-3.9A7.62 7.62 0 0 1 3.1 8.4a3.13 3.13 0 0 1 0-.5zm.8 4.03a12.35 12.35 0 0 0 6.3 3 8.28 8.28 0 0 1-.42 1.23 7.83 7.83 0 0 1-5.9-4.23z"/>
  <circle cx="14.81" cy="20.47" r=".32" transform="rotate(-24.633 7 23.174)"/>
  <circle cx="19.42" cy="10.57" r=".32" transform="rotate(-24.633 11.605 13.273)"/>
  <circle cx="17.11" cy="14.71" r=".32" transform="rotate(-24.633 9.297 17.416)"/>
  <circle cx="13.89" cy="17.48" r=".32" transform="rotate(-24.633 6.08 20.185)"/>
  <circle cx="21.26" cy="15.17" r=".32" transform="rotate(-24.633 13.446 17.873)"/>
  <circle cx="14.12" cy="12.41" r=".32" transform="rotate(-24.633 6.306 15.115)"/>
  <circle cx="16.88" cy="9.88" r=".32" transform="rotate(-24.633 9.068 12.587)"/>
  <circle cx="11.36" cy="12.41" r=".32" transform="rotate(-24.633 3.547 15.115)"/>
  <circle cx="4.23" cy="15.17" r=".32" transform="rotate(-24.633 -3.583 17.874)"/>
  <circle cx="5.84" cy="12.64" r=".32" transform="rotate(-24.633 -1.973 15.344)"/>
  <circle cx="20.11" cy="17.25" r=".32" transform="rotate(-24.633 12.3 19.952)"/>
  <circle cx="9.98" cy="7.58" r=".32" transform="rotate(-24.633 2.167 10.283)"/>
  <circle cx="16.88" cy="19.78" r=".32" transform="rotate(-24.633 9.07 22.484)"/>
  <circle cx="2.62" cy="13.56" r=".32" transform="rotate(-24.633 -5.194 16.263)"/>
  <circle cx="21.49" cy="16.56" r=".32" transform="rotate(-24.633 13.678 19.26)"/>
  <circle cx="19.19" cy="18.4" r=".32" transform="rotate(-24.633 11.38 21.102)"/>
  <circle cx="19.19" cy="4.13" r=".32" transform="rotate(-24.633 11.378 6.832)"/>
  <circle cx="2.16" cy="14.94" r=".32" transform="rotate(-24.633 -5.654 17.643)"/>
  <circle cx="16.88" cy="16.33" r=".32" transform="rotate(-24.633 9.07 19.034)"/>
  <circle cx="18.49" cy="20.24" r=".32" transform="rotate(-24.633 10.68 22.946)"/>
</svg>
