<svg xmlns="http://www.w3.org/2000/svg" viewBox="0 0 19.96997 16.70992">
  <path d="M16.1 3.12a7.97 7.97 0 1 0 2.33 5.63 7.93 7.93 0 0 0-2.33-5.63zm1.7 5.74l-1.66-1.72.35-2.56a7.26 7.26 0 0 1 1.3 4.18zm-1.15 3.83l-2.73.47-1.37-2.1.97-2.98 2.18-.5 2.03 2.12a7.35 7.35 0 0 1-1.08 2.96zM7 13.15l-2.74-.52A7.23 7.23 0 0 1 3.2 9.7l2.03-2.1 2.18.48 1 2.98zm1.96-2.37l-.93-2.87 2.43-1.77 2.43 1.77-.95 2.86zm6.98-6.93l-.42 3.1-2.18.5L10.8 5.6V3.58l2.9-1.4a7.25 7.25 0 0 1 1.95 1.4l.3.3zM12.9 1.84L10.46 3 8.02 1.85a7.47 7.47 0 0 1 4.88 0zm-5.66.33l2.9 1.4v2.05L7.6 7.47l-2.2-.5-.4-3.1.28-.3a7.4 7.4 0 0 1 1.96-1.4zm-2.8 2.4l.35 2.57-1.67 1.7v-.08a7.26 7.26 0 0 1 1.3-4.18zm.36 8.84l2.15.4.96 1.84a7.28 7.28 0 0 1-2.62-1.7c-.16-.16-.3-.34-.47-.52zm3.98 2.5l-1.24-2.35 1.37-2.1h3.14l1.37 2.1-1.25 2.35a7.13 7.13 0 0 1-1.67.18 7.3 7.3 0 0 1-1.7-.2zm6.87-1.95a7.34 7.34 0 0 1-2.65 1.7l.98-1.82 2.13-.38c-.13.17-.3.33-.44.5z"/>
  <circle cx="13.25" cy="18.4" r=".32" transform="rotate(-24.633 3.998 21.436)"/>
  <circle cx="20.84" cy="8.5" r=".32" transform="rotate(-24.633 11.588 11.54)"/>
  <circle cx="17.39" cy="12.64" r=".32" transform="rotate(-24.633 8.136 15.68)"/>
  <circle cx="13.71" cy="15.87" r=".32" transform="rotate(-24.633 4.46 18.908)"/>
  <circle cx="21.53" cy="13.1" r=".32" transform="rotate(-24.633 12.275 16.14)"/>
  <circle cx="14.4" cy="8.96" r=".32" transform="rotate(-24.633 5.147 11.997)"/>
  <circle cx="17.16" cy="7.81" r=".32" transform="rotate(-24.633 7.907 10.848)"/>
  <circle cx="11.64" cy="11.26" r=".32" transform="rotate(-24.633 2.385 14.297)"/>
  <circle cx="4.04" cy="13.1" r=".32" transform="rotate(-24.633 -5.215 16.138)"/>
  <circle cx="6.11" cy="10.57" r=".32" transform="rotate(-24.633 -3.144 13.61)"/>
  <circle cx="20.84" cy="15.87" r=".32" transform="rotate(-24.633 11.59 18.91)"/>
  <circle cx="12.1" cy="5.51" r=".32" transform="rotate(-24.633 2.848 8.546)"/>
  <circle cx="16.7" cy="17.71" r=".32" transform="rotate(-24.633 7.45 20.748)"/>
  <circle cx="2.89" cy="11.49" r=".32" transform="rotate(-24.633 -6.363 14.53)"/>
  <circle cx="21.76" cy="14.48" r=".32" transform="rotate(-24.633 12.506 17.52)"/>
  <circle cx="19.92" cy="17.71" r=".32" transform="rotate(-24.633 10.67 20.748)"/>
  <circle cx="18.08" cy="3.9" r=".32" transform="rotate(-24.633 8.828 6.94)"/>
  <circle cx="2.43" cy="12.87" r=".32" transform="rotate(-24.633 -6.825 15.91)"/>
  <circle cx="17.16" cy="14.25" r=".32" transform="rotate(-24.633 7.904 17.29)"/>
  <circle cx="17.85" cy="19.32" r=".32" transform="rotate(-24.633 8.597 22.36)"/>
</svg>
