<svg xmlns="http://www.w3.org/2000/svg" viewBox="0 0 20.08345 20.08131">
  <path d="M3.8 10.72H.43a.43.43 0 0 0-.43.43v8.5a.42.42 0 0 0 .42.43H3.8a.43.43 0 0 0 .42-.42v-8.5a.43.43 0 0 0-.42-.44zm-.43 8.5H.85v-7.65h2.52zM20 6.02L15.78.16a.44.44 0 0 0-.68 0l-4.22 5.86a.4.4 0 0 0 .34.64h2.1v12.98a.42.42 0 0 0 .42.43h3.37a.5.5 0 0 0 .48-.43V6.66h2.1a.4.4 0 0 0 .33-.64zm-2.9-.22a.43.43 0 0 0-.42.43v13h-2.56v-13a.42.42 0 0 0-.43-.42H12l3.4-4.7 3.4 4.7zm-6.65 3.46H7.08a.43.43 0 0 0-.42.43v9.93a.42.42 0 0 0 .42.43h3.37a.43.43 0 0 0 .43-.43V9.7a.43.43 0 0 0-.43-.44zM7.5 19.22v-9.1h2.52v9.1z"/>
</svg>
