<svg xmlns="http://www.w3.org/2000/svg" viewBox="0 0 21.33333 21.34418">
  <defs>
    <style>
      .cls-1{fill:#fff;}.cls-2{fill:#78bd43;}.cls-3{fill:#ffcd03;}
    </style>
  </defs>
  <path d="M18.3 21.34H3.03A3.04 3.04 0 0 1 0 18.3V3.04A3.04 3.04 0 0 1 3.03 0H18.3a3.04 3.04 0 0 1 3.03 3.03V18.3a3.04 3.04 0 0 1-3.03 3.04zM3.03 1.64a1.38 1.38 0 0 0-1.38 1.4V18.3a1.38 1.38 0 0 0 1.38 1.38H18.3a1.38 1.38 0 0 0 1.38-1.37V3.05a1.38 1.38 0 0 0-1.38-1.38H3.03z" class="cls-1"/>
  <path d="M10.53 5.7L9.2 4.37 6.14 7.44l-1.2-1.2L3.6 7.56l1.2 1.2 1.33 1.33 1.33-1.34 3.07-3.07zm7.05 0l-1.32-1.33-3.07 3.07-1.23-1.2-1.33 1.32 1.2 1.2 1.34 1.33 1.3-1.34L17.6 5.7z" class="cls-2"/>
  <path d="M7.46 15.38l3.07-3.07L9.2 11l-3.06 3.06-1.2-1.2-1.34 1.3 1.2 1.22.5.48.83.85.67-.64.66-.67z" class="cls-3"/>
</svg>
