<svg xmlns="http://www.w3.org/2000/svg" viewBox="0 0 19.87431 17.47942">
  <path d="M15.07.37A2 2 0 0 0 13.92 0a1.96 1.96 0 0 0-1.6.82 1.93 1.93 0 0 0-.34 1.47 1.95 1.95 0 0 0 .8 1.26 1.97 1.97 0 0 0 2.75-.45 1.97 1.97 0 0 0-.46-2.74zm-.14 2.33a1.26 1.26 0 0 1-1 .52A1.23 1.23 0 0 1 13.2 3a1.22 1.22 0 0 1-.28-1.73 1.2 1.2 0 0 1 1-.53 1.24 1.24 0 0 1 1 1.96zm-9 11.58l.03.03s-.02 0-.03 0zm8.17-5.6l-2.18-2.5.3-1.8c.03-.26-.16-.5-.28-.73a1.76 1.76 0 0 0-.48-.57 2.5 2.5 0 0 0-2-.38A7.75 7.75 0 0 0 7 3.67a5.67 5.67 0 0 0-.66.42c-.07-.06-.15-.1-.22-.15l-1.4-.82.2-.3c.24-.4-.4-.77-.65-.37-.06.1-.12.2-.2.3l-.2-.12c-.4-.25-.76.4-.35.63l.17.1c-.1.13-.17.25-.25.37-.25.4.4.78.64.38l.22-.37c.48.3.97.57 1.45.86a2.28 2.28 0 0 0-.36.68 2.22 2.22 0 0 0 .1 1.47 2.23 2.23 0 0 0 .4.67l1.96 2.16-2.67 2.98a1.37 1.37 0 0 0-.2.28l-1.4-.77-3.04-1.7A.37.37 0 0 0 .2 11c.95.55 1.92 1.1 2.9 1.63.76.44 4.57 2.57 5.2 2.92l1.9 1.04c.15.1.3.16.47.25a1.28 1.28 0 0 0 1.33-.08 1.6 1.6 0 0 0 .27-.24.37.37 0 0 0 0-.52.37.37 0 0 0-.52 0 .52.52 0 0 1-.1.1l-.12.08-.1.04-.07.02a.34.34 0 0 1-.18 0c.02 0-.14-.04-.1-.02h-.02l-.42-.24-1.8-1c-.56-.3-1.1-.6-1.65-.92a.43.43 0 0 0 .04-.07c.24-.26.48-.5.72-.8l3.14-3.4.05-.07a.35.35 0 0 0 0-.38.27.27 0 0 0-.04-.06c-.64-.9-1.3-1.77-1.95-2.64l.07-.05c.76.45 1.5.9 2.25 1.33l2.2 1.3a.3.3 0 0 0 .12.05.35.35 0 0 0 .22-.03.26.26 0 0 0 .12-.08.32.32 0 0 0 .1-.3.48.48 0 0 0-.12-.23zm-3.75.84L7.5 12.65l-.75.8-.2.23-.03.03c-.24-.12-.5-.25-.73-.4a.9.9 0 0 0-.15-.07c0-.02 0-.02-.02-.02a.16.16 0 0 1 0-.03c0 .06.03 0 .02 0l.04-.03.2-.25 2.74-3.05a.37.37 0 0 0 0-.52.55.55 0 0 0-.1-.07L7.1 7.66l-.65-.7c0-.02 0-.03-.02-.04a3.72 3.72 0 0 1-.2-.33.7.7 0 0 0-.03-.1 1.47 1.47 0 0 1-.06-.15c0-.05-.03-.1-.04-.15V6.1a1.93 1.93 0 0 1 0-.35V5.7a.3.3 0 0 1 0-.08l.07-.2V5.4v-.02a.28.28 0 0 1 .06-.1.94.94 0 0 1 .12-.2l.03-.04S6.4 5 6.42 5L8.5 6.2l-.1.07a.36.36 0 0 0-.13.5l2.07 2.75zm-1.2-3.77c-.7-.42-1.4-.84-2.12-1.25.26-.16.55-.3.8-.43a8.14 8.14 0 0 1 1.2-.5 3.74 3.74 0 0 1 1-.18 1.77 1.77 0 0 1 .24 0h.1.06a1.6 1.6 0 0 1 .2.06.42.42 0 0 1 .1.04c-.06-.04.06.02.08.02a1.02 1.02 0 0 1 .47.42l.13.24c-.76.52-1.5 1.05-2.24 1.57zm2.04 1.2c-.47-.26-.9-.53-1.36-.8l1.5-1.04-.18 1.1a.55.55 0 0 0 .2.47l.3.36.4.44zm.56 5.65l.65.16a3.34 3.34 0 0 0 2.17 3.7l-.17.64a.3.3 0 0 0 .58.15l.17-.65a3.34 3.34 0 0 0 3.7-2.15l.64.17a.3.3 0 0 0 .13-.6l-.65-.16a3.34 3.34 0 0 0-2.16-3.7l.17-.64a.3.3 0 1 0-.6-.15l-.16.65a3.34 3.34 0 0 0-3.7 2.15L11.9 12a.3.3 0 0 0-.36.22.3.3 0 0 0 .22.37zm2.57.04l-1.18-.3a2.72 2.72 0 0 1 2.95-1.72l-.3 1.18a.3.3 0 1 0 .58.15l.3-1.18a2.72 2.72 0 0 1 1.72 2.95l-1.18-.3a.3.3 0 1 0-.15.58l1.18.3a2.72 2.72 0 0 1-2.95 1.72l.3-1.18a.3.3 0 1 0-.58-.15l-.3 1.16A2.72 2.72 0 0 1 13 12.92l1.18.3a.3.3 0 0 0 .37-.2.3.3 0 0 0-.22-.38z"/>
</svg>
