<svg xmlns="http://www.w3.org/2000/svg" viewBox="0 0 16.67312 21.06197">
  <path d="M5.88 5.8H4.66L5 18.3h1.22L5.88 5.8zm7.86 13.4a.63.63 0 0 1-.6.58h-9.3a.68.68 0 0 1-.62-.62L2.44 5.8H1.22L2 19.24a1.92 1.92 0 0 0 1.85 1.82h9.3a1.87 1.87 0 0 0 1.8-1.82l.52-13.44h-1.22zM10.88 5.8l-.33 12.5h1.22l.33-12.5h-1.22zm-3.15 0h1.22v12.5H7.73zm8.3-2.72h-3.98V1.82A1.8 1.8 0 0 0 10.3 0H6.33A1.8 1.8 0 0 0 4.6 1.82v1.26h-4a.64.64 0 0 0 0 1.28h15.43a.64.64 0 1 0 0-1.28zm-5.2 0H5.8V1.82a.54.54 0 0 1 .52-.55h4a.54.54 0 0 1 .52.55z"/>
</svg>
