<svg xmlns="http://www.w3.org/2000/svg" viewBox="0 0 18.44837 20.18545">
  <path d="M13.24 3.97c-1.66-1.3-3.22-2.53-3.6-3.66a.45.45 0 0 0-.84 0C8.43 1.46 6.87 2.7 5.2 4 2.78 5.9 0 8.08 0 10.8a5.27 5.27 0 0 0 3.14 5.1 5.64 5.64 0 0 0 4.64-.07 3.1 3.1 0 0 1-2.15 2.15.45.45 0 0 0-.36.43 2.37 2.37 0 0 0 .6 1.7.45.45 0 0 0 .4.1c.08-.04.17-.06.27-.08a10.2 10.2 0 0 1 5.36 0l.3.07a.45.45 0 0 0 .38-.1 2.36 2.36 0 0 0 .6-1.67.45.45 0 0 0-.36-.42 3.1 3.1 0 0 1-2.15-2.14 5.65 5.65 0 0 0 4.64.07 5.27 5.27 0 0 0 3.15-5.1c0-2.73-2.76-4.9-5.2-6.83zm1.68 11.12a4.6 4.6 0 0 1-4.52-.53.45.45 0 0 0-.75.33 4.05 4.05 0 0 0 2.6 3.85 1.65 1.65 0 0 1-.13.48 11.1 11.1 0 0 0-5.8 0 1.64 1.64 0 0 1-.13-.48 4.05 4.05 0 0 0 2.6-3.84.45.45 0 0 0-.76-.3 4.6 4.6 0 0 1-4.52.5A4.38 4.38 0 0 1 .9 10.8c0-2.28 2.6-4.3 4.87-6.1a16.68 16.68 0 0 0 3.45-3.23 16.67 16.67 0 0 0 3.46 3.23c2.28 1.8 4.86 3.82 4.86 6.1a4.38 4.38 0 0 1-2.62 4.3zM8.62 3.14c-.04.04-.1.1-.15.2A7.23 7.23 0 0 1 7.4 4.42L2.86 8.26l-.02.02a3.46 3.46 0 0 0-1.1 2.27.45.45 0 0 0 .46.43h.03a.45.45 0 0 0 .43-.47 2.6 2.6 0 0 1 .8-1.56l4.5-3.8a7.94 7.94 0 0 0 1.2-1.22l.14-.15a.45.45 0 0 0-.67-.6z"/>
</svg>
