<svg xmlns="http://www.w3.org/2000/svg" viewBox="0 0 20 19.3"><title>Bonus_Feature_Slots</title><path d="M20 5.9a1.62 1.62 0 0 0-1.58-1.26 1.62 1.62 0 0 0-.42 3.2v4.92a1.65 1.65 0 0 1-1.65 1.65h-.87V4.68a2.4 2.4 0 0 0-2.36-2.4v-1.2a1 1 0 0 0-1-1H3.44a1 1 0 0 0-1 1v1.2A2.4 2.4 0 0 0 0 4.63V16.9a2.4 2.4 0 0 0 2.4 2.38h10.67a2.4 2.4 0 0 0 2.4-2.4v-1.73h.86a2.4 2.4 0 0 0 2.4-2.4v-4.9A1.62 1.62 0 0 0 20 5.9zM3.14 1a.3.3 0 0 1 .3-.3h8.64a.3.3 0 0 1 .3.3v1.27H3.13zm11.58 15.9a1.65 1.65 0 0 1-1.65 1.66H2.4A1.65 1.65 0 0 1 .73 16.9V4.63A1.65 1.65 0 0 1 2.4 3h10.7a1.65 1.65 0 0 1 1.64 1.65zm4.54-10.63a.88.88 0 1 1-.88-.88.88.88 0 0 1 .88.87zM3.94 13a1.5 1.5 0 1 0 1.5 1.5 1.5 1.5 0 0 0-1.5-1.5zm0 2.24a.75.75 0 1 1 .75-.75.75.75 0 0 1-.76.74zM7.74 13a1.5 1.5 0 1 0 1.5 1.5 1.5 1.5 0 0 0-1.5-1.5zm0 2.24a.75.75 0 1 1 .75-.75.75.75 0 0 1-.76.74zM11.54 13A1.5 1.5 0 1 0 13 14.5a1.5 1.5 0 0 0-1.46-1.5zm.74 1.5a.75.75 0 1 1-.75-.76.75.75 0 0 1 .75.75zM12.83 6.78L12 6.7l-.36-.8a.36.36 0 0 0-.66 0l-.36.8-.82.07a.36.36 0 0 0-.27.17.36.36 0 0 0-.27-.17l-.83-.07-.36-.8a.36.36 0 0 0-.33-.2.36.36 0 0 0-.33.2l-.4.8-.82.07a.36.36 0 0 0-.27.17.36.36 0 0 0-.26-.17l-.8-.07-.35-.8a.36.36 0 0 0-.67 0l-.36.8-.82.07a.36.36 0 0 0-.22.62L3 8l-.15.78a.36.36 0 0 0 .52.4l.75-.4.75.4a.36.36 0 0 0 .52-.4L5.27 8l.62-.6.05-.07.05.06.62.6-.15.78a.36.36 0 0 0 .53.4l.75-.37.75.4a.36.36 0 0 0 .5-.4L8.86 8l.62-.6.05-.08.05.07.62.6-.2.8a.36.36 0 0 0 .52.38l.75-.38.75.38a.36.36 0 0 0 .52-.4l-.1-.78.6-.6a.36.36 0 0 0-.2-.63zm-8.06.93a.3.3 0 0 0-.08.3l.1.52-.5-.25a.3.3 0 0 0-.14 0 .3.3 0 0 0-.13 0l-.5.25.1-.52a.3.3 0 0 0-.08-.26l-.4-.4h.53a.3.3 0 0 0 .24-.17l.24-.53.24.53a.3.3 0 0 0 .24.17h.54zm3.58 0a.3.3 0 0 0-.08.3l.1.52-.5-.25a.28.28 0 0 0-.13 0 .3.3 0 0 0-.13 0l-.5.25.1-.52a.3.3 0 0 0-.07-.26l-.4-.4h.53a.3.3 0 0 0 .24-.17l.24-.53.26.45a.3.3 0 0 0 .24.16h.54zm3.58 0a.3.3 0 0 0-.08.27l.1.52-.5-.26a.28.28 0 0 0-.13 0 .3.3 0 0 0-.13 0l-.5.25.1-.53a.3.3 0 0 0-.1-.26l-.4-.4h.54a.3.3 0 0 0 .24-.16l.24-.53.24.54a.3.3 0 0 0 .24.17h.54z"/></svg>