<svg xmlns="http://www.w3.org/2000/svg" viewBox="0 0 20.00528 18.95">
  <path d="M10.82 12a5.2 5.2 0 0 1-.8-.87 19.14 19.14 0 0 1 1.84-2.8l.37.48a10.4 10.4 0 0 0 2 2.2 7.04 7.04 0 0 0 3.3 1.3c.56 0 .77-.26.84-.47.23-.64-.54-1.22-1.42-1.9a7.66 7.66 0 0 1-1.53-1.36 6.1 6.1 0 0 1-.62-1.02c-.1-.22-.25-.5-.52-.95a8.37 8.37 0 0 0-4.6-2.88 3.38 3.38 0 0 0-.73-.07c-1.9 0-4.5 1.2-5.24 2.4-.06.13-1.95 3.24-1.5 4.08a.5.5 0 0 0 .47.26c.95 0 1.73-1.18 2.36-2.1a5.46 5.46 0 0 1 .7-.9 10.17 10.17 0 0 1 1.96-.96c-.9 1.27-2.5 3.6-3.04 4.45-.28.44-.58.95-.88 1.46-.46.77-.93 1.57-1.33 2.17a10.78 10.78 0 0 1-.82 1C.48 16.9-.2 17.75.06 18.3a.7.7 0 0 0 .7.36c1.9 0 4.45-2.98 4.48-3 .47-.56 1.54-2.16 1.97-2.8a7.1 7.1 0 0 1 2.4 2.26 6.68 6.68 0 0 1 .14 1.32c.05 1.04.1 2.2 1.02 2.2a.83.83 0 0 0 .65-.35 7.83 7.83 0 0 0 .9-4.34A5.04 5.04 0 0 0 10.83 12zm.07 5.9c-.1.08-.15.1-.18.1-.3 0-.35-.92-.38-1.6a7.15 7.15 0 0 0-.17-1.47c-.28-.95-1.93-2.14-2.6-2.6.04-.07.1-.13.14-.18a.32.32 0 0 0-.44-.45 5.35 5.35 0 0 0-.42.53.12.12 0 0 0-.02.03c0 .02-.02.04-.03.04-.26.38-1.55 2.32-2.06 2.9-.62.73-2.68 2.8-4 2.8H.62a8.34 8.34 0 0 1 1.46-2.06c.35-.43.67-.8.85-1.07.4-.6.88-1.42 1.34-2.2l.86-1.46c.65-1.03 3.17-4.63 3.55-5.17l.24-.32a.32.32 0 0 0-.5-.36l-.14.18a15.64 15.64 0 0 0-3 1.4 5.17 5.17 0 0 0-.82 1.04c-.5.72-1.15 1.7-1.73 1.8a10.77 10.77 0 0 1 1.5-3.36c.62-1.02 3.04-2.1 4.7-2.1a2.77 2.77 0 0 1 .6.06 7.84 7.84 0 0 1 4.18 2.58c.27.43.4.7.5.9a7.43 7.43 0 0 0 .68 1.12 8.35 8.35 0 0 0 1.66 1.5c.45.35 1.28.98 1.2 1.18 0 0-.04.05-.25.05a6.45 6.45 0 0 1-2.9-1.16 10.56 10.56 0 0 1-1.87-2.07 6.25 6.25 0 0 0-.55-.7l-.4-.4a.32.32 0 0 0-.46.44l.07.07a15.9 15.9 0 0 0-2.04 3.23.3.3 0 0 0 0 .12 3.4 3.4 0 0 0 1 1.24 4.73 4.73 0 0 1 1.28 1.64 7.48 7.48 0 0 1-.76 3.8zm2.55-13.3a2.3 2.3 0 1 0-2.3-2.3 2.3 2.3 0 0 0 2.3 2.3zm0-3.96A1.66 1.66 0 1 1 11.8 2.3 1.66 1.66 0 0 1 13.46.64zM15.75 18h-2.5a.32.32 0 0 0-.33.33.32.32 0 0 0 .3.32h2.55a.32.32 0 0 0 .32-.32.32.32 0 0 0-.34-.32zm0-1.35h-1.24a.32.32 0 0 0 0 .64h1.3a.32.32 0 0 0 .3-.34.33.33 0 0 0-.32-.32zm2.75-.72a1.5 1.5 0 1 0 1.5 1.5 1.5 1.5 0 0 0-1.5-1.5zm1 1.52a1 1 0 1 1-1-1 1 1 0 0 1 1 1z"/>
</svg>
