<svg xmlns="http://www.w3.org/2000/svg" viewBox="0 0 16.35246 19.84">
  <path d="M3.5 16.46a.4.4 0 0 1-.1 0 2.7 2.7 0 0 1-1.72-1.33 8.07 8.07 0 0 1-.76-2.7v-.03L0 4.34V4.3A4.3 4.3 0 0 1 4.3 0h5.2a.4.4 0 0 1 0 .8H4.3A3.48 3.48 0 0 0 .8 4.26l.93 8.02a7.6 7.6 0 0 0 .67 2.44 1.85 1.85 0 0 0 1.23.94.4.4 0 0 1 .28.5.4.4 0 0 1-.4.3zm11.88-8.64h-.05a.42.42 0 0 1-.36-.45l.36-3.1A3.48 3.48 0 0 0 11.85.8h-5.2a.4.4 0 0 1 0-.8h5.2a4.3 4.3 0 0 1 4.3 4.3v.05l-.37 3.1a.4.4 0 0 1-.4.37zm-1.93 12.02H2.7a.4.4 0 0 1-.4-.4v-3.7a.4.4 0 0 1 .8 0v3.3h9.95V15.9a.4.4 0 0 1 .8 0v3.54a.4.4 0 0 1-.4.4zm-3.75-3.2H6.44a.4.4 0 1 1 0-.8H9.7a.4.4 0 1 1 0 .8zm0 1.4H6.44a.4.4 0 1 1 0-.8H9.7a.4.4 0 1 1 0 .8zm2.6-1.57a.4.4 0 1 1 0-.8c.44 0 1.82 0 2.45-2.54l.78-3.93a1.47 1.47 0 0 0-.32-1.26 2.33 2.33 0 0 0-1.74-.73H12.3a1.98 1.98 0 0 0-1.97 2v2.2a.4.4 0 0 1-.23.38l-1.9.9a.4.4 0 1 1-.36-.73l1.67-.8V9.2a2.8 2.8 0 0 1 2.8-2.8h1.15a3.12 3.12 0 0 1 2.38 1.02 2.26 2.26 0 0 1 .5 1.92l-.8 3.96v.02a5.04 5.04 0 0 1-1.1 2.25 2.78 2.78 0 0 1-2.13.9z"/>
</svg>
