<svg xmlns="http://www.w3.org/2000/svg" viewBox="0 0 19.66931 19.66804">
  <path d="M5.3 4.75A1.2 1.2 0 0 0 6.56 3.6V1.15a1.2 1.2 0 0 0-2.4 0V3.6A1.2 1.2 0 0 0 5.3 4.74zm9 0a1.2 1.2 0 0 0 1.24-1.16V1.14a1.2 1.2 0 0 0-2.4 0V3.6a1.2 1.2 0 0 0 1.16 1.15zm-10.86 4H6.8v3.2H3.45zm0 4.35H6.8v3.2H3.45zm15.8-11.2H16.2v1.7a1.86 1.86 0 0 1-3.73 0V1.9H7.2v1.7a1.86 1.86 0 0 1-3.7 0V1.9H.4a.42.42 0 0 0-.42.4v16.96a.42.42 0 0 0 .42.4h13.9a1.37 1.37 0 0 0 1-.4l4.07-4.53a.87.87 0 0 0 .27-.7V2.3a.42.42 0 0 0-.42-.4zm-1.1 11.5a.58.58 0 0 1-.67.65h-1.9a.96.96 0 0 0-1.1 1.05v2.44c-.02.4-.2.64-.65.64H1.78a.24.24 0 0 1-.24-.24V7.1a.24.24 0 0 1 .24-.23h16.1a.24.24 0 0 1 .25.23zm-5.27-4.66h3.35v3.2h-3.35zm-4.7 4.36h3.34v3.2H8.18zm0-4.36h3.34v3.2H8.18z"/>
</svg>
