<svg xmlns="http://www.w3.org/2000/svg" viewBox="0 0 20 19.79699">
  <path d="M6.04 13.77a.4.4 0 0 0 .58 0l3.53-3.52 3.53 3.52a.4.4 0 1 0 .58-.58l-3.53-3.55 3.53-3.53a.4.4 0 0 0 0-.58.42.42 0 0 0-.58 0l-3.53 3.53-3.53-3.53a.42.42 0 1 0-.58.6l3.52 3.5-3.52 3.54a.4.4 0 0 0 0 .57zM19.6 6.75a.4.4 0 0 0 .4-.4v-4.1A2.26 2.26 0 0 0 17.74 0H2.26A2.26 2.26 0 0 0 0 2.26v15.28a2.26 2.26 0 0 0 2.26 2.26h15.48A2.26 2.26 0 0 0 20 17.54V13.4a.4.4 0 0 0-.8 0v4.14A1.47 1.47 0 0 1 17.75 19H2.25A1.47 1.47 0 0 1 .8 17.54V2.26A1.47 1.47 0 0 1 2.25.8h15.48a1.47 1.47 0 0 1 1.47 1.46v4.1a.4.4 0 0 0 .4.4z"/>
</svg>
