<svg xmlns="http://www.w3.org/2000/svg" viewBox="0 0 12.95 19.97">
  <path d="M3.57 0C1.73 0 0 4.84 0 9.97c0 5.12 1.74 9.97 3.57 9.97 1.57 0 3.57-4.7 3.57-9.97C7.14 4.94 5.37 0 3.57 0zm0 19.13C2.62 19.13.8 15.26.8 9.97S2.64.8 3.58.8c.8 0 2.76 3.66 2.76 9.17 0 5.46-2.07 9.16-2.76 9.16zM1.9 9.8c0 1.9.7 3.26 1.67 3.26s1.66-1.38 1.66-3.27c0-1.9-.7-3.3-1.66-3.3S1.9 7.9 1.9 9.8zm1.67 2.53c-.38 0-.93-1-.93-2.54s.55-2.56.93-2.56.93 1 .93 2.54-.55 2.53-.93 2.53zm0-8.75a.37.37 0 0 0 .37-.37V1.8a.37.37 0 0 0-.37-.37.36.36 0 0 0-.36.37v1.42a.36.36 0 0 0 .38.36zm0 12.72a.37.37 0 0 0-.37.38v1.42a.37.37 0 0 0 .37.37.36.36 0 0 0 .37-.37v-1.43a.37.37 0 0 0-.37-.36zm8.5-10.85l.47-.55a1.6 1.6 0 0 0 .4-1.06V.8a.33.33 0 0 0-.04-.2c-.37-.76-2.35-.4-2.37-.4-.42.1-.64.3-.64.58v3.06a1.63 1.63 0 0 0 .35 1.04l.47.54a.42.42 0 0 0 .28.14v8.93a.42.42 0 0 0-.27.14l-.46.56a1.63 1.63 0 0 0-.37 1.05v3.06c0 .3.2.5.64.6a6.6 6.6 0 0 0 1.03.1c.55 0 1.16-.1 1.34-.5a.33.33 0 0 0 .06-.17v-3.05a1.6 1.6 0 0 0-.4-1.06l-.48-.54a.38.38 0 0 0-.24-.13V5.58a.42.42 0 0 0 .23-.13zm-1.37-1.6V1a4.05 4.05 0 0 1 1.43 0v2.83a.8.8 0 0 1-.2.53l-.15.17v-2.6a.37.37 0 0 0-.74 0v2.63l-.16-.2a.82.82 0 0 1-.18-.5zm1.42 12.4v2.85a4.05 4.05 0 0 1-1.43 0v-2.86a.83.83 0 0 1 .17-.52l.16-.2v2.83a.37.37 0 1 0 .74 0v-2.8l.15.17a.9.9 0 0 1 .2.54z"/>
</svg>
