<svg xmlns="http://www.w3.org/2000/svg" viewBox="0 0 48 30">
  <defs>
    <style>
      .cls-1{fill:url(#linear-gradient);}.cls-2{fill:#fff;}
    </style>
    <linearGradient id="linear-gradient" x2="48" y1="15" y2="15" gradientUnits="userSpaceOnUse">
      <stop offset="0" stop-color="#127cc0"/>
      <stop offset=".49" stop-color="#1b5c9d"/>
      <stop offset="1" stop-color="#253773"/>
    </linearGradient>
  </defs>
  <rect width="48" height="30" class="cls-1" rx="4" ry="4"/>
  <path d="M39.6 11.3v-.68h-.24v-.1h.6v.1h-.26v.67h-.1zm.45 0v-.77h.15l.18.54.03.1c.03-.02.05-.06.06-.1l.2-.54h.12v.76h-.1v-.65l-.2.63h-.1l-.22-.65v.64zm-11.32 2.14a2.05 2.05 0 0 1-1.23.32h-.24a.3.3 0 0 1-.3-.37l.3-1.3a.5.5 0 0 1 .46-.36h.32a1.53 1.53 0 0 1 .84.2.65.65 0 0 1 .3.57 1.07 1.07 0 0 1-.45.93m2.1-1.95a1.47 1.47 0 0 0-.54-.6 2.4 2.4 0 0 0-.86-.3 6.42 6.42 0 0 0-1.15-.1h-2.04a.5.5 0 0 0-.47.38l-1.38 5.97a.3.3 0 0 0 .3.37h.97a.5.5 0 0 0 .45-.36l.34-1.45a.5.5 0 0 1 .45-.37h.28A4.6 4.6 0 0 0 30 14.3a2.3 2.3 0 0 0 1-1.94 1.88 1.88 0 0 0-.2-.88m3 4.4a2.43 2.43 0 0 1-.5.3 1.34 1.34 0 0 1-.5.1 1.15 1.15 0 0 1-.58-.1.38.38 0 0 1-.2-.37.74.74 0 0 1 .16-.47.92.92 0 0 1 .4-.28 3.22 3.22 0 0 1 .64-.14l.8-.1zm-.3 1.33h1.22a.5.5 0 0 0 .46-.37l.7-3.07a1.84 1.84 0 0 0 .04-.25l.02-.23a1.03 1.03 0 0 0-.56-.97 3.7 3.7 0 0 0-1.74-.3 7.78 7.78 0 0 0-1.17.08c-.4.07-.7.12-.9.17l-.15.84c-.04.2 0 .37.07.37.15-.06.4-.13.7-.22a3.28 3.28 0 0 1 .9-.14 2.36 2.36 0 0 1 .87.14.45.45 0 0 1 .3.44.72.72 0 0 1 0 .13l-.03.1q-.84.05-1.56.16a4.64 4.64 0 0 0-1.23.34 1.94 1.94 0 0 0-.84.67 1.78 1.78 0 0 0-.27 1.02 1.18 1.18 0 0 0 .4.9 1.5 1.5 0 0 0 1.03.36 2.7 2.7 0 0 0 .6-.06 3.4 3.4 0 0 0 .48-.15 2.76 2.76 0 0 0 .4-.22l.37-.25-.12.54m5.57-6.65l-1.4 6.28a.5.5 0 0 1-.45.37h-.87a.3.3 0 0 1-.3-.36l1.3-5.92a.5.5 0 0 1 .47-.37h1.25m-27.53 2.88a2.04 2.04 0 0 1-1.23.32h-.24a.3.3 0 0 1-.3-.37l.3-1.27a.5.5 0 0 1 .46-.37h.32a1.53 1.53 0 0 1 .84.2.65.65 0 0 1 .28.57 1.07 1.07 0 0 1-.44.92m2.1-1.95a1.47 1.47 0 0 0-.54-.58 2.43 2.43 0 0 0-.84-.3 6.42 6.42 0 0 0-1.15-.1h-2a.5.5 0 0 0-.47.37l-1.36 5.95a.3.3 0 0 0 .3.38h.97a.5.5 0 0 0 .48-.38l.33-1.44a.5.5 0 0 1 .48-.36h.27a4.6 4.6 0 0 0 2.78-.74 2.3 2.3 0 0 0 1-1.92 1.88 1.88 0 0 0-.2-.88m3 4.42a2.48 2.48 0 0 1-.52.28 1.34 1.34 0 0 1-.5.1 1.17 1.17 0 0 1-.56-.1.38.38 0 0 1-.2-.36.74.74 0 0 1 .16-.48.94.94 0 0 1 .4-.28 3.2 3.2 0 0 1 .65-.14l.8-.1zm-.32 1.32h1.24a.5.5 0 0 0 .46-.38l.7-3.07a1.56 1.56 0 0 0 .05-.27 2.2 2.2 0 0 0 .03-.24 1.03 1.03 0 0 0-.56-.97 3.7 3.7 0 0 0-1.72-.3 7.75 7.75 0 0 0-1.18.08q-.6.1-.88.17l-.17.84c-.04.2 0 .38.07.38.16-.07.4-.14.72-.23a3.26 3.26 0 0 1 .88-.14 2.37 2.37 0 0 1 .9.14.45.45 0 0 1 .28.44.75.75 0 0 1 0 .14l-.03.1q-.83.04-1.55.14a4.65 4.65 0 0 0-1.24.34 1.95 1.95 0 0 0-.84.67 1.77 1.77 0 0 0-.28 1 1.18 1.18 0 0 0 .4.93 1.5 1.5 0 0 0 1.03.35 2.66 2.66 0 0 0 .6-.05 3.25 3.25 0 0 0 .47-.17 2.7 2.7 0 0 0 .4-.22c.14-.1.27-.16.37-.23l-.12.54M23.8 12a.82.82 0 0 0-.6.36l-1.73 2.95-.48-2.94a.5.5 0 0 0-.47-.38h-.87a.3.3 0 0 0-.3.38l.74 4.88.04.27-.93 1.58c-.12.2-.05.37.16.37h1a.82.82 0 0 0 .62-.38l4.2-7.1z" class="cls-2"/>
</svg>
