<svg xmlns="http://www.w3.org/2000/svg" viewBox="0 0 48 30">
  <defs>
    <style>
      .cls-1{fill:#222323;}.cls-2{fill:url(#radial-gradient);}.cls-3{fill:url(#radial-gradient-2);}.cls-4{fill:#e73a1f;}.cls-5{fill:#f28c1c;}.cls-6{fill:#e94290;}.cls-7{fill:#8abe29;}.cls-8{fill:#f5e83c;}.cls-9{fill:#4c99d4;}.cls-10{fill:#3a57a4;}.cls-11{fill:#fff;}
    </style>
    <radialGradient id="radial-gradient" cx="26.88" cy="13.32" r="6.94" gradientUnits="userSpaceOnUse">
      <stop offset=".01" stop-color="#8f4a97"/>
      <stop offset=".38" stop-color="#8d4995"/>
      <stop offset=".57" stop-color="#85458f"/>
      <stop offset=".71" stop-color="#783f84"/>
      <stop offset=".83" stop-color="#653674"/>
      <stop offset=".94" stop-color="#4e2a61"/>
      <stop offset="1" stop-color="#3c2252"/>
    </radialGradient>
    <radialGradient id="radial-gradient-2" cx="27.35" cy="14.07" r="11.65" gradientUnits="userSpaceOnUse">
      <stop offset=".01" stop-color="#e94290"/>
      <stop offset=".31" stop-color="#e7418e"/>
      <stop offset=".47" stop-color="#df3f89"/>
      <stop offset=".58" stop-color="#d23a7f"/>
      <stop offset=".68" stop-color="#bf3472"/>
      <stop offset=".77" stop-color="#a72c60"/>
      <stop offset=".85" stop-color="#89224a"/>
      <stop offset=".93" stop-color="#671731"/>
      <stop offset="1" stop-color="#3f0a14"/>
      <stop offset="1" stop-color="#3c0912"/>
    </radialGradient>
  </defs>
  <rect width="48" height="30" class="cls-1" rx="4" ry="4"/>
  <path d="M30.84 7.95a10.9 10.9 0 0 0-11.27.86 10.36 10.36 0 0 1 13.68 11.1 10.37 10.37 0 0 0-2.4-11.94z" class="cls-2"/>
  <path d="M25.82 25.25a10.64 10.64 0 0 0 8-13.52 10.62 10.62 0 0 1-8.46 10.36 10.45 10.45 0 0 1-12.1-7.23 10.66 10.66 0 0 0 .2 2.12 10.46 10.46 0 0 0 12.36 8.24z" class="cls-3"/>
  <path d="M29.54 5.64a10.9 10.9 0 0 0-11.13.03 11.04 11.04 0 0 0-.9.6 10.9 10.9 0 0 1 14.47 9.5 10.9 10.9 0 0 0-2.42-10.13z" class="cls-4"/>
  <path d="M33.35 9.44A10.85 10.85 0 0 1 34.9 15a10.88 10.88 0 0 0-4.5-8.82 11.06 11.06 0 0 0-.92-.6l.06.06a10.85 10.85 0 0 1 3.8 3.8z" class="cls-5"/>
  <path d="M34.87 15.82c0-.13 0-.25.02-.38v-.04-.4a10.9 10.9 0 0 0-5.37-9.36 10.9 10.9 0 0 1 2.42 10.12 10.9 10.9 0 0 1-4.28 9.5l-.1.06a10.9 10.9 0 0 0 7.28-9.47z" class="cls-6"/>
  <path d="M18.63 24.48l-.1-.06zm13.33-8.72a10.9 10.9 0 0 1-9.78 8.04A10.9 10.9 0 0 0 28 25a10.9 10.9 0 0 0 3.96-9.24z" class="cls-5"/>
  <path d="M18.54 24.42l-.07-.04zm3.64-.63a10.9 10.9 0 0 1 .56-19.6A10.9 10.9 0 0 0 16 22.35a10.85 10.85 0 0 0 6.17 1.43z" class="cls-7"/>
  <path d="M28 25a10.9 10.9 0 0 1-5.82-1.2 10.85 10.85 0 0 1-6.2-1.43 10.9 10.9 0 0 0 2.5 2.02h.06l.1.07a10.87 10.87 0 0 0 8.85.88 11.04 11.04 0 0 0 1-.4L28 25z" class="cls-8"/>
  <path d="M13.56 14.28a10.36 10.36 0 0 1 12.6-8.8 10.3 10.3 0 0 1 4.68 2.46 10.82 10.82 0 0 1 2.9 2.14 10.9 10.9 0 1 0-18.3 11.65c.24.3.5.58.75.84A10.9 10.9 0 0 1 19.14 9.1l.4-.3a10.37 10.37 0 0 0-6 5.48z" class="cls-9"/>
  <path d="M30.84 7.95a10.36 10.36 0 0 0-17.1 5.3 10.46 10.46 0 0 0-.18 1.03 10.37 10.37 0 0 1 6-5.48 10.9 10.9 0 0 1 11.28-.86z" class="cls-10"/>
  <path d="M11.5 18.2a3.62 3.62 0 0 1-.9-.1 1.48 1.48 0 0 1-.7-.4 1.68 1.68 0 0 1-.4-.74 4.24 4.24 0 0 1-.13-1.12v-.5a4.12 4.12 0 0 1 .13-1.13 1.7 1.7 0 0 1 .4-.7 1.47 1.47 0 0 1 .7-.4 3.64 3.64 0 0 1 .9-.1 2.4 2.4 0 0 1 1.48.4 1.6 1.6 0 0 1 .5 1.3.14.14 0 0 1-.13.15h-.74a.14.14 0 0 1-.13-.14 1.32 1.32 0 0 0-.05-.4.5.5 0 0 0-.13-.2.65.65 0 0 0-.28-.14 2.54 2.54 0 0 0-1.05 0 .6.6 0 0 0-.3.2 1 1 0 0 0-.2.43 3.66 3.66 0 0 0-.06.74v.5a3.74 3.74 0 0 0 .07.77 1 1 0 0 0 .18.43.6.6 0 0 0 .3.2 2.55 2.55 0 0 0 1.06 0 .64.64 0 0 0 .28-.12.5.5 0 0 0 .14-.22 1.36 1.36 0 0 0 .06-.4.15.15 0 0 1 .15-.14h.75a.15.15 0 0 1 .14.14 1.6 1.6 0 0 1-.52 1.34 2.4 2.4 0 0 1-1.48.4zm4.4 0a3.55 3.55 0 0 1-.93-.1 1.45 1.45 0 0 1-.7-.4 1.7 1.7 0 0 1-.38-.75 4.37 4.37 0 0 1-.14-1.1v-.52a4.18 4.18 0 0 1 .13-1.1 1.74 1.74 0 0 1 .4-.74 1.46 1.46 0 0 1 .67-.4 4 4 0 0 1 1.86 0 1.5 1.5 0 0 1 .68.4 1.72 1.72 0 0 1 .4.72 4.18 4.18 0 0 1 .13 1.1v.5a4.22 4.22 0 0 1-.12 1.12 1.74 1.74 0 0 1-.4.74 1.45 1.45 0 0 1-.67.4 3.55 3.55 0 0 1-.94.1zm0-4.3a2.02 2.02 0 0 0-.56.06.6.6 0 0 0-.3.2.97.97 0 0 0-.18.42 3.95 3.95 0 0 0-.06.75v.5a4.02 4.02 0 0 0 .06.77.96.96 0 0 0 .17.42.6.6 0 0 0 .3.2 2.44 2.44 0 0 0 1.13 0 .63.63 0 0 0 .32-.2.93.93 0 0 0 .18-.42 4.04 4.04 0 0 0 .05-.76v-.5a4 4 0 0 0-.03-.76.93.93 0 0 0-.18-.42.63.63 0 0 0-.33-.2 2.02 2.02 0 0 0-.56-.06zm5.6 4.2a.14.14 0 0 1-.14-.15V14.8a1.7 1.7 0 0 0-.05-.47.62.62 0 0 0-.13-.26.5.5 0 0 0-.24-.13 1.72 1.72 0 0 0-.4-.04 1.8 1.8 0 0 0-.63.1 2.03 2.03 0 0 0-.53.3v3.64a.14.14 0 0 1-.15.15h-.73a.14.14 0 0 1-.17-.17V13.2a.14.14 0 0 1 .15-.13h.48a.14.14 0 0 1 .13.1l.1.27a3 3 0 0 1 .6-.32 2.44 2.44 0 0 1 .9-.15 2.68 2.68 0 0 1 .73.1 1.2 1.2 0 0 1 .55.3 1.35 1.35 0 0 1 .3.6 3.16 3.16 0 0 1 .1.82v3.13a.14.14 0 0 1-.16.15zm4.43 0a.14.14 0 0 1-.15-.15V14.8a1.7 1.7 0 0 0-.05-.47.6.6 0 0 0-.15-.26.5.5 0 0 0-.24-.13 1.72 1.72 0 0 0-.4-.04 1.8 1.8 0 0 0-.63.1 2.02 2.02 0 0 0-.5.3v3.64a.14.14 0 0 1-.15.15h-.73a.14.14 0 0 1-.14-.17V13.2a.14.14 0 0 1 .15-.13h.5a.14.14 0 0 1 .13.1l.1.27a2.98 2.98 0 0 1 .6-.32 2.44 2.44 0 0 1 .9-.15 2.68 2.68 0 0 1 .74.1 1.2 1.2 0 0 1 .53.3 1.35 1.35 0 0 1 .3.6 3.17 3.17 0 0 1 .1.82v3.13a.14.14 0 0 1-.14.15zm3.4.1a3.86 3.86 0 0 1-.93-.1 1.5 1.5 0 0 1-.7-.4 1.7 1.7 0 0 1-.4-.72 4.06 4.06 0 0 1-.14-1.14v-.5a4.12 4.12 0 0 1 .13-1.12 1.7 1.7 0 0 1 .4-.74 1.5 1.5 0 0 1 .67-.4 3.47 3.47 0 0 1 .9-.1 3.3 3.3 0 0 1 .87.1 1.47 1.47 0 0 1 .66.4 1.66 1.66 0 0 1 .4.72 4.24 4.24 0 0 1 .13 1.12v.55a.14.14 0 0 1-.14.14h-3a3.4 3.4 0 0 0 .04.6.88.88 0 0 0 .18.4.66.66 0 0 0 .33.2 2.18 2.18 0 0 0 .58.08 6.56 6.56 0 0 0 .87-.05c.26-.03.5-.08.74-.12a.17.17 0 0 1 .03 0 .14.14 0 0 1 .14.15v.63a.14.14 0 0 1-.1.14 6.94 6.94 0 0 1-.74.14 8 8 0 0 1-.92.05zm.97-3.04a4.32 4.32 0 0 0-.04-.56 1 1 0 0 0-.15-.42.56.56 0 0 0-.27-.2 1.7 1.7 0 0 0-.54-.08 1.9 1.9 0 0 0-.57.07.6.6 0 0 0-.3.2.98.98 0 0 0-.18.42 3.46 3.46 0 0 0-.05.55zm3.45 3.04a3.62 3.62 0 0 1-.92-.1 1.48 1.48 0 0 1-.7-.4 1.7 1.7 0 0 1-.4-.74 4.26 4.26 0 0 1-.12-1.12v-.5a4.1 4.1 0 0 1 .15-1.13 1.7 1.7 0 0 1 .4-.7 1.47 1.47 0 0 1 .7-.4 3.63 3.63 0 0 1 .9-.1 2.4 2.4 0 0 1 1.5.4 1.6 1.6 0 0 1 .5 1.3.14.14 0 0 1-.15.15h-.74a.14.14 0 0 1-.15-.14 1.3 1.3 0 0 0-.03-.4.5.5 0 0 0-.14-.2.65.65 0 0 0-.28-.14 2.54 2.54 0 0 0-1.04 0 .58.58 0 0 0-.3.2 1 1 0 0 0-.2.43 3.68 3.68 0 0 0-.05.74v.5a3.73 3.73 0 0 0 .06.77 1 1 0 0 0 .2.43.6.6 0 0 0 .3.2 2.55 2.55 0 0 0 1.05 0 .64.64 0 0 0 .28-.12.5.5 0 0 0 .14-.22 1.33 1.33 0 0 0 .05-.4.15.15 0 0 1 .16-.14h.73a.14.14 0 0 1 .15.14 1.6 1.6 0 0 1-.5 1.34 2.4 2.4 0 0 1-1.5.4zm3.97 0a1.25 1.25 0 0 1-.97-.35 1.48 1.48 0 0 1-.3-1.02V14h-.48a.14.14 0 0 1-.14-.15v-.5a.14.14 0 0 1 .12-.15l.5-.1v-1.03a.15.15 0 0 1 .1-.14l.75-.12h.02a.15.15 0 0 1 .15.16v1.13h.92a.14.14 0 0 1 .13.14v.62a.14.14 0 0 1-.15.14h-.93v2.85a.54.54 0 0 0 .1.33.36.36 0 0 0 .28.1 1.5 1.5 0 0 0 .32-.03l.3-.06a.14.14 0 0 1 .16.12v.62a.15.15 0 0 1-.1.14 2.12 2.12 0 0 1-.36.07 3.24 3.24 0 0 1-.44.03z" class="cls-11"/>
</svg>
