<svg xmlns="http://www.w3.org/2000/svg" viewBox="0 0 48 30">
  <defs>
    <style>
      .cls-1{fill:#232856;}.cls-2{fill:#cc1417;}.cls-3{fill:#f49819;}.cls-4{fill:#fff;}
    </style>
  </defs>
  <rect width="48" height="30" class="cls-1" rx="4" ry="4"/>
  <circle cx="16.41" cy="15" r="11.3" class="cls-2"/>
  <path d="M31.6 3.7A11.26 11.26 0 0 0 24 6.63a11.52 11.52 0 0 0-1.15 1.2h2.28a11.6 11.6 0 0 1 .86 1.2h-4a11.33 11.33 0 0 0-.66 1.2h5.3a11.25 11.25 0 0 1 .48 1.18h-6.26a11.2 11.2 0 0 0-.33 1.2h6.92a11.38 11.38 0 0 1-.33 6h-6.26a11.36 11.36 0 0 0 .48 1.2h5.3A11.33 11.33 0 0 1 26 21h-4a11.42 11.42 0 0 0 .85 1.2h2.28A11.3 11.3 0 0 1 24 23.4a11.3 11.3 0 1 0 7.6-19.7zm9.78 17.6a.36.36 0 1 1 .36.36.36.36 0 0 1-.36-.36zm.36.28a.28.28 0 1 0-.27-.28.28.28 0 0 0 .27.27zm-.05-.12h-.1v-.32h.14a.15.15 0 0 1 .1 0 .1.1 0 0 1 .03.1.1.1 0 0 1-.06.08l.07.14h-.08l-.06-.13h-.06zm0-.18h.03a.1.1 0 0 0 .04 0 .04.04 0 0 0 .02-.05.04.04 0 0 0-.03-.03.1.1 0 0 0-.05 0h-.04z" class="cls-3"/>
  <path d="M13.78 16.24a2.1 2.1 0 0 0-.28-.02c-.7 0-1.04.24-1.04.7a.43.43 0 0 0 .44.48c.5 0 .86-.47.88-1.16zm.9 2.07h-1.03l.02-.46a1.54 1.54 0 0 1-1.28.57 1.15 1.15 0 0 1-1.14-1.27c0-1.13.8-1.8 2.15-1.8a4.2 4.2 0 0 1 .5.04 1.15 1.15 0 0 0 .06-.3c0-.3-.2-.42-.8-.42a4.1 4.1 0 0 0-1.3.2c.03-.07.18-1.04.18-1.04a4.87 4.87 0 0 1 1.47-.24c1.07 0 1.6.47 1.6 1.37a5.97 5.97 0 0 1-.1.92l-.34 2.47zm-3.92 0H9.53l.7-4.4-1.57 4.4h-.83l-.1-4.36L7 18.3H5.83l.96-5.72h1.75l.1 3.2 1.08-3.2h1.97l-.94 5.73zm22.34-2.05a2.1 2.1 0 0 0-.27-.02c-.7 0-1.05.24-1.05.7a.43.43 0 0 0 .44.48c.5 0 .86-.46.88-1.15zm.9 2.07h-1.02l.02-.47a1.54 1.54 0 0 1-1.28.56 1.15 1.15 0 0 1-1.12-1.27c0-1.13.8-1.8 2.15-1.8a4.2 4.2 0 0 1 .5.04 1.14 1.14 0 0 0 .04-.3c0-.3-.23-.43-.8-.43a4.1 4.1 0 0 0-1.3.2l.17-1.03a4.87 4.87 0 0 1 1.47-.24c1.05 0 1.6.47 1.6 1.37a5.92 5.92 0 0 1-.1.92c-.1.67-.33 2.12-.36 2.47zm-13.88-.06a2.8 2.8 0 0 1-.88.16.9.9 0 0 1-.97-1.03 10.75 10.75 0 0 1 .17-1.25l.53-3.18h1.22l-.16.7h.73l-.16 1.12h-.73c-.14.9-.34 2-.35 2.13 0 .25.13.36.42.36a1 1 0 0 0 .33-.06zm3.74-.03a4.15 4.15 0 0 1-1.25.2 1.85 1.85 0 0 1-2.06-2.08c0-1.6.9-2.77 2.14-2.77a1.56 1.56 0 0 1 1.64 1.68 4.98 4.98 0 0 1-.14 1.15h-2.43c-.08.7.36.97 1.07.97a2.9 2.9 0 0 0 1.26-.3zm-.7-2.76c.02-.1.14-.83-.55-.83-.37 0-.65.3-.76.84zm-7.76-.3a1.36 1.36 0 0 0 .94 1.3c.5.22.57.3.57.5 0 .3-.2.42-.7.42a3.45 3.45 0 0 1-1.1-.2l-.15 1.1a5.72 5.72 0 0 0 1.28.12c1.3 0 1.9-.5 1.9-1.56a1.28 1.28 0 0 0-.88-1.3c-.5-.24-.57-.3-.57-.5 0-.26.2-.4.6-.4a6.77 6.77 0 0 1 .88.08l.18-1.08a8.28 8.28 0 0 0-1.08-.1c-1.37 0-1.85.73-1.85 1.6zm14.42-1.47a2.33 2.33 0 0 1 1.1.3l.2-1.23a3.6 3.6 0 0 0-1.34-.5 2.44 2.44 0 0 0-2 1.1c-.72-.24-1 .23-1.37.7l-.3.08a2.38 2.38 0 0 0 .04-.47H25c-.15 1.45-.43 2.9-.64 4.35l-.06.3h1.23l.4-2.75.45-.25c.07-.26.28-.35.72-.34a5.23 5.23 0 0 0-.1.95c0 1.52.83 2.47 2.15 2.47a3.83 3.83 0 0 0 1.1-.17l.2-1.3a2.4 2.4 0 0 1-1.04.3c-.7 0-1.13-.54-1.13-1.4 0-1.27.65-2.16 1.56-2.16zm10.4-1.1l-.28 1.67a1.53 1.53 0 0 0-1.17-.76 1.9 1.9 0 0 0-1.56 1.17 10.07 10.07 0 0 1-1.02-.3 6.9 6.9 0 0 0 .06-.7H35.1c-.15 1.46-.43 2.92-.64 4.36l-.06.3h1.23c.17-1.06.3-1.96.4-2.66.4-.38.62-.7 1.04-.7a4 4 0 0 0-.3 1.52c0 1.15.6 1.92 1.48 1.92a1.45 1.45 0 0 0 1.13-.52l-.05.43h1.16l.9-5.72zm-1.54 4.67c-.42 0-.63-.3-.63-.92 0-.92.4-1.57.95-1.57.42 0 .65.32.65.92 0 .92-.4 1.57-.97 1.57z" class="cls-1"/>
  <path d="M11.1 17.97H9.9l.7-4.4-1.6 4.4h-.8l-.1-4.38-.74 4.36H6.2l.95-5.73H8.9l.06 3.55 1.2-3.56h1.9l-.95 5.73zm3.03-2.07a2.04 2.04 0 0 0-.27-.02c-.7 0-1.05.24-1.05.7a.43.43 0 0 0 .46.48c.5 0 .86-.47.88-1.16zm.9 2.07H14l.03-.48a1.54 1.54 0 0 1-1.3.55 1.15 1.15 0 0 1-1.1-1.28c0-1.13.8-1.8 2.15-1.8a4.1 4.1 0 0 1 .5.04 1.15 1.15 0 0 0 .04-.3c0-.3-.2-.4-.78-.4a4.07 4.07 0 0 0-1.3.2c0-.08.17-1.05.17-1.05a4.9 4.9 0 0 1 1.5-.25c1.04 0 1.6.48 1.6 1.38a5.96 5.96 0 0 1-.1.92c-.1.67-.34 2.12-.37 2.47zm16.45-5.57l-.2 1.24a2.34 2.34 0 0 0-1.1-.3c-.92 0-1.56.88-1.56 2.14 0 .87.43 1.4 1.15 1.4a2.38 2.38 0 0 0 1.04-.3l-.2 1.3a3.83 3.83 0 0 1-1.1.18c-1.3 0-2.12-.95-2.12-2.48 0-2.05 1.13-3.48 2.76-3.48a4.25 4.25 0 0 1 1.35.3zm1.97 3.5a2.03 2.03 0 0 0-.27-.02c-.7 0-1.05.24-1.05.7a.43.43 0 0 0 .44.48c.5 0 .86-.47.88-1.16zm.9 2.07h-1.02l.02-.48a1.54 1.54 0 0 1-1.28.55 1.15 1.15 0 0 1-1.12-1.28c0-1.13.8-1.8 2.15-1.8a4.1 4.1 0 0 1 .5.04 1.15 1.15 0 0 0 .05-.3c0-.3-.2-.4-.8-.4a4.08 4.08 0 0 0-1.3.2c.03-.08.18-1.05.18-1.05a4.9 4.9 0 0 1 1.47-.25c1.06 0 1.6.48 1.6 1.38a5.9 5.9 0 0 1-.1.92c-.1.67-.32 2.12-.35 2.47zm-13.88-.07a2.8 2.8 0 0 1-.88.16.9.9 0 0 1-1-1.03 10.8 10.8 0 0 1 .18-1.24c.06-.46.52-3.2.52-3.2h1.22l-.14.7H21l-.16 1.12h-.63c-.13.9-.33 2-.33 2.14 0 .24.12.35.4.35a.98.98 0 0 0 .34-.04zm3.74-.03a4.18 4.18 0 0 1-1.23.2 1.85 1.85 0 0 1-2.08-2.1c0-1.6.9-2.76 2.13-2.76a1.56 1.56 0 0 1 1.65 1.7 5.05 5.05 0 0 1-.15 1.15H22.1c-.1.68.34.96 1.05.96a2.9 2.9 0 0 0 1.26-.3zm-.66-2.77c0-.1.13-.83-.57-.83-.4 0-.67.3-.78.83zm-7.77-.3a1.36 1.36 0 0 0 .93 1.3c.5.22.57.3.57.5 0 .3-.22.42-.7.42a3.46 3.46 0 0 1-1.1-.18l-.17 1.08a5.68 5.68 0 0 0 1.27.14c1.3 0 1.9-.5 1.9-1.56a1.27 1.27 0 0 0-.87-1.3c-.52-.24-.57-.3-.57-.5 0-.26.2-.4.6-.4a6.82 6.82 0 0 1 .88.08l.2-1.08a8.35 8.35 0 0 0-1.1-.1c-1.36 0-1.83.73-1.83 1.6zm25.08 3.17H39.7l.05-.43a1.45 1.45 0 0 1-1.13.52c-.9 0-1.48-.77-1.48-1.94 0-1.55.92-2.86 2-2.86a1.38 1.38 0 0 1 1.17.64l.27-1.66h1.2zm-1.8-1.07c.56 0 .96-.65.96-1.57 0-.6-.22-.92-.64-.92-.55 0-.95.67-.95 1.6 0 .6.2.9.64.9zm-3.6-3.6c-.14 1.46-.4 2.92-.63 4.36l-.04.3H36c.44-2.84.55-3.4 1.24-3.32a4.57 4.57 0 0 1 .46-1.36c-.5-.1-.8.2-1.17.74a4.25 4.25 0 0 0 .08-.7zm-10.1 0c-.14 1.46-.4 2.92-.63 4.36l-.04.3h1.22c.44-2.84.55-3.4 1.24-3.32a4.6 4.6 0 0 1 .46-1.36c-.5-.1-.8.2-1.17.74a4.2 4.2 0 0 0 .08-.7zm16.04 4.3a.36.36 0 1 1 .35.37.36.36 0 0 1-.36-.36zm.35.3a.28.28 0 1 0-.27-.3.28.28 0 0 0 .27.28zm-.05-.13h-.08v-.32h.13a.15.15 0 0 1 .08 0 .1.1 0 0 1 .05.1.1.1 0 0 1-.06.08l.06.14h-.08l-.05-.13h-.06zm0-.18h.03a.1.1 0 0 0 .05-.03.04.04 0 0 0 .02-.04.04.04 0 0 0-.02-.03.1.1 0 0 0-.05 0h-.04z" class="cls-4"/>
</svg>
