<svg xmlns="http://www.w3.org/2000/svg" viewBox="0 0 48.06 30">
  <defs>
    <style>
      .a{fill:#fff;}.b{fill:#0023a0;}.c{fill:#ffa000;}
    </style>
  </defs>
  <path d="M0 6.06h48.06v17.87H0z" class="a"/>
  <path d="M0 6.06V4a4 4 0 0 1 4-4h40a4 4 0 0 1 4 4v2.06z" class="b"/>
  <path d="M48 23.94V26a4 4 0 0 1-4 4H4a4 4 0 0 1-4-4v-2.06z" class="c"/>
  <path d="M19.06 19.6l1.48-9.17h2.37l-1.46 9.17h-2.37M30 10.65a5.86 5.86 0 0 0-2.12-.4c-2.34 0-4 1.25-4 3 0 1.33 1.18 2.06 2.07 2.5s1.23.74 1.23 1.14c0 .6-.74.9-1.42.9a4.75 4.75 0 0 1-2.23-.5l-.3-.15-.33 2a7.16 7.16 0 0 0 2.64.5c2.5 0 4.1-1.24 4.12-3.14 0-1-.62-1.83-2-2.5-.83-.4-1.34-.7-1.33-1.12s.43-.8 1.36-.8a4.16 4.16 0 0 1 1.75.35l.2.1.33-2M36.1 10.43h-1.83a1.17 1.17 0 0 0-1.27.77l-3.52 8.4H32l.5-1.38h3l.3 1.37H38l-1.92-9.2m-2.92 5.9l.94-2.54s.2-.53.3-.88l.17.78.55 2.65zM17 10.44l-2.32 6.25-.25-1.27a7 7 0 0 0-3.28-3.83l2.12 8h2.5l3.74-9.16H17" class="b"/>
  <path d="M12.6 10.43H8.8v.2a8 8 0 0 1 5.74 4.8l-.83-4.22a1 1 0 0 0-1.1-.76z" class="c"/>
  <path d="M38.78 18.5a.52.52 0 1 1-.52.53.52.52 0 0 1 .52-.52zm0 1a.44.44 0 1 0-.42-.45.43.43 0 0 0 .42.44zm-.2-.7h.24a.15.15 0 0 1 .17.13.12.12 0 0 1-.1.12c.06 0 .06.07.06.13v.12h-.1v-.12c0-.12 0-.1-.1-.1h-.1v.22h-.1zm.1.23h.12c.08 0 .1 0 .1-.08s0-.08-.1-.08h-.1z" class="b"/>
</svg>
