<svg xmlns="http://www.w3.org/2000/svg" viewBox="0 0 48 30">
  <defs>
    <style>
      .cls-1{fill:#232856;}.cls-2,.cls-4{fill:#fff;}.cls-3{fill:#0386c7;}.cls-3,.cls-4,.cls-5{fill-rule:evenodd;}.cls-5{fill:#e52332;}
    </style>
  </defs>
  <rect width="48" height="30" class="cls-1" rx="4" ry="4"/>
  <path d="M8.38 11.56h32.24v8.13H8.38z" class="cls-2"/>
  <path d="M26.64 14.63c0 .22.07.27.67.5a2.5 2.5 0 0 1 .45.23v-.26c0-.28 0-.56-.03-.84h-.36c-.46 0-.7.12-.7.37zm-9.6 1.9a.46.46 0 0 0 .52.5 1.08 1.08 0 0 0 1-1.18 2.58 2.58 0 0 0-.3-.02c-.8 0-1.2.24-1.2.7zm6.44-1.73a.58.58 0 0 0-.67-.6c-.43 0-.75.3-.9.84h1.57l.02-.23zm2.62 3.22q-.26 0-.77-.04l-.37-.04-.26-.05-.07-.03.2-1.1a4.55 4.55 0 0 0 1.27.2c.57 0 .82-.13.82-.43 0-.2-.1-.28-.67-.5-.75-.32-1.08-.73-1.08-1.33 0-.85.55-1.57 2.14-1.57h.28a11.4 11.4 0 0 0-3.55-6.48 11.22 11.22 0 0 0-7.6-2.95 11.4 11.4 0 0 0 0 22.8 11.22 11.22 0 0 0 7.6-2.95 11.4 11.4 0 0 0 3.4-5.73 3.66 3.66 0 0 1-1.3.2zm-12.5-.08l.85-4.44-1.93 4.44h-1.28l-.24-4.4-.84 4.4H8.9l1.08-5.78h2.2l.1 3.58 1.56-3.58h2.3L15 17.96zm6.4-2.5l-.28 1.67-.05.3-.04.26-.02.16v.14h-1.2l.03-.5a1.88 1.88 0 0 1-1.47.6 1.22 1.22 0 0 1-1.3-1.3c0-1.14.92-1.8 2.48-1.8a5.4 5.4 0 0 1 .58.03 1.03 1.03 0 0 0 .05-.3c0-.33-.25-.45-.9-.45a5.17 5.17 0 0 0-1.18.14l-.2.04-.13.03.2-1.06a6.33 6.33 0 0 1 1.68-.25c1.2 0 1.84.48 1.84 1.38a4.87 4.87 0 0 1-.1.93zm3 1.52a3.73 3.73 0 0 0 1.45-.3l-.24 1.18a5.45 5.45 0 0 1-1.42.2c-1.57 0-2.4-.73-2.4-2.12a2.57 2.57 0 0 1 2.47-2.8 1.7 1.7 0 0 1 1.9 1.7 4.47 4.47 0 0 1-.18 1.17h-2.8a.9.9 0 0 0 0 .13c0 .54.4.82 1.23.82z" class="cls-3"/>
  <path d="M41.42 21.45a.36.36 0 1 1 .37.37.37.37 0 0 1-.4-.37zm.37.28a.28.28 0 1 0-.3-.28.28.28 0 0 0 .3.28zm-.07-.12h-.08v-.3h.14a.14.14 0 0 1 .07 0 .1.1 0 0 1 .04.1.1.1 0 0 1-.04.08l.06.14h-.1l-.04-.1h-.06v-.07h.04a.1.1 0 0 0 .04 0 .04.04 0 0 0 .02-.04.04.04 0 0 0-.02-.03.1.1 0 0 0-.04 0h-.04v.26zm-2.35-4.12h-.05v.08h.04a.1.1 0 0 0 .03 0 .04.04 0 0 0 .02-.04.04.04 0 0 0-.02-.03.1.1 0 0 0-.04 0zm.02-.18a.28.28 0 1 0 .27.27.28.28 0 0 0-.27-.28zm.05.43l-.05-.12h-.05v.14h-.08v-.32h.14a.14.14 0 0 1 .1.03.1.1 0 0 1 .04.08.1.1 0 0 1-.05.1l.05.14z" class="cls-4"/>
  <path d="M37.02 14.25c-.72 0-1.17.86-1.17 1.6 0 .65.3 1.08.8 1.07a1.4 1.4 0 0 0 1.1-1.15 3.23 3.23 0 0 0 .04-.56c0-.47-.2-.94-.8-.94zM31.62 3.7a11.22 11.22 0 0 0-7.6 2.96 11.46 11.46 0 0 0-1.14 1.2h2.3a11.46 11.46 0 0 1 .85 1.2h-4a11.4 11.4 0 0 0-.66 1.22h5.3a11.32 11.32 0 0 1 .5 1.2H20.9a11.4 11.4 0 0 0-.35 1.2h6.93l.07.47c.32 0 .7.04 1 .08l-.2 1.1c-.23-.04-.46-.06-.66-.07l.03.84v.26a1.18 1.18 0 0 1 .57 1.1 1.33 1.33 0 0 1-.88 1.36q-.12.46-.26.9H20.9a11.3 11.3 0 0 0 .47 1.2h5.3a11.44 11.44 0 0 1-.64 1.22h-4a11.44 11.44 0 0 0 .85 1.2h2.3a11.45 11.45 0 0 1-1.16 1.2 11.22 11.22 0 0 0 7.6 2.96 11.4 11.4 0 0 0 0-22.8zm-1.06 13.2a1.32 1.32 0 0 0 .38-.06l-.2 1.04a3.62 3.62 0 0 1-1 .15c-.72 0-1.1-.36-1.1-1.03a2.36 2.36 0 0 1 .03-.42l.08-.46.07-.37.65-3.6h1.4l-.2 1.1h.72l-.2 1.13h-.74l-.37 1.96a1.12 1.12 0 0 0-.03.2c0 .24.14.35.48.35zM34 14.55c-.66 0-.88.5-1.38 3.38h-1.4l.85-4.7h1.27l-.13.7c.46-.54.8-.75 1.25-.75a.8.8 0 0 1 .14 0s.04 0 .1.03a.76.76 0 0 1 .17.06l-.5 1.33-.17-.03a1.6 1.6 0 0 0-.2 0zm2.5 3.5a2 2 0 0 1-2.23-2.16 2.63 2.63 0 0 1 2.77-2.8 2.04 2.04 0 0 1 2.24 2.12 3 3 0 0 1-.04.58 2.48 2.48 0 0 1-2.73 2.27zm2.9-.12a.37.37 0 1 1 .36-.37.37.37 0 0 1-.36.37z" class="cls-5"/>
</svg>
