<svg xmlns="http://www.w3.org/2000/svg" viewBox="0 0 48 30">
  <defs>
    <style>
      .cls-1{fill:#0f8fcf;}.cls-2{fill:#fff;}.cls-3{fill:#e30f13;}
    </style>
  </defs>
  <rect width="48" height="30" class="cls-1" rx="4" ry="4"/>
  <path d="M9.44 14.47a1.07 1.07 0 0 1 .2-.68.86.86 0 0 1 .25-.2.76.76 0 0 1 .3-.06h1.22q.82 0 .83.9v1.8a.75.75 0 0 1-.25.54.78.78 0 0 1-.55.24H10.3v1.3h-.87zm1.96.17q0-.2-.2-.2h-.66a.23.23 0 0 0-.25.25v1.2a.24.24 0 0 0 .25.24h.62a.2.2 0 0 0 .15-.07.17.17 0 0 0 .07-.14zm3.52-.02c0-.13-.07-.2-.23-.2h-1.75v-.87h1.95a.76.76 0 0 1 .87.82v1.85a.85.85 0 0 1-.2.58.72.72 0 0 1-.57.23h-1.18q-.86 0-.87-.78v-.7a.74.74 0 0 1 .83-.84h1.14zm-1.1 1.36a.14.14 0 0 0 .06.12.22.22 0 0 0 .15.05h.66c.13 0 .2-.06.2-.17v-.25c0-.13-.07-.2-.23-.2h-.65a.3.3 0 0 0-.17.04.28.28 0 0 0-.05.2zm4.36 1.48a.28.28 0 0 0 .17-.08.18.18 0 0 0 .07-.14v-.2h-1.1a.9.9 0 0 1-.34-.06.8.8 0 0 1-.27-.18.88.88 0 0 1-.16-.3.9.9 0 0 1-.06-.35v-2.6h.86v2.32c0 .2.07.28.23.28h.6a.27.27 0 0 0 .2-.07.18.18 0 0 0 .06-.15v-2.38h.85v3.84a1.08 1.08 0 0 1-.2.66.74.74 0 0 1-.6.27h-2v-.88zm1.77-1.3h1.53c.13 0 .2-.07.2-.18v-.08a.18.18 0 0 0 0-.07c-.04-.07-.08-.1-.13-.1h-.76a.85.85 0 0 1-.6-.23.66.66 0 0 1-.25-.5v-.67q0-.77.83-.78h1.77v.88h-1.5c-.18 0-.27.06-.27.17v.08c0 .1.1.17.27.17h.76a.7.7 0 0 1 .5.23.78.78 0 0 1 .25.54v.64a.85.85 0 0 1-.25.54.7.7 0 0 1-.24.2.98.98 0 0 1-.34.03h-1.8zm5.2-1.54c0-.13-.07-.2-.23-.2H23.2v-.87h1.94a.76.76 0 0 1 .86.82v1.85a.86.86 0 0 1-.22.58.72.72 0 0 1-.56.23h-1.17q-.86 0-.87-.78v-.7a.74.74 0 0 1 .83-.84h1.16zm-1.1 1.36a.14.14 0 0 0 .05.12.22.22 0 0 0 .16.05h.66c.15 0 .22-.06.23-.17v-.25c0-.13-.08-.2-.24-.2h-.63a.3.3 0 0 0-.18.04.28.28 0 0 0-.06.2zm2.65-2.93a.73.73 0 0 1 .26-.57 1 1 0 0 1 .66-.23h.54v.86h-.33c-.18 0-.27.1-.27.28v.18h.6v.88h-.6v2.6h-.86zm2.84 2.8v.06a.24.24 0 0 0 .06.18.12.12 0 0 0 .1.08h1.77v.88H29.6a1.3 1.3 0 0 1-.4-.04.73.73 0 0 1-.28-.18.73.73 0 0 1-.2-.3 1.27 1.27 0 0 1-.04-.4v-1.76a.74.74 0 0 1 .82-.8h1.16a.75.75 0 0 1 .8.83v.7zm1.06-1.24a.14.14 0 0 0-.05-.12.25.25 0 0 0-.15-.04h-.6a.26.26 0 0 0-.18.07.2.2 0 0 0-.1.17V15zm2.7 2.44a1.8 1.8 0 0 1-.37-.03.76.76 0 0 1-.34-.15.8.8 0 0 1-.26-.34 1.2 1.2 0 0 1-.07-.42v-1.64a1.07 1.07 0 0 1 .04-.36.73.73 0 0 1 .2-.3.78.78 0 0 1 .3-.2 1.5 1.5 0 0 1 .38-.04h1.3v.2H33.2a.9.9 0 0 0-.53.14.62.62 0 0 0-.2.53v1.65a1.1 1.1 0 0 0 .04.34.6.6 0 0 0 .47.4 1.44 1.44 0 0 0 .3.04h1.23v.2zm4.8-.95a2.13 2.13 0 0 1-.04.35.8.8 0 0 1-.17.32.86.86 0 0 1-.7.28h-1a.9.9 0 0 1-.65-.24.84.84 0 0 1-.26-.65v-.53a.82.82 0 0 1 .87-.9h1.7v-.24a.8.8 0 0 0-.15-.5.52.52 0 0 0-.25-.2 1.27 1.27 0 0 0-.32-.03H35.3v-.2h1.76a2.63 2.63 0 0 1 .44.03.5.5 0 0 1 .2.08.62.62 0 0 1 .16.16 1.1 1.1 0 0 1 .23.7zm-.2-1.2h-1.74a.66.66 0 0 0-.48.2.7.7 0 0 0-.18.5v.54a1.1 1.1 0 0 0 .03.28.43.43 0 0 0 .16.24.76.76 0 0 0 .5.2h1.02a.6.6 0 0 0 .66-.7zm2.1-1.17q-.72.02-.7.8v2.5h-.2v-2.5q-.03-1 .93-1h.23v.2zm3.67 2.33a.9.9 0 0 1-1.06.97h-.75a2.1 2.1 0 0 1-.43-.04.82.82 0 0 1-.38-.25.8.8 0 0 1-.17-.34 1.3 1.3 0 0 1-.04-.4v-1.47a.9.9 0 0 1 1.02-1h1.6v-1.15h.22zm-.2-2.32h-1.63a1.25 1.25 0 0 0-.32.03.56.56 0 0 0-.3.18.6.6 0 0 0-.15.27.9.9 0 0 0-.04.32v1.6a.6.6 0 0 0 .24.55.92.92 0 0 0 .25.1 1.24 1.24 0 0 0 .32.02h.7a1.06 1.06 0 0 0 .66-.2.7.7 0 0 0 .26-.6z" class="cls-2"/>
  <path d="M4.67 13.42a1.05 1.05 0 0 1 .2-.07 1.3 1.3 0 0 1 2.55 0 .94.94 0 0 1 .48.23 1.88 1.88 0 0 0 0-.32 1.75 1.75 0 0 0-3.5.08 2.5 2.5 0 0 0 0 .25 1.12 1.12 0 0 1 .27-.2m2.5.15h-2.1a.76.76 0 0 0-.3.07.87.87 0 0 0-.26.17 1.07 1.07 0 0 0-.2.66v1.64a1.07 1.07 0 0 0 .2.7.85.85 0 0 0 .27.16.78.78 0 0 0 .32.07h2.1q.8 0 .8-.88v-1.7q0-.9-.82-.9" class="cls-3"/>
</svg>
