<svg xmlns="http://www.w3.org/2000/svg" viewBox="0 0 48 30">
  <defs>
    <style>
      .cls-1{fill:#89be44;}.cls-2{fill:#fff;}.cls-3{fill:#16427c;}
    </style>
  </defs>
  <rect width="48" height="30" class="cls-1" rx="4" ry="4"/>
  <path d="M11.03 15.97c.04-3.6 5-6.46 11.03-6.38a14.88 14.88 0 0 1 8.23 2.33c-2-1.75-5.36-2.93-9.2-3-6.14-.07-11.15 2.77-11.2 6.34a5 5 0 0 0 2.14 3.88 5.7 5.7 0 0 1-1.02-3.2z" class="cls-2"/>
  <path d="M21.6 16.3a1 1 0 0 1-.3.85 1.62 1.62 0 0 1-.98.24h-4.78a1.18 1.18 0 0 0 .7 1.06 3.02 3.02 0 0 0 1.42.3 4.02 4.02 0 0 0 1.55-.4 4.23 4.23 0 0 1 1.18-.4 1.07 1.07 0 0 1 .77.33 1.02 1.02 0 0 1 .33.74q0 1-1.63 1.57a7.7 7.7 0 0 1-2.52.44A4.52 4.52 0 0 1 14 19.76a4.33 4.33 0 0 1-1.3-3.2 4.26 4.26 0 0 1 1.34-3.15 4.48 4.48 0 0 1 3.3-1.3 4.12 4.12 0 0 1 3.04 1.23 4.06 4.06 0 0 1 1.23 2.96zm-2.66-.6a1.4 1.4 0 0 0-.55-1.03 1.68 1.68 0 0 0-2.33 0 1.33 1.33 0 0 0-.54 1.02zm10.48 3.63q0 .84-1.17 1.33a5 5 0 0 1-1.96.4 4.24 4.24 0 0 1-3.27-1.35 4.4 4.4 0 0 1-1.2-3.12 4.43 4.43 0 0 1 1.23-3.17 4.23 4.23 0 0 1 3.22-1.3 5.6 5.6 0 0 1 1.97.33q1.15.42 1.15 1.32a1.18 1.18 0 0 1-.3.8 1 1 0 0 1-.78.35 3.32 3.32 0 0 1-.93-.2 3.36 3.36 0 0 0-.96-.2 1.8 1.8 0 0 0-1.47.6 2.14 2.14 0 0 0-.5 1.47 2.3 2.3 0 0 0 .45 1.42 1.6 1.6 0 0 0 1.37.65 3.74 3.74 0 0 0 1.05-.2 3.8 3.8 0 0 1 .98-.23 1 1 0 0 1 .76.35 1.1 1.1 0 0 1 .3.75zm8.66-2.76a4.42 4.42 0 0 1-1.2 3.14 4.62 4.62 0 0 1-6.5 0 4.4 4.4 0 0 1-1.2-3.12 4.4 4.4 0 0 1 1.2-3.15 4.66 4.66 0 0 1 6.5 0 4.4 4.4 0 0 1 1.2 3.15zm-2.65 0a2.3 2.3 0 0 0-.44-1.42 1.73 1.73 0 0 0-2.74 0 2.3 2.3 0 0 0-.43 1.42 2.35 2.35 0 0 0 .43 1.43A1.73 1.73 0 0 0 35 18a2.36 2.36 0 0 0 .43-1.43z" class="cls-3"/>
</svg>
