<svg xmlns="http://www.w3.org/2000/svg" viewBox="0 0 21.50002 13.01056">
  <path d="M13.4 2.54a1.7 1.7 0 0 0-.68-1.16 1.7 1.7 0 0 0-1.27-.42A2.35 2.35 0 0 0 10 2l-.1.1c-.43.52-3.22 3.53-3.25 3.56a.35.35 0 0 0 .52.47C7.3 6 10 3.08 10.45 2.53l.1-.1a1.8 1.8 0 0 1 .98-.78 1.2 1.2 0 0 1 1.15.96 2.18 2.18 0 0 1-.47 1.35v.02c0 .03-2.25 3.2-4.26 5.76a6.52 6.52 0 0 1-3.9 2.55L.8 6.68l3.68-4.25.02-.03a1.77 1.77 0 0 1 1.32-.7h2.4a.35.35 0 1 0 0-.7H5.8a2.45 2.45 0 0 0-1.9 1L.1 6.4a.35.35 0 0 0-.05.42l3.5 6a.35.35 0 0 0 .3.2 6.82 6.82 0 0 0 4.63-2.86c2-2.5 4.17-5.6 4.3-5.78a2.82 2.82 0 0 0 .6-1.84zm7.48-1.9A2.6 2.6 0 0 0 19.14 0H9.6a.35.35 0 0 0 0 .7h9.55a1.9 1.9 0 0 1 1.25.45 1.46 1.46 0 0 1 .4 1.1v4.73c0 .1-.1.96-1.74.96h-8.3a.35.35 0 1 0 0 .7h2.5c.06.38.07 1.06-.5 1.24-.75.22-1.22-.65-1.25-.7a.35.35 0 0 0-.6.34 2 2 0 0 0 1.6 1.1 1.53 1.53 0 0 0 .46-.06A1.65 1.65 0 0 0 14 8.66h5.07C21.47 8.66 21.5 7 21.5 7V2.22a2.12 2.12 0 0 0-.6-1.6zm-4.3 2.56a.44.44 0 0 1 .36-.15.55.55 0 0 1 .15 0 .45.45 0 0 1 .1.06.5.5 0 0 1 .1.1q.03.05.1.1a.2.2 0 0 0 .14.08.32.32 0 0 0 .14-.04l.23-.15a1.38 1.38 0 0 0-.15-.26.97.97 0 0 0-.2-.2 1 1 0 0 0-.28-.14 1.14 1.14 0 0 0-.36-.06 1.24 1.24 0 0 0-.5.1 1 1 0 0 0-.33.23 1 1 0 0 0-.2.36 1.38 1.38 0 0 0-.07.44v.58h-.27a.2.2 0 0 0-.15.05.2.2 0 0 0-.04.15v.2h.47v.63a.4.4 0 0 1-.1.3.5.5 0 0 1-.13.1.82.82 0 0 1-.16.05v.38h2.35a.24.24 0 0 0 .1 0 .26.26 0 0 0 .1-.07.28.28 0 0 0 .04-.08.24.24 0 0 0 0-.1V5.6h-1.43a1.6 1.6 0 0 0-.36.04.87.87 0 0 0 .17-.24.66.66 0 0 0 .06-.28v-.48h.83a.17.17 0 0 0 .12-.05.15.15 0 0 0 .05-.13v-.24h-1v-.57a.75.75 0 0 1 .12-.46z"/>
</svg>
