<svg xmlns="http://www.w3.org/2000/svg" viewBox="0 0 18.61727 20.01691">
  <path d="M16.96 0h-8.4A1.67 1.67 0 0 0 6.9 1.5l-2.22.43a1.67 1.67 0 0 0-1.3 1.25l-2.35.97a1.67 1.67 0 0 0-.9 2.18L5.35 19a1.66 1.66 0 0 0 2.17.9l5.42-2.25 3.14-.6h.85a1.67 1.67 0 0 0 1.67-1.68l.02-13.7A1.67 1.67 0 0 0 16.96.02zM7.23 19.2a.9.9 0 0 1-1.17-.48L.84 6.02a.9.9 0 0 1 .48-1.16L3.4 4l2.62 13.32a1.66 1.66 0 0 0 1.95 1.3l1.1-.2zm.6-1.3a.9.9 0 0 1-1.05-.7L4.13 3.73a.9.9 0 0 1 .7-1.05l2.06-.42-.04 13.08A1.67 1.67 0 0 0 8.52 17h3.6zm10-2.5a.9.9 0 0 1-.9.9l-8.4-.03a.9.9 0 0 1-.9-.9l.03-13.7a.9.9 0 0 1 .9-.88h8.4a.9.9 0 0 1 .9.9zm-3.8-7.47a1.88 1.88 0 0 0-1.28.5 1.9 1.9 0 0 0-2.63.04 1.86 1.86 0 0 0-.55 1.32 2 2 0 0 0 .6 1.4l2.3 2.3a.38.38 0 0 0 .54 0l2.3-2.3a2 2 0 0 0 .63-1.4 1.86 1.86 0 0 0-.55-1.33 1.88 1.88 0 0 0-1.34-.55zm.73 2.75l-2.02 2.02-2.02-2.03a1.24 1.24 0 0 1-.38-.87 1.1 1.1 0 0 1 .33-.78 1.12 1.12 0 0 1 1.58 0l.22.22a.4.4 0 0 0 .55 0l.2-.2a1.12 1.12 0 0 1 1.6 0 1.1 1.1 0 0 1 .33.76 1.24 1.24 0 0 1-.4.88zm-3.9-5.63a.4.4 0 1 0 .7-.3L10.4 1.93a.38.38 0 0 0-.72 0L8.5 4.73a.4.4 0 0 0 .7.3l.15-.3h1.37zm-1.2-1.1l.38-.88.36.9z"/>
</svg>
