<svg xmlns="http://www.w3.org/2000/svg" viewBox="0 0 20.16 20.16"><title>Casino</title><circle cx="4.42" cy="4.34" r=".72" transform="translate(-1.78 4.39) rotate(-45)"/><circle cx="10.16" cy="1.96" r=".72"/><circle cx="6.97" cy="17.77" r=".72" transform="translate(-12.11 17.41) rotate(-67.5)"/><circle cx="7.02" cy="2.56" r=".72" transform="translate(-.45 2.87) rotate(-22.44)"/><circle cx="4.35" cy="15.93" r=".72" transform="translate(-9.99 7.74) rotate(-45.01)"/><circle cx="1.96" cy="10.11" r=".72"/><circle cx="2.59" cy="13.25" r=".72" transform="translate(-4.88 2) rotate(-22.51)"/><circle cx="2.61" cy="7.03" r=".72" transform="translate(-4.88 6.75) rotate(-67.5)"/><circle cx="15.83" cy="4.43" r=".72" transform="translate(1.5 12.49) rotate(-45)"/><circle cx="18.2" cy="10.11" r=".72"/><circle cx="17.58" cy="7.03" r=".72" transform="translate(-1.35 7.27) rotate(-22.51)"/><circle cx="17.61" cy="13.25" r=".72" transform="translate(-1.38 24.45) rotate(-67.49)"/><circle cx="15.91" cy="15.83" r=".72" transform="translate(-6.54 15.88) rotate(-44.99)"/><circle cx="13.17" cy="2.76" r=".72" transform="translate(5.57 13.87) rotate(-67.49)"/><circle cx="10.16" cy="18.2" r=".72"/><circle cx="13.26" cy="17.56" r=".72" transform="translate(-5.71 6.41) rotate(-22.49)"/><path d="M12.26 7.46a.65.65 0 0 0-.77.76l-.85.78a1.2 1.2 0 0 0-1.12 0l-.83-.83a.65.65 0 1 0-.5.5l.8.9a1.2 1.2 0 0 0 0 1.1l-.83.83a.65.65 0 1 0 .5.5l.84-.83a1.2 1.2 0 0 0 1.14 0l.83.82a.64.64 0 1 0 .5-.5l-.83-.83a1.2 1.2 0 0 0 0-1.12l.86-.83a.65.65 0 0 0 .28-1.26zM10.1 3.87a6.22 6.22 0 1 0 6.22 6.23 6.22 6.22 0 0 0-6.2-6.23zm5 8.46l-.86-.4c-.08.14-.14.28-.22.42a4.4 4.4 0 0 1-.25.4l.78.54a5.57 5.57 0 0 1-1.22 1.2l-.54-.76-.4.26-.42.2.4.88a5.4 5.4 0 0 1-1.68.47l-.1-1a5.12 5.12 0 0 1-.93 0l-.1 1a5.43 5.43 0 0 1-1.68-.45l.4-.87-.46-.23-.4-.25-.55.8a5.53 5.53 0 0 1-1.25-1.25l.8-.53-.26-.4A1.08 1.08 0 0 1 6 12l-.9.38a5.42 5.42 0 0 1-.44-1.7l1-.1a2.27 2.27 0 0 1 0-.44 2.42 2.42 0 0 1 0-.45l-1-.1a5.43 5.43 0 0 1 .46-1.7l.88.36c.06-.14.14-.28.2-.4a4.25 4.25 0 0 1 .25-.38l-.8-.56A5.52 5.52 0 0 1 6.9 5.67l.55.8.4-.26.4-.2-.4-.9a5.42 5.42 0 0 1 1.7-.45l.1 1a5.12 5.12 0 0 1 .92 0l.1-1a5.5 5.5 0 0 1 1.65.44l-.4.9.4.22.4.25.55-.8a5.47 5.47 0 0 1 1.27 1.23l-.77.54.25.4c.06.13.14.27.2.4l.87-.4a5.35 5.35 0 0 1 .44 1.7l-1 .1a2.27 2.27 0 0 1 0 .46 2.42 2.42 0 0 1 0 .45l1 .1a5.4 5.4 0 0 1-.45 1.67zM10.1 0a10.08 10.08 0 1 0 10.06 10.1A10.08 10.08 0 0 0 10.1 0zm0 19.4a9.3 9.3 0 1 1 9.3-9.32 9.32 9.32 0 0 1-9.3 9.3z"/></svg>