<svg xmlns="http://www.w3.org/2000/svg" viewBox="0 0 20.129 11.58781">
  <path d="M.28 2.94A.28.28 0 0 0 0 3.2v4.83a.28.28 0 1 0 .55 0V3.2a.28.28 0 0 0-.27-.26zm7.9-.07a.28.28 0 0 0 .28-.27.35.35 0 0 1 .13-.23.3.3 0 0 1 .2-.1.3.3 0 0 0 .03 0 .28.28 0 0 0 .27-.23.27.27 0 0 0-.04-.2.28.28 0 0 0-.18-.1.68.68 0 0 0-.1 0 .86.86 0 0 0-.55.2.88.88 0 0 0-.32.65.28.28 0 0 0 .3.26zM2.9 2.8a.28.28 0 0 0 .28-.26.34.34 0 0 1 .12-.24.3.3 0 0 1 .2-.08.27.27 0 0 0 .05 0 .28.28 0 1 0 .04-.55.67.67 0 0 0-.1 0 .86.86 0 0 0-.56.22.88.88 0 0 0-.32.6.28.28 0 0 0 .27.3zm3.53.67h-3.4a.28.28 0 0 0-.3.27v1.18a.28.28 0 0 0 .3.27.27.27 0 0 0 .17-.08.84.84 0 0 1 .57-.23 1.84 1.84 0 0 1 .24 0l.16.03A4.55 4.55 0 0 0 4.8 5l-.1.12A3.6 3.6 0 0 0 3.94 8a.28.28 0 0 0 .27.23h1.23a.28.28 0 0 0 .27-.32 4.9 4.9 0 0 1 .8-2.9.26.26 0 0 0 .05-.12l.1-1.1a.28.28 0 0 0-.26-.3zm-.37 1.3l-.2.37a5.3 5.3 0 0 0-.7 2.47v.1H4.5a3.4 3.4 0 0 1 1.15-2.8.27.27 0 0 0 .05-.3.27.27 0 0 0-.25-.18.3.3 0 0 0-.05 0 2.8 2.8 0 0 1-.5.06 3.9 3.9 0 0 1-.62-.06l-.16-.02a2.35 2.35 0 0 0-.33-.03 1.3 1.3 0 0 0-.44.07l-.03.02v-.42h2.8zM17.66 0H2.44A1.47 1.47 0 0 0 .9 1.38v8.83a1.47 1.47 0 0 0 1.54 1.4h15.22a1.47 1.47 0 0 0 1.54-1.4V1.4A1.47 1.47 0 0 0 17.66 0zm1 10.2a.92.92 0 0 1-1 .84H2.44a.92.92 0 0 1-1-.83V1.4a.92.92 0 0 1 1-.83h15.22a.92.92 0 0 1 1 .83zm1.2-7.26a.28.28 0 0 0-.28.27v4.84a.28.28 0 0 0 .55 0V3.2a.28.28 0 0 0-.28-.26zm-2.93-2h-3.2a1.38 1.38 0 0 0-1.06.46 1.38 1.38 0 0 0-1.05-.47h-3.2a1.38 1.38 0 0 0-1.07.48A1.38 1.38 0 0 0 6.3.95H3.1A1.26 1.26 0 0 0 1.76 2.1v7.43a1.26 1.26 0 0 0 1.32 1.2h3.2a1.38 1.38 0 0 0 1.05-.5 1.38 1.38 0 0 0 1.06.5h3.2a1.38 1.38 0 0 0 1.06-.48 1.38 1.38 0 0 0 1.06.47h3.2a1.26 1.26 0 0 0 1.32-1.18V2.12a1.26 1.26 0 0 0-1.32-1.2zm-9.87 8.6a.7.7 0 0 1-.77.63H3.1a.7.7 0 0 1-.78-.64V2.1a.7.7 0 0 1 .77-.62h3.2a.7.7 0 0 1 .75.63zm5.32 0a.7.7 0 0 1-.76.63h-3.2a.7.7 0 0 1-.77-.64V2.1a.7.7 0 0 1 .76-.62h3.23a.7.7 0 0 1 .77.63zm5.32 0a.7.7 0 0 1-.77.63h-3.2a.7.7 0 0 1-.77-.64V2.1a.7.7 0 0 1 .77-.62h3.2a.7.7 0 0 1 .77.63zm-.67-6.07a.12.12 0 0 0-.03 0h-3.36a.28.28 0 0 0-.2.08.27.27 0 0 0-.07.2v1.17a.28.28 0 0 0 .28.27.27.27 0 0 0 .17-.08.84.84 0 0 1 .57-.23 1.85 1.85 0 0 1 .22 0l.14.03a4.56 4.56 0 0 0 .63.07l-.1.12A3.6 3.6 0 0 0 14.56 8a.28.28 0 0 0 .27.23h1.22a.28.28 0 0 0 .27-.32 4.9 4.9 0 0 1 .83-2.9.3.3 0 0 0 .03-.1l.1-1.1a.28.28 0 0 0-.26-.3zm-.4 1.3l-.18.37a5.3 5.3 0 0 0-.7 2.47v.1h-.67a3.4 3.4 0 0 1 1.16-2.8.27.27 0 0 0 .04-.3.27.27 0 0 0-.25-.18.3.3 0 0 0-.05 0 2.8 2.8 0 0 1-.5.06 3.9 3.9 0 0 1-.6-.06l-.18-.02a2.34 2.34 0 0 0-.32-.03 1.3 1.3 0 0 0-.42.07l-.04.02v-.42h2.78zm-4.96-1.3a.1.1 0 0 0-.02 0H8.3a.28.28 0 0 0-.2.08.27.27 0 0 0-.1.2l.02 1.17a.28.28 0 0 0 .27.27.27.27 0 0 0 .16-.08.84.84 0 0 1 .56-.23 1.85 1.85 0 0 1 .24 0l.14.03a4.56 4.56 0 0 0 .64.07l-.1.12A3.6 3.6 0 0 0 9.2 8a.28.28 0 0 0 .27.23h1.22a.28.28 0 0 0 .25-.32A4.9 4.9 0 0 1 11.8 5a.3.3 0 0 0 .03-.12l.1-1.1a.28.28 0 0 0-.26-.3zm-.38 1.3l-.2.37a5.3 5.3 0 0 0-.73 2.47v.1H9.7a3.4 3.4 0 0 1 1.17-2.8.27.27 0 0 0 .05-.3.27.27 0 0 0-.25-.18.3.3 0 0 0-.05 0 2.8 2.8 0 0 1-.5.06 3.9 3.9 0 0 1-.62-.06l-.15-.02a2.34 2.34 0 0 0-.32-.03 1.3 1.3 0 0 0-.43.07l-.03.02v-.42h2.78zm2.2-1.93a.28.28 0 0 0 .27-.27.34.34 0 0 1 .13-.23.32.32 0 0 1 .2-.1h.02a.28.28 0 0 0 .08-.54.68.68 0 0 0-.1 0 .86.86 0 0 0-.55.22.9.9 0 0 0-.32.63.28.28 0 0 0 .27.3z"/>
</svg>
