<svg xmlns="http://www.w3.org/2000/svg" viewBox="0 0 19.96999 16.05613">
  <path d="M12.96 0L6.6 6.35l-.2-.06a4.9 4.9 0 0 0-1.42-.23 5 5 0 1 0 4.8 3.57l-.07-.2 1.23-1.22v-1.8h1.98v-2h1.8l1.34-1.33V0h-.3zm2.46 2.84l-.97.97h-2.17v2h-2v2.17L9.12 9.14a.3.3 0 0 0-.06.34A4.35 4.35 0 1 1 1.9 8 4.3 4.3 0 0 1 5 6.7a4.45 4.45 0 0 1 1.6.3.36.36 0 0 0 .1.03.3.3 0 0 0 .22-.1l6.3-6.3h2.2zM7.1 10l-1.8.58v-1.9h-.6v1.9l-1.8-.6-.17.54 1.82.6-1.13 1.53.46.33L5 11.44l1.12 1.54.45-.33-1.12-1.54 1.82-.57L7.1 10zm7.95-.2l-1.28.4V8.87h-.4v1.35l-1.3-.4-.1.37 1.28.4-.8 1.1.33.22.8-1.08.78 1.08.32-.23-.8-1.1 1.3-.4-.13-.4zm4.92.37l-.12-.38-1.28.4V8.86h-.4v1.35l-1.3-.4-.1.37 1.28.4-.8 1.1.33.22.8-1.08.78 1.08.32-.23-.8-1.1 1.3-.4z"/>
</svg>
