<svg xmlns="http://www.w3.org/2000/svg" viewBox="0 0 10.25 19.98">
  <path d="M9.76 16.5a6.28 6.28 0 0 1-2.2-3.5 20.24 20.24 0 0 1-.86-6.07.93.93 0 0 0 .5-.95 1 1 0 0 0-.4-.9 16.73 16.73 0 0 1 .43-2.58.22.22 0 0 0 0-.08.43.43 0 0 0 0-.12.25.25 0 0 0-.05-.08l-.02-.02v-.02a.7.7 0 0 0-.1-.06h-.02a.34.34 0 0 1-.1 0H5.9V2.1h.26a.3.3 0 0 0 .3-.33v-.9a.3.3 0 0 0-.3-.3H5.9V.3a.3.3 0 0 0-.3-.3h-.9a.3.3 0 0 0-.32.3v.27h-.26a.3.3 0 0 0-.3.3v.9a.3.3 0 0 0 .3.32h.26-1.04a.36.36 0 0 0-.1.02H3.2a.24.24 0 0 0-.07.07l-.03.02a.16.16 0 0 0-.05.07.36.36 0 0 0-.02.1.22.22 0 0 0 0 .1 14.6 14.6 0 0 1 .45 2.57 1 1 0 0 0-.42.9.94.94 0 0 0 .5.96A20.28 20.28 0 0 1 2.73 13a6.36 6.36 0 0 1-2.2 3.5.67.67 0 0 0-.52.66v2.16a.66.66 0 0 0 .67.66H9.6a.66.66 0 0 0 .65-.66v-2.16a.66.66 0 0 0-.5-.65zm-6-10.17a.8.8 0 0 1 0-.7H6.5a.8.8 0 0 1 0 .7zm.92-4.86h-.26V1.2h.26a.3.3 0 0 0 .3-.32V.62h.3v.26a.3.3 0 0 0 .3.3h.26v.3h-.26a.3.3 0 0 0-.3.3v.33h-.3v-.3a.3.3 0 0 0-.3-.3zm1.86 1.26A16.7 16.7 0 0 0 6.17 5H4.1a18.3 18.3 0 0 0-.36-2.26h2.8zM3.32 13.18a21.36 21.36 0 0 0 .88-6.23h1.88a20.7 20.7 0 0 0 .88 6.23 8.17 8.17 0 0 0 1.8 3.3H1.52a8.35 8.35 0 0 0 1.8-3.3zm6.27 6.17H.64a.04.04 0 0 1-.04-.04v-2.13l.1-.05h8.84l.08.05v2.15a.05.05 0 0 1-.04.05z"/>
</svg>
