<svg xmlns="http://www.w3.org/2000/svg" viewBox="0 0 13.98458 19.95">
  <path d="M13.98 15.1a.37.37 0 0 0-.36-.3c-.9 0-2.24-1.2-3.85-3.45a11.4 11.4 0 0 0 2.35-.64.37.37 0 0 0-.14-.7c-.67 0-1.7-.94-2.9-2.66a7.93 7.93 0 0 0 1.6-.45.37.37 0 0 0-.14-.7c-.67 0-1.9-1.6-2.82-3.17a1.4 1.4 0 0 1 .44-.43l.36-.2a.6.6 0 0 0 .35-.54.6.6 0 0 0-.35-.53l-.36-.2A1.42 1.42 0 0 1 7.72.7l-.2-.37A.6.6 0 0 0 7 0a.63.63 0 0 0-.54.33l-.2.36a1.42 1.42 0 0 1-.44.42l-.36.2a.6.6 0 0 0-.35.53.6.6 0 0 0 .37.53l.36.2a1.5 1.5 0 0 1 .44.42C5.33 4.62 4.1 6.2 3.44 6.2a.36.36 0 0 0-.36.3.37.37 0 0 0 .23.4 7.93 7.93 0 0 0 1.63.44C3.7 9.07 2.67 10 2.03 10a.36.36 0 0 0-.38.3.38.38 0 0 0 .22.42 11.4 11.4 0 0 0 2.35.64C2.62 13.62 1.28 14.8.37 14.8a.36.36 0 0 0-.36.3.38.38 0 0 0 .24.42A20.16 20.16 0 0 0 6.4 16.7v2.5H5.05a.37.37 0 0 0 0 .75h3.9a.37.37 0 0 0 0-.74H7.6v-2.5a19.9 19.9 0 0 0 6.17-1.17.4.4 0 0 0 .2-.42zm-8.95-3.63A16.88 16.88 0 0 0 7 11.6a16.88 16.88 0 0 0 1.95-.13 12.26 12.26 0 0 0 3.5 3.7 22.16 22.16 0 0 1-5.46.8 22.16 22.16 0 0 1-5.5-.8 12.26 12.26 0 0 0 3.5-3.7zm.7-4.02A12.34 12.34 0 0 0 7 7.53a12.34 12.34 0 0 0 1.27-.08 10.4 10.4 0 0 0 2.63 2.9 16.55 16.55 0 0 1-3.9.52 17.18 17.18 0 0 1-3.88-.52 10.55 10.55 0 0 0 2.6-2.9zM7.08 2.7l-.1.16-.08-.16a2.04 2.04 0 0 0-.73-.73L6 1.87l.17-.08a2.04 2.04 0 0 0 .73-.75L7 .9l.08.16a2.04 2.04 0 0 0 .73.73l.18.07-.16.1a2.13 2.13 0 0 0-.72.72zm-.35.98a.52.52 0 0 0 .54 0 10.77 10.77 0 0 0 2.26 2.8A11.86 11.86 0 0 1 7 6.8a11.98 11.98 0 0 1-2.53-.3 10.6 10.6 0 0 0 2.26-2.82z"/>
</svg>
