<svg xmlns="http://www.w3.org/2000/svg" viewBox="0 0 20.1135 13.93809">
  <path d="M10.06 8.75c1.6 0 3.14-1.98 3.14-4a3.14 3.14 0 1 0-6.27 0c0 2.06 1.53 4 3.13 4zm0-6.52a2.34 2.34 0 0 1 2.38 2.3v.23c0 1.56-1.22 3.22-2.38 3.22-1.2 0-2.37-1.6-2.37-3.22a2.34 2.34 0 0 1 2.13-2.52h.22zm5.57 3.54c1.26 0 2.5-1.56 2.5-3.14a2.5 2.5 0 1 0-5 0c0 1.6 1.22 3.14 2.5 3.14zM13.9 2.63a1.72 1.72 0 1 1 3.45 0c0 1.13-.9 2.37-1.72 2.37S13.9 3.8 13.9 2.62zm6.14 4.95A3.9 3.9 0 0 0 18 4.88a.4.4 0 0 0-.44.65c.96.66 1.55 1.13 1.7 2.17.1.48.08.78-.04.9-.3.35-1.57.35-3.35.35h-1.35a10.02 10.02 0 0 0-1.43-1.13.4.4 0 0 0-.46.64c1.2.82 2.07 1.5 2.3 2.92.1.68.07 1.08-.1 1.3-.4.47-1.93.47-4.47.47h-.64c-2.55 0-4.1 0-4.5-.48-.16-.2-.18-.6-.05-1.28.23-1.34.92-2 2.28-2.95a.4.4 0 0 0-.44-.64A9.75 9.75 0 0 0 5.6 8.95H4.24c-1.8 0-3.08 0-3.36-.34-.1-.12-.12-.4-.03-.9.18-.97.68-1.46 1.72-2.17a.4.4 0 0 0-.14-.7.38.38 0 0 0-.3.06A3.95 3.95 0 0 0 .1 7.55 1.82 1.82 0 0 0 .3 9.1c.5.63 1.65.63 3.94.63H5a4.3 4.3 0 0 0-.57 1.52 2.2 2.2 0 0 0 .24 1.93c.63.76 2.12.76 5.08.76h.64c2.92 0 4.4 0 5.03-.75a2.25 2.25 0 0 0 .27-1.95 4.04 4.04 0 0 0-.55-1.53h.73c2.27 0 3.4 0 3.93-.6a1.88 1.88 0 0 0 .25-1.55zM4.5 5.78C5.74 5.77 7 4.2 7 2.62a2.5 2.5 0 1 0-5 0c0 1.6 1.2 3.14 2.5 3.14zm0-5a1.7 1.7 0 0 1 1.72 1.7v.15C6.2 3.76 5.3 5 4.48 5s-1.7-1.2-1.72-2.38A1.7 1.7 0 0 1 4.34.8L4.5.78z"/>
</svg>
