<svg xmlns="http://www.w3.org/2000/svg" viewBox="0 0 135.50514 29.64215">
  <path d="M9.9 29.6a16.75 16.75 0 0 1-4.25-.48 6.85 6.85 0 0 1-3.2-1.82A7.8 7.8 0 0 1 .6 23.86 19.66 19.66 0 0 1 0 18.7v-2.37a19.1 19.1 0 0 1 .6-5.17 7.92 7.92 0 0 1 1.88-3.4 6.82 6.82 0 0 1 3.2-1.8 16.85 16.85 0 0 1 4.23-.5c3 0 5.35.6 6.86 1.8s2.36 3.28 2.36 6.14a.67.67 0 0 1-.66.67H15a.67.67 0 0 1-.66-.67 6.1 6.1 0 0 0-.23-1.8 2.3 2.3 0 0 0-.64-1.07 3 3 0 0 0-1.27-.6 9.8 9.8 0 0 0-2.3-.23 9.8 9.8 0 0 0-2.54.3 2.72 2.72 0 0 0-1.45.9 4.6 4.6 0 0 0-.9 1.94 17 17 0 0 0-.27 3.48v2.36a17.33 17.33 0 0 0 .3 3.52 4.65 4.65 0 0 0 .84 2 2.7 2.7 0 0 0 1.45.9 9.76 9.76 0 0 0 2.56.3 9.85 9.85 0 0 0 2.3-.23 3 3 0 0 0 1.26-.62 2.27 2.27 0 0 0 .66-1.05 6.28 6.28 0 0 0 .23-1.85.67.67 0 0 1 .64-.7H18.46a.68.68 0 0 1 .67.67c0 2.9-.8 5-2.37 6.2s-3.8 1.78-6.82 1.78zm20.37 0a16.44 16.44 0 0 1-4.33-.5 6.7 6.7 0 0 1-3.17-1.86 7.84 7.84 0 0 1-1.8-3.44 20.22 20.22 0 0 1-.55-5.12v-2.35a19.36 19.36 0 0 1 .6-5.08 8.07 8.07 0 0 1 1.8-3.43A6.74 6.74 0 0 1 26.02 6a16.4 16.4 0 0 1 4.3-.5 16.28 16.28 0 0 1 4.27.5 6.9 6.9 0 0 1 3.16 1.84 8 8 0 0 1 1.85 3.44 19.38 19.38 0 0 1 .58 5.08v2.36a19.55 19.55 0 0 1-.57 5.12 8.05 8.05 0 0 1-1.8 3.44 6.72 6.72 0 0 1-3.18 1.85 16.46 16.46 0 0 1-4.33.5zm0-19.9a9.33 9.33 0 0 0-2.6.3 2.8 2.8 0 0 0-1.43.9 4.48 4.48 0 0 0-.8 1.95 18.3 18.3 0 0 0-.27 3.47v2.36a18.58 18.58 0 0 0 .27 3.52 4.46 4.46 0 0 0 .8 1.94 2.77 2.77 0 0 0 1.44.92 9.48 9.48 0 0 0 2.6.3 9.47 9.47 0 0 0 2.58-.3 2.9 2.9 0 0 0 1.47-.92 4.3 4.3 0 0 0 .82-1.93 18.7 18.7 0 0 0 .27-3.5v-2.36a18.46 18.46 0 0 0-.27-3.47 4.3 4.3 0 0 0-.82-1.93 2.9 2.9 0 0 0-1.48-.93 9.35 9.35 0 0 0-2.6-.3zm25.96 19.42a.67.67 0 0 1-.67-.67V13.88a7.82 7.82 0 0 0-.26-2.2 2.85 2.85 0 0 0-.66-1.2 2.33 2.33 0 0 0-1.1-.6 8 8 0 0 0-1.9-.2 8.37 8.37 0 0 0-2.9.54 9.4 9.4 0 0 0-2.4 1.32v16.9a.67.67 0 0 1-.68.67h-3.42a.67.67 0 0 1-.67-.65V6.58a.67.67 0 0 1 .67-.67h2.27a.67.67 0 0 1 .65.46l.48 1.3a13.92 13.92 0 0 1 2.78-1.48 11.32 11.32 0 0 1 4.1-.7 12.4 12.4 0 0 1 3.44.42 5.54 5.54 0 0 1 2.5 1.46A6.27 6.27 0 0 1 59.9 10a14.6 14.6 0 0 1 .44 3.86v14.6a.67.67 0 0 1-.67.66zm20.47 0a.67.67 0 0 1-.7-.65v-14.6a7.8 7.8 0 0 0-.25-2.2 2.84 2.84 0 0 0-.66-1.2A2.3 2.3 0 0 0 74 9.9a8 8 0 0 0-1.88-.2 8.4 8.4 0 0 0-2.9.53 9.36 9.36 0 0 0-2.42 1.32v16.9a.67.67 0 0 1-.67.67H62.7a.67.67 0 0 1-.7-.64V6.58a.67.67 0 0 1 .66-.68H65a.67.67 0 0 1 .64.44l.48 1.3a13.8 13.8 0 0 1 2.77-1.48 11.32 11.32 0 0 1 4.1-.7 12.42 12.42 0 0 1 3.42.43 5.53 5.53 0 0 1 2.5 1.45 6.27 6.27 0 0 1 1.4 2.64 14.66 14.66 0 0 1 .45 3.85v14.6a.67.67 0 0 1-.67.66zm15.73.44a17.88 17.88 0 0 1-4.27-.46 6.87 6.87 0 0 1-3.22-1.75A7.8 7.8 0 0 1 83 24a18.8 18.8 0 0 1-.6-5.27v-2.4a19.1 19.1 0 0 1 .6-5.17 7.8 7.8 0 0 1 1.9-3.42 7 7 0 0 1 3.1-1.8 16.08 16.08 0 0 1 4.17-.47 15.2 15.2 0 0 1 4 .48 6.8 6.8 0 0 1 3.06 1.78 7.68 7.68 0 0 1 1.83 3.4 19.62 19.62 0 0 1 .57 5.16v2.52a.67.67 0 0 1-.67.67h-13.8a15.8 15.8 0 0 0 .27 2.7 4.1 4.1 0 0 0 .83 1.9 3 3 0 0 0 1.53.9 10.15 10.15 0 0 0 2.66.3 30.37 30.37 0 0 0 4-.22c1.16-.17 2.3-.36 3.38-.6h.16a.67.67 0 0 1 .68.68v2.92a.67.67 0 0 1-.52.66 32.14 32.14 0 0 1-3.48.6 37 37 0 0 1-4.28.22zm4.53-14a20 20 0 0 0-.2-2.6A4.7 4.7 0 0 0 96 11a2.57 2.57 0 0 0-1.3-1 7.92 7.92 0 0 0-2.5-.3 8.84 8.84 0 0 0-2.57.32 2.8 2.8 0 0 0-1.44 1 4.53 4.53 0 0 0-.8 1.93 16 16 0 0 0-.25 2.6h9.8zm15.96 14.04a16.75 16.75 0 0 1-4.26-.48 6.87 6.87 0 0 1-3.2-1.82 7.8 7.8 0 0 1-1.87-3.44 19.74 19.74 0 0 1-.6-5.16v-2.37a19 19 0 0 1 .6-5.17 7.9 7.9 0 0 1 1.88-3.4 6.82 6.82 0 0 1 3.2-1.8 16.83 16.83 0 0 1 4.23-.5c3 0 5.34.6 6.85 1.8s2.36 3.28 2.36 6.14a.67.67 0 0 1-.66.67H118a.67.67 0 0 1-.67-.66 6 6 0 0 0-.23-1.8 2.3 2.3 0 0 0-.65-1.06 3 3 0 0 0-1.27-.6 11.75 11.75 0 0 0-4.84.05 2.7 2.7 0 0 0-1.45.9 4.63 4.63 0 0 0-.87 1.95 17.06 17.06 0 0 0-.3 3.48v2.36a17.26 17.26 0 0 0 .3 3.5 4.65 4.65 0 0 0 .85 2 2.7 2.7 0 0 0 1.44.9 11.84 11.84 0 0 0 4.84.07 3 3 0 0 0 1.27-.62 2.28 2.28 0 0 0 .65-1.05 6.18 6.18 0 0 0 .23-1.86.67.67 0 0 1 .68-.67h3.42a.67.67 0 0 1 .67.67c0 2.9-.8 5-2.37 6.2s-3.8 1.78-6.84 1.78zm18.4 0a5.8 5.8 0 0 1-4.5-1.6 6.86 6.86 0 0 1-1.43-4.72V10.14h-2.2a.67.67 0 0 1-.66-.67V7.1a.67.67 0 0 1 .55-.66l2.3-.44V1.24a.67.67 0 0 1 .54-.66l3.4-.58h.12a.67.67 0 0 1 .67.67V5.9h4.27a.67.67 0 0 1 .68.67v2.9a.67.67 0 0 1-.67.66h-4.25v13.23a2.52 2.52 0 0 0 .4 1.56 1.7 1.7 0 0 0 1.37.44 6.93 6.93 0 0 0 1.48-.14l1.32-.3h.14a.67.67 0 0 1 .67.68v2.85a.68.68 0 0 1-.45.64 9.8 9.8 0 0 1-1.7.35 15 15 0 0 1-2 .13z"/>
</svg>
