<svg xmlns="http://www.w3.org/2000/svg" viewBox="0 0 21.37582 16.83698">
  <path d="M3 9.5a.1.1 0 0 0-.1-.1h-.53a.1.1 0 0 0-.1.1 1 1 0 0 1-.04.3.36.36 0 0 1-.1.15.47.47 0 0 1-.2.1 1.55 1.55 0 0 1-.37.03 1.54 1.54 0 0 1-.4-.04.43.43 0 0 1-.23-.14.73.73 0 0 1-.13-.3 2.73 2.73 0 0 1-.05-.57v-.37A2.67 2.67 0 0 1 .8 8.1a.73.73 0 0 1 .13-.3.43.43 0 0 1 .23-.14 1.54 1.54 0 0 1 .4-.05 1.54 1.54 0 0 1 .37.06.47.47 0 0 1 .2.1.36.36 0 0 1 .1.16.96.96 0 0 1 .04.3.1.1 0 0 0 .1.1h.54a.1.1 0 0 0 .13-.1 1.16 1.16 0 0 0-.38-.97 1.74 1.74 0 0 0-1.08-.3 2.66 2.66 0 0 0-.66.1 1.07 1.07 0 0 0-.5.27 1.25 1.25 0 0 0-.3.54 3 3 0 0 0-.1.82v.37a3.1 3.1 0 0 0 .1.82 1.23 1.23 0 0 0 .3.54 1.08 1.08 0 0 0 .5.3 2.64 2.64 0 0 0 .67.06 1.74 1.74 0 0 0 1.08-.28A1.17 1.17 0 0 0 3 9.5zm2.45-2.47a2.57 2.57 0 0 0-.68-.08 2.6 2.6 0 0 0-.67.08 1.06 1.06 0 0 0-.5.3 1.27 1.27 0 0 0-.3.53 3.05 3.05 0 0 0-.08.8v.37a3.2 3.2 0 0 0 .1.8 1.24 1.24 0 0 0 .27.55 1.06 1.06 0 0 0 .5.3 2.6 2.6 0 0 0 .66.07 2.6 2.6 0 0 0 .7-.08 1.06 1.06 0 0 0 .5-.3 1.27 1.27 0 0 0 .27-.53 3.08 3.08 0 0 0 .1-.8v-.38a3.06 3.06 0 0 0-.1-.8 1.26 1.26 0 0 0-.3-.55 1.1 1.1 0 0 0-.5-.27zm.14 2a2.95 2.95 0 0 1-.07.56.68.68 0 0 1-.13.3.46.46 0 0 1-.22.13 1.5 1.5 0 0 1-.4.04 1.5 1.5 0 0 1-.4-.04.44.44 0 0 1-.24-.15.7.7 0 0 1-.13-.3A2.93 2.93 0 0 1 4 9v-.36A2.9 2.9 0 0 1 4 8.1a.7.7 0 0 1 .14-.3.44.44 0 0 1 .22-.14 1.47 1.47 0 0 1 .4-.05 1.48 1.48 0 0 1 .42.07.46.46 0 0 1 .23.15.68.68 0 0 1 .15.3 2.9 2.9 0 0 1 .04.56zm3.26 1.65h.54a.1.1 0 0 0 .1-.1v-2.3a2.3 2.3 0 0 0-.06-.6 1 1 0 0 0-.22-.43.87.87 0 0 0-.4-.23 1.96 1.96 0 0 0-.54-.07 1.78 1.78 0 0 0-.65.1 2.2 2.2 0 0 0-.43.24l-.08-.2a.1.1 0 0 0-.1-.1h-.36a.1.1 0 0 0-.1.1v3.46a.1.1 0 0 0 .1.1h.54a.1.1 0 0 0 .1-.1V7.9a1.5 1.5 0 0 1 .4-.2 1.32 1.32 0 0 1 .44-.1 1.26 1.26 0 0 1 .3.04.37.37 0 0 1 .18.1.45.45 0 0 1 .1.2 1.23 1.23 0 0 1 .04.33v2.3a.1.1 0 0 0 .1.1zm3.12-.1a.1.1 0 0 0 .1.1h.53a.1.1 0 0 0 .1-.1v-2.3a2.3 2.3 0 0 0-.05-.6 1 1 0 0 0-.22-.43.87.87 0 0 0-.4-.23 1.96 1.96 0 0 0-.54-.07 1.78 1.78 0 0 0-.65.1 2.18 2.18 0 0 0-.43.24l-.08-.2a.1.1 0 0 0-.1-.1H9.9a.1.1 0 0 0-.1.1v3.46a.1.1 0 0 0 .1.1h.53a.1.1 0 0 0 .1-.1V7.9a1.48 1.48 0 0 1 .4-.2 1.32 1.32 0 0 1 .45-.1 1.26 1.26 0 0 1 .3.04.36.36 0 0 1 .17.1.45.45 0 0 1 .1.2 1.23 1.23 0 0 1 .04.33v2.3zm3.94-1.42a.1.1 0 0 0 .1-.1v-.4a3.1 3.1 0 0 0-.1-.82 1.2 1.2 0 0 0-.27-.54 1.07 1.07 0 0 0-.5-.28 2.4 2.4 0 0 0-.63-.07 2.54 2.54 0 0 0-.65.07 1.1 1.1 0 0 0-.5.28 1.23 1.23 0 0 0-.3.54 3 3 0 0 0-.1.82v.37a2.96 2.96 0 0 0 .1.83 1.23 1.23 0 0 0 .3.54 1.08 1.08 0 0 0 .5.27 2.82 2.82 0 0 0 .68.08 5.84 5.84 0 0 0 .67-.04 5.07 5.07 0 0 0 .55-.07.1.1 0 0 0 .08-.1v-.47a.1.1 0 0 0-.1-.1.1.1 0 0 0-.02 0l-.54.1a4.8 4.8 0 0 1-.64.03 1.6 1.6 0 0 1-.44-.06.48.48 0 0 1-.24-.15.65.65 0 0 1-.13-.3 2.5 2.5 0 0 1-.05-.43h2.2zm-2.2-.63a2.53 2.53 0 0 1 .05-.4.7.7 0 0 1 .1-.3.44.44 0 0 1 .24-.16 1.4 1.4 0 0 1 .4-.05 1.25 1.25 0 0 1 .4.05.4.4 0 0 1 .2.15.74.74 0 0 1 .13.3 3.15 3.15 0 0 1 .03.4zm5.42.86h-.54a.1.1 0 0 0-.1.1.97.97 0 0 1-.05.3.36.36 0 0 1-.1.14.47.47 0 0 1-.2.1 1.87 1.87 0 0 1-.76 0 .43.43 0 0 1-.23-.15.73.73 0 0 1-.13-.3A2.72 2.72 0 0 1 17 9v-.37a2.7 2.7 0 0 1 .03-.55.73.73 0 0 1 .14-.3.43.43 0 0 1 .23-.14 1.85 1.85 0 0 1 .77 0 .47.47 0 0 1 .2.08.36.36 0 0 1 .1.17.95.95 0 0 1 .04.3.1.1 0 0 0 .13.1h.54a.1.1 0 0 0 .1-.1 1.16 1.16 0 0 0-.37-.96 1.74 1.74 0 0 0-1.1-.3 2.65 2.65 0 0 0-.66.1 1.07 1.07 0 0 0-.5.27 1.25 1.25 0 0 0-.3.55 3 3 0 0 0-.1.82v.37a3.1 3.1 0 0 0 .1.8 1.23 1.23 0 0 0 .3.56 1.08 1.08 0 0 0 .5.27 2.64 2.64 0 0 0 .67.08 1.74 1.74 0 0 0 1.1-.28 1.17 1.17 0 0 0 .37-.98.1.1 0 0 0-.1-.13zm2.2.7a.1.1 0 0 0-.1-.1l-.22.05a1.1 1.1 0 0 1-.24.02.27.27 0 0 1-.2-.07.4.4 0 0 1-.08-.23v-2.1h.68a.1.1 0 0 0 .1-.1v-.45a.1.1 0 0 0-.1-.1h-.68V6.2a.1.1 0 0 0-.1-.13h-.02l-.54.1a.1.1 0 0 0-.1.1v.75l-.35.07a.1.1 0 0 0-.08.1v.37a.1.1 0 0 0 .1.1h.34v2.08a1.08 1.08 0 0 0 .23.74.92.92 0 0 0 .7.24 2.37 2.37 0 0 0 .32-.02 1.55 1.55 0 0 0 .27-.06.1.1 0 0 0 .07-.1v-.45zM14 1.3a7.83 7.83 0 0 1 3.77 3.77h.64a8.4 8.4 0 0 0-15.44 0h.63A7.83 7.83 0 0 1 14 1.3zM7.33 15.5a7.83 7.83 0 0 1-3.75-3.75h-.65a8.4 8.4 0 0 0 15.45 0h-.63a7.83 7.83 0 0 1-10.4 3.75z"/>
</svg>
