<svg xmlns="http://www.w3.org/2000/svg" viewBox="0 0 20.72617 20.27561">
  <path d="M20.55 7.36L10.62.08a.43.43 0 0 0-.5 0L.17 7.36A.43.43 0 0 0 0 7.7v12.14a.4.4 0 0 0 0 .06.3.3 0 0 0 .07.17.4.4 0 0 0 .03.05.43.43 0 0 0 .1.07.43.43 0 0 0 .05.02.43.43 0 0 0 .08.02.43.43 0 0 0 .08.02h19.9a.43.43 0 0 0 .17-.03.44.44 0 0 0 .03-.03.43.43 0 0 0 .1-.07h.03a.4.4 0 0 0 .02-.06.3.3 0 0 0 .06-.17.4.4 0 0 0 .04-.06V7.7a.43.43 0 0 0-.18-.34zM10.35.96l9.3 6.82-6.96 5.28-2.07-1.7a.44.44 0 0 0-.55 0L8 13.06 1.06 7.78zM.88 8.73l6.47 4.9-6.47 5.3zm.78 10.7l8.7-7.15 8.72 7.14zm18.2-.5l-6.46-5.3 6.46-4.9z"/>
</svg>
