<svg xmlns="http://www.w3.org/2000/svg" viewBox="0 0 16.40008 19.98">
  <path d="M12.27 12.15a1.1 1.1 0 0 0-.67-.55 1.26 1.26 0 0 0-.33-.05 1.1 1.1 0 0 0-.53.13 1 1 0 0 1-.4.1 1.08 1.08 0 0 1-.26-.04.85.85 0 0 1-.5-.42L8.18 8.7A.87.87 0 0 1 8.1 8a.86.86 0 0 1 .44-.52A1.13 1.13 0 0 0 9 5.98l-.5-.94a1.1 1.1 0 0 0-.65-.53 1.06 1.06 0 0 0-.83.1l-.27.14A2.56 2.56 0 0 0 5.63 5.9a2.88 2.88 0 0 0 .06 2.57l2.65 5.02a2.88 2.88 0 0 0 2.1 1.46 2.56 2.56 0 0 0 .38.03 2.67 2.67 0 0 0 1.2-.3l.27-.15a1.07 1.07 0 0 0 .54-.65 1.05 1.05 0 0 0-.08-.82zm-.07 1.56a.4.4 0 0 1-.2.27l-.27.14a1.98 1.98 0 0 1-.9.23 2.63 2.63 0 0 1-.28-.02 2.2 2.2 0 0 1-1.6-1.12L6.3 8.15a2.2 2.2 0 0 1-.06-1.95 1.87 1.87 0 0 1 .82-.87l.27-.14a.45.45 0 0 1 .2-.07h.15a.4.4 0 0 1 .25.2l.5.95a.5.5 0 0 1 .03.33.46.46 0 0 1-.22.28 1.54 1.54 0 0 0-.76.92 1.48 1.48 0 0 0 .1 1.2L9 11.63a1.54 1.54 0 0 0 .92.75 1.37 1.37 0 0 0 .45.07 1.54 1.54 0 0 0 .72-.18.5.5 0 0 1 .2-.05.45.45 0 0 1 .4.24l.5.93a.44.44 0 0 1 .02.3zM14.68 0H3.13A1.75 1.75 0 0 0 1.4 1.75V5.9H.34a.34.34 0 1 0 0 .7H1.4v6.46H.34a.34.34 0 0 0 0 .68H1.4v4.48a1.73 1.73 0 0 0 1.73 1.75h11.55a1.74 1.74 0 0 0 1.72-1.74V1.75A1.73 1.73 0 0 0 14.68 0zm1.03 18.22a1.05 1.05 0 0 1-1 1.07H3.1a1.06 1.06 0 0 1-1.04-1.1v-4.46h1.06a.34.34 0 1 0 0-.68H2.08V6.6h1.06a.34.34 0 0 0 .03-.68H2.1V1.75a1.05 1.05 0 0 1 1-1.07h11.55a1.06 1.06 0 0 1 1.04 1.07z"/>
</svg>
