<svg xmlns="http://www.w3.org/2000/svg" viewBox="0 0 20.115 20.305">
  <path d="M19.98 1.72L18.38.14a.46.46 0 0 0-.64 0l-4.8 4.8a.57.57 0 0 1-.43.17.6.6 0 0 1-.42-.16l-.42-.42a.9.9 0 0 0-1.28 0L.64 14.25a2.17 2.17 0 0 0 0 3.08l2.14 2.15a2.22 2.22 0 0 0 1.55.64 2.14 2.14 0 0 0 1.54-.63l9.73-9.74a.9.9 0 0 0 0-1.28l-.42-.42a.63.63 0 0 1 0-.88l4.8-4.8a.45.45 0 0 0 0-.64zM5.23 18.82a1.27 1.27 0 0 1-1.8 0L1.3 16.7a1.28 1.28 0 0 1 0-1.8L11 5.13l.42.42a1.54 1.54 0 0 0 1.1.45 1.5 1.5 0 0 0 .8-.23l1 1a1.53 1.53 0 0 0 .22 1.9l.42.42zM14.78 6.3l-.94-.95 4.23-4.23.94.94zm.42 8.33a2.84 2.84 0 1 0 2.84 2.84 2.84 2.84 0 0 0-2.84-2.84zm0 4.77a1.94 1.94 0 0 1-1.9-1.6h3.8a1.92 1.92 0 0 1-1.9 1.6zm-1.9-2.27a1.93 1.93 0 0 1 3.8 0z"/>
</svg>
