<svg xmlns="http://www.w3.org/2000/svg" viewBox="0 0 19.97 15.34">
  <path d="M15.84 5.43a1.8 1.8 0 0 0-1.8-1.8h-.02v-.5A3.13 3.13 0 0 0 10.9 0H6.72a1.03 1.03 0 0 0 0 2.06h4.17a1.06 1.06 0 0 1 1.05 1.06v.5H5.93a1.8 1.8 0 0 0-1.8 1.8A4.74 4.74 0 0 0 0 10.12v.48a4.75 4.75 0 0 0 4.74 4.74h10.5a4.75 4.75 0 0 0 4.73-4.74v-.48a4.74 4.74 0 0 0-4.13-4.7zM10.9 1.25H6.73a.22.22 0 1 1 0-.44h4.17a2.3 2.3 0 0 1 2.3 2.33v.5h-.43v-.5a1.88 1.88 0 0 0-1.87-1.87zm-4.97 3.2h8.1a.98.98 0 0 1 1 .94H4.93a1 1 0 0 1 1-.96zM4.73 6.2h10.5A3.93 3.93 0 0 1 19 9.07H.97A3.92 3.92 0 0 1 4.74 6.2zm14.43 3.93v.48a2.17 2.17 0 0 1 0 .28H.82a2.26 2.26 0 0 1 0-.26v-.47a2.17 2.17 0 0 1 0-.26h18.32a2.26 2.26 0 0 1 0 .25zm-3.92 4.4H4.74a3.93 3.93 0 0 1-3.77-2.85H19a3.92 3.92 0 0 1-3.76 2.85z"/>
</svg>
