<svg xmlns="http://www.w3.org/2000/svg" viewBox="0 0 15.3 19.95">
  <path d="M10.1 11.35a.3.3 0 0 1-.16-.04l-2.27-1.1-2.27 1.1a.4.4 0 0 1-.4 0 .38.38 0 0 1-.14-.37l.35-2.5L3.46 6.6a.37.37 0 0 1 .2-.63l2.5-.44 1.2-2.23a.38.38 0 0 1 .32-.2.37.37 0 0 1 .33.2l1.18 2.23 2.5.44a.36.36 0 0 1 .28.25.38.38 0 0 1-.1.38l-1.74 1.82.35 2.5a.37.37 0 0 1-.37.43zM4.48 6.6l1.4 1.43a.36.36 0 0 1 .1.3l-.3 2 1.8-.88a.38.38 0 0 1 .34 0l1.8.87-.28-1.98a.36.36 0 0 1 .1-.3l1.4-1.45-1.98-.37a.4.4 0 0 1-.27-.2L7.63 4.3 6.7 6.05a.36.36 0 0 1-.26.2zm3.18 13.35a.38.38 0 0 1-.35-.24c-.77-2-2.64-4.04-4.14-5.7A16.75 16.75 0 0 1 .8 11.08a7.65 7.65 0 1 1 14.5-3.42 7.52 7.52 0 0 1-.8 3.42 13.4 13.4 0 0 1-2.28 2.68c-1.65 1.68-3.7 3.78-4.2 5.9a.38.38 0 0 1-.35.3zm0-19.2a6.9 6.9 0 0 0-6.9 6.9 6.7 6.7 0 0 0 .73 3.08 16.4 16.4 0 0 0 2.2 2.76 26.5 26.5 0 0 1 3.9 5.03 18.9 18.9 0 0 1 4.1-5.33 13.15 13.15 0 0 0 2.12-2.48A6.88 6.88 0 0 0 7.66.75zm0 13.02a6.2 6.2 0 1 1 6.2-6.2 6.2 6.2 0 0 1-6.2 6.2zm0-11.65a5.45 5.45 0 1 0 5.45 5.45 5.46 5.46 0 0 0-5.43-5.45z"/>
</svg>
