<svg xmlns="http://www.w3.org/2000/svg" viewBox="0 0 20.16668 14.07102">
  <path d="M19.7.43A1.55 1.55 0 0 0 18.57 0H1.67A1.6 1.6 0 0 0 .5.43 1.54 1.54 0 0 0 0 1.55V12.4a1.65 1.65 0 0 0 .5 1.18 1.62 1.62 0 0 0 1.16.5h16.9a1.57 1.57 0 0 0 1.15-.5 1.62 1.62 0 0 0 .48-1.17V1.57A1.5 1.5 0 0 0 19.7.43zm-.47 11.98a.55.55 0 0 1-.22.38.66.66 0 0 1-.43.13H1.67a.44.44 0 0 1-.5-.5V6.1h18.06zm0-9.1H1.17V1.54a.6.6 0 0 1 .13-.4.52.52 0 0 1 .36-.2h16.9a.72.72 0 0 1 .45.2.7.7 0 0 1 .24.4zm-5.3 4.44h2.84a.58.58 0 0 1 .58.58v1.66a.58.58 0 0 1-.58.57h-2.83a.58.58 0 0 1-.57-.57V8.32a.58.58 0 0 1 .57-.58z"/>
</svg>
