<svg xmlns="http://www.w3.org/2000/svg" viewBox="0 0 19.96039 17.19727">
  <path d="M12.95 4.07a2.12 2.12 0 0 0 2.8-2.74A2.08 2.08 0 0 0 14.62.17a2.12 2.12 0 0 0-2.78 1.12 2.12 2.12 0 0 0 1.1 2.76zm-.47-2.5a1.42 1.42 0 0 1 1.3-.87 1.38 1.38 0 0 1 .57.12 1.43 1.43 0 0 1-.56 2.74 1.38 1.38 0 0 1-.58-.12 1.43 1.43 0 0 1-.75-1.87zm6.38 9.16a3.8 3.8 0 0 0-6.5 2.65 3.73 3.73 0 0 0 1.1 2.7 3.8 3.8 0 0 0 2.68 1.12h.02a3.8 3.8 0 0 0 3.8-3.78 3.73 3.73 0 0 0-1.1-2.7zm-2.7 5.8a3.12 3.12 0 0 1 0-6.24h.02a3.1 3.1 0 0 1 3.1 3.1 3.13 3.13 0 0 1-3.13 3.1zM3.8 9.4a3.8 3.8 0 0 0-.02 7.6h.02a3.8 3.8 0 1 0 0-7.6zm0 6.92a3.1 3.1 0 0 1 0-6.22h.02a3.12 3.12 0 0 1-.03 6.22zm5.52-8.47l3.2-1.75L14 7.7a1.5 1.5 0 0 1 .1.14c.14.17.32.4.5.4l2.97-.04a.32.32 0 0 0 .33-.35.33.33 0 0 0-.32-.34h-2.84l-3.57-3.85-.12-.14a1.55 1.55 0 0 0-.4-.36.56.56 0 0 0-.28-.07 1.62 1.62 0 0 0-.76.3l-.2.13-3.8 2a1.67 1.67 0 0 0-.85 1.72 2.18 2.18 0 0 0 .8 1.24l3.37 2.9.03.04-.27 3.48v.1a.83.83 0 0 0 0 .23c.08.57.7.7 1.22.8l.26.08a.95.95 0 0 0 .28.04.84.84 0 0 0 .74-.42.96.96 0 0 0 .1-.38l.53-4.66v-.08a.3.3 0 0 0-.03-.4zm1.8 2.72l-.02.02a.3.3 0 0 0-.02.1l-.5 4.4v-.03l-.03.24-.02.04-.02.06-.02.03h-.14v-.02l-.88-.2a.44.44 0 0 1-.08-.06l-.03-.03.3-3.7v-.1a.3.3 0 0 0-.1-.3l-3.7-3.2a1.5 1.5 0 0 1-.36-.5.83.83 0 0 1-.06-.5 1.07 1.07 0 0 1 .5-.68l4.1-2.16c.04-.03.27-.22.3-.18l1.7 1.83-3.48 1.9a.32.32 0 0 0-.16.26.33.33 0 0 0 .08.3l2.63 2.48z"/>
</svg>
