<svg xmlns="http://www.w3.org/2000/svg" viewBox="0 0 19.86151 19.78">
  <path d="M9.36 19.78a9.4 9.4 0 0 1-3.92-.85 9.4 9.4 0 0 1-1.2-16.37 9.4 9.4 0 0 1 5.14-1.5A9.27 9.27 0 0 1 13.9 2.2c.14.1.27.16.4.25l.03.02L15.95.85l.2-.22a4.14 4.14 0 0 1 .54-.5.86.86 0 0 1 .44-.13.77.77 0 0 1 .54.2.44.44 0 0 1 .12.32v1.52l1.52-.02a.47.47 0 0 1 .33.16.76.76 0 0 1 .2.54.88.88 0 0 1-.25.56l-2.25 2.28.02.03a9.52 9.52 0 0 1 1.35 4.8A9.5 9.5 0 0 1 15 17.9a9.38 9.38 0 0 1-5.67 1.88zm0-17.95a8.47 8.47 0 0 0-2.1.26A8.68 8.68 0 0 0 1 8.54a8.54 8.54 0 0 0 .34 4.85 8.73 8.73 0 0 0 1.12 2.1 8.54 8.54 0 0 0 6.96 3.48 8.37 8.37 0 0 0 3.75-.87A8.6 8.6 0 0 0 16.8 6.1v-.02h-.04a1.65 1.65 0 0 1-.44.06l-.36.02h-.5l-1.05-.06-.52.5.03.02a5.92 5.92 0 0 1-1.95 9.18 6.1 6.1 0 0 1-2.58.58 5.85 5.85 0 0 1-2.47-.54A5.93 5.93 0 0 1 8.45 4.55a6.8 6.8 0 0 1 .9-.06 6 6 0 0 1 3.93 1.43l.02.03h.05l.42-.43V5.5a15.28 15.28 0 0 1-.03-2.03v-.05c0-.1.02-.2.04-.3l.02-.04-.03-.02a8.77 8.77 0 0 0-1.66-.77 8.63 8.63 0 0 0-2.8-.48zm0 3.44a5.02 5.02 0 0 0-.66.04A5.15 5.15 0 0 0 4.24 10a5.06 5.06 0 0 0 0 .68c0 .2.02.4.04.54a5.57 5.57 0 0 0 .34 1.2 5.22 5.22 0 0 0 3.36 2.96 5.42 5.42 0 0 0 1.4.2 5.15 5.15 0 0 0 3.16-1.1c.1-.06.3-.24.43-.36l.4-.43a5.06 5.06 0 0 0 .63-1 5.16 5.16 0 0 0-.63-5.56l-.03-.04-1.9 1.9v.04a2.5 2.5 0 0 1 .43 1.38 2.52 2.52 0 0 1-1.12 2.08 2.48 2.48 0 0 1-1.35.4 2.6 2.6 0 0 1-1.03-.22A2.48 2.48 0 0 1 9.4 7.94a2.56 2.56 0 0 1 1.2.3l.26.17v.05l1.9-1.9-.03-.02a4.62 4.62 0 0 0-.55-.4 5.6 5.6 0 0 0-1.04-.53 5.06 5.06 0 0 0-1.77-.33zm.02 3.45a1.7 1.7 0 0 0-1.3.6 1.7 1.7 0 0 0 1.3 2.8 1.55 1.55 0 0 0 .47-.07 1.7 1.7 0 0 0 1.2-1.62 1.77 1.77 0 0 0-.2-.8l-.02-.05-1.2 1.2a.37.37 0 0 1-.25.1.42.42 0 0 1-.38-.26.34.34 0 0 1 .1-.4l1.2-1.2-.05-.04-.17-.1a1.63 1.63 0 0 0-.7-.16zm5.16-5.18c-.02.3 0 .58 0 .87v.9h.05l.73.02h1.13l.04-.04v.03h.09v-.1l.8-.78 1.6-1.6-1.58.02a.38.38 0 0 1-.28-.12.44.44 0 0 1-.12-.28V.86l-2.48 2.5a.13.13 0 0 0 0 .05h-.03l-.02.04-.02.05v.02h.06z"/>
</svg>
