<svg xmlns="http://www.w3.org/2000/svg" viewBox="0 0 15.40907 19.91009">
  <path d="M2.85 12.4a1.52 1.52 0 0 0 1.37.82 1.63 1.63 0 0 0 .72-.18l9.57-4.87a1.6 1.6 0 0 0 .8-.9 1.5 1.5 0 0 0-.07-1.18L12.55.8A1.52 1.52 0 0 0 11.18 0a1.58 1.58 0 0 0-.73.18L.88 5.05a1.6 1.6 0 0 0-.8.9 1.53 1.53 0 0 0 .1 1.18zm9.9-9.6l1.84 3.6a.87.87 0 0 1-.4 1.16l-9.57 4.86a.82.82 0 0 1-.4.1.83.83 0 0 1-.75-.45L1.63 8.44zm-12 3.37a.88.88 0 0 1 .45-.5L10.76.8a.82.82 0 0 1 .4-.1.86.86 0 0 1 .76.46l.34.68L1.16 7.5.8 6.8a.84.84 0 0 1-.04-.63zm3.78 5.13l2.3-1.2-.25-.5-.08.02-2.3 1.18.26.5h.07zm6.17-3.28a.94.94 0 0 0 .5-.13 1.02 1.02 0 0 0 .42-.4l.1-.15.17.03h.06a1.05 1.05 0 0 0 .5-.13 1.1 1.1 0 0 0 .52-.6A1 1 0 0 0 12 5.3a1.04 1.04 0 0 0-.5.12 1 1 0 0 0-.42.4l-.1.14-.16-.02h-.08a1.04 1.04 0 0 0-.5.12A1.02 1.02 0 0 0 10.7 8zm4.63 4.68a1.6 1.6 0 0 0-.78-.9l-1.4-.72-.73.37 1.8.95a.86.86 0 0 1 .38 1.15l-.35.67-3.6-1.87-1.16.6 4.24 2.22-1.9 3.6a.84.84 0 0 1-.74.45.86.86 0 0 1-.4-.1l-9.5-4.98a.87.87 0 0 1-.44-.5.88.88 0 0 1 .06-.65l.27-.58-.4-.76-.54 1a1.5 1.5 0 0 0-.1 1.16 1.6 1.6 0 0 0 .8.92l9.5 4.98a1.63 1.63 0 0 0 .75.18 1.58 1.58 0 0 0 1.4-.8l2.73-5.22a1.5 1.5 0 0 0 .1-1.17z"/>
</svg>
