<svg xmlns="http://www.w3.org/2000/svg" viewBox="0 0 18.05151 19.84">
  <path d="M17.83 17.72a.33.33 0 0 0-.43.18 2.08 2.08 0 0 1-1.92 1.3 2.05 2.05 0 0 1-1.86-1.17.33.33 0 0 0-.3-.18.32.32 0 0 0-.28.18 2.08 2.08 0 0 1-1.87 1.16A2.05 2.05 0 0 1 9.3 18a.33.33 0 0 0-.27-.18.32.32 0 0 0-.3.18 2.08 2.08 0 0 1-3.72 0 .33.33 0 0 0-.3-.18.32.32 0 0 0-.27.18 2.07 2.07 0 0 1-3.78-.13.33.33 0 1 0-.6.24 2.74 2.74 0 0 0 4.68.64 2.75 2.75 0 0 0 4.32 0 2.75 2.75 0 0 0 4.32 0 2.74 2.74 0 0 0 4.7-.65.4.4 0 0 0-.23-.43zm-15.3-1.15a2.72 2.72 0 0 0 2.17-1.05 2.75 2.75 0 0 0 4.32 0 2.75 2.75 0 0 0 4.32 0 2.74 2.74 0 0 0 4.7-.64.33.33 0 0 0-.62-.25 2.08 2.08 0 0 1-1.92 1.3 2.05 2.05 0 0 1-1.86-1.17.33.33 0 0 0-.3-.18.32.32 0 0 0-.28.18 2.08 2.08 0 0 1-1.87 1.16 2.05 2.05 0 0 1-1.74-.9 1.92 1.92 0 0 0 1.27-2.56c-.03-.1-.1-.3-.15-.3h-.02a1.94 1.94 0 0 0-1.65-.92 2.1 2.1 0 0 0-.24.02A1.96 1.96 0 0 0 7 13.16a1.94 1.94 0 0 0 .87 1.6 3.24 3.24 0 0 1 .7.3A2.08 2.08 0 0 1 5 14.78a.33.33 0 0 0-.3-.18.32.32 0 0 0-.28.18 2.07 2.07 0 0 1-3.78-.13.33.33 0 1 0-.6.25 2.68 2.68 0 0 0 2.5 1.67zm6.4-4.68a1.32 1.32 0 0 1 .44.06 1.26 1.26 0 0 1-.2 2.42.97.97 0 0 1-.25 0 1.27 1.27 0 0 1-.98-2.06 1.32 1.32 0 0 1 1-.45zm-3.4 3.2l.05-.03a2.86 2.86 0 0 1 .52-.16h.05v-.04a5.84 5.84 0 0 1-.18-1.9 2.92 2.92 0 0 1 .73-1.57 1.46 1.46 0 0 1 .36-.35h.02a.55.55 0 0 0 .27-.3 1.26 1.26 0 0 0 .04-.5v-.13c-.03-.26-.03-.53-.03-.8 0-1.06-.08-2.13-.16-3.16-.07-1.1-.16-2.23-.15-3.35a9.2 9.2 0 0 1 .08-1.4 2.42 2.42 0 0 1 .1-.45c.03-.06.1-.23.18-.27a.77.77 0 0 1 .07.28V1a6.56 6.56 0 0 1 .06.68v.3l.06.84a11.5 11.5 0 0 0 .47 2.66c.08.24.16.47.26.7l.16.35c0 .02 0 .05.02.07a.7.7 0 0 0 .15.25.3.3 0 0 0 .23.12c.32 0 .52-.6.6-.9L9.55 6a11.04 11.04 0 0 0 .54-2.8l.05-1.1v-.3l.06-.73V1a.7.7 0 0 1 .1-.33c.1.04.18.24.2.3a2.32 2.32 0 0 1 .13.53 10.08 10.08 0 0 1 .12 1.54c.02 1.23-.05 2.46-.13 3.72l-.03.66c-.05.56-.1 1.14-.1 1.7v.6c-.03.24-.03.48-.03.73a.57.57 0 0 0 .2.53l.1.07a.67.67 0 0 1 .12.07 3.26 3.26 0 0 1 .7.86 2.48 2.48 0 0 1 .3 1.4 7.22 7.22 0 0 1-.27 1.82l-.03.12.1-.06a2.86 2.86 0 0 1 .62-.24h.03v-.04a5.23 5.23 0 0 0 0-2.9 4.02 4.02 0 0 0-.73-1.15 1.93 1.93 0 0 0-.44-.4.12.12 0 0 0-.07-.07c0-.25 0-.5.03-.75v-.54l.13-2.08c.04-.62.08-1.26.1-1.9a21.67 21.67 0 0 0 0-3.22 5.26 5.26 0 0 0-.22-1.1 1.16 1.16 0 0 0-.6-.78.76.76 0 0 0-.3-.07c-.7 0-.72 1.2-.74 1.77v.15a13.3 13.3 0 0 1-.6 3.92 11.68 11.68 0 0 1-.67-3.8V1.9c-.02-.27-.03-.54-.06-.8A2.1 2.1 0 0 0 8 .4a.6.6 0 0 0-.56-.4.72.72 0 0 0-.55.26 1.67 1.67 0 0 0-.37.8 6.4 6.4 0 0 0-.14 1.26 35.1 35.1 0 0 0 .1 3.56l.07.78c.04.6.1 1.2.1 1.8l.03.9v.2c0 .1 0 .2.02.33v.55a2 2 0 0 0-.47.42A3.9 3.9 0 0 0 5.52 12a5.18 5.18 0 0 0-.02 3.03zm1 1.86l-.04-.04h-.06a1.74 1.74 0 0 0-.46.14l-.06.02.02.05c.07.2.16.4.24.58v.04h.04a3.16 3.16 0 0 1 .6.23l.16.08-.08-.15a9.7 9.7 0 0 1-.4-.94zm.7 1.2l.02.04.1.07a1.28 1.28 0 0 0 .4.18l.08.02v-.08l-.2-1.2-.08-.07a1.44 1.44 0 0 0-.5-.2H7V17c.07.32.16.78.22 1.16zm4.44-.48h.03v-.03c.1-.18.17-.36.24-.54l.02-.03-.05-.02a1.66 1.66 0 0 0-.43-.12h-.04l-.02.03c-.1.3-.25.6-.4.87l-.07.15.15-.07a2.9 2.9 0 0 1 .6-.2zm-1.03.42l.06.02h.02v-.03l.2-1.1.03-.08-.08.02a1.46 1.46 0 0 0-.48.2l-.08.04-.2 1.12v.08l.08-.02a1.6 1.6 0 0 0 .4-.17l.08-.05z"/>
</svg>
