<svg xmlns="http://www.w3.org/2000/svg" viewBox="0 0 20.00001 18.43347">
  <path d="M20 9.36a.52.52 0 0 0-1.04 0v5.34a2.67 2.67 0 0 1-2.64 2.7H3.67a2.67 2.67 0 0 1-2.64-2.7V9.28a.52.52 0 0 0-.5-.52.52.52 0 0 0-.53.52v5.42a3.7 3.7 0 0 0 3.67 3.73h12.65A3.7 3.7 0 0 0 20 14.7zm-9.88 4.82a.52.52 0 0 0 .37.16.5.5 0 0 0 .34-.15l3.66-3.74a.53.53 0 0 0 0-.75.5.5 0 0 0-.72 0L11 12.56V.52a.52.52 0 0 0-.52-.52.52.52 0 0 0-.52.52v12.03l-2.8-2.82a.5.5 0 0 0-.72 0 .53.53 0 0 0-.15.37.52.52 0 0 0 .14.36z"/>
</svg>
