<svg xmlns="http://www.w3.org/2000/svg" viewBox="0 0 339.83369 145.98196">
  <path d="M13.4 84.7c.57-43.5 60.2-78 133.15-77 39.8.52 75.26 11.48 99.27 28.4C222.05 14.94 181.38.68 135 .02 61-.98.56 33.22 0 76.34c-.22 17.44 9.36 33.68 25.74 46.85-8.06-12.2-12.5-25.34-12.34-38.5zM141 88.64c0 4.95-1.25 8.36-3.78 10.26s-6.43 2.86-11.72 2.86H67.9c0 5.68 2.84 10 8.58 13.07 4.6 2.4 10.28 3.6 16.93 3.6q7.8 0 18.7-4.74c7.3-3.17 12-4.75 14-4.75a12.94 12.94 0 0 1 9.4 3.78 12.34 12.34 0 0 1 3.9 9.1q0 12.18-19.63 19a92.73 92.73 0 0 1-30.44 5.13q-24.9 0-40.28-15.36T33.6 91.9q0-22.22 16-38t39.7-15.86q22.1 0 36.87 15T141 88.64zm-32-7.4c-.14-4.5-2.4-8.6-6.7-12.28s-8.93-5.54-13.82-5.54a21.07 21.07 0 0 0-14 5.54q-6.5 5.54-6.5 12.3H109zm126.3 44.02q0 10.06-14.08 16a60.47 60.47 0 0 1-23.7 4.72q-24.1 0-39.18-16.1-14.5-15.4-14.5-37.96t14.8-38.23q14.8-15.7 38.9-15.7 13.86 0 23.87 3.8 13.9 5.1 13.9 15.92a14.2 14.2 0 0 1-3.67 9.68 12 12 0 0 1-9.36 4.18c-2.58 0-6.3-.8-11.2-2.4s-8.74-2.35-11.58-2.35q-11.4 0-17.7 7.5c-3.95 4.55-5.9 10.37-5.9 17.53 0 6.76 1.76 12.5 5.27 17.13 3.94 5.4 9.4 8.1 16.48 8.1 3.14 0 7.4-.85 12.8-2.57s9.37-2.56 11.82-2.56a12.12 12.12 0 0 1 9.15 4.18 13.18 13.18 0 0 1 3.9 9.1zm104.53-33.38q0 22.58-14.5 37.95-15.13 16.12-39.22 16.1t-39.15-16.1q-14.5-15.4-14.48-37.95t14.48-37.94q15.28-15.92 39.17-15.92 24.1 0 39.22 15.93 14.48 15.37 14.5 37.93zm-32.06 0c0-6.76-1.76-12.5-5.26-17.13q-5.85-7.92-16.4-7.9t-16.34 7.9c-3.5 4.64-5.26 10.37-5.26 17.13s1.74 12.55 5.25 17.3c3.9 5.3 9.36 7.93 16.36 7.93s12.5-2.6 16.4-7.9a28.48 28.48 0 0 0 5.28-17.3z"/>
</svg>
