<svg xmlns="http://www.w3.org/2000/svg" viewBox="0 0 17.23126 19.94">
  <path d="M11.22 1.36a1.57 1.57 0 0 0-3.12 0 7.58 7.58 0 0 0-6 7.4v1.32L.12 11.76a.4.4 0 0 0-.13.33 1.18 1.18 0 0 0 .57.8 4.3 4.3 0 0 0 2.4.5 13.32 13.32 0 0 0 1.55-.1c.17 1.36 1.1 6.56 5.4 6.6a2.4 2.4 0 0 0 .38.03 3.1 3.1 0 0 0 1.96-.72c1.65-1.3 2.5-4.15 2.57-8.47a3.13 3.13 0 0 1 1.65 2 .38.38 0 0 0 .37.28h.05a.4.4 0 0 0 .33-.37v-3.9a7.6 7.6 0 0 0-6-7.38zM9.66.76a.8.8 0 0 1 .74.47l-.37-.03a1.48 1.48 0 0 1-.2 0h-.17a1.7 1.7 0 0 0-.22 0h-.16l-.37.03a.85.85 0 0 1 .77-.47zm.26 18.4c-3.67-.04-4.5-4.75-4.64-5.95a40.03 40.03 0 0 0 5.7-1.36s.03 0 .05-.02l1.86-.92a22.4 22.4 0 0 1-.28 3.7c-.3 1.9-1.02 4.2-2.7 4.58zm2.35-1c1.37-2.35 1.4-6.26 1.37-7.52h.42c-.05 4.33-.9 6.47-1.8 7.5zm4.2-7.08a2.9 2.9 0 0 0-1.86-1.16.33.33 0 0 0-.15-.04h-2.7a.38.38 0 0 0-.38.38.38.38 0 0 0 .3.37l-.96.47c-6.62 2.04-8.9 1.63-9.63 1.2a1.14 1.14 0 0 1-.22-.15l1.76-1.5h7.95a.4.4 0 0 0 .27-.12l.3-.3a.38.38 0 0 0-.53-.54l-.2.17H2.85v-1.1a6.8 6.8 0 0 1 5.7-6.7c.17-.05.35-.07.52-.1h.06a6.14 6.14 0 0 1 1.05 0h.05l.53.08a6.82 6.82 0 0 1 5.7 6.7zm-3.35-7.45l-1.2-.6a.38.38 0 1 0-.34.68l1.2.6a.33.33 0 0 0 .17.06.4.4 0 0 0 .34-.2.38.38 0 0 0-.2-.52zm-.3.9l-.6-.3a.38.38 0 1 0-.34.68l.6.3a.33.33 0 0 0 .17.06.4.4 0 0 0 .34-.2.37.37 0 0 0-.2-.52z"/>
</svg>
