<svg xmlns="http://www.w3.org/2000/svg" viewBox="0 0 14.55 19.91">
  <path d="M2.78 15.67a1.27 1.27 0 1 0 1.28 1.27 1.28 1.28 0 0 0-1.28-1.27zm0 1.87a.6.6 0 1 1 .6-.6.6.6 0 0 1-.6.6zm10.07-2.36a.34.34 0 0 0-.34.34 2.37 2.37 0 0 1-2.35 2.37.34.34 0 0 0 0 .66 3.05 3.05 0 0 0 3.04-3.05.32.32 0 0 0-.34-.33zM5.07 4a.34.34 0 0 0 .34-.33 1.35 1.35 0 0 1 1.37-1.35.34.34 0 1 0 0-.68 2.03 2.03 0 0 0-2.03 2.03.34.34 0 0 0 .34.34zm7.33 1.36h-1.87a3.78 3.78 0 1 0-6.86 0H2.14A2.14 2.14 0 0 0 0 7.5v10.27a2.14 2.14 0 0 0 2.14 2.14H12.4a2.14 2.14 0 0 0 2.15-2.12V7.5a2.15 2.15 0 0 0-2.14-2.14zM7.1.68a3.1 3.1 0 0 1 3.1 3.1 3.05 3.05 0 0 1-.57 1.8 1.56 1.56 0 0 1-.16.2 1.2 1.2 0 0 1-.1.1 1.6 1.6 0 0 1-.14.14l-.12.1-.13.13-.12.1a2.6 2.6 0 0 1-.28.16.36.36 0 0 1-.1.06 2.14 2.14 0 0 1-.2.1c-.05 0-.1.03-.13.04-.06 0-.13.03-.2.05a2.46 2.46 0 0 1-.3.07l-.1.02a.06.06 0 0 0-.03 0 2.96 2.96 0 0 1-.83 0h-.04c-.03 0-.06 0-.1-.02l-.3-.07-.18-.06-.12-.06-.22-.1a.36.36 0 0 0-.1-.04l-.25-.16-.12-.1-.15-.1a.47.47 0 0 0-.1-.1 1.66 1.66 0 0 1-.13-.15 1.14 1.14 0 0 1-.1-.13l-.17-.2A3.18 3.18 0 0 1 4 3.77 3.1 3.1 0 0 1 7.1.68zm0 12.86a1.36 1.36 0 0 0 1.35-1.35V9.5a2.85 2.85 0 1 1-2.72 0v2.7a1.4 1.4 0 0 0 1.37 1.34zm.68-5.04v3.7a.68.68 0 1 1-1.36 0V7.5c.05 0 .1 0 .15.02a.38.38 0 0 0 .1 0l.06.02c.1 0 .2 0 .3.02h.1c.1 0 .2 0 .32-.02a.13.13 0 0 0 .06 0l.1-.02c.07 0 .1 0 .17-.02v1zm-2.03.24a3.52 3.52 0 1 0 2.7 0V8.3a4.06 4.06 0 1 1-2.7 0v.44zm8.12 9.03a1.46 1.46 0 0 1-1.46 1.46H2.16A1.47 1.47 0 0 1 .7 17.77V7.5a1.46 1.46 0 0 1 1.45-1.46H4.1a.5.5 0 0 0 .06.08c.04.05.1.1.13.15.04.05.1.1.13.15a.57.57 0 0 0 .13.14 2.2 2.2 0 0 0 .23.2l.2.16.16.1a1.28 1.28 0 0 0 .2.1l.16.08.23.1a.03.03 0 0 0 .02 0v.3a4.74 4.74 0 1 0 2.72 0v-.3a1.47 1.47 0 0 0 .2-.1c.07-.02.1-.05.18-.08a1.98 1.98 0 0 0 .2-.1l.15-.1.22-.16a2.2 2.2 0 0 0 .23-.2 1.8 1.8 0 0 0 .14-.13l.15-.15c.04-.05.1-.1.13-.16a.5.5 0 0 1 .07-.08h2.28A1.46 1.46 0 0 1 13.9 7.5l-.03 10.27z"/>
</svg>
