<svg xmlns="http://www.w3.org/2000/svg" viewBox="0 0 20.99859 21.01125">
  <path d="M20.98 15.7a.36.36 0 0 0-.3-.24l-2.75-.4-1.24-2.4a.37.37 0 0 0-.65 0l-1.24 2.4-2.76.4a.36.36 0 0 0-.2.6l2 1.9-.47 2.63a.35.35 0 0 0 .5.36l2.5-1.26 2.47 1.27A.36.36 0 0 0 19 21a.35.35 0 0 0 .22-.06.36.36 0 0 0 .14-.35l-.47-2.66 2-1.88a.36.36 0 0 0 .07-.36zm-2.7 1.86a.36.36 0 0 0-.12.32l.38 2.14-2-1.02a.36.36 0 0 0-.33 0l-2 1 .4-2.12a.35.35 0 0 0-.1-.32l-1.6-1.5 2.2-.28a.36.36 0 0 0 .28-.2l1-1.95 1 1.96a.35.35 0 0 0 .27.17l2.22.3zm-5.46-6.16h3.2V7.47H2.5V17.8h7.1v-3.2h3.22zm0-3.2h2.5v2.48h-2.5zM5.7 17.07H3.2V14.6h2.5zm0-3.2H3.2v-2.5h2.5zm0-3.2H3.2v-2.5h2.5zm3.2 6.4H6.4V14.6h2.5zm0-3.2H6.4v-2.5h2.5zm0-3.2H6.4v-2.5h2.5zm3.2 3.2H9.6v-2.5h2.5zm0-3.2H9.6v-2.5h2.5zm-2.84 8.9H.7V5.7h17.1v6.05a.36.36 0 0 0 .7 0V1.78a.36.36 0 0 0-.34-.35h-1.8V.36a.36.36 0 0 0-.34-.36h-2.5a.35.35 0 0 0-.35.35v1.07H5.35V.36A.36.36 0 0 0 5 0H2.48a.36.36 0 0 0-.35.36v1.06H.35a.36.36 0 0 0-.35.36v18.14a.36.36 0 0 0 .36.36h8.9a.36.36 0 1 0 0-.72zM13.88.7h1.8v2.15h-1.8zM2.85.7h1.78v2.15H2.85zM.7 2.15h1.44V3.2a.36.36 0 0 0 .35.37h2.47a.36.36 0 0 0 .36-.36V2.16h7.83V3.2a.35.35 0 0 0 .35.37H16a.36.36 0 0 0 .36-.36V2.16h1.43V5H.7z"/>
</svg>
