<svg xmlns="http://www.w3.org/2000/svg" viewBox="0 0 20.05839 19.85422">
  <path d="M19.66 6.76a.4.4 0 0 0 .4-.4v-4.1A2.27 2.27 0 0 0 17.8 0H2.26A2.27 2.27 0 0 0 0 2.27V17.6a2.27 2.27 0 0 0 2.27 2.25H17.8a2.27 2.27 0 0 0 2.26-2.26V13.4a.4.4 0 0 0-.8 0v4.16a1.47 1.47 0 0 1-1.47 1.46H2.25A1.47 1.47 0 0 1 .8 17.6V2.26A1.47 1.47 0 0 1 2.27.8H17.8a1.47 1.47 0 0 1 1.46 1.47v4.1a.4.4 0 0 0 .4.4zm-9.58 6.4a.85.85 0 0 0-.34-.07.87.87 0 0 0-.63.24.9.9 0 0 0-.17.3.88.88 0 0 0-.06.33h-.02a.9.9 0 0 0 .27.63.83.83 0 0 0 .3.2.9.9 0 0 0 .34.06.9.9 0 0 0 .34-.07.87.87 0 0 0 .28-.2.9.9 0 0 0 .2-.3.86.86 0 0 0 .06-.33.85.85 0 0 0-.07-.35.9.9 0 0 0-.47-.47zM11.5 9.2a2.98 2.98 0 0 0 .5-.47 2.46 2.46 0 0 0 .37-.65 2.35 2.35 0 0 0 .15-.88 2.15 2.15 0 0 0-.18-.92 2.06 2.06 0 0 0-.54-.7 2.33 2.33 0 0 0-.8-.44A3.14 3.14 0 0 0 10 5a3.56 3.56 0 0 0-.76.06 3.4 3.4 0 0 0-.66.22 3.52 3.52 0 0 0-.56.3 4.42 4.42 0 0 0-.47.38l.34.56a.3.3 0 0 0 .26.17.4.4 0 0 0 .22-.1 3.06 3.06 0 0 1 .3-.23 2.83 2.83 0 0 1 .5-.22 2.12 2.12 0 0 1 .68-.1 1.74 1.74 0 0 1 .55.1 1.33 1.33 0 0 1 .45.23 1.15 1.15 0 0 1 .3.36 1.13 1.13 0 0 1 .1.5 1.42 1.42 0 0 1-.15.7 2.28 2.28 0 0 1-.4.53 3.7 3.7 0 0 1-.5.42 5.2 5.2 0 0 0-.52.4 1.9 1.9 0 0 0-.36.4.83.83 0 0 0-.1.54l.08 1.1h.9l.12-1a.73.73 0 0 1 .22-.4 3.57 3.57 0 0 1 .4-.37z"/>
</svg>
