<svg xmlns="http://www.w3.org/2000/svg" viewBox="0 0 16.035 19.96">
  <path d="M15.92 19.3l-2.3-2.3 1.22-1.22a.4.4 0 0 0 .1-.35.38.38 0 0 0-.22-.3 2.65 2.65 0 0 0-2.78.4l-3.6-3.6 7.63-7.64a.23.23 0 1 0-.32-.34L8.02 11.6.4 3.98a.23.23 0 0 0-.33.32l7.63 7.63-3.6 3.6a2.65 2.65 0 0 0-2.78-.4.4.4 0 0 0-.12.64l1.22 1.2-2.3 2.32a.4.4 0 0 0 0 .54.38.38 0 0 0 .28.1.4.4 0 0 0 .28-.1l2.3-2.32 1.22 1.2a.4.4 0 0 0 .28.12.17.17 0 0 0 .07 0 .4.4 0 0 0 .3-.24 2.63 2.63 0 0 0-.42-2.77l3.6-3.6 3.58 3.6a2.65 2.65 0 0 0-.4 2.78.38.38 0 0 0 .3.25h.07a.43.43 0 0 0 .28-.1l1.22-1.2 2.3 2.3a.4.4 0 0 0 .28.12.43.43 0 0 0 .28-.1.4.4 0 0 0 0-.56zM4.26 17.7l-2-2a1.9 1.9 0 0 1 1.46.54 1.82 1.82 0 0 1 .54 1.47zm7.52 0a1.9 1.9 0 0 1 .54-1.46 1.85 1.85 0 0 1 1.32-.55.76.76 0 0 1 .15 0zM8.02 7.54c1.6 0 2.9-1.7 2.9-3.77S9.62 0 8.02 0s-2.9 1.7-2.9 3.77S6.4 7.54 8 7.54zm-1.87-5.2h.23v.8h-.43a3.7 3.7 0 0 1 .2-.8zM9.9 5.17h-.24v-.8h.44a3.9 3.9 0 0 1-.2.8zM9.24 6.2h-.6v-.82h.8v.6a1.07 1.07 0 0 1-.2.22zm.2-2.82v.76h-.8v-.76zm-.8-.23v-.78h.8v.8zm.8 1.2v.8h-.8v-.8zm.22 1.3V5.4h.14a2.44 2.44 0 0 1-.14.28zm0-1.5V3.4h.47l.02.36s0 .25-.02.37zm0-1v-.78h.24a3.97 3.97 0 0 1 .2.8zm.14-1h-.14v-.28a2.44 2.44 0 0 1 .14.28zm-.36 0h-.8v-.8h.6c.07.05.14.13.2.2zm-.8-1.02V.9a1.68 1.68 0 0 1 .36.22zm.34 5.3a2.33 2.33 0 0 1-.34.2v-.2zm-.56-3.06v.77h-.8v-.77zm-.8-.23v-.78h.8v.78zm.8 1.22v.8h-.8v-.8zm0 1.02v.82h-.8v-.82zm0-3.24h-.8v-.77l.8-.02zM7.4 3.36v.78h-.8v-.78zm-.8-.23v-.77h.8v.78zm.8 1.23v.8h-.8v-.8zm0 1.02v.82h-.6a2 2 0 0 1-.2-.22v-.6zm0 1.05v.2a1.68 1.68 0 0 1-.34-.2zM6.73 1.4l.66-.02v.76h-.8v-.6a1 1 0 0 1 .12-.14zm.25-.23A1.8 1.8 0 0 1 7.4.92v.24zm-.6.7v.26h-.13a2.1 2.1 0 0 1 .13-.26zm0 1.48v.8H5.9v-.38-.42zm0 1v.8h-.24a3.9 3.9 0 0 1-.2-.8zm0 1.03v.28a2.44 2.44 0 0 1-.14-.28zM7.62 6.7v-.27h.8v.27a1.75 1.75 0 0 1-.4.05 1.07 1.07 0 0 1-.4-.05zm.8-5.87v.3l-.8.02V.83a1.63 1.63 0 0 1 .8 0z"/>
</svg>
