<svg xmlns="http://www.w3.org/2000/svg" viewBox="0 0 20.0669 18.58726">
  <path d="M19.32 15.35h-1.7a2.47 2.47 0 0 0-4.73 0H.73a.75.75 0 0 0 0 1.5H12.9a2.47 2.47 0 0 0 4.72 0h1.7a.75.75 0 0 0 0-1.5zm-4.07 1.74a1 1 0 1 1 1-1 1 1 0 0 1-1 1zm4.07-8.56H7.17a2.47 2.47 0 0 0-4.72 0H.75a.75.75 0 1 0 0 1.5h1.7a2.47 2.47 0 0 0 4.72 0h12.15a.75.75 0 1 0 0-1.5zm-14.5 1.74a1 1 0 0 1 0-1.98 1 1 0 1 1 0 1.98zM.75 3.24H9.4a2.47 2.47 0 0 0 4.74 0h5.18a.75.75 0 0 0 0-1.5h-5.18a2.47 2.47 0 0 0-4.73 0H.77a.75.75 0 0 0 0 1.5zM11.77 1.5a1 1 0 1 1-1 1 1 1 0 0 1 1-1z"/>
</svg>
