<svg xmlns="http://www.w3.org/2000/svg" viewBox="0 0 19.9476 19.95084">
  <path d="M16.5 7.96l-3.47-1.33c.5-.45 1.07-.9 1.6-1.3.73-.58 1.48-1.17 2.15-1.8l.05-.06a.62.62 0 0 0 .07-.7c-.23-.4-.9-.62-3.57-.44h-.07a1.1 1.1 0 0 0-2.03.05h-.4A6.58 6.58 0 0 0 6.67 0 .8.8 0 0 0 6 .3a.85.85 0 0 0 .06.82.03.03 0 0 0 0 .02 2.93 2.93 0 0 1-.36-.02l-.03-.02C3.87.2 3.33.2 3.04.5c-.2.23-.2.53 0 .92a2.58 2.58 0 0 1 .27.54s-.1.12-.7.13c-1.33.03-1.8.17-1.9.57-.14.42.24.7.62.96a2.95 2.95 0 0 1 .4.3.6.6 0 0 1-.08.1A3.72 3.72 0 0 0 .66 8a.3.3 0 0 0 .04.1 6.8 6.8 0 0 0-.03 5.93c1.1 2.1 3.4 3.37 6.36 3.47a6.17 6.17 0 0 1 1.13.96 3.97 3.97 0 0 0 3.07 1.5h.2a.38.38 0 0 0 .3-.17c.5-.7.18-2.47-.92-3.86a4.75 4.75 0 0 0 1.37-4.57.4.4 0 0 0-.24-.26.4.4 0 0 0-.35.05c-.28.18-.57.34-.85.5a8.8 8.8 0 0 0-2.95 2.4c-.42.3-.66.2-.74.17-.76-.3-1.27-2.15-1.4-3a.4.4 0 0 0-.1-.2c1.46-1.04 4.2-1.26 5.7-1.4.16 0 .3 0 .44-.03h1.9l1.45.02h.52a1.22 1.22 0 0 0 .98-.32 1.27 1.27 0 0 0 .26-1.02.47.47 0 0 0-.3-.32zM12.24 2.5a.34.34 0 1 1-.32.37.2.2 0 0 0 0-.1v-.03a.35.35 0 0 1 .32-.24zM2.2 4.58l.18-.18a.66.66 0 0 0 .16-.5c-.04-.38-.4-.65-.77-.9 0-.02-.03-.03-.04-.04.2-.02.47-.05.9-.06.5-.02 1.12-.1 1.37-.54a1.2 1.2 0 0 0-.16-1.17 9 9 0 0 1 1.47.6.6.6 0 0 0 .24.1c.53.06 1.05.1 1.3-.26A.8.8 0 0 0 6.78.8a6.58 6.58 0 0 1 3.05 1.64c-3.2.2-6.26 1-8.18 3.87-.14.23-.26.44-.4.64A2.8 2.8 0 0 1 2.2 4.6zm4.5 10.38a1.55 1.55 0 0 0 1.58-.32.23.23 0 0 0 .07-.07 7.88 7.88 0 0 1 2.74-2.22l.36-.22c.07 1.1-.36 2.84-1.46 3.34a.4.4 0 0 0-.12.64 4.17 4.17 0 0 1 1.25 3.05A3.2 3.2 0 0 1 8.7 17.9a6.6 6.6 0 0 0-1.38-1.15c-.03 0-.05-.03-.08-.03l-.06-.06c-1.54-1.25-2.92-2.64-2.64-4.25a1.9 1.9 0 0 1 .32-.74c.17.77.7 2.85 1.85 3.3zm9.22-6.2c-.04.05-.15.1-.38.07H13.6c-.68-.02-1.38-.04-1.93-.02-1.32-.23-2.96-1-3.47-2.1a2.27 2.27 0 0 1 .28-2.2.4.4 0 0 0-.14-.54.4.4 0 0 0-.55.13 3.32 3.32 0 0 0-.56 2.2l-4.17.6a.4.4 0 0 0-.33.3.44.44 0 0 0 .1.4C4.06 8.8 4.7 9.26 5.46 9.26a4.7 4.7 0 0 0 1.8-.55l1.15-.5A5.7 5.7 0 0 0 9.67 9c-2.36.27-5.5.96-5.9 3.28-.3 1.7.76 3.08 2.12 4.32a5.87 5.87 0 0 1-4.5-2.92C.36 11.7.7 9.2 2.34 6.76c1.98-2.94 5.4-3.48 8.84-3.57a1.1 1.1 0 0 0 1.06.77 1.13 1.13 0 0 0 1.1-.85h.03a11.4 11.4 0 0 1 2.63 0c-.58.55-1.23 1.06-1.86 1.56-.72.56-1.47 1.15-2.14 1.8a.4.4 0 0 0 .14.65l3.83 1.47a.37.37 0 0 1-.05.15zm-8.44-1.7a3 3 0 0 0 .33.53l-.85.36c-1.44.65-1.7.76-2.94-.4zm11.9-2.4c-.6-.5-.58-.62-.53-1l.07-.5a1.15 1.15 0 0 0 .67-1.8 1.15 1.15 0 0 0-2.08.54 1.13 1.13 0 0 0 .22.85 1.07 1.07 0 0 0 .38.32l-.08.5c-.08.57-.07 1 .8 1.72a.93.93 0 0 1 .3.8 1 1 0 0 1-1.8.47 1 1 0 0 1-.2-.75 1.02 1.02 0 0 1 .15-.4.36.36 0 0 0 .03-.1l.26-.24a.4.4 0 1 0-.56-.6l-1.18 1.1a.4.4 0 0 0-.02.56.4.4 0 0 0 .3.13.47.47 0 0 0 .2-.07 1.83 1.83 0 0 0 .33.83 1.76 1.76 0 0 0 1.2.7 2.1 2.1 0 0 0 .25.02 1.83 1.83 0 0 0 1.8-1.56 1.7 1.7 0 0 0-.56-1.56zm-.7-2.95h.04a.33.33 0 0 1 .23.16.35.35 0 0 1 .07.26.36.36 0 0 1-.4.3.33.33 0 0 1-.23-.13.35.35 0 0 1-.1-.27.36.36 0 0 1 .36-.3z"/>
</svg>
