<svg xmlns="http://www.w3.org/2000/svg" viewBox="0 0 19.91589 16.3">
  <path d="M19.7.43a1.24 1.24 0 0 0-.97-.43 1.23 1.23 0 0 0-1.04.57.08.08 0 0 0-.04.05c-.04.1-4.26 9.54-5.4 10.85a4.82 4.82 0 0 1-3.38 1.34 5.55 5.55 0 0 1-.57 0l-6.17-1.2a1.63 1.63 0 0 0-.3-.03A1.9 1.9 0 0 0 0 13.3a2.27 2.27 0 0 0 .36 1.6 2.4 2.4 0 0 0 1.68.94h.03l6.3.45h.4c.94 0 3.28-.17 4.5-1.6a8.24 8.24 0 0 0 1.25-2.04c.7-1.6 4.54-9.8 5.3-11.4l.03-.05a.2.2 0 0 0 .02-.07.86.86 0 0 0-.2-.7zM9.57 15.63a.2.2 0 0 1-.1-.04.18.18 0 0 1-.06-.14l.05-1.9a.16.16 0 0 1 .14-.17 5.4 5.4 0 0 0 3-1.4.15.15 0 0 1 .1-.03.2.2 0 0 1 .08.02l.97.46a.17.17 0 0 1 .08.22 7.6 7.6 0 0 1-1.02 1.6 5.02 5.02 0 0 1-3.24 1.33zm3.4-3.97a.2.2 0 0 1 .02-.13c.05-.1.12-.2.2-.3a.16.16 0 0 1 .13-.1.2.2 0 0 1 .07.03l.8.37a.17.17 0 0 1 .07.2l-.15.35a.2.2 0 0 1-.1.1.13.13 0 0 1-.05 0 .2.2 0 0 1-.07-.02l-.83-.4a.16.16 0 0 1-.1-.1zm1.4-.4a.2.2 0 0 1-.08-.03l-.73-.34a.14.14 0 0 1-.08-.1.2.2 0 0 1 0-.15C15.13 7.8 17.9 1.6 18.22.9c0 0 0-.02.02-.03a.6.6 0 0 1 .5-.25.62.62 0 0 1 .46.2.35.35 0 0 1 .06.08.2.2 0 0 1 0 .13c-.56 1.2-3.42 7.26-4.73 10.12a.14.14 0 0 1-.1.08.07.07 0 0 1-.05.02zM.9 14.56a1.66 1.66 0 0 1-.26-1.14c.15-.78.58-1.23 1.2-1.23a1.23 1.23 0 0 1 .2 0l.1.03a.16.16 0 0 1 .13.17l-.14 2.63a.17.17 0 0 1-.06.12.17.17 0 0 1-.1.03h-.04a1.8 1.8 0 0 1-1.03-.63zM6.26 8.5A2.72 2.72 0 1 0 3.54 5.8a2.72 2.72 0 0 0 2.72 2.72zm0-4.77A2.06 2.06 0 1 1 4.2 5.8a2.06 2.06 0 0 1 2.06-2.05z"/>
  <circle cx="8.17" cy="8.86" r=".44" transform="rotate(-24.633 -1.668 11.617)"/>
  <circle cx="9.47" cy="9.94" r=".44" transform="rotate(-24.633 -.368 12.695)"/>
  <circle cx="7.31" cy="10.15" r=".44" transform="rotate(-24.633 -2.53 12.907)"/>
</svg>
