<svg xmlns="http://www.w3.org/2000/svg" viewBox="0 0 19.92 19.92">
  <path d="M17 2.9A9.96 9.96 0 1 0 2.92 17 9.96 9.96 0 1 0 17 2.9zm2.12 7.2l-2.06-2.17.43-3.2a9.1 9.1 0 0 1 1.6 5.22zm-1.43 4.77l-3.43.6-1.7-2.62 1.2-3.73 2.72-.6 2.53 2.64a8.94 8.94 0 0 1-1.35 3.7zm-12.06.6l-3.44-.63a9.16 9.16 0 0 1-1.32-3.7l2.54-2.62 2.73.6 1.2 3.74zm2.43-2.96L6.92 8.96l3.04-2.22L13 8.93l-1.16 3.57H8.08zm8.72-8.63l-.53 3.88-2.72.6-3.2-2.3v-2.6L14 1.73a9.3 9.3 0 0 1 2.44 1.75zM13 1.3L9.96 2.8 6.92 1.3a9.32 9.32 0 0 1 6.08 0zm-7.07.42l3.63 1.75v2.56l-3.2 2.32-2.72-.6-.52-3.9.36-.37a9.28 9.28 0 0 1 2.45-1.76zm-3.5 3.02l.43 3.2L.8 10.07v-.12a9.06 9.06 0 0 1 1.63-5.2zm.46 11.03l2.67.5 1.2 2.27a9.12 9.12 0 0 1-3.28-2.12 4.66 4.66 0 0 1-.6-.65zm4.94 3.1L6.3 15.94 8 13.3h3.9l1.7 2.64-1.57 2.94a9.05 9.05 0 0 1-2.1.24 9.87 9.87 0 0 1-2.08-.25zm8.6-2.44a9.1 9.1 0 0 1-3.32 2.12l1.22-2.28L17 15.8q-.26.33-.56.63z"/>
</svg>
