<svg xmlns="http://www.w3.org/2000/svg" viewBox="0 0 19.98616 8.01">
  <path d="M14.03 8a2.3 2.3 0 0 1-2.13-1.4H4.7a2.6 2.6 0 0 1-.23.4A2.3 2.3 0 0 1 .24 5.7a2.64 2.64 0 0 1 .02-.3 1.9 1.9 0 0 1 .13-.5l-.06-.04A1.1 1.1 0 0 1 0 4.18a6.77 6.77 0 0 1 .9-3.16 1.2 1.2 0 0 1 1.03-.7l1.7-.07a.6.6 0 0 1 .48.2.62.62 0 0 1 .18.5l-.14 1a.27.27 0 0 1-.27.24h-.04a.27.27 0 0 1-.23-.33l.13-1A.07.07 0 0 0 3.7.8h-.02l-1.7.08a.7.7 0 0 0-.58.4A6.26 6.26 0 0 0 .55 4.1a.63.63 0 0 0 .1.28 2.3 2.3 0 0 1 4.2 1.3 2.04 2.04 0 0 1-.02.35h6.9a2.04 2.04 0 0 1-.04-.34 2.64 2.64 0 0 1 0-.3 2.3 2.3 0 1 1 4.53.85 2.08 2.08 0 0 1 .53.4l2.64-.02-.14-.23a1.92 1.92 0 0 0-1.15-.8l-.06-.03a.26.26 0 0 1-.18-.16.3.3 0 0 1 .02-.23l.28-.44a.08.08 0 0 0-.02-.1 7.5 7.5 0 0 0-4.27-1.3 17.02 17.02 0 0 0-1.85.13h-.1a.27.27 0 0 1-.2-.07 4.73 4.73 0 0 0-2.34-.9H7.4a.27.27 0 0 1 0-.56h1.72V.54h-1a3.32 3.32 0 0 0-2.4 1.06l-.83.9a1.5 1.5 0 0 1-1.1.47h-.85a.27.27 0 0 1-.27-.26.27.27 0 0 1 .26-.25h.84a.95.95 0 0 0 .7-.32l.8-.9A3.85 3.85 0 0 1 8.13 0h1.03a.5.5 0 0 1 .5.5v1.48a5.05 5.05 0 0 1 2.33.94 13.55 13.55 0 0 1 1.83-.15 8.06 8.06 0 0 1 4.6 1.4.62.62 0 0 1 .17.84l-.1.16a2.5 2.5 0 0 1 1.2.96l.2.35a.48.48 0 0 1 .03.48.47.47 0 0 1-.4.25h-2.9a.3.3 0 0 1-.22-.1 1.52 1.52 0 0 0-.37-.3 1.48 1.48 0 0 1-.13.2 2.12 2.12 0 0 1-1.88 1zm0-4.08a1.8 1.8 0 0 0-1.76 1.55 1.64 1.64 0 0 0-.02.22 1.77 1.77 0 0 0 3.24.97A1.77 1.77 0 0 0 14 3.9zm-11.46 0A1.8 1.8 0 0 0 .8 5.47a1.64 1.64 0 0 0 0 .22 1.77 1.77 0 0 0 3.23.97A1.77 1.77 0 0 0 2.57 3.9zm5.35 1.8a.3.3 0 0 1-.16-.04.27.27 0 0 1-.06-.38l.68-.92a.27.27 0 0 1 .22-.1.3.3 0 0 1 .16.04.27.27 0 0 1 .06.38l-.68.92a.3.3 0 0 1-.22.1zm1.22 0a.3.3 0 0 1-.16-.04.27.27 0 0 1-.06-.38l.68-.92a.27.27 0 0 1 .22-.1.3.3 0 0 1 .16.04.27.27 0 0 1 .06.38l-.68.92a.28.28 0 0 1-.22.1zm1.22 0a.3.3 0 0 1-.16-.04.27.27 0 0 1-.06-.38l.68-.92a.27.27 0 0 1 .22-.1.3.3 0 0 1 .16.04.27.27 0 0 1 .06.38l-.68.92a.27.27 0 0 1-.22.1z"/>
</svg>
