<svg xmlns="http://www.w3.org/2000/svg" viewBox="0 0 19.99891 19.303">
  <path d="M19.96 5.9A1.63 1.63 0 1 0 18 7.84l-.02 4.92a1.65 1.65 0 0 1-1.65 1.65h-.87l.02-9.72a2.4 2.4 0 0 0-2.37-2.4l.03-1.2A1.04 1.04 0 0 0 12.07 0H3.44A1.04 1.04 0 0 0 2.4 1.04v1.22A2.4 2.4 0 0 0 0 4.64V16.9a2.4 2.4 0 0 0 2.4 2.4h10.67a2.4 2.4 0 0 0 2.4-2.38v-1.77h.86a2.4 2.4 0 0 0 2.4-2.4v-4.9a1.62 1.62 0 0 0 1.23-1.95zM3.14 1.04a.3.3 0 0 1 .3-.3l8.63.02a.3.3 0 0 1 .3.3v1.2H3.13zm11.58 15.88a1.65 1.65 0 0 1-1.65 1.64H2.4A1.65 1.65 0 0 1 .74 16.9L.76 4.62A1.65 1.65 0 0 1 2.4 3h10.7a1.65 1.65 0 0 1 1.64 1.67zm4.54-10.65zm-5.9-2.42H2.17a.66.66 0 0 0-.67.66v5.63a.66.66 0 0 0 .64.66h11.22a.66.66 0 0 0 .66-.67v-5.6a.66.66 0 0 0-.66-.67zm-7.9 6.27h-3.3v-5.6h3.3zm3.95 0H6.1v-5.6h3.3zm3.98 0h-3.3v-5.6h3.3zM3.8 15.96a.33.33 0 0 0-.33.33.66.66 0 1 1-.66-.68.33.33 0 0 0 0-.66 1.32 1.32 0 1 0 1.34 1.32.33.33 0 0 0-.33-.34zm3.3 0a.33.33 0 0 0-.33.33.66.66 0 1 1-.66-.68.33.33 0 1 0 0-.66 1.32 1.32 0 1 0 1.34 1.32.33.33 0 0 0-.33-.34zm3.3 0a.33.33 0 0 0-.33.33.66.66 0 1 1-.66-.68.33.33 0 0 0 0-.66 1.32 1.32 0 1 0 1.34 1.32.33.33 0 0 0-.33-.34zm3.3 0a.33.33 0 0 0-.33.33.66.66 0 1 1-.66-.68.33.33 0 0 0 0-.66 1.32 1.32 0 1 0 1.34 1.32.33.33 0 0 0-.33-.34zM2.8 6.82a.33.33 0 0 0 .34-.33h.94a3.52 3.52 0 0 0-.6 1.96.33.33 0 0 0 .65 0A2.84 2.84 0 0 1 5 6.4h.03v-.02h.02v-.02h.02v-.03l.02-.03V6h-.02l-.02-.02-.02-.03L5 5.92V5.9h-.02l-.02-.02h-.02v-.02H4.9v-.02H2.8a.33.33 0 0 0-.32.32v.33a.33.33 0 0 0 .33.3zm3.97 0a.33.33 0 0 0 .33-.33h.94a3.52 3.52 0 0 0-.6 1.96.33.33 0 0 0 .65 0 2.84 2.84 0 0 1 .85-2.06H9v-.02l.02-.02.02-.03V6.3h.02v-.06l.02-.03v-.1h-.02V6h-.02L9 5.98v-.04l-.02-.02-.02-.02h-.02l-.02-.02H8.9v-.02h-.06v-.02H6.76a.33.33 0 0 0-.32.32v.33a.33.33 0 0 0 .33.3zm3.96 0a.33.33 0 0 0 .33-.33H12a3.52 3.52 0 0 0-.6 1.96.33.33 0 0 0 .65 0 2.84 2.84 0 0 1 .88-2.06h.02v-.02h.02v-.02H13V6.3h.02v-.06h.02V6.1L13 6.04v-.08h-.02v-.03h-.02l-.02-.02h-.05l-.03-.03-.03-.02h-.03l-.02-.02H10.7a.33.33 0 0 0-.32.32v.33a.33.33 0 0 0 .33.32z"/>
</svg>
