<svg xmlns="http://www.w3.org/2000/svg" viewBox="0 0 19.94 19.94">
  <path d="M9.97 0a9.97 9.97 0 1 0 9.97 9.97A9.97 9.97 0 0 0 9.97 0zm0 19.25a9.3 9.3 0 1 1 9.28-9.3 9.3 9.3 0 0 1-9.28 9.3zm-6.03-4.97h1.3l.44-3.5h2.95l.14-1.04H5.8l.34-2.72h3.48l.13-1.06h-4.8l-1 8.32zm11.66-7.8a2.33 2.33 0 0 0-.8-.4 4.34 4.34 0 0 0-1.14-.13H11.1l-1.03 8.32h2.84a3.86 3.86 0 0 0 1.3-.2 2.8 2.8 0 0 0 .96-.55 2.52 2.52 0 0 0 .6-.84 2.64 2.64 0 0 0 .22-1.07 1.5 1.5 0 0 0-.36-1.03 2 2 0 0 0-1.07-.6 2.68 2.68 0 0 0 .74-.35 2.26 2.26 0 0 0 .5-.5 2.07 2.07 0 0 0 .3-.6 2.26 2.26 0 0 0 .1-.7 2.1 2.1 0 0 0-.13-.77 1.4 1.4 0 0 0-.46-.6zm-.92 5.16a2 2 0 0 1-.1.66 1.32 1.32 0 0 1-.84.84 2.1 2.1 0 0 1-.75.12h-1.53l.33-2.7h1.52a1.54 1.54 0 0 1 1.03.3.97.97 0 0 1 .33.78zm-.24-2.4a1.83 1.83 0 0 1-1.3.4h-1.2l.32-2.66h1.28a1.65 1.65 0 0 1 1 .26.98.98 0 0 1 .34.82 1.54 1.54 0 0 1-.44 1.17z"/>
</svg>
