<svg xmlns="http://www.w3.org/2000/svg" viewBox="0 0 17.52161 20.14064">
  <path d="M17.35 9.93A2.65 2.65 0 0 0 14.8 8.2a7.98 7.98 0 0 0-8.43-1.4 8 8 0 0 0-5.4 6.62 2.65 2.65 0 0 0 1.76 4.7 8.18 8.18 0 0 0 5.25 2.02 8.98 8.98 0 0 0 3.18-.62 8 8 0 0 0 5.4-6.6 2.65 2.65 0 0 0 .8-3zm-1.47 2.36l-.15.1-.03.2a7.12 7.12 0 0 1-4.86 6.07 7.12 7.12 0 0 1-7.67-1.37l-.15-.1h-.2a1.75 1.75 0 0 1-1.18-3.17l.15-.1v-.2a7.12 7.12 0 0 1 4.87-6.1A7.12 7.12 0 0 1 14.34 9l.15.15.2-.02a1.75 1.75 0 0 1 1.17 3.17zm-.92-4.74l.36.13.18-.36A5.87 5.87 0 0 0 15.94 3a5.87 5.87 0 0 0-3.3-2.9l-.38-.1-.18.34a5.87 5.87 0 0 0-.45 4.36 5.87 5.87 0 0 0 3.3 2.86zM12.7 1.13a4.64 4.64 0 0 1 2.4 2.2 4.64 4.64 0 0 1-.22 3.23 4.62 4.62 0 0 1-2.4-2.2 4.64 4.64 0 0 1 .23-3.24zM9.8 7.77h-.04a5.05 5.05 0 0 0-3.1 1.04.45.45 0 1 0 .63.65 4.25 4.25 0 0 1 2.46-.78 3.64 3.64 0 0 1 2.32.72.45.45 0 0 0 .56-.7A4.55 4.55 0 0 0 9.8 7.8z"/>
</svg>
