<svg xmlns="http://www.w3.org/2000/svg" viewBox="0 0 19.94 19.92">
  <path d="M17.73 16.22a9.93 9.93 0 0 0 2.2-6.25v-.55a9.92 9.92 0 0 0-1.58-4.84.22.22 0 0 0-.03-.05 10 10 0 0 0-5.8-4.2A9.74 9.74 0 0 0 9.97 0a9.98 9.98 0 0 0-8.35 4.53c0 .02-.02.03-.03.05A9.92 9.92 0 0 0 0 9.4v.02l-.02.55a9.9 9.9 0 0 0 2.2 6.25.22.22 0 0 0 .05.05 10.04 10.04 0 0 0 4.13 3h.03a10.02 10.02 0 0 0 7.1 0h.03a10.06 10.06 0 0 0 4.13-3 .08.08 0 0 0 .06-.05zm.98-6.18L16.97 7.7 17 4.77l.83.25a9.1 9.1 0 0 1 1.4 4.34zM12.27.96l.5.72-2.78.95-2.77-.95.5-.72A9.64 9.64 0 0 1 9.98.68a9.47 9.47 0 0 1 2.27.28zm-9.3 3.8L3 7.7l-1.76 2.34-.53-.7A9.22 9.22 0 0 1 2.14 5zm-.1 11.14v-.86l2.8.86 1.7 2.4-.83.3a9.38 9.38 0 0 1-3.68-2.7zm4.74 3.04l.38-.14a.33.33 0 0 0 .28-.33.35.35 0 0 0-.15-.28l-1.86-2.7a.34.34 0 0 0-.15-.2.3.3 0 0 0-.23-.07l-3.13-.96a.2.2 0 0 0-.06-.04.32.32 0 0 0 .03-.27v-.05a.34.34 0 1 0-.66.2l.02.07a.35.35 0 0 0 .18.2.3.3 0 0 0-.04.2l-.02.42A9.2 9.2 0 0 1 .7 10.46l.25.32a.33.33 0 0 0 .3.17.22.22 0 0 0 .1-.02.38.38 0 0 0 .23-.23L3.55 8.1a.3.3 0 0 0 .16-.2.33.33 0 0 0 0-.22L3.62 4.4a.14.14 0 0 0 .02-.07h.07a.3.3 0 0 0 .2-.06l.04-.03a.34.34 0 0 0 .07-.48.33.33 0 0 0-.47-.07h-.04a.35.35 0 0 0-.14.25.4.4 0 0 0-.2.03l-.4.1a9.37 9.37 0 0 1 3.85-2.8l-.23.35a.33.33 0 0 0-.04.43.35.35 0 0 0 .28.14h.02l3.1 1.06a.32.32 0 0 0 .22.1.36.36 0 0 0 .23-.1l3.1-1.06h.03a.35.35 0 0 0 .28-.14.32.32 0 0 0-.03-.43l-.23-.34a9.3 9.3 0 0 1 3.85 2.8l-.4-.1a.3.3 0 0 0-.2-.05.35.35 0 0 0-.15-.24l-.05-.02a.34.34 0 0 0-.5.07.35.35 0 0 0 .1.48l.03.03a.36.36 0 0 0 .2.06.2.2 0 0 0 .07 0 .2.2 0 0 0 .02.06l-.05 3.28a.33.33 0 0 0-.02.22.3.3 0 0 0 .16.2l2 2.63a.36.36 0 0 0 .2.24.16.16 0 0 0 .1.02.34.34 0 0 0 .3-.2l.26-.3a9.16 9.16 0 0 1-1.5 4.54v-.4a.3.3 0 0 0-.04-.22.35.35 0 0 0 .18-.2l.02-.05a.34.34 0 1 0-.65-.2l-.02.04a.32.32 0 0 0 .03.27c-.02 0-.04.03-.06.04l-3.16.97a.32.32 0 0 0-.28.04.34.34 0 0 0-.15.32l-1.8 2.56a.27.27 0 0 0-.05.04.33.33 0 0 0-.25-.1h-.05a.34.34 0 0 0 0 .67h.05a.33.33 0 0 0 .25-.1.35.35 0 0 0 .2.1l.38.13a9.33 9.33 0 0 1-4.77 0zm5.82-.35l-.82-.3 1.68-2.4 2.8-.87.02.86a9.24 9.24 0 0 1-3.68 2.7zM9.98 4.3a.34.34 0 0 0 .34-.33v-.05a.34.34 0 1 0-.68 0v.05a.34.34 0 0 0 .34.34zm0 .8a.34.34 0 0 0 .34-.35V4.7a.34.34 0 1 0-.68 0v.05a.33.33 0 0 0 .34.34zm-4.8 2.8l-.04-.02a.34.34 0 1 0-.16.66h.05a.25.25 0 0 0 .08.02.33.33 0 0 0 .1-.66zm-.78-.2h-.05a.34.34 0 0 0-.16.65h.03a.25.25 0 0 0 .08.02.34.34 0 0 0 .1-.68zm10.18.23h-.05a.34.34 0 0 0-.25.42.34.34 0 0 0 .33.26.22.22 0 0 0 .1 0h.05a.34.34 0 0 0 .25-.4.34.34 0 0 0-.42-.26zm.8-.2h-.04a.34.34 0 0 0-.25.42.34.34 0 0 0 .3.26.22.22 0 0 0 .1 0h.04a.34.34 0 0 0 .25-.4.34.34 0 0 0-.4-.26zM6.76 14.3a.34.34 0 0 0-.47.1l-.04.03a.34.34 0 0 0 .1.47.33.33 0 0 0 .2.06.35.35 0 0 0 .28-.15l.03-.02a.38.38 0 0 0-.1-.48zm.46-.7a.34.34 0 0 0-.46.1l-.03.03a.34.34 0 0 0 .1.47.33.33 0 0 0 .2.06.35.35 0 0 0 .3-.15l.02-.02a.36.36 0 0 0-.1-.48zm5.12-.18a.35.35 0 0 0 .2-.06.34.34 0 0 0 .13-.36l1.42-4.37a.33.33 0 0 0-.13-.38l-3.8-2.75a.33.33 0 0 0-.4 0l-3.7 2.7a.34.34 0 0 0-.22.23.33.33 0 0 0 .07.3l1.35 4.15a.34.34 0 0 0 .1.47.33.33 0 0 0 .2.06.34.34 0 0 0 .25-.1h4.25a.3.3 0 0 0 .25.13zM10 6.22l3.37 2.44-1.3 3.96H7.9L6.6 8.66zm3.6 8.17a.34.34 0 0 0-.56.35l.03.04a.33.33 0 0 0 .28.14.33.33 0 0 0 .2-.06.34.34 0 0 0 .1-.48zm-.42-.68l-.03-.04a.34.34 0 0 0-.57.36l.03.04a.34.34 0 0 0 .3.15.35.35 0 0 0 .2-.06.33.33 0 0 0 .07-.47zM4.73 3.26a.34.34 0 0 0-.47-.07H4.2a.35.35 0 0 0-.05.5.35.35 0 0 0 .28.13.3.3 0 0 0 .2-.07l.04-.03a.35.35 0 0 0 .07-.48zm.22-.58l-.04.03a.34.34 0 0 0-.06.5.35.35 0 0 0 .28.14.3.3 0 0 0 .2-.07l.05-.03a.34.34 0 1 0-.4-.55zm1.1.05a.35.35 0 0 0 .08-.48.34.34 0 0 0-.48-.07l-.05.03a.35.35 0 0 0-.07.5.33.33 0 0 0 .27.14.3.3 0 0 0 .2-.07zm9.24 1l.02.04a.37.37 0 0 0 .2.07.34.34 0 0 0 .2-.62l-.03-.03a.34.34 0 0 0-.4.53zm-.7-.5l.03.03a.36.36 0 0 0 .2.06.35.35 0 0 0 .28-.14.34.34 0 0 0-.07-.48L15 2.68a.34.34 0 1 0-.4.55zm-.66-.47a.37.37 0 0 0 .2.07.35.35 0 0 0 .28-.14.34.34 0 0 0-.08-.5l-.05-.03a.34.34 0 0 0-.4.56zm4.32 9.2a.36.36 0 0 0 .1 0 .35.35 0 0 0 .34-.23l.03-.05a.34.34 0 1 0-.65-.2l-.02.04a.34.34 0 0 0 .2.43zm-.53 1.62a.36.36 0 0 0 .1.02.35.35 0 0 0 .34-.24l.02-.05a.34.34 0 1 0-.66-.2l-.02.06a.33.33 0 0 0 .2.43zm.27-.82a.36.36 0 0 0 .12.02.35.35 0 0 0 .33-.24l.02-.05a.34.34 0 1 0-.65-.23l-.02.05a.32.32 0 0 0 .2.43zm-16.06 0a.34.34 0 0 0 .22-.43v-.05a.34.34 0 1 0-.66.2l.02.06a.35.35 0 0 0 .33.24.37.37 0 0 0 .1-.02zm-.26-.8a.34.34 0 0 0 .22-.44l-.02-.05a.34.34 0 1 0-.65.2l.02.06a.35.35 0 0 0 .33.24c.03 0 .06 0 .1-.02zm.73 1.14a.34.34 0 1 0-.63.2l.02.06a.35.35 0 0 0 .3.24.43.43 0 0 0 .1-.02.34.34 0 0 0 .24-.43zm8.28 5.03h-.05a.34.34 0 1 0 0 .68h.05a.34.34 0 1 0 0-.66zm-1.72 0H8.9a.34.34 0 1 0 0 .68h.05a.34.34 0 0 0 0-.66zm.86 0h-.04a.34.34 0 1 0 0 .68h.05a.34.34 0 1 0 0-.66z"/>
</svg>
