<svg xmlns="http://www.w3.org/2000/svg" viewBox="0 0 20.14 20.08">
  <path d="M10.15 8.86a4.44 4.44 0 0 0 4.43-4.43 4.43 4.43 0 1 0-4.43 4.43zm-.8-.73L8.75 7l.63-.98h1.5l.65 1-.6 1.1a3.65 3.65 0 0 1-1.6 0zM6.4 4.98l.98-1.02 1 .23.48 1.44-.64 1-1.3-.26a3.68 3.68 0 0 1-.52-1.42zm6.98 1.43l-1.3.25-.65-1 .47-1.45 1-.24 1 1.03a3.72 3.72 0 0 1-.52 1.4zm-2.1-2.35l-.43 1.33h-1.4L9 4.04l1.14-.82zM8.16 7.28l.3.54a4.07 4.07 0 0 1-.94-.67zm3.97 0l.64-.1a3.85 3.85 0 0 1-.92.64zm1.22-3.77l.12-.9a3.85 3.85 0 0 1 .45 1.5zm-.62-.14l-1 .23-1.26-.93v-.93l1.4-.68a3.8 3.8 0 0 1 .96.7l.1.1zM10.15 1.2l-.9-.44a3.74 3.74 0 0 1 1.8 0zm-1.73-.14l1.4.68v.93l-1.25.92-1-.24-.2-1.5a1.06 1.06 0 0 1 .1-.1 3.8 3.8 0 0 1 .95-.7zM6.94 3.5l-.57.6a3.76 3.76 0 0 1 .45-1.5zm13.2 6.76V2.98a.37.37 0 0 0-.72 0V9.9H.72V2.98a.33.33 0 0 0-.36-.28.33.33 0 0 0-.36.28v16.74a.36.36 0 1 0 .72 0V11.1l1.9 1.87v7.08h.64v-1.17H4.6v1.17h.65v-1.17h1.4v1.17h.66v-1.17h1.4v1.17h.67v-1.17h1.4v1.17h.66v-1.17h1.4v1.17h.65v-1.17h1.4v1.17h.65v-1.17h1.34v1.17h.65v-7.08l1.92-1.88v8.6a.36.36 0 0 0 .72 0v-9.45zm-3.28 4.2h-1.34v-1.3h1.34zm-11.6.64h1.4v1.25h-1.4zm2.05 0h1.4v1.25H7.3zm2.07 0h1.4v1.25h-1.4zm2.05 0h1.4v1.25h-1.4zm2.06 0h1.4v1.25h-1.4zm1.4-.65h-1.4v-1.28h1.4zm-2.04 0h-1.4v-1.28h1.4zm-2.06 0h-1.4v-1.28h1.4zm-2.05 0H7.3v-1.28h1.4zm-2.04 0H5.3v-1.28h1.4zm-2.1-1.28v1.28H3.26v-1.28zm0 1.93v1.25H3.26V15.1zm10.9 1.25V15.1h1.35v1.25zM3.27 17H4.6v1.24H3.26zm2 0h1.4v1.24h-1.4zm2.05 0h1.4v1.24H7.3zm2.06 0h1.4v1.24h-1.4zm2.05 0h1.4v1.24h-1.4zm2.06 0h1.4v1.24h-1.4zm2.04 0h1.35v1.24h-1.4zm1.55-4.48H3.06l-1.82-1.8h17.62z"/>
</svg>
