<svg xmlns="http://www.w3.org/2000/svg" viewBox="0 0 40.60214 45.00053">
  <path d="M6.4 41.8A3.16 3.16 0 0 1 3.28 45H3.2a3.2 3.2 0 0 1-2.4-1.1 3.1 3.1 0 0 1-.8-2.2 3.26 3.26 0 0 1 1-2.3 3.17 3.17 0 0 1 2.3-.9 2.9 2.9 0 0 1 2.8 1.7H4.9a2.14 2.14 0 0 0-1.7-.8 2.13 2.13 0 0 0-1.6.7 3.5 3.5 0 0 0-.6 1.7 2.06 2.06 0 0 0 .7 1.7 2 2 0 0 0 1.6.7 2.34 2.34 0 0 0 2.2-1.5h-3v-.9zm2.7-2l-.9 2.4H10zm-2 5.1h-1l2.5-6.3h.9l2.5 6.3h-1l-.7-1.8H7.9zm5.4 0v-6.3h1.3l1.9 4.9 1.8-4.9h1.3v6.3h-.9l.1-5.4-2 5.4h-.7l-2-5.4v5.4h-.8zm10.3.1a3.26 3.26 0 0 1-2.3-1 3.17 3.17 0 0 1-.9-2.3 3 3 0 0 1 1-2.3 3.17 3.17 0 0 1 2.3-.9A3.28 3.28 0 0 1 26 41h-1.7a1.74 1.74 0 0 0-1.4-1 1.6 1.6 0 0 0-1.7 1.52v.08a1.67 1.67 0 0 0 1.6 1.7 1.5 1.5 0 0 0 1.4-.9h1.7a3.1 3.1 0 0 1-3.1 2.6M28.7 40.7l-.6 2h1.3zm-1.4 4.2h-1.7l2.4-6.3h1.3l2.4 6.3H30l-.3-.9h-2.1zm6.5-3.4c.8 0 1.1-.2 1.1-.8s-.3-.7-1-.7h-.4v1.5zm-1.9 3.4v-6.2H34a2.73 2.73 0 0 1 1.6.4 2.14 2.14 0 0 1 .8 1.7 1.88 1.88 0 0 1-1.4 2l1.6 2.2h-1.9l-1.2-2v2l-1.6-.1zm5.3 0v-6.3h3.4V40h-1.9v1h1.9v1.4h-1.9v1.1h1.9v1.4h-3.4zM9.8 11.6c-1.6 1.3-3.3 3.1-3.3 6s1.7 4.7 3.4 6.1a15.6 15.6 0 0 0 6.4 2.9 18.66 18.66 0 0 0 2.5.4V8.2c-.8.1-1.7.2-2.6.4a15.17 15.17 0 0 0-6.4 3m8.8 18.8c-5.7-.5-10.8-2.6-13.7-5.9a7 7 0 0 1-1.3-1.7 8.56 8.56 0 0 1-1.3-4.6 8.3 8.3 0 0 1 1.3-4.6 15.67 15.67 0 0 1 2-2.5 17.82 17.82 0 0 1 6.1-3.7 24.76 24.76 0 0 1 7.1-1.5V0H3.4A3.37 3.37 0 0 0 0 3.34V32.1a3.37 3.37 0 0 0 3.34 3.4H18.9v-5.1h-.3M31.7 7.8a19.57 19.57 0 0 0-3.4-1.2 20.24 20.24 0 0 0-4.4-.7 13.4 13.4 0 0 0-2-.1c-1 0-2 0-3.1.1v2.3c1-.1 2-.1 3.1-.1.7 0 1.3.1 2 .1a21.56 21.56 0 0 1 6.2 1.7c.5.2 1 .6 1.6.8 1 .2 2.7.1 2.7-1s-1.8-1.5-2.7-1.9m8.8 14.8c-.4-1.7-3.2-1.4-5.5-1.4h-3.9c-1.9 0-6.4-.6-6.3 1.5a1.52 1.52 0 0 0 1 1.3c1.4.7 4.1 0 5.9.2a17.14 17.14 0 0 1-7.8 2.7 13.4 13.4 0 0 1-2 .1c-1 0-2 0-3.1-.1v3.4c1 .1 2 .1 3.1.1.7 0 1.3-.1 2-.1A26.92 26.92 0 0 0 34.6 27c-.2.7-.4 1.1-.5 1.6a4.33 4.33 0 0 0-.4 1.9c.2 1.5 3.2 2.3 4.4 1 .5-.5.5-1.5.8-2.3.4-1.3.8-3.1 1.2-4.4a5.7 5.7 0 0 0 .4-2.2"/>
</svg>
