<svg xmlns="http://www.w3.org/2000/svg" viewBox="0 0 82.1 20.2">
  <path d="M7.8 8.7a13.28 13.28 0 0 1-3 .5A4.8 4.8 0 0 1 1.3 8 4.6 4.6 0 0 1 0 4.6a4.7 4.7 0 0 1 1.2-3.4A4.8 4.8 0 0 1 4.7 0a10.32 10.32 0 0 1 3 .4v1.1a11.1 11.1 0 0 0-3-.6 2.96 2.96 0 0 0-2.4 1 3.95 3.95 0 0 0-.8 2.7 4 4 0 0 0 .9 2.7 3.62 3.62 0 0 0 2.6 1 8.87 8.87 0 0 0 1.5-.2V5.2h1.3zm8.6.2l-1-2.4h-4l-1.1 2.4H9L12.8.2h1.3l3.8 8.7zM15 5.6l-1.6-3.7-1.6 3.7zm4.3 3.3V.3h1.9L23.8 7 26.5.3h1.7v8.6h-1.3v-7l-2.6 6.5H23l-2.6-6.5v7zm11.3 0V.3h2.5a4.2 4.2 0 0 1 2.2.5 1.6 1.6 0 0 1 .8 1.4c0 1.1-.7 1.8-2 2.2 1.6.4 2.3 1.2 2.3 2.3a1.94 1.94 0 0 1-.8 1.6 3.4 3.4 0 0 1-2.2.6zM32 4.1h.4a2.86 2.86 0 0 0 1.7-.4 1.43 1.43 0 0 0 .6-1.2c0-.9-.7-1.3-2.2-1.3H32zM32 8h.3a6.57 6.57 0 0 0 1.9-.2 1.1 1.1 0 0 0 .8-1.2 1.7 1.7 0 0 0-.8-1.3 3.58 3.58 0 0 0-1.9-.4h-.4V8zm6.2.9V.3h1.4v7.8h4.3v.8zm7 0V.3h1.4v8.6zm3.9 0V.3h1.3L55.2 7V.3h1.2v8.6h-1.3l-4.8-6.7v6.7zM66 8.7a13.28 13.28 0 0 1-3 .5A4.8 4.8 0 0 1 59.5 8a4.55 4.55 0 0 1-1.2-3.4 4.7 4.7 0 0 1 1.2-3.4A4.8 4.8 0 0 1 63 0a10.32 10.32 0 0 1 3 .4v1.1a11.1 11.1 0 0 0-3-.6 2.96 2.96 0 0 0-2.4 1 3.83 3.83 0 0 0-.9 2.7 4 4 0 0 0 .9 2.7 3.62 3.62 0 0 0 2.6 1 8.87 8.87 0 0 0 1.5-.2V5.2H66zM4.7 20.2A4.55 4.55 0 0 1 1.3 19a4.55 4.55 0 0 1-1.2-3.4 4.7 4.7 0 0 1 1.2-3.4A4.8 4.8 0 0 1 4.8 11a11.28 11.28 0 0 1 3 .4v1.2a11.1 11.1 0 0 0-3-.6 2.96 2.96 0 0 0-2.4 1 3.67 3.67 0 0 0-.9 2.7 3.57 3.57 0 0 0 .9 2.6 3.38 3.38 0 0 0 2.5 1 6.7 6.7 0 0 0 2.9-.8v1.1a10.66 10.66 0 0 1-3.1.6zm8.9 0a4.08 4.08 0 0 1-3.2-1.3 4.62 4.62 0 0 1-1.2-3.3 4.46 4.46 0 0 1 1.2-3.3 4.38 4.38 0 0 1 3.2-1.2 4.38 4.38 0 0 1 3.2 1.2 4.46 4.46 0 0 1 1.2 3.3 4.46 4.46 0 0 1-1.2 3.3 4.28 4.28 0 0 1-3.2 1.3zm0-1a2.76 2.76 0 0 0 2.3-1 3.8 3.8 0 0 0 .8-2.7 4.03 4.03 0 0 0-.8-2.6 2.87 2.87 0 0 0-2.2-1 2.57 2.57 0 0 0-2.2 1 4.34 4.34 0 0 0-.8 2.7 4.55 4.55 0 0 0 .8 2.7 2.32 2.32 0 0 0 2.1.9zm6.4.7v-8.7h1.9l2.6 6.7 2.7-6.7h1.7v8.7h-1.3v-7L25 19.4h-1.3l-2.5-6.5v7zm11.4 0v-8.7h1.9l2.6 6.7 2.7-6.7h1.7v8.7H39v-7l-2.6 6.5h-1.3l-2.6-6.5v7zm11.3 0v-8.7h1.4v8.7zm5.7.3a9.06 9.06 0 0 1-2.5-.4v-1.2a6.72 6.72 0 0 0 2.6.7 1.84 1.84 0 0 0 1.3-.4 1.4 1.4 0 0 0 .5-1 1.6 1.6 0 0 0-.3-.9 4.82 4.82 0 0 0-1.2-.8l-.7-.3a4.95 4.95 0 0 1-1.7-1.2 2.1 2.1 0 0 1-.5-1.3 1.94 1.94 0 0 1 .8-1.6 3.17 3.17 0 0 1 2-.6 9.7 9.7 0 0 1 2.3.3v1.1a6.32 6.32 0 0 0-2.2-.5 2.13 2.13 0 0 0-1.2.3 1.05 1.05 0 0 0-.5.9 1.33 1.33 0 0 0 .3.8 4.82 4.82 0 0 0 1.2.8l.7.4a4.95 4.95 0 0 1 1.7 1.2 2.17 2.17 0 0 1 .5 1.4 2.02 2.02 0 0 1-.9 1.8 3.6 3.6 0 0 1-2.2.5zm7.1 0a9.06 9.06 0 0 1-2.5-.4v-1.2a6.72 6.72 0 0 0 2.6.7 1.84 1.84 0 0 0 1.3-.4 1.4 1.4 0 0 0 .5-1 1.6 1.6 0 0 0-.3-.9 4.82 4.82 0 0 0-1.2-.8l-.7-.3a4.95 4.95 0 0 1-1.7-1.2 2.1 2.1 0 0 1-.5-1.3 1.94 1.94 0 0 1 .8-1.6 3.17 3.17 0 0 1 2-.6 9.7 9.7 0 0 1 2.3.3v1.1a6.32 6.32 0 0 0-2.2-.5 2.13 2.13 0 0 0-1.2.3 1.05 1.05 0 0 0-.5.9 1.33 1.33 0 0 0 .3.8 4.82 4.82 0 0 0 1.2.8l.7.4a4.95 4.95 0 0 1 1.7 1.2 2.17 2.17 0 0 1 .5 1.4 2.02 2.02 0 0 1-.9 1.8 3.6 3.6 0 0 1-2.2.5zm5.2-.3v-8.7h1.4v8.7zm7.7.3a4.08 4.08 0 0 1-3.2-1.3 4.62 4.62 0 0 1-1.2-3.3 4.46 4.46 0 0 1 1.2-3.3 4.87 4.87 0 0 1 6.4 0 4.46 4.46 0 0 1 1.2 3.3 4.46 4.46 0 0 1-1.2 3.3 4.28 4.28 0 0 1-3.2 1.3zm0-1a2.76 2.76 0 0 0 2.3-1 3.8 3.8 0 0 0 .8-2.7 4.03 4.03 0 0 0-.8-2.6 2.87 2.87 0 0 0-2.2-1 2.57 2.57 0 0 0-2.2 1 4.34 4.34 0 0 0-.8 2.7 4.55 4.55 0 0 0 .8 2.7 2.32 2.32 0 0 0 2.1.9zm6.4.7v-8.7h1.3l4.8 6.7v-6.7h1.2v8.7h-1.3L76 13.2v6.7z"/>
</svg>
