<svg xmlns="http://www.w3.org/2000/svg" viewBox="0 0 22.36099 14.66">
  <path d="M5 8.44l-.5 1.3h1zm-1.07 2.8H3.4L4.75 7.8h.5l1.34 3.45H6l-.38-1h-1.3zm2.94 0V7.8h.74l1 2.66L9.64 7.8h.73v3.44H9.9l.02-3-1.1 3h-.37l-1.12-3 .05 3H6.9zm5.68.06a1.7 1.7 0 0 1-1.3-.54 1.8 1.8 0 0 1-.48-1.28 1.7 1.7 0 0 1 .53-1.25 1.74 1.74 0 0 1 1.26-.5A1.77 1.77 0 0 1 14.3 9.1h-.93a.9.9 0 0 0-.8-.52.9.9 0 0 0-.92.88v.03a1 1 0 0 0 .9 1 .9.9 0 0 0 .8-.5h.93a1.73 1.73 0 0 1-1.72 1.33M15.78 8.92L15.43 10h.7zM15 11.25h-.9l1.34-3.46h.7l1.32 3.44h-.94l-.17-.5H15.2zm3.6-1.87c.42 0 .62-.1.62-.42s-.18-.4-.55-.4h-.24v.82zm-1 1.86V7.8h1.15a1.44 1.44 0 0 1 .88.18 1.1 1.1 0 0 1 .47 1 1.08 1.08 0 0 1-.78 1.1l.85 1.2h-1l-.66-1.1v1.1h-.9zm2.88 0V7.8h1.88v.75h-1.04v.56h1.04v.8h-1.04v.6h1.04v.75h-1.88zM1.9 12.84a.86.86 0 0 0-.66-.33.9.9 0 0 0-.9.93.9.9 0 0 0 .9.92.86.86 0 0 0 .64-.34h.43a1.23 1.23 0 1 1-1.1-1.8h.04a1.27 1.27 0 0 1 .73.22 1.2 1.2 0 0 1 .37.43H1.9zm.78 1.78v-2.4h1.3v.33h-.95v.7h.94v.32h-.94v.73h.94v.32h-1.3zm2.07-1.16H5a.55.55 0 0 0 .64-.45.46.46 0 0 0-.53-.43h-.34v.9zm.8 1.15l-.8-1.1v1.13H4.4v-2.4h.74a.84.84 0 0 1 .64.2A.8.8 0 0 1 6 13a.7.7 0 0 1-.65.73h-.03l.68.88zm1.12.02v-2.07H6.2v-.32h1.27v.32h-.45v2.07h-.35zm1.16-2.4h.35v2.4h-.35zm.82 2.4v-2.4h1.2v.33H9v.7h.86v.33H9v1.04h-.35zm1.62-2.4h.35v2.4h-.35zm2.63.62a.87.87 0 0 0-.68-.33.9.9 0 0 0-.9.93.9.9 0 0 0 .9.92.86.86 0 0 0 .64-.34h.43a1.23 1.23 0 0 1-1.1.65A1.25 1.25 0 0 1 11 13.4a1.23 1.23 0 0 1 1.23-1.22 1.28 1.28 0 0 1 .73.23 1.18 1.18 0 0 1 .37.44h-.44zm1.8.76l-.3-.92-.3.9zm.4 1l-.27-.7H14l-.26.7h-.4l.9-2.4h.3l.9 2.4h-.35zm.76.02v-2.07h-.46v-.32h1.27v.32h-.46v2.07h-.33zm1.14-2.4h.36v2.4H17zm1.9.28a.92.92 0 1 0 .9.95v-.02a.9.9 0 0 0-.87-.93h-.02m0 2.16a1.24 1.24 0 1 1 1.26-1.24 1.24 1.24 0 0 1-1.24 1.24M22 14.62l-1.2-1.85v1.85h-.34v-2.4h.38L22 14.05v-1.8h.35v2.38H22zM20.48 5.8l-1.55-1.1-1.55 1.1L18 4l-1.56-1.14h1.9l.6-1.8.58 1.8h1.9L19.9 4zM18.35 0h-2.2a.65.65 0 0 0-.65.65V6.2a.65.65 0 0 0 .65.65h6.2V0zm-5.62 5.8l-1.55-1.1-1.55 1.1.6-1.8-1.55-1.14h1.9l.6-1.8.58 1.8h1.9L12.14 4zM10.6 0H8.4a.65.65 0 0 0-.65.65V6.2a.65.65 0 0 0 .65.65h6.2V0zM5 5.8L3.43 4.7 1.88 5.8l.6-1.8L.92 2.86h1.9l.6-1.8.57 1.8h1.9L4.4 4zM2.85 0H.65A.65.65 0 0 0 0 .65V6.2a.65.65 0 0 0 .65.65h6.2V0zm.67 9.57a1.76 1.76 0 0 1-1.7 1.82h-.07a1.7 1.7 0 0 1-1.3-.6A1.8 1.8 0 0 1 0 9.55 1.75 1.75 0 0 1 .54 8.3a1.7 1.7 0 0 1 1.25-.5 1.58 1.58 0 0 1 1.5.93h-.6a1.14 1.14 0 0 0-.95-.44 1.18 1.18 0 0 0-.86.34 1.35 1.35 0 0 0 0 1.85 1.24 1.24 0 0 0 .9.4 1.28 1.28 0 0 0 1.17-.85h-1.6v-.5z"/>
</svg>
