<svg xmlns="http://www.w3.org/2000/svg" viewBox="0 0 22.63066 8.53112">
  <path d="M20.5 6.48h-3.4l-.87 1.92h-1.28l3.9-8.4 3.78 8.4h-1.3zM20 5.36l-1.16-2.7-1.23 2.7zM6.5 8.42V.5h1.2A5.2 5.2 0 0 1 9 .6a1.9 1.9 0 0 1 .78.38 2.16 2.16 0 0 1 .53.75 2.28 2.28 0 0 1 .2.92 1.87 1.87 0 0 1-.63 1.44 1.92 1.92 0 0 1 1 .75 2.13 2.13 0 0 1 .37 1.24 2.1 2.1 0 0 1-.66 1.56 2.16 2.16 0 0 1-.9.55 5.17 5.17 0 0 1-1.34.16H6.5zM7.7 3.9h.38a1.38 1.38 0 0 0 1-.3 1.14 1.14 0 0 0 .3-.87 1.1 1.1 0 0 0-.3-.85 1.33 1.33 0 0 0-.93-.3H7.7zm0 3.4h.75a1.84 1.84 0 0 0 1.2-.3 1.1 1.1 0 0 0 .35-.9 1.12 1.12 0 0 0-.38-.86 2 2 0 0 0-1.3-.34h-.6zM4.46 4.25h3.27v.27a5.4 5.4 0 0 1-.2 1.58 3.35 3.35 0 0 1-.7 1.2A3.58 3.58 0 0 1 4 8.5a3.85 3.85 0 0 1-2.84-1.2A4 4 0 0 1 0 4.42a4 4 0 0 1 1.2-2.9A4 4 0 0 1 4.13.3a4 4 0 0 1 1.73.37 5 5 0 0 1 1.5 1.2l-.84.82a2.88 2.88 0 0 0-2.37-1.3A2.83 2.83 0 0 0 2 2.3a2.9 2.9 0 0 0-.8 2.13 2.8 2.8 0 0 0 .95 2.17 2.83 2.83 0 0 0 1.92.8 2.4 2.4 0 0 0 1.58-.6 2.1 2.1 0 0 0 .78-1.43h-2V4.25zm9.74 0h3.28v.27a5.4 5.4 0 0 1-.2 1.58 3.35 3.35 0 0 1-.7 1.2 3.58 3.58 0 0 1-2.8 1.23 3.85 3.85 0 0 1-2.84-1.2 4 4 0 0 1-1.2-2.9A4 4 0 0 1 11 1.5a4.16 4.16 0 0 1 4.62-.8 5 5 0 0 1 1.5 1.22l-.84.8a2.88 2.88 0 0 0-2.37-1.3 2.83 2.83 0 0 0-2.1.88 2.9 2.9 0 0 0-.8 2.13 2.8 2.8 0 0 0 .9 2.17 2.83 2.83 0 0 0 1.93.8 2.4 2.4 0 0 0 1.58-.6 2.1 2.1 0 0 0 .8-1.43h-2V4.25z" opacity=".8"/>
</svg>
