<svg xmlns="http://www.w3.org/2000/svg" viewBox="0 0 9.82002 12.69485">
  <path d="M1.73 3.12a.18.18 0 0 0 0 .14.4.4 0 0 0 .2.18.02.02 0 0 0 0-.04.35.35 0 0 1-.17-.16v-.02l.3-.1a.16.16 0 0 0-.2-.1H1.8a.17.17 0 0 0-.07.1zm1.6.32a.14.14 0 0 0 .12.03.4.4 0 0 0 .14-.05.12.12 0 0 1 .05 0 .1.1 0 0 1 .05.05.13.13 0 0 0-.07-.14.18.18 0 0 0-.03-.1.22.22 0 0 0-.2-.08.14.14 0 0 0 .1.1.35.35 0 0 1-.24 0L3.2 3.2a.2.2 0 0 0 .2.16h.05a.13.13 0 0 0-.08 0 .1.1 0 0 0-.04.06zm-1.38-.5a.03.03 0 0 0 .03-.03.03.03 0 1 0 .02-.03.03.03 0 0 0-.03.02.03.03 0 1 0-.02.05zm-.2.46a.04.04 0 0 0-.04-.03.04.04 0 1 0 .04.06v.02a.04.04 0 0 0 .04-.04zm.07-.47a.03.03 0 0 0 .04.03.04.04 0 0 0 .02-.05.04.04 0 0 0-.06.05zm.25 0l-.1.03.17.18.1-.02-.17-.2zM2 2.66l.06.17a.2.2 0 0 1 .08-.1.17.17 0 0 1-.03.1l.2-.05a.17.17 0 0 1-.1-.07.2.2 0 0 1 .13.06l-.05-.16a.14.14 0 0 1-.08.1.24.24 0 0 1 0-.14l-.16.06a.18.18 0 0 1 .1.1.14.14 0 0 1-.12-.04zm.52.28zm-.84.4a.03.03 0 0 0 .02-.03.04.04 0 0 0-.05.03v.02a.03.03 0 0 0 .03.02zm2.37.52a.3.3 0 0 1-.15-.06.82.82 0 0 0-.1-.1.12.12 0 0 0-.06-.02.1.1 0 0 0 0 .07.15.15 0 0 0 .04.08.1.1 0 0 1-.07 0 .27.27 0 0 1-.1-.16.15.15 0 0 0 0-.04.16.16 0 0 1 0 .06l-.05-.04a.18.18 0 0 1 0 .08.17.17 0 0 0-.02-.08l-.02-.02v.02a.2.2 0 0 1 .04.07.18.18 0 0 0-.03-.06v.02a.18.18 0 0 1 .04.07.16.16 0 0 0-.04-.06l-.06-.05.03.05a.24.24 0 0 1 .02.05.5.5 0 0 0 .1.22l.1.03a.2.2 0 0 0-.1 0 .17.17 0 0 0-.07.05.18.18 0 0 0 .1.07.25.25 0 0 0 .12 0l-.04.04a.07.07 0 0 0 0 .05.13.13 0 0 0 .1 0 .7.7 0 0 0 .16-.1.96.96 0 0 0 .2-.03.83.83 0 0 0 .1-.07.48.48 0 0 0 .13-.1.4.4 0 0 0-.1.06L4.2 4l.06-.03.04-.03.04-.03-.04.06a.46.46 0 0 1-.1.05.47.47 0 0 0 .1-.06l.05-.03-.05.04-.06.03.05-.04V3.9l-.07.02-.05.02.04-.02.07-.05h-.17a.43.43 0 0 1-.05-.02.28.28 0 0 1-.06 0zm-1.53-.93l.27-.1v.04a.35.35 0 0 1-.06.23.02.02 0 0 0 0 .03h.02a.4.4 0 0 0 .06-.26.18.18 0 0 0-.1-.12.17.17 0 0 0-.2.02l-.03.03a.16.16 0 0 0 0 .13zm1.58.93h.07a.05.05 0 0 0 .02-.04h-.06A.67.67 0 0 1 4 3.78a.38.38 0 0 0 .05.07.43.43 0 0 0 .05 0zm-1.75-1.1a.03.03 0 0 0 .04.03.03.03 0 1 0-.06-.06zm.1.04l-.1.03v.25l.1-.03V2.8zm-.28.35a.13.13 0 0 1 .05.03.1.1 0 0 0-.05 0h-.04l.08.2h.06a.1.1 0 0 0 .02-.12.1.1 0 0 0 0-.02.13.13 0 0 0 0-.02l.1-.05a.14.14 0 0 1 .03-.1zm.83-.2a.04.04 0 0 0-.07 0 .03.03 0 1 0 .06 0zm-.5.32h.04l-.08-.22-.04.02h.02a.17.17 0 0 0-.04.12.12.12 0 0 0 .1.05zm.4-.1a.04.04 0 1 0-.02-.06.04.04 0 0 0 0 .1zm0-.3v.02a.04.04 0 1 0 0-.05zm.04.25a.03.03 0 1 0-.02 0 .03.03 0 0 0 .02 0zm.26-.26a.23.23 0 0 0 .13-.04l.07-.03a.28.28 0 0 0-.13.06.22.22 0 0 0-.03.13.28.28 0 0 0 .26-.04.83.83 0 0 0 .18-.2.2.2 0 0 1 .06-.05.24.24 0 0 1 .1 0 .2.2 0 0 1 .14.04.26.26 0 0 1 .04.07.33.33 0 0 1 .02.1.46.46 0 0 1-.02.16.45.45 0 0 0 0-.16.3.3 0 0 0 0-.05A.23.23 0 0 0 4 2.8a.34.34 0 0 1 0 .1.46.46 0 0 1-.03.17.45.45 0 0 0 0-.16.3.3 0 0 0-.02-.06.23.23 0 0 0-.04-.05v.02a.33.33 0 0 1 0 .1.46.46 0 0 1 0 .17.44.44 0 0 0 0-.18.3.3 0 0 0 0-.08.23.23 0 0 0-.06-.05.24.24 0 0 1 .02.04.33.33 0 0 1 0 .1.5.5 0 0 1-.02.16.5.5 0 0 0 0-.16.28.28 0 0 0 0-.08.2.2 0 0 0-.05-.07v.02a.2.2 0 0 1 0 .04.35.35 0 0 1 0 .1.32.32 0 0 0-.02-.1.2.2 0 0 0-.05-.07H3.7a.17.17 0 0 1 .05.1v.25c0 .05-.03.5.2.64a.38.38 0 0 1 0-.05.25.25 0 0 1-.08-.07.25.25 0 0 0 .08.07.4.4 0 0 0 .1.04h.05l-.05-.04a.33.33 0 0 1-.1-.1.32.32 0 0 0 .12.1.28.28 0 0 0 .07 0 .28.28 0 0 1-.05-.02.38.38 0 0 1-.1-.12.38.38 0 0 0 .1.1l.02.02V3.7a.1.1 0 0 0 .02.02L4.1 3.6l.08.1a.8.8 0 0 1-.1-.63.44.44 0 0 0-.13-.42.42.42 0 0 0-.24-.1h-.1l-.07.02a.2.2 0 0 0-.06.03.2.2 0 0 1 .06-.04h.07l.05-.02h.05a.38.38 0 0 0-.14-.18.36.36 0 0 0-.4.05.14.14 0 0 0 .16.14l-.05.02a.33.33 0 0 0-.16.1.13.13 0 0 1-.1 0 .23.23 0 0 0 .23.22zm.95.77L4.1 3.6zm-1.62-.95a.03.03 0 0 0 .04.02.03.03 0 1 0-.04-.03zm2.65-.34V2a.17.17 0 0 0-.16.1.17.17 0 0 0 0 .06.14.14 0 0 0 0 .03.17.17 0 0 0 .1.1v.02zm-.65-.8a.05.05 0 1 0-.05.04.05.05 0 0 0 .05-.05zm-.3.72a.03.03 0 0 0 .03-.04.5.5 0 0 1-.15-.3.28.28 0 0 1 0-.03h.45a.24.24 0 0 0-.23-.27h-.05a.25.25 0 0 0-.15.07.26.26 0 0 0-.05.2.57.57 0 0 0 .2.35zm.05.36l.1-.02-.05.05a.06.06 0 1 0 .1.06l.03-.02-.03-.07.1-.07.05.06a.06.06 0 0 0 .07 0l.12-.02h.3l.1.03a.06.06 0 0 0 .08 0l.03-.07.12.07v.04l.03.05a.05.05 0 0 0 .08-.08v-.05h.07a.06.06 0 0 0 0-.1h-.1a.16.16 0 0 1-.08-.04l.1-.08a.05.05 0 0 0-.03-.1l-.03.02-.05.02v-.05a.06.06 0 0 0-.04-.07.05.05 0 0 0-.05.03.05.05 0 0 0-.03-.05H5.2v.18A.2.2 0 0 1 5 2.2a.1.1 0 0 1-.08.07H4.9a.1.1 0 0 1-.04-.06.2.2 0 0 1-.14.18h-.08V2.2H4.6a.05.05 0 0 0-.04.04.05.05 0 0 0-.1.02l.02.05h-.06a.05.05 0 0 0-.03 0 .05.05 0 1 0-.06.1l.1.1a.16.16 0 0 1-.08.04h-.1a.05.05 0 1 0 0 .1z"/>
  <circle cx="4.23" cy="2.44" r=".05"/>
  <path d="M4.34 1.58a.05.05 0 0 0 .05-.05.05.05 0 1 0-.08.05zm-.16.78zM4 2.28a.04.04 0 0 0 .02 0h.03a.04.04 0 1 0-.06 0zM5.06.98a.25.25 0 0 0-.06 0 .57.57 0 0 0 .24.2.2.2 0 0 1 0 .2.14.14 0 0 1-.05.1.07.07 0 0 0-.06.02.08.08 0 0 1 .1.02.08.08 0 0 1 .05-.05l-.03-.05h.06a.1.1 0 0 0-.04-.05.2.2 0 0 0 .06 0 .08.08 0 0 0-.04-.05.07.07 0 0 0 .07 0 .06.06 0 0 0-.04-.05.05.05 0 0 1 .02-.05c0-.04-.1-.08-.14-.08a.3.3 0 0 1-.2-.17zm.22.9h.42a.28.28 0 0 1 0 .04.5.5 0 0 1-.15.28.03.03 0 0 0 0 .04h.04a.57.57 0 0 0 .14-.33.26.26 0 0 0-.05-.16.24.24 0 0 0-.18-.1.23.23 0 0 0-.12.03h.03l-.06.05a.24.24 0 0 0-.08.2zm.24-.36a.05.05 0 1 0-.05.05.05.05 0 0 0 .05-.05z"/>
  <circle cx="5.62" cy="1.53" r=".05"/>
  <path d="M4.68 1.98h.14l-.15-.33h-.14zm1.16.2a.05.05 0 0 0 .06-.05.05.05 0 1 0-.06.04zm-.4.7l-.1-.08.05.12-.1-.03-.08-.2-.17-.05.08.16H5v-.15h-.2v.18l-.14.03.05-.17-.14.02-.06.17-.07.03.04-.14-.12.07-.1.2.35.74a.23.23 0 0 1 0 .07.2.2 0 0 1 .05.05.5.5 0 0 1 .06.06l.07.04.08.15.02.04v.03l.02.04a.08.08 0 0 0 0 .03h.05a.07.07 0 0 0 .02-.02H5v-.06a1.34 1.34 0 0 1 .1-.15l.04-.1a.5.5 0 0 1 .05-.05.24.24 0 0 1 .03-.05.26.26 0 0 1-.02-.07l.3-.75zM5 3.14l.15-.02-.05.57-.14.04zm-.18 0l.08.6-.13-.04-.1-.55zm-.4-.04h.1l.2.6-.13-.05zm.78.73l-.28.12-.28-.13-.03-.07.36.14.3-.15zm.04-.17l-.08.03.15-.6h.1zM4.6 1.6a.05.05 0 0 0 .06-.04.05.05 0 1 0-.05.05zm.16-.34v.23a.25.25 0 0 1 .13-.1.22.22 0 0 1-.1.1H5a.22.22 0 0 1-.1-.13.25.25 0 0 1 .16.1v-.24a.18.18 0 0 1-.16.1.32.32 0 0 1 .1-.17H4.8a.24.24 0 0 1 .08.15.18.18 0 0 1-.14-.1zm2.18 1.6l.02.03v-.04zm.18.26a.1.1 0 0 1 0-.05.12.12 0 0 1 0-.02.05.05 0 0 0-.03-.07h-.03l-.12-.1.14.24zm.28.25a.57.57 0 0 0 .02-.08.22.22 0 0 0-.1-.2.13.13 0 0 1 0 .13.12.12 0 0 0 .07.12zm-.14-.22a.47.47 0 0 0 .03-.06.2.2 0 0 0-.1-.17.1.1 0 0 1 0 .1.1.1 0 0 0 .04.1zm.3.38zm0 0a.65.65 0 0 0 .02-.1.25.25 0 0 0-.1-.18.13.13 0 0 1 0 .14.13.13 0 0 0 .07.1zM5.7 3.07a.8.8 0 0 1-.1.6l.07-.08-.07.1a.1.1 0 0 0 .02-.04v.02l.04-.03a.38.38 0 0 0 .1-.1.4.4 0 0 1-.1.12.28.28 0 0 1-.06.03.3.3 0 0 0 .08-.02.32.32 0 0 0 .13-.1.33.33 0 0 1-.1.13l-.06.03h.05a.4.4 0 0 0 .1-.04.25.25 0 0 0 .06-.07.25.25 0 0 1-.07.08.37.37 0 0 1-.1.06.43.43 0 0 1-.1.03h-.1l.07.05h.05a.55.55 0 0 0 .13-.04.63.63 0 0 0 .35-.36.38.38 0 0 0 0-.3.12.12 0 0 0-.07 0 .36.36 0 0 0-.06.1v-.1a1.84 1.84 0 0 1 0-.25.17.17 0 0 1 .04-.1.18.18 0 0 0-.04.07.32.32 0 0 0-.04.1.34.34 0 0 1 0-.12.2.2 0 0 1 .02-.04.2.2 0 0 0-.05.05.3.3 0 0 0-.04.08.5.5 0 0 0 0 .17.52.52 0 0 1-.03-.17.32.32 0 0 1 0-.1.23.23 0 0 1 .02-.05.22.22 0 0 0-.05.05.32.32 0 0 0-.03.08.44.44 0 0 0 0 .2.46.46 0 0 1-.02-.18.35.35 0 0 1 .02-.07V2.8a.22.22 0 0 0-.04.05.3.3 0 0 0-.02.07.45.45 0 0 0 0 .18.46.46 0 0 1 0-.17.35.35 0 0 1 0-.08V2.8a.24.24 0 0 0-.03.05.34.34 0 0 0-.03.08.45.45 0 0 0 0 .06.44.44 0 0 0 0 .04zm0 .56l-.05.05.03-.05.03-.05zm.25-.53a.54.54 0 0 1 0 .06.57.57 0 0 0 0-.06zm-.23-.27a.33.33 0 0 0-.02.1.45.45 0 0 0 0 .16.45.45 0 0 1 0-.1.44.44 0 0 1 .06-.26.26.26 0 0 0-.04.07zm.5-.28l.07.03a.2.2 0 0 1 .03.04.2.2 0 0 0-.06-.04l-.07-.02h-.1a.42.42 0 0 0-.26.1.44.44 0 0 0-.08.1.2.2 0 0 1 .18-.07.24.24 0 0 1 .1 0 .2.2 0 0 1 .06.04.8.8 0 0 0 .2.2.28.28 0 0 0 .26.05.22.22 0 0 0-.03-.13.28.28 0 0 0-.13-.1l.07.02a.4.4 0 0 0 .5-.1l-.1-.04a.63.63 0 0 1-.15-.08.44.44 0 0 0-.2-.1h-.05a.14.14 0 0 0 .16-.1.36.36 0 0 0-.4-.06.37.37 0 0 0-.14.17h.02zm.68.65h-.16a.28.28 0 0 0-.12 0H6.6a.13.13 0 0 0 .07-.1.28.28 0 0 0-.25.08.22.22 0 0 0-.04.14.16.16 0 0 0-.1.2.1.1 0 0 1 .07-.08.14.14 0 0 1 .06 0h.06a.48.48 0 0 0 .16.07.17.17 0 0 0 .17-.02.13.13 0 0 0-.07-.06.24.24 0 0 0 .2-.2zm-1.24.7l-.03-.04s0 .04.03.04zm-1.06 0v-.02h-.02zm1 0l-.06-.06.04.04.05.03.03.04h-.02l-.06-.04-.05-.04.04.03a.46.46 0 0 0 .1.1.46.46 0 0 1-.12-.1H5.5l.05.03.03.07.07.03L5.58 4a.4.4 0 0 1-.1-.07.47.47 0 0 0 .14.1.85.85 0 0 0 .1.08.96.96 0 0 0 .2.07.7.7 0 0 0 .13.1.13.13 0 0 0 .12 0 .07.07 0 0 0-.02-.05L6.1 4.2a.25.25 0 0 0 .15 0 .18.18 0 0 0 .1-.08.17.17 0 0 0-.08-.04.2.2 0 0 0-.08 0L6.23 4a.26.26 0 0 0 .12-.16.28.28 0 0 1 .02-.05.2.2 0 0 0-.04.02.2.2 0 0 1 0-.05.27.27 0 0 1 .02-.05l.02-.05-.03.03a.16.16 0 0 0-.04.07.17.17 0 0 1 .03-.08l.02-.06H6.3a.18.18 0 0 0-.03.06.2.2 0 0 1 0-.05l.03-.03-.03.03a.17.17 0 0 0-.03.07.18.18 0 0 1 .02-.07v-.02l-.02.02a.13.13 0 0 0-.02.05.13.13 0 0 1 0-.05.13.13 0 0 0-.03.05.14.14 0 0 1 0-.05v-.02l.04-.02a.12.12 0 0 1 .13 0 .16.16 0 0 1 .1.1v.08a.18.18 0 0 0 .06.1.06.06 0 0 0 .04.03.17.17 0 0 1 0-.06.24.24 0 0 0 0-.13.28.28 0 0 0-.1-.13.2.2 0 0 0-.2 0 .3.3 0 0 0-.12.12.35.35 0 0 1-.1.1.2.2 0 0 1-.05.03.15.15 0 0 0 .04-.08.08.08 0 0 0 0-.06.12.12 0 0 0-.07 0 .87.87 0 0 0-.1.1.3.3 0 0 1-.15.07.28.28 0 0 1-.07 0H5.6zm.85-.18a.28.28 0 0 0-.06.07.2.2 0 0 1 0-.06zM4.7 2h-.05v.33h.05a.17.17 0 0 0 .1-.14.2.2 0 0 0 0-.06.18.18 0 0 0 0-.04.17.17 0 0 0-.1-.1zM4.47.08a.05.05 0 0 0-.03 0 .06.06 0 0 0-.02.04l.08.02a.05.05 0 0 0-.03-.06zm.1.08L4.52.1H4.5l.03.06zM4.44.2A.12.12 0 0 1 4.4.13a.1.1 0 0 0 .04.06zM4.3.36a.03.03 0 0 0 .04.04.06.06 0 0 1-.03-.04zm.2.5a.28.28 0 0 0 .1.04.06.06 0 0 0-.04-.03z"/>
  <circle cx="4.5" cy=".2" r=".01" transform="rotate(-34.283 4.5 .195)"/>
  <path d="M4.5.15V.2h.02v.02a.02.02 0 0 0 0-.02h.06a.04.04 0 0 0 0 .05V.18H4.5zm.13.02L4.67.1h-.03L4.6.18h.03zM4.56.1a.02.02 0 0 0 .04 0 .02.02 0 0 0 0-.02.05.05 0 0 1 0-.03.06.06 0 0 1 .02.03V.03a.04.04 0 0 1-.03 0 .07.07 0 0 1 0-.03h-.05a.05.05 0 0 1 0 .04.04.04 0 0 1-.02-.03v.1h.02a.02.02 0 0 0-.02.03zm-.28.56a.12.12 0 0 1-.04.07.04.04 0 0 0 .05 0V.7a.1.1 0 0 1 .03 0c-.06 0-.04.07-.04.1a.05.05 0 0 1-.04.05c.04 0 .05 0 .06-.05a.08.08 0 0 1 .05-.07.1.1 0 0 0 .03.17h.1a.07.07 0 0 1 .05.02H4.4a.2.2 0 0 0 0 .03c0 .32-.05.4-.1.4a.12.12 0 0 0-.05.12.08.08 0 0 1 .07-.06.2.2 0 0 1 .04-.02.06.06 0 0 0 0 .05.08.08 0 0 1 .04.04.1.1 0 0 0 .04-.1.06.06 0 0 1 0-.03.08.08 0 0 1 .02.03.1.1 0 0 0 0-.1.04.04 0 0 1 .04.04.15.15 0 0 0 0-.07.1.1 0 0 0 0-.04.06.06 0 0 1 .06.03.1.1 0 0 0 0-.08.03.03 0 0 1 0-.04s.02 0 .03.05a.18.18 0 0 0 0-.08.05.05 0 0 1 0-.05h.1a.77.77 0 0 1 .35-.1.1.1 0 0 1 .08-.1.1.1 0 0 0-.05.13.2.2 0 0 0 .14.15s.34.12.2.28a.13.13 0 0 0-.1.07.08.08 0 0 1 .05.04.1.1 0 0 1 .04-.06.07.07 0 0 0 .06-.04.07.07 0 0 0 .03.07.07.07 0 0 0 0-.08.13.13 0 0 0 .08 0 .08.08 0 0 0-.03-.07.1.1 0 0 0 .07 0 .1.1 0 0 0-.06-.05.05.05 0 0 0 .05 0 .1.1 0 0 0-.04-.06l.03-.07a.14.14 0 0 0-.08 0 .08.08 0 0 0-.07-.06.07.07 0 0 1-.1-.03v-.02a1.73 1.73 0 0 0-.1-.17c.04 0 .3.02.3-.1a.16.16 0 0 0-.1-.18h-.03A.1.1 0 0 0 5.4.56a.02.02 0 0 1 0 .02.1.1 0 0 0 0-.08.02.02 0 0 1 0 .03V.5a.02.02 0 0 1 0 .03.1.1 0 0 0-.04-.03.02.02 0 0 1 0 .02A.1.1 0 0 0 5.3.5a.15.15 0 0 0 .1-.05.08.08 0 0 1-.07 0 .1.1 0 0 1 .1 0A.1.1 0 0 0 5.5.4a.18.18 0 0 1-.14-.02.13.13 0 0 0-.17.04s0 .03-.1 0-.4-.02-.36.2c0 0 .02.14.25.06l.03-.02s.42-.18.52.02c0 0 .04.1-.1.1A1.37 1.37 0 0 0 5.13.7h-.37v.03a.02.02 0 0 1 0 .02h-.02a.28.28 0 0 0 0-.03.15.15 0 0 0-.03-.06L4.66.64h.02a.1.1 0 0 0 .04 0 .1.1 0 0 0 0-.07.04.04 0 0 0 .03-.04c-.06 0-.03-.1-.03-.1a.07.07 0 0 0 .1-.06.1.1 0 0 0-.08-.02h-.04A.54.54 0 0 0 4.45.3H4.4a.07.07 0 0 0-.03 0 .14.14 0 0 0-.05 0 .06.06 0 0 0 0 .06.04.04 0 0 1 .04 0 .23.23 0 0 0 0 .03h.02a.06.06 0 0 1-.04.04.08.08 0 0 0-.05.06.17.17 0 0 0 .03-.02.1.1 0 0 1-.05.04.13.13 0 0 0-.04.08.1.1 0 0 1 .08-.03h.02a.1.1 0 0 0-.1.06zm.7-.14s-.15.1-.16.03c0-.1.15-.1.18-.1a.64.64 0 0 1 .12.02l-.14.05zM4.75.38a.04.04 0 0 1-.04.04.1.1 0 0 0 0-.04.08.08 0 0 1 .07 0zm-.16.5h-.04V.9a.08.08 0 0 1 0 .06.05.05 0 0 0-.02-.02A.05.05 0 0 0 4.5.9a.15.15 0 0 1-.04-.05h-.03a.08.08 0 0 1 0-.04.14.14 0 0 1 .02-.1.1.1 0 0 0 0 .1v.04a.24.24 0 0 0 .1.02.15.15 0 0 1 .04.02zm.1-.13a.16.16 0 0 1 0 .05.12.12 0 0 0-.05-.07.2.2 0 0 1 .06.02zM4.6.82a.07.07 0 0 1 .05.1.14.14 0 0 0-.04-.02c0-.05-.04-.06-.07-.1a.18.18 0 0 1-.03-.05.08.08 0 0 1 0-.02.15.15 0 0 0 .05.06.1.1 0 0 0 .02 0zM4.6.62s0 .03-.07 0c-.03 0-.08 0-.08-.03a.1.1 0 0 0 .08 0h.06a.04.04 0 0 0 0-.05.03.03 0 0 0 0-.04.06.06 0 0 1 0 .05.05.05 0 0 1 0 .04zm-.07-.1v.04A.03.03 0 1 1 4.5.6a.24.24 0 0 1 0-.05h.02zM4.6.47a.06.06 0 0 1 0 .03h-.05a.04.04 0 0 1-.02-.05zm-.07.06v.02A.07.07 0 0 0 4.5.52zm-.05-.1a.04.04 0 0 1-.04.04.06.06 0 0 1-.02-.03zm-.1.1A.06.06 0 0 1 4.4.47a.03.03 0 0 0 0 .04.04.04 0 0 0 0 .04.04.04 0 0 0 0 .03.05.05 0 0 1-.02-.06zm-.04.32a.22.22 0 0 0 0 .15 1.38 1.38 0 0 1 .03.28A.82.82 0 0 0 4.4 1a.35.35 0 0 1 0-.08.1.1 0 0 1-.06-.07zm.7.85a.1.1 0 1 0-.13.12.12.12 0 0 0 .15-.1V1.7zm.16-.1a.05.05 0 0 0 .05-.05.05.05 0 1 0-.06.05zm-1.26.43zm1.4-.55zM5.1 2h-.36a.2.2 0 0 1 .1.12H5A.2.2 0 0 1 5.1 2zm.03-.36L5 1.97h.14l.15-.34h-.2zM4.75.18a.1.1 0 0 1-.04.05.12.12 0 0 0 .07-.04.05.05 0 0 0 0-.08H4.7a.05.05 0 0 0-.04.02zM4.6.32h.06L4.62.3 4.6.28h-.05a.05.05 0 0 0 .05.04zm1.22 1.53a.05.05 0 1 0 .05-.05.05.05 0 0 0-.05.05z"/>
  <circle cx="5.74" cy="1.58" r=".05"/>
  <path d="M5.64 2.34zm2.4 2.68V5a.04.04 0 0 0 0-.03.15.15 0 0 0 0 .05zM9.7 6.85v-.03a.4.4 0 0 0 .1-.28c0-.13-.1-.4-.62-.57-.15-.04-.56-.2-.63-.42a.18.18 0 0 1 .03-.17.23.23 0 0 1 .14-.1.17.17 0 0 1 .12.04l.04.06a.15.15 0 0 1 .07.15c.18-.08.05-.35.05-.35a.4.4 0 0 1 .14.03.28.28 0 0 0-.32-.16.2.2 0 0 0 0-.18 1.07 1.07 0 0 1-.3.37.43.43 0 0 0-.08.12.35.35 0 0 0-.04.3c.12.33.68.52.74.54.3.1.48.23.5.4a.23.23 0 0 1-.15.2.45.45 0 0 1-.46-.2.65.65 0 0 0-.15-.2 1.4 1.4 0 0 0-.24-.12h.03a.03.03 0 0 0 0-.03l-.1-.2a.03.03 0 0 0-.05 0l-.04.02V6v.03l-.04.02a.03.03 0 0 0 0 .03l.02.05a.88.88 0 0 1-.33-.37l.06.05a.03.03 0 0 1 .05.06l.18.2a.03.03 0 0 0 .04 0L8.5 6l.06-.05a.03.03 0 0 0 0-.04l-.15-.14-.03.03-.03-.05.02-.03a.03.03 0 0 0 0-.03l-.18-.13a.03.03 0 0 0-.04 0l-.02.03a.43.43 0 0 1 .06-.2h.02l.02-.03.1-.1.1-.12.03-.03-.02-.05a.08.08 0 0 0 0-.03L8.45 5a.6.6 0 0 0 0-.15.22.22 0 0 0 .18.15.57.57 0 0 1 .03-.3.63.63 0 0 0-.08-.23c0-.03.02-.03.02-.03a.28.28 0 0 0 .17.1.38.38 0 0 1-.03-.3.45.45 0 0 0-.3-.3.14.14 0 0 0 .14-.1.57.57 0 0 1-.35-.16l-.05.06A.3.3 0 0 0 8 3.37a.44.44 0 0 1-.06.2.25.25 0 0 0-.05.1l-.08.03.02-.05a.28.28 0 0 0-.1-.23.16.16 0 0 1-.02.15.1.1 0 0 0 .02.13h-.1l-.1.03a.14.14 0 0 0-.04.1.46.46 0 0 1-.1.1 3.35 3.35 0 0 0-.36.2.05.05 0 0 0-.02.06.28.28 0 0 1 0 .12.06.06 0 0 0 0 .03v.06h.06l.04-.02.28-.1c.04-.03.05 0 .06.02a.07.07 0 0 1-.04.03l-.3.14s0 .04.03.04a.08.08 0 0 0 .08 0 .22.22 0 0 0 .07 0h.1l.1-.02a.12.12 0 0 1 0 .08.2.2 0 0 0 .1-.13l.1-.05a.22.22 0 0 1 .04-.13c.07-.05.05.04.05.04v.05l.14-.04s.25-.02.13-.34c.07.1.18.32-.1.4a1.1 1.1 0 0 0-.57.38.18.18 0 0 0-.03-.05.1.1 0 0 0-.08-.1h-.04v.1a.03.03 0 0 0-.04 0L7 4.8a.03.03 0 0 0 0 .03l.02.04L7 4.9h-.1a.03.03 0 0 0-.03 0l-.1-.05h-.1a.12.12 0 0 0-.05.03H6.6l.08.1a.08.08 0 0 1 .02-.02.05.05 0 0 1 .07 0l.04.06.06.02v.08a.03.03 0 0 0 .02.02h.05v.05H6.9a.03.03 0 0 0 0 .04l.1.2a.03.03 0 0 0 .02 0 2.6 2.6 0 0 1 .5-.1.38.38 0 0 1 .08-.14.25.25 0 0 0-.02.08.17.17 0 0 0 0 .04.46.46 0 0 0 0 .05v.02H7.5a2.23 2.23 0 0 0-.48.1h-.06a.06.06 0 0 1-.03 0H6.9a2.2 2.2 0 0 0-.4-.64v-.04a.25.25 0 0 1 .05-.04.1.1 0 0 1 .05-.05V4.7l-.37-.48a.65.65 0 0 1-.17.13l-.08.03-.06-.03-.05-.03a.17.17 0 0 0-.07-.1.36.36 0 0 0-.1-.06.9.9 0 0 1-.42-.27.2.2 0 0 0-.05.04.5.5 0 0 0-.05.06l-.03.07a.66.66 0 0 0-.08.13l-.02.02v.02l-.02.05a.1.1 0 0 1-.03 0h-.1a.1.1 0 0 1-.05-.04l-.04-.02V4.2a1.5 1.5 0 0 0-.1-.15L4.7 4l-.05-.05a.17.17 0 0 0-.07-.05.96.96 0 0 1-.44.3l-.06.03a.2.2 0 0 0-.1.12l-.06.03-.07.03h-.06a.63.63 0 0 1-.17-.13l-.1.1-.1.15-.17.25a.1.1 0 0 1 .04.03.2.2 0 0 1 .05.05l-.05.04a2.2 2.2 0 0 0-.3.4v.05l-.08.14.06.02.08.04h.03a.14.14 0 0 1 .06 0 .1.1 0 0 1 .05.02.12.12 0 0 1 .03.03l.1.04a.23.23 0 0 1 .05.03.94.94 0 0 1 .04-.1l.05-.1v.3a.16.16 0 0 0 .04.06l.02.02.02-.4V5.3a.24.24 0 0 0 0-.03.23.23 0 0 0-.02-.1V5.1a.2.2 0 0 0 0-.1.78.78 0 0 0-.1-.27L3.4 4.7l.1-.13.1-.13.02-.05.03-.06.05.07.07.05a1.1 1.1 0 0 0 .3.08h.03a1.34 1.34 0 0 0 .22.02 1.68 1.68 0 0 0 .23 0 .8.8 0 0 0 .1.08l.04.04h.02a1.5 1.5 0 0 0 .18.1v1.45h-.2c.06-.02.08-.18.08-.18L4.6 6l.14.03.1-.1-.06-.08h-.15l-.26-.08.24-.02a2 2 0 0 0-.35-.02c-.27 0 .02.1.02.1l.43.04-.07.1-.16-.07a.82.82 0 0 0-.35.1c-.1.07-.05-.08-.05-.08l.08-.12a.5.5 0 0 0-.3 0 .07.07 0 0 0-.06.08v.02c-.17-.1-.16-.07-.16-.07s.2.2.14.25a.62.62 0 0 1-.17.06 1.13 1.13 0 0 0 .5-.06.66.66 0 0 1 .23-.08.26.26 0 0 1 .22.1s.05.1.12.1h-1.1a.24.24 0 0 1-.04.05H4.9v1.73l-.2-.1a.2.2 0 0 0 0 .06.2.2 0 0 0 0 .04v.23a.12.12 0 0 1 .04.05.13.13 0 0 1 .02.1h.06a.14.14 0 0 1 .08.07.16.16 0 0 1 0 .08v.02h-.08a.07.07 0 0 0-.06.1.08.08 0 0 0 .06.03.1.1 0 0 0 .06-.04l.02-.02.02.02a.1.1 0 0 0 .06.02.08.08 0 0 0 .07-.04v.02A.06.06 0 0 0 5 8.57h-.06v-.02a.15.15 0 0 1 0-.06.1.1 0 0 1 .08-.1h.04a.14.14 0 0 1 .04-.08.1.1 0 0 1 .08-.03v-.25a.2.2 0 0 1 0-.03.25.25 0 0 1 .1-.16l-.1.05-.25.1V6.3h1.4c0 .2.05.4.06.63v.14a1.72 1.72 0 0 1-.24.33h-.14l-.26-.05.24-.02a2.4 2.4 0 0 0-.4-.02c-.25 0 .04.1.04.1l.44.04h.05l-.04.06H6l-.16-.04a.96.96 0 0 0-.36.08c-.1.06-.05-.06-.05-.06l.08-.1a.58.58 0 0 0-.3 0 .06.06 0 0 0-.03.08c-.15-.1-.15-.06-.15-.06s.2.17.15.2a.7.7 0 0 1-.17.05 1.36 1.36 0 0 0 .5-.04.6.6 0 0 1 .24-.03.28.28 0 0 1 .2.07h.02v.02a.12.12 0 0 1-.05 0l-.22.18-.06.03-.03.02a1.65 1.65 0 0 1-.36.1v.22l.32.15.08.04a2.05 2.05 0 0 0 .2-.1h.04l.04-.02h.05L6 8.22l.08-.06a2.32 2.32 0 0 0 1-1.84V6.3a.38.38 0 0 1-.1-.1.45.45 0 0 1-.03-.07H6.7v-.1h.13L6.86 6v.02h.1l-.03-.07-.03.02-.03.02v-.07l-.06-.2V5.7l.03-.05a.06.06 0 0 1 0-.06.13.13 0 0 1 .1-.1.24.24 0 0 0-.06.06.13.13 0 0 0 .02.05v.04a2.9 2.9 0 0 0 .1.46.3.3 0 0 0 .08.13.5.5 0 0 0 .07.05.7.7 0 0 0 .1.05.13.13 0 0 0 0-.08.26.26 0 0 1-.1-.07.66.66 0 0 1 .12.04h.07l-.1-.17a.1.1 0 0 0-.06 0h-.1v-.02A.12.12 0 0 0 7.03 6l-.1-.25h.6a.16.16 0 0 0 .1 0 .1.1 0 0 0 .07-.03l.14-.12h.05l.02-.02-.2.17a.13.13 0 0 1-.12.06.32.32 0 0 1-.1 0h-.43a2.04 2.04 0 0 0 .08.25.13.13 0 0 1 .12.03 1.46 1.46 0 0 0 .1.18l.06.1-.12-.03a1.13 1.13 0 0 0 .55.24c.14.06.06.14.06.14l-.1.13a.25.25 0 0 0-.1.33.44.44 0 0 0 .37.28.13.13 0 0 1 .06.04.1.1 0 0 1 .03.06 1.8 1.8 0 0 0-.28.28.06.06 0 0 1-.05 0 .3.3 0 0 0-.2.1l-.03.03-.1.05.3.06.03-.1V7.9a2.63 2.63 0 0 1 .22-.17l-.04.2a.03.03 0 0 0 .03.03h.04V8H8a.03.03 0 0 0-.02.02v.1h.04l.02-.08.08.02-.02.1h.05l.03-.13a.03.03 0 0 0 0-.03h-.05v-.04h.04a.03.03 0 0 0 0-.03l.06-.22a.03.03 0 0 0-.02 0v-.03h.04a.03.03 0 1 0 .06 0l.02-.05h.03c.1 0 .1-.12.08-.17v-.07l.07-.17a.03.03 0 0 0 0-.04l-.04-.02V7.1l.04.02a.4.4 0 0 0 .07.1l.2.17.3.26c.2.43.17.43.17.43l-.08.1a1.4 1.4 0 0 0-.06.14h.12l.05-.07v.08h.08V8.2l-.07-.05a.07.07 0 0 1 0-.06.45.45 0 0 0-.07-.4.18.18 0 0 1 0-.16.13.13 0 0 0-.03-.12 2.17 2.17 0 0 1-.2-.3.14.14 0 0 1 .04-.1.14.14 0 0 1 .06.12.8.8 0 0 0 .07-.3.73.73 0 0 0 .1.05.25.25 0 0 0 .2.15.76.76 0 0 0 .22 0 1.87 1.87 0 0 1-.17-.12.33.33 0 0 0 .07-.02.18.18 0 0 0 .28-.1.1.1 0 0 1-.12.04zm-1.36-1l.06-.05.1.12-.07.05-.1-.1zm-1.18-1.6v.02c0 .02-.07 0-.07 0a.07.07 0 0 1 0-.04.07.07 0 0 0-.04-.06c-.02-.02 0-.03 0-.03.1-.03.08.1.08.1zm.48-.35a.28.28 0 0 0-.07.05v-.02a.22.22 0 0 1 .02-.06.05.05 0 0 1 0-.03.16.16 0 0 1 .05 0 .25.25 0 0 1 .1.04zm.44-.3a.14.14 0 0 1-.15.13c-.1 0 0-.15 0-.15a.33.33 0 0 0 .05-.15.18.18 0 0 1 .1.17zm-4.8 1.92v.03l-.04-.02-.05-.03h-.07l-.05-.02-.05-.02.06-.02.04.02h.04l.04.02.04.02zm.1-.18l-.08.04-.04-.02h-.02l-.06-.04v.05H3.1V5.2h.05l.05.05h.02l.05.02.04.02zM6 7.54zM5.78 4.6h.06a1.1 1.1 0 0 0 .3-.1l.06-.03.03-.08.14.2a.16.16 0 0 0-.1-.05A2.27 2.27 0 0 0 6 4.6a1.55 1.55 0 0 1-.6.08.7.7 0 0 0-.2 0v-.05a.74.74 0 0 0 .1-.1 1.7 1.7 0 0 0 .26.03 1.42 1.42 0 0 0 .2 0zm.4 1.4l-.02.05-1.03.02V4.8a.02.02 0 0 1 .02 0c.02-.02.07-.05.23-.02A1.6 1.6 0 0 0 6 4.7a2.22 2.22 0 0 1 .28-.05c.03 0 .05 0 .06.02.04.06-.07.3-.14.45l-.03.07a1.7 1.7 0 0 0 0 .8zM4.9 4.7v.03h-.03L4.8 4.7a.6.6 0 0 1-.2-.1l-.04-.06-.04-.04-.03-.06a.26.26 0 0 0-.24-.16.13.13 0 0 0-.1.04.18.18 0 0 0 0 .15.03.03 0 0 1-.03.04H4.1a.2.2 0 0 1 0-.17.17.17 0 0 1 .16-.05h.02a.25.25 0 0 1 .07.03.36.36 0 0 1 .17.18l.03.05.03.03.03.03a.65.65 0 0 0 .14.1l.07.02h.05l.06-.02H5a.65.65 0 0 0 .1-.07l.07-.06.03-.03.03-.04a.38.38 0 0 1 .18-.2.24.24 0 0 1 .1-.02h.03a.17.17 0 0 1 .16.06.2.2 0 0 1 0 .16v.04a.02.02 0 0 1-.04-.03.18.18 0 0 0 0-.15.13.13 0 0 0-.13-.04.28.28 0 0 0-.22.18l-.02.04-.03.08-.03.03a.67.67 0 0 1-.1.08H5.1l-.05.04H5zm1.45.35a1.1 1.1 0 0 1-.03.17.2.2 0 0 1-.03.12.43.43 0 0 0 0 .06v.13c0 .18 0 .44.03.74h-1.4V4.82L5 4.8h.06v1.36l1.2-.03v-.15a1.7 1.7 0 0 1 0-.75l.02-.08a.97.97 0 0 0 .15-.5l.06.1-.06.04a.88.88 0 0 0-.1.23zm.03.1v-.02l.05-.03h.1l-.02.05v.16h.18l-.06.04-.03.06-.08.02-.02.05.03-.1.05-.03.04-.02h-.2l.04-.07.02-.04v-.03zm0 .57v-.17l.07.1a1.68 1.68 0 0 1 .05 1.1 1.1 1.1 0 0 1-.05.14v-.2l-.06-1zm.24.08v-.1h.03v.07zm.1-.3l-.05.05-.02.02v-.03l.04-.03h-.1v.04h-.1V5.5h.23zm1.6-.36a.1.1 0 0 1 .02-.04h.02l-.1.1H8.2a.1.1 0 0 1 .1-.06zM7 4.82l.16-.1.04.04v.06l-.14.08zm-.1.12H7v.16h-.1zm.14.37L7 5.4l-.06-.1-.02-.03.08-.05.04.1zm.12-.3l-.1.25-.02-.04a.03.03 0 0 0 .02-.04v-.2l.08-.05h.02v.07h.05zm.06-.06l.02-.02.03-.3s.02 0 .02.06a.1.1 0 0 1 0 .1.14.14 0 0 0-.04-.05v.1a.06.06 0 0 0 .02.05l.05.02a.22.22 0 0 0 .07 0h.03a.04.04 0 0 0-.04-.04.5.5 0 0 1 0-.07.04.04 0 0 1 .02-.04.03.03 0 0 1 .03.02.15.15 0 0 0 .02.04.18.18 0 0 1 0-.08.28.28 0 0 1 .1-.1.42.42 0 0 1 0 .1.08.08 0 0 1-.04.1h.05s.03 0 0 .05a.37.37 0 0 1 0 .03.07.07 0 0 0-.07-.04.03.03 0 0 0-.02.02.06.06 0 0 0 0 .03.1.1 0 0 0 .06.04.37.37 0 0 0 .12.02h.02A.04.04 0 0 0 7.7 5a.03.03 0 0 0-.02-.05.08.08 0 0 0-.04 0V4.9a.05.05 0 0 1 .05-.04.06.06 0 0 1 .05.03.15.15 0 0 1 0-.05.23.23 0 0 1 .1-.1.28.28 0 0 1 0 .15.16.16 0 0 1-.06.05l.03-.02a.04.04 0 0 1 .03.06.1.1 0 0 1-.03.05.1.1 0 0 0-.05-.05.04.04 0 0 0-.05.03.05.05 0 0 0 0 .03.1.1 0 0 0 .06.06l.07.03a.13.13 0 0 0 .05.02h.02A.05.05 0 0 0 8 5.1a.04.04 0 0 0-.02-.05h-.05A.08.08 0 0 1 7.95 5a.04.04 0 0 1 .08-.05v-.02a.2.2 0 0 1 .1-.06.52.52 0 0 1 0 .1.13.13 0 0 1 0 .03.17.17 0 0 1-.05.05h.05a.04.04 0 0 1 .03.05.46.46 0 0 1-.05.07.08.08 0 0 0 0-.07.03.03 0 0 0-.03 0 .05.05 0 0 0 0 .04.13.13 0 0 0 .06.08.14.14 0 0 0 .08.03.07.07 0 0 0 .04 0l.03-.02-.02.03-.04.07a4.08 4.08 0 0 0-.9-.4zm.87.74l.03-.06.14.1-.03.03-.03.05-.06-.05zm.5.4l.04.14-.03.04-.04-.06-.06-.1zm-.4.4a.53.53 0 0 1 .23.38L8.38 7a.38.38 0 0 1 0-.17l-.2-.16.2.07a.6.6 0 0 0-.16-.28zm.2.62v.02zm-.24.82H8.1l.04-.17h.07zm.08-.3l-.08-.02.06-.16.08.03zm.16-.36l-.03.1-.1-.04.1-.15.02.02h.02zm.1-.2h-.1l.04-.1.03-.07h.08zm.1-.27l-.1-.05.04-.16.08.02zm.06-.3h-.1l.03-.18h.1zM5.88 7.64h.02l.02-.02zm1.88-2.77a.15.15 0 0 0 0 .02.05.05 0 0 1 0-.02zM5.5 7.84a.28.28 0 0 0-.24.1 1.62 1.62 0 0 0 .28-.1zm3.87.6l-.02-.03a3.78 3.78 0 0 1-1.27-.2A3.65 3.65 0 0 0 6.82 8h-.26a.08.08 0 0 0-.06 0 .07.07 0 0 0 0 .1c.1.17.52.2.56.2a.57.57 0 0 1 .14.3h.02a3.47 3.47 0 0 1 .8.2 3.9 3.9 0 0 0 1.3.22h.25l.14-.6a2.77 2.77 0 0 1-.3 0zM7.92 8.4v.03a.18.18 0 0 1-.04.06.1.1 0 0 1-.1.02.18.18 0 0 1-.08 0h-.15l.03-.06.02-.07.02-.06.03-.1V8.2h.13l.07.02a.17.17 0 0 1 .05.04.12.12 0 0 1 .02.05.17.17 0 0 1 0 .1zm.28.06a.1.1 0 0 1-.06 0 .1.1 0 0 0 0-.04.03.03 0 0 0 0-.02v-.04H8.1l-.03.14a.1.1 0 0 0 .1-.02.36.36 0 0 0 0 .07l.04.1h-.1L8.1 8.5l-.02.07v.06h-.1L8 8.57V8.3h.2a.05.05 0 0 1 .03.06v.06a.08.08 0 0 1-.03.04zm.45.1a.15.15 0 0 1-.12.12.23.23 0 0 0 .03-.06.17.17 0 0 0 0-.06.08.08 0 0 0-.15-.06.14.14 0 0 0 0 .04.15.15 0 0 0-.02.1.16.16 0 0 1-.05-.03.14.14 0 0 1-.02-.04.18.18 0 0 1 0-.07.17.17 0 0 1 .04-.1.56.56 0 0 1 .12-.06.22.22 0 0 1 .08 0 .26.26 0 0 1 .07.03.17.17 0 0 1 .06.04.14.14 0 0 1 .03.07.18.18 0 0 1 0 .08zm.18.2H8.7V8.5h.1v.06l.03-.1zm.3-.18H9.1v.28h-.12v-.28h-.06v-.02h.26zm-1.3-.28a.1.1 0 0 0-.03-.03h.02a.13.13 0 0 0-.04-.03h-.05v.08l-.03.08v.05l-.05.05h.02a.12.12 0 0 0 .1 0 .16.16 0 0 0 .06-.1.14.14 0 0 0 0-.05.12.12 0 0 0 0-.05zM1.78 3a.03.03 0 0 0 .02-.04.03.03 0 0 0-.05-.02.04.04 0 0 0 0 .05zm2.94 5.34a.1.1 0 0 0-.1-.03.28.28 0 0 1 .04.2.97.97 0 0 0 0 .2.38.38 0 0 0 0 .07.42.42 0 0 0 .1.17.52.52 0 0 0 .15.1.5.5 0 0 0 .18-.1.54.54 0 0 0 .12-.24.98.98 0 0 0 0-.2.28.28 0 0 1 .02-.18.1.1 0 0 0-.08.04H5.1a.18.18 0 0 0 0 .14.1.1 0 0 0-.07-.02.06.06 0 0 0-.05.04.14.14 0 0 0 0 .05.1.1 0 1 1 0 .18.14.14 0 0 1-.07-.03.14.14 0 0 1-.05.03.1.1 0 1 1 .02-.18.13.13 0 0 0 0-.05.06.06 0 0 0-.06-.04.1.1 0 0 0-.07.02.18.18 0 0 0 0-.14zm.92.06l.08.04a.25.25 0 0 0 .16 0 .1.1 0 0 0 .04-.03.16.16 0 0 0 .03-.1 2 2 0 0 1-.3.14zm.2.1a.2.2 0 0 0 .1-.02.43.43 0 0 1-.1.03zM.2 6.67a.17.17 0 0 0 .06-.03l.1.02a.62.62 0 0 1-.2.15.9.9 0 0 1 .22 0 .25.25 0 0 0 .2-.13 2.1 2.1 0 0 0 .44-.14.7.7 0 0 1 0 .25c-.03.18-.2.45-.38.42a.14.14 0 0 0-.18.17.6.6 0 0 1 0 .4.05.05 0 0 0 .06.04.6.6 0 0 0-.1.26s.14-.06.14.06a.2.2 0 0 0-.03.23.75.75 0 0 1 .28-.04.16.16 0 0 0 .25 0 .06.06 0 0 1 .1 0 .07.07 0 0 0 .05-.06s0-.1.03-.1.16.03.16.08a.16.16 0 0 0-.13-.2h-.05A.15.15 0 0 0 1 8s-.1.1-.15-.07-.16-.57.1-.62l.67-.16s.06 0 .05-.12a.8.8 0 0 1 .03-.22 1.64 1.64 0 0 1 .13-.4.95.95 0 0 0-.02.23l.37-.23.17-.13.35-.23h-.03a.4.4 0 0 0-.28-.07h-.2a.05.05 0 0 1-.05-.08l.1-.3a.12.12 0 0 1 .04.03l-.1.27h.17c.28.03.28.04.34.1h.1a.05.05 0 0 1-.03-.05.1.1 0 0 1 0-.04.14.14 0 0 0 0-.1h.02a.18.18 0 0 1 .02.1.07.07 0 0 0 .05.07.1.1 0 0 0 .06 0h.03a.04.04 0 0 1 0-.02.08.08 0 0 1 .04 0l.03.02a.04.04 0 0 0 .04.03.03.03 0 0 1 .03-.03h.03a.07.07 0 0 1 0 .1.08.08 0 0 0 0 .1l.02.07a.04.04 0 0 0 .04.04.28.28 0 0 0 .1-.04.1.1 0 0 1 0 .1l.04-.02a.18.18 0 0 0 .05-.1.05.05 0 0 1 0-.02.18.18 0 0 1-.02.13h.02a.15.15 0 0 0 .03-.12h.03a.15.15 0 0 1-.03.1l.03-.03a.17.17 0 0 0 .04-.2.14.14 0 0 0-.05-.06H3.4a.2.2 0 0 1-.06-.07l-.03-.07V5.8a.17.17 0 0 0-.04-.04l-.05-.02-.1-.08-.1-.04-.1-.05-.06-.04-.16-.05-.17-.08a.16.16 0 0 1 .1-.02l.17.07h.07l.03-.07.08-.16a2.24 2.24 0 0 1 .18-.28l.08-.1H3.2L3.1 4.8l.35-.47a.24.24 0 0 0-.03-.1 1.5 1.5 0 0 0-.25-.15c-.06-.05 0-.06 0-.06A.28.28 0 0 0 3.45 4a.14.14 0 0 1-.06-.04.62.62 0 0 0-.3-.17c.2.04.25-.06.25-.06a.13.13 0 0 1-.13-.04.32.32 0 0 0-.13-.03.3.3 0 0 0 .1-.2h-.06a.48.48 0 0 1 0 .1.2.2 0 0 1-.2.08A.77.77 0 0 1 3 3.5a.22.22 0 0 1 .03-.02h-.1a.04.04 0 0 1-.03 0h-.02a1.42 1.42 0 0 0-.74.27.08.08 0 0 1-.1.04.33.33 0 0 0-.18.03.2.2 0 0 1 .04.06.2.2 0 0 0 .18.16.2.2 0 0 1-.1.1.16.16 0 0 0 .1 0 .05.05 0 0 1 .04.03.2.2 0 0 1-.04.14.2.2 0 0 0 0 .17.7.7 0 0 1 .02.13.7.7 0 0 0 .1-.17c.02-.05.03 0 .03 0a.45.45 0 0 1-.06.15.54.54 0 0 0-.02.3.38.38 0 0 1-.05.17.37.37 0 0 0 .1-.03.4.4 0 0 0 .12-.28.1.1 0 0 1 .03-.05s.02 0 0 .1a.97.97 0 0 1-.02.2.52.52 0 0 1-.02.14l.08-.03a.28.28 0 0 0 .1-.2.25.25 0 0 0 .03.1v.03a.42.42 0 0 1-.22.17.28.28 0 0 0 .04-.17V5a1.3 1.3 0 0 1-.12.18.32.32 0 0 0-.03.08 4.3 4.3 0 0 0-.44.3l-.04.06-.1-.1a1.05 1.05 0 0 0 .23-.26.57.57 0 0 0 0-.66.2.2 0 0 1 .08-.18.03.03 0 0 0 0-.04.33.33 0 0 0-.2.1.22.22 0 0 0-.06.13.2.2 0 0 0-.1 0H1.5a.13.13 0 0 1-.12-.05.07.07 0 0 1 0-.08.03.03 0 1 0-.04-.03h-.02a.28.28 0 0 0-.04.2.2.2 0 0 0 .08.12H1.3a.05.05 0 0 1-.06-.03.04.04 0 1 0-.06.04.28.28 0 0 0 .18.2.1.1 0 0 1-.07.04.03.03 0 0 0-.04.06.28.28 0 0 0 .1.02A.17.17 0 0 0 1.5 5a.18.18 0 0 1 .1.1.13.13 0 0 1-.06.12 1.37 1.37 0 0 1-.56.23l-.15.03a1.03 1.03 0 0 0-.74.46.65.65 0 0 0-.07.5.33.33 0 0 0 .08.12.1.1 0 0 1-.1-.06.17.17 0 0 0 .2.17zm1.84-2.7a.2.2 0 0 1-.1-.14.5.5 0 0 1 .12 0 .2.2 0 0 1 .12.15.7.7 0 0 1-.14-.02zm.54 1.26a.26.26 0 0 0 0-.04.22.22 0 0 0 0-.06.38.38 0 0 0 .06-.15.53.53 0 0 1 .03.1.5.5 0 0 1-.1.12zm.3-.1a.44.44 0 0 1-.1.18.03.03 0 0 1-.02 0 .05.05 0 0 1-.02-.02.45.45 0 0 0 .06-.12.25.25 0 0 0 0-.05.17.17 0 0 0 0-.06.33.33 0 0 1 .03-.13.1.1 0 0 1 .06-.07.06.06 0 0 0-.05.03.34.34 0 0 0 .02.13.2.2 0 0 1 0 .07.28.28 0 0 1 0 .07zM3 5v.04A.3.3 0 0 1 2.96 5 .43.43 0 0 1 3 4.8l.03.03A.4.4 0 0 0 3 5zm0-1.02a.2.2 0 0 1 .1.08l-.03.05a.18.18 0 0 1 0 .27.16.16 0 0 0 0-.12A.14.14 0 0 0 3 4.2a.16.16 0 0 0 .03-.04A.12.12 0 0 0 3 4zm.12.46s.07.1-.2.22v-.02a.1.1 0 0 1-.05 0 .07.07 0 0 1-.02.03c-.06.02-.26.08-.28 0a.38.38 0 0 0 .28-.06c.3-.1.27-.14.27-.14zm-.2-.76a.2.2 0 0 1-.08.18.13.13 0 0 1-.16-.06 1.73 1.73 0 0 0 .24-.12zm-.4.43a.07.07 0 0 1 .03 0L2.8 4c.02 0 .03 0 .08.06s-.03 0-.04 0a.05.05 0 0 0-.05.02c-.1.05 0 .03 0 .03a.23.23 0 0 0-.07.1c0 .07.07.05.08.07a.87.87 0 0 0 .07.15.08.08 0 0 1 0 .1l-.07.04a.07.07 0 0 1-.07-.02.85.85 0 0 1-.07-.18V4.3a.07.07 0 0 0 .05-.05.28.28 0 0 0 0-.04c0-.04-.1 0-.1 0s.1-.05 0-.05c-.03 0-.03 0-.05.05a.05.05 0 0 1 0-.04zm-.02-.2a.13.13 0 0 1-.08.18.22.22 0 0 1-.17-.07 1.76 1.76 0 0 0 .25-.1zm-.12.5h-.06a.22.22 0 0 1 .02-.17.12.12 0 0 0 .1.14h.04a.14.14 0 0 0 0 .1.16.16 0 0 0 .1.08h-.03a.18.18 0 0 1-.17-.14zM.52 5.8A1.07 1.07 0 0 1 1 5.73a2.55 2.55 0 0 1 .48.05 3.68 3.68 0 0 0-.44.44 1.38 1.38 0 0 1-.57.2.2.2 0 0 1-.16-.06.23.23 0 0 1 0-.17H.26A.45.45 0 0 1 .5 5.8zm1.35-2.25zm.1 0a.03.03 0 1 0-.02.03.03.03 0 0 0 .03-.03zM4.1 8.4l-.22-.1h-.1s-.03 0 0-.05l.04-.03a.7.7 0 0 0 .1-.14l-.05-.04L3.82 8a1.35 1.35 0 0 1-.1.16c-.04.05-.1.1-.04.13a.3.3 0 0 0 .22.1h-.02a.85.85 0 0 0 .22 0zm-.7-1.43l.05-.63-.05.03a.06.06 0 0 1-.04 0c0 .13-.03.26-.03.38v.18a.92.92 0 0 1-.04-.13 1.68 1.68 0 0 1-.1-.5.1.1 0 0 1-.1-.05h-.27v-.02h.24V6.2a.16.16 0 0 1 0-.12.1.1 0 0 1-.1-.04.13.13 0 0 1-.07 0 .16.16 0 0 1-.1 0h-.06a2.18 2.18 0 0 0 .95 2.1V8.1l.1-.1a.5.5 0 0 1-.1-.1.12.12 0 0 1-.03-.07.1.1 0 0 1 .05.04l.1.07.03-.06.03-.1v-.03l-.1-.07-.1-.1a1.8 1.8 0 0 1-.3-.4zm1.2 1.06a3.16 3.16 0 0 1-.5-.2l-.06-.04v-.1c0-.03.03 0 .03 0h.02v.04a1.86 1.86 0 0 0 .2.1V7.8a.88.88 0 0 0-.13-.14c-.12-.1-.15-.12-.2-.06a.3.3 0 0 0 0 .04l-.08.17-.06.08.1.07.03-.04V8l.08.03a.08.08 0 0 1 .1-.02.14.14 0 0 1 0 .03.05.05 0 0 0-.04 0h.03a.07.07 0 0 1 0 .08.12.12 0 0 1-.04.05h-.06a.05.05 0 0 0 .02.06.14.14 0 0 1-.04 0A.07.07 0 0 1 4 8.1l-.07-.02-.03.06-.02.02-.05.06.18.1.18.06v.02a2.74 2.74 0 0 0 .38.12v-.07a.23.23 0 0 0-.03-.1L4.5 8.3h.06zM2.37 4.36zm2.83 3.9v.03h.04-.02a.24.24 0 0 0-.03.15v.2a.23.23 0 0 0 .05.03.28.28 0 0 0 .08 0l.46-.2h.02a.28.28 0 0 1-.1 0H5.7l-.16-.1zM1.74 3.5a.04.04 0 0 0 .07-.03.03.03 0 0 0 0-.02H1.8a.03.03 0 0 0-.02.04zm.03-.06h.02a.03.03 0 0 0-.05 0zm.25.02l.1.03a.1.1 0 0 1-.06.02L2 3.57a.03.03 0 0 0-.02.04.03.03 0 0 0 .04.06l.04-.03v.05a.03.03 0 0 0 .05.04h.04l.02-.05-.03-.03.07-.06.03.03a.04.04 0 0 0 .06 0l.05-.05.05-.02.1-.03h-.46zm.62 0a.04.04 0 0 0 0-.06v-.05l.1.02v.05l.04.02a.04.04 0 0 0 .05-.03H2.8h.04a.04.04 0 1 0-.03-.1h-.05a.1.1 0 0 1-.07 0l.04-.05a.04.04 0 0 0-.03-.05.04.04 0 1 0-.08 0v-.04H2.6a.03.03 0 0 0-.05-.03l.04.12-.07.02H2.5a.14.14 0 0 1-.12-.08.06.06 0 0 1-.03.05h-.02a.07.07 0 0 1-.04-.03.13.13 0 0 1-.08.13l-.04.03h-.03l-.04-.13a.03.03 0 0 0 0 .05v.03l-.03-.02a.04.04 0 0 0-.05.06.03.03 0 0 0-.03.04m-.35-.37a.03.03 0 0 0 .04.02.04.04 0 1 0-.03-.06.03.03 0 0 0-.02.05z"/>
  <circle cx="1.66" cy="3.13" r=".03" transform="rotate(-20.386 1.657 3.126)"/>
  <path d="M2.64 3.48H2.6a.04.04 0 0 0 .04 0zm-.07 0zm4.45 4.9a.04.04 0 0 0 0-.04.03.03 0 0 0-.03 0 .8.8 0 0 1-.54-.16l-.04-.06-.02.57h.04v-.06A.76.76 0 0 0 7 8.37zM3.14 3.46v.03h.05a.3.3 0 0 0-.04-.1H3.1a.18.18 0 0 0-.14.04.1.1 0 0 1-.03.03h.1a.22.22 0 0 1 .1-.04zm-.34.84l-.06.02.06.15zm5.3 6.15zm.1-.07zm-.1.02zM2.8 8.33a.04.04 0 0 0 0 .05.76.76 0 0 0 .57.28h.03l-.02-.57-.04.03a.8.8 0 0 1-.52.16v.02a.03.03 0 0 0-.02 0zm-1.32 2.05a.7.7 0 0 1 0 .1v.02a.14.14 0 0 0 0-.02.63.63 0 0 0 0-.24.4.4 0 0 0-.03-.05.47.47 0 0 1 .03.16zm.04.12a.8.8 0 0 0 0-.08.57.57 0 0 1 0 .08zM5 11.52h.02v.56a.07.07 0 0 1-.06.08H4.9a.07.07 0 0 1-.08-.08H4.7a.07.07 0 0 1-.08-.08v-.23a.07.07 0 0 1 .07-.07h.1v-.18l-.06-.04h-1.2a.5.5 0 0 0 .12.17 1.8 1.8 0 0 0 .4.25 4.42 4.42 0 0 0 .62.23.34.34 0 0 1 .2.22.34.34 0 0 1 .22-.22 4.42 4.42 0 0 0 .64-.23 1.8 1.8 0 0 0 .4-.25.5.5 0 0 0 .14-.17h-1.2zm3.07-1.07zm.7-.15a.33.33 0 0 0-.24.12H8.5l-.07.08a.28.28 0 0 1-.26.08.24.24 0 0 1-.17-.2.4.4 0 0 1 0-.05.48.48 0 0 1 0-.06.33.33 0 0 1 .03-.1.32.32 0 0 0-.02.1v.1a.3.3 0 0 1 .07-.13.28.28 0 0 0 0 .12.33.33 0 0 0 0 .05.4.4 0 0 1 .04-.16.4.4 0 0 0-.02.16.44.44 0 0 1 .05-.15.43.43 0 0 0-.02.13.38.38 0 0 1 .1-.14.37.37 0 0 0 0 .15v-.05a.6.6 0 0 1 .04-.1.4.4 0 0 1 .05-.1.48.48 0 0 0-.04.2.72.72 0 0 0 0 .1v.04l.03-.04a.63.63 0 0 1 .03-.3.6.6 0 0 0 0-.43 1.38 1.38 0 0 0-.07-.14.4.4 0 0 0 .13.1.28.28 0 0 0 .15 0 .4.4 0 0 0-.04-.26.48.48 0 0 0-.2-.16.43.43 0 0 0 .1 0 .14.14 0 0 0 .1-.07.5.5 0 0 0-.27-.13.9.9 0 0 0-.26 0 1.7 1.7 0 0 0-.37-.17 1.46 1.46 0 0 0-.27-.02h-.17a.88.88 0 0 0-.1-.52.57.57 0 0 1-.42.3 7.22 7.22 0 0 1-1.23.2h-.3a.52.52 0 0 1-.15.12v.35h-.1V9.1l-.03.1v.08l-.03.06h-.04L4.7 9.3l-.03-.03v-.03l-.05-.08v.22h-.1l.03-.08v-.1a1.17 1.17 0 0 1 .02-.16h.05l.02.06.04.06.03.06v.03l.05.03v-.03l.06-.1.1-.1a.58.58 0 0 1-.2-.13 7.22 7.22 0 0 1-1.5-.2.58.58 0 0 1-.43-.3c0-.05 0-.05-.02 0a.88.88 0 0 0-.1.54 1.46 1.46 0 0 0-.23-.02 1.5 1.5 0 0 0-.22.02 1.73 1.73 0 0 0-.37.16.9.9 0 0 0-.25 0 .5.5 0 0 0-.23.12.14.14 0 0 0 .08.06.44.44 0 0 0 .1 0 .48.48 0 0 0-.2.16.4.4 0 0 0-.05.24.28.28 0 0 0 .16 0 .4.4 0 0 0 .14-.1 1.3 1.3 0 0 0-.08.14.6.6 0 0 0 0 .42.63.63 0 0 1 .02.08.4.4 0 0 1 .02.05.57.57 0 0 1 .02.1.38.38 0 0 0-.02-.14.4.4 0 0 1 .05.15v.03a.68.68 0 0 0-.03-.2.44.44 0 0 1 .04.15.4.4 0 0 0 0-.16.42.42 0 0 1 .04.15v-.03a.28.28 0 0 0 0-.1.3.3 0 0 1 .03.1v-.02a.5.5 0 0 0 0-.06.3.3 0 0 0 0-.1.32.32 0 0 1 .02.1.45.45 0 0 1 0 .05.4.4 0 0 1 0 .08.24.24 0 0 1-.18.18.28.28 0 0 1-.26-.07l-.07-.08v-.03a.34.34 0 0 0-.2-.1.1.1 0 0 0-.04 0 .38.38 0 0 1 .06.12.54.54 0 0 0 .1.25.53.53 0 0 0 .37.13.42.42 0 0 0 .3-.24.68.68 0 0 0 .03-.4.85.85 0 0 1 0-.28.44.44 0 0 1 .03-.1.36.36 0 0 0 .02.18.18.18 0 0 0 .1.1.23.23 0 0 0 .08-.13 1.98 1.98 0 0 0 .03-.28.66.66 0 0 1 .16-.34.57.57 0 0 1 .12-.1.3.3 0 0 1 .1 0 .08.08 0 0 1 .08.05.92.92 0 0 0-.12.13.8.8 0 0 0-.15.57.46.46 0 0 0 .13.34.13.13 0 0 0 .04-.06.43.43 0 0 0 .02-.1l.03.07a2.27 2.27 0 0 1 .15.26.22.22 0 0 1 0 .12h.03a.24.24 0 0 0 0-.1.4.4 0 0 0-.02-.1.32.32 0 0 0-.05-.1.75.75 0 0 1-.05-.1.7.7 0 0 0 .06.1 1.07 1.07 0 0 1 .07.1.46.46 0 0 1 .06.1.3.3 0 0 1 0 .07v.04a.26.26 0 0 0 .02-.1.4.4 0 0 0 0-.1.64.64 0 0 0-.08-.17.63.63 0 0 1 .1.17.43.43 0 0 1 .04.1.38.38 0 0 0 0-.08.54.54 0 0 0-.08-.18.57.57 0 0 1 .1.15.44.44 0 0 1 .03.1v.03a.28.28 0 0 0 0-.08.4.4 0 0 0 0-.1.57.57 0 0 0-.06-.18.54.54 0 0 1 .1.15.4.4 0 0 1 .02.1.3.3 0 0 0 0-.07.4.4 0 0 0 0-.1.57.57 0 0 0-.06-.16.57.57 0 0 1 .1.16.44.44 0 0 1 0 .1.34.34 0 0 1 0 .12.2.2 0 0 1-.1.12.23.23 0 0 1-.1.03.2.2 0 0 1-.08 0 .83.83 0 0 0-.28-.1.28.28 0 0 0-.27.1.26.26 0 0 0 .1.1.28.28 0 0 0 .16.03h-.1a.45.45 0 0 0-.4.37l.1-.03a.82.82 0 0 1 .16 0 .43.43 0 0 0 .2 0h.07a.16.16 0 0 0-.1.18.36.36 0 0 0 .4-.14.46.46 0 0 0 .07-.25H2.7l.08-.03.05-.03a.48.48 0 0 0 .2-.24.57.57 0 0 0-.1-.5H3a.38.38 0 0 0 .2-.03.47.47 0 0 1-.32-.16 1.03 1.03 0 0 1-.1-.5l-.03.14v-.2a.27.27 0 0 0-.02.07l-.02.04a.47.47 0 0 0-.03.15.5.5 0 0 1 0-.2.35.35 0 0 1 0-.05.35.35 0 0 0-.05.06.4.4 0 0 0-.1.2.4.4 0 0 1 .07-.2.37.37 0 0 1 0-.05.43.43 0 0 0-.13.14.28.28 0 0 0-.04.1.32.32 0 0 1 .03-.1.45.45 0 0 1 .07-.1.9.9 0 0 1 .1-.1 2.22 2.22 0 0 1 .2-.17.5.5 0 0 0 .24.12l.48.1-.2.08a.28.28 0 0 0-.32.12.24.24 0 0 0 .15.3v.02a.28.28 0 0 0 .3-.05s.2.4.07.6a.13.13 0 0 1-.1.07.13.13 0 0 0-.14.1.16.16 0 0 0 .14.16.9.9 0 0 0-.1 1.06s.16.3 1.13.63a.17.17 0 0 0 .08.22h.03a.26.26 0 0 0 .2-.03.82.82 0 0 1 .2-.04.83.83 0 0 1 .2.06.26.26 0 0 0 .18.03.17.17 0 0 0 .13-.2v-.05c.97-.35 1.13-.62 1.13-.62a.87.87 0 0 0-.1-1.05.16.16 0 0 0 .13-.16.13.13 0 0 0-.1-.13.13.13 0 0 1-.12-.07c-.12-.2.07-.6.07-.6a.28.28 0 0 0 .3.04.24.24 0 0 0 .15-.3.28.28 0 0 0-.35-.13l-.2-.07.5-.1.06-.02h.02a.48.48 0 0 0 .13-.07 1.3 1.3 0 0 1 .17.1.87.87 0 0 1 .1.1.44.44 0 0 1 .06.1.3.3 0 0 1 .02.14.3.3 0 0 0-.04-.1.44.44 0 0 0-.06-.1l-.05-.05a.37.37 0 0 1 .02.05.42.42 0 0 1 .07.2.4.4 0 0 0-.1-.2.34.34 0 0 0-.06-.05.32.32 0 0 1 .03.06.5.5 0 0 1 0 .17.48.48 0 0 0-.03-.15l-.02-.04v.03a.26.26 0 0 0 0-.06v.2l-.04-.12a1.04 1.04 0 0 1-.12.48.47.47 0 0 1-.3.16.38.38 0 0 0 .16.02H7a.13.13 0 0 0-.05.06.57.57 0 0 1 .04-.05.57.57 0 0 0-.1.17.4.4 0 0 0 0 .1.28.28 0 0 0 0 .08.42.42 0 0 1 .03-.1.57.57 0 0 1 .1-.2.57.57 0 0 0-.1.2.38.38 0 0 0 0 .08.3.3 0 0 0 0 .08v-.04a.43.43 0 0 1 .04-.1.57.57 0 0 1 .1-.16.57.57 0 0 0-.08.18.4.4 0 0 0 0 .1.43.43 0 0 1 .02-.1.63.63 0 0 1 .1-.18.64.64 0 0 0-.08.18.4.4 0 0 0 0 .1.44.44 0 0 1 .06-.1 1.07 1.07 0 0 1 .07-.1.68.68 0 0 0 .05-.1.8.8 0 0 1-.05.1.8.8 0 0 0-.05.1.4.4 0 0 0-.03.1.23.23 0 0 0 0 .1h.02a.22.22 0 0 1 0-.13 2.3 2.3 0 0 1 .14-.26l.04-.1a.45.45 0 0 0 .04.12.13.13 0 0 0 .06.06.46.46 0 0 0 .14-.34.8.8 0 0 0-.16-.57.92.92 0 0 0-.13-.12.08.08 0 0 1 .1-.08.3.3 0 0 1 .1.02.57.57 0 0 1 .1.1.66.66 0 0 1 .17.3 2.03 2.03 0 0 0 .03.27.24.24 0 0 0 .08.12.18.18 0 0 0 .1-.1.35.35 0 0 0 .02-.18.43.43 0 0 1 .05.13.85.85 0 0 1 0 .28.7.7 0 0 0 .03.38.42.42 0 0 0 .3.24.4.4 0 0 0 .5-.27v-.06a.4.4 0 0 1 .06-.12.1.1 0 0 0-.1-.03zm-6.3.64a.22.22 0 0 0 .1 0 .2.2 0 0 1-.1 0zm.06-2v.02a1 1 0 0 0-.14.02.95.95 0 0 1 .1-.03zm.1.06h.05v.02h-.05a.85.85 0 0 0-.24.02.87.87 0 0 1 .2-.04zm-.14.06a.72.72 0 0 1 .1 0h.1v.03h-.1a.67.67 0 0 0-.1 0 .38.38 0 0 0-.14 0 .38.38 0 0 1 .1-.06zm.05.07a.6.6 0 0 0-.1.02l-.08.03.06-.04a.58.58 0 0 1 .1-.03 1.2 1.2 0 0 1 .2 0v.05zM5.62 9l.1.08.02.02.04.02.1.08v-.23h.04v.32h-.04L5.7 9.1l-.06-.04v.24H5.6a.25.25 0 0 0 0-.03V9h.03-.03zm-.54.14h.03a.17.17 0 0 1 .07-.06.18.18 0 0 1 .06-.04.23.23 0 0 1 .1-.02.28.28 0 0 1 .07 0 .18.18 0 0 1 .06.03.16.16 0 0 1 .04.06.17.17 0 0 1 .02.08v.02a.17.17 0 0 1 0 .04v.02a.18.18 0 0 1-.04.06.2.2 0 0 1-.06.05.23.23 0 0 1-.08.02.33.33 0 0 1-.08 0 .17.17 0 0 1-.06-.05.15.15 0 0 1-.08-.03.17.17 0 0 1-.02-.06.23.23 0 0 1 0-.03.17.17 0 0 1 0-.06zm-1.04-.1h.25l-.07.02H4.2v.28h-.07v-.28a.1.1 0 0 0 0-.02h-.1zm-.33.17l.04.07v-.3h.2a.1.1 0 0 0 0 .03h-.08v.07H4v.08l-.13-.02v.13H4v.02h-.3zm-.35 1.45a.08.08 0 0 1 .07-.07.2.2 0 0 0 .14-.17.87.87 0 0 0-.13-.7.23.23 0 0 0-.05-.02.07.07 0 1 0-.08.1v.02a.1.1 0 0 0 .08 0 .17.17 0 0 1-.15.02.15.15 0 1 1 .08-.28.18.18 0 0 1 .06.02l.03.03a.95.95 0 0 1 .15 1.1.08.08 0 0 1-.15-.06zm1.2 2.02a.14.14 0 0 1-.1-.17v-.02a.07.07 0 0 0 .1-.02.07.07 0 0 0-.05-.1h-.03c-1-.27-1.17-.64-1.17-.64-.24-.33.07-.84.07-.84a.13.13 0 0 1 .1-.06.12.12 0 0 1 .14.1.1.1 0 0 1-.04.1.05.05 0 0 0-.1-.04V11a.86.86 0 0 0-.1.47c.1.45 1.17.76 1.3.8a.17.17 0 0 1 .04.23l.04.05a.17.17 0 0 1-.2.1zm2-.93s-.2.35-1.18.64a.06.06 0 1 0 .04.1.14.14 0 0 1-.06.15.2.2 0 0 1-.17-.3h.02c.12-.05 1.2-.36 1.3-.8a.85.85 0 0 0-.1-.48V11a.05.05 0 0 0-.1.04.1.1 0 0 1-.1-.1.12.12 0 0 1 .13-.1.13.13 0 0 1 .12.05s.3.5.08.83zm-.05-2.2h.02a.2.2 0 0 1 .05-.03.16.16 0 0 1 .1.3.17.17 0 0 1-.15 0h.03a.07.07 0 0 0-.07-.1.12.12 0 0 0-.03.02.87.87 0 0 0-.17.7.2.2 0 0 0 .13.17.08.08 0 1 1-.1.1.95.95 0 0 1 .2-1.1zm-.07-.04a1.23 1.23 0 0 0-.17 1.26.2.2 0 0 0-.16.2.18.18 0 0 0 .2.16.92.92 0 0 1 .07.22c.14.5-1.22.88-1.22.88a.24.24 0 0 0-.1.4.82.82 0 0 0-.15-.03.82.82 0 0 0-.16 0 .24.24 0 0 0-.1-.4s-1.34-.4-1.2-.9a1.42 1.42 0 0 1 .06-.2.18.18 0 0 0 .06-.36A1.23 1.23 0 0 0 3.4 9.5l.23-.1a8.05 8.05 0 0 0 2.57 0zm.74-.53h.06a.96.96 0 0 1 .14.03 1 1 0 0 0-.14-.02h-.07zm.12.18l-.04.02a.6.6 0 0 0-.1-.02h-.12l.02-.05h.1a.55.55 0 0 1 .12.03l.06.05zm-.06-.06a.67.67 0 0 0-.1 0H7.1v-.06h.04V9a.82.82 0 0 1 .22.04.82.82 0 0 0-.22 0 .72.72 0 0 1 .13.02.4.4 0 0 1 .1.05.4.4 0 0 0-.1-.03zm-2.52 2.24v.05h.02l.14.05v.28h-.2v.1h.07v-.03h.06v.05h.08v.04h-.13v-.02H4.7v.07h.18v.08h.06v-.6l.14-.07h.03v-.07l-.13-.08h.9v-.08l-.1-.04v-.55l.1-.1v-.14h-.1v.1H5.7v-.1h-.04v-.36h.05V9.8h-.1v.07h-.05V9.8H5.4v.07h-.06V9.8h-.1v.13h.06v.38h-.05v.1H5.2v-.07h-.05v-.57h.1v-.13h-.1v.06H5.1v-.1h-.14v.07h-.1V9.6h-.13v.06h-.07V9.6h-.08v.12h.1v.56h-.04v.1h-.07v-.1h-.04V9.9h.05v-.1H4.5v.07h-.07V9.8H4.3v.07h-.08V9.8h-.08v.13h.05v.38h-.07v.1H4.1v-.1h-.13v.14l.1.1v.58l-.1.06v.08h.9zm.66-1.16a.1.1 0 0 1 .18 0v.24h-.18zm-.03.73a.12.12 0 0 1 .24 0v.24h-.27zm-1.08-.7h.03a.1.1 0 0 1 .17 0v.24h-.2zm.22.73v.2h-.27v-.2a.12.12 0 0 1 .24 0zm.5.47l-.1.04-.1-.05.1-.08zm0-1.6h.02a.04.04 0 0 1 .07 0v.16H5zm-.12 0a.05.05 0 1 1 .1 0v.16h-.1zm.05.2a.1.1 0 0 1 .1.1v.28h-.2v-.28a.1.1 0 0 1 .1-.1zm-.17-.2a.05.05 0 1 1 .1 0v.16h-.1zm0 1.3v-.25a.17.17 0 1 1 .35 0v.25zm3.3-.7v-.04a.48.48 0 0 0 0 .05zm-2.9-1.2a.2.2 0 0 0 0 .05v.06a.08.08 0 0 0 .06.03.1.1 0 0 0 .04 0 .08.08 0 0 0 .1-.03.16.16 0 0 0 .03-.05.22.22 0 0 0 0-.07.18.18 0 0 0 0-.05.13.13 0 0 0-.05-.05.1.1 0 0 0-.05-.04.12.12 0 0 0-.04 0 .06.06 0 0 0-.08.04.15.15 0 0 0-.02.05.23.23 0 0 0 0 .06zm-3.68 1.3v-.02a.14.14 0 0 1-.02.03zm5.54.08a.27.27 0 0 1 0-.03.3.3 0 0 1 0-.05.26.26 0 0 0 0 .08zm-.06 0a.3.3 0 0 1 0-.1.28.28 0 0 0 0 .1zm-.1-.3v.02a.55.55 0 0 1 .02-.08v.03zm0 .38a.48.48 0 0 0 .2.23h.1H7a.46.46 0 0 0 .07.25.36.36 0 0 0 .4.15.16.16 0 0 0-.13-.2h-.03.07a.43.43 0 0 0 .23.04c.1 0 .13-.03.17-.02l.1.03a.45.45 0 0 0-.4-.36l-.07-.04a.28.28 0 0 0 .16-.02.26.26 0 0 0 .1-.1.28.28 0 0 0-.3-.1.83.83 0 0 0-.3.12.2.2 0 0 1-.07 0 .23.23 0 0 1-.1-.03.2.2 0 0 1-.12-.12.35.35 0 0 1 0-.1.4.4 0 0 1 .03-.1.55.55 0 0 0 0 .34zm.44.26a.2.2 0 0 1-.08 0 .2.2 0 0 0 .08 0zm-.28-.42zm-4.4-2.74l.04.03a.16.16 0 0 1 .1 0 .16.16 0 0 1 .04.06.18.18 0 0 0-.12-.18v-.06a.28.28 0 0 0-.26-.13h-.05a.67.67 0 0 0-.17.04h-.04c-.05 0-.04-.03-.04-.03v-.24a.26.26 0 0 1 .06-.16l.1-.12a1.38 1.38 0 0 0 .1-.75l-.56.4a.43.43 0 0 1 .04.06.34.34 0 0 1-.08.3.14.14 0 0 0 0 .1.1.1 0 0 1 .04-.02 1.36 1.36 0 0 0-.03.2.18.18 0 0 1-.05.13l.1-.07a.96.96 0 0 1 .04.34c0 .1.03.1.1.1a.45.45 0 0 0 .07 0h.07a.1.1 0 0 1 .08 0 .2.2 0 0 0 .06.06h.02a.07.07 0 0 0 .05-.02.26.26 0 0 1 .12-.04.14.14 0 0 1 .1.1.65.65 0 0 0 0-.13.04.04 0 0 1 .02-.02zm-.02.84h.02a.57.57 0 0 1 .13-.3c.06 0 .5-.04.57-.2a.07.07 0 0 0 0-.1.08.08 0 0 0-.06-.02h-.24a3.65 3.65 0 0 0-1.27.24 3.78 3.78 0 0 1-1.28.22 2.86 2.86 0 0 1-.32-.02H.1l.15.6H.5a3.9 3.9 0 0 0 1.3-.2 3.44 3.44 0 0 1 .8-.2zm-.62-.33v.06l-.02-.06zm-.78.45a.16.16 0 0 1-.1.1.2.2 0 0 1-.06.03H.9v-.03H1a.12.12 0 0 0 .1-.04.16.16 0 0 0 .02-.12.15.15 0 0 0-.02-.05h-.05a.12.12 0 0 0-.03 0 .1.1 0 0 0-.04-.03.13.13 0 0 0-.05 0H.9v-.03h.16a.17.17 0 0 1 .06.02.12.12 0 0 1 .05.04.18.18 0 0 1 .03.13zm.17.06H1.3v-.13l-.02-.06-.02-.1a.08.08 0 0 0 0-.06h.06v.13l.03.05.02.07.02.05zm.33-.1h-.03v.02H1.5v-.12l-.03-.07-.02-.03-.03-.03h.18v.03h-.1v.1l.05-.02.1-.03v.03l-.1.03v.12l.06-.02h.1zm.05-.08a.13.13 0 0 1-.03-.05h.06v-.1l-.06-.07v-.03h.08a.12.12 0 0 0 .02.08v.07a.3.3 0 0 0 .03.06.1.1 0 0 0 .03.03.06.06 0 0 0 .04 0l.06-.04a.15.15 0 0 1-.07.05h-.03a.14.14 0 0 1-.05 0 .12.12 0 0 1-.04-.02zm-.78 1.7H1a.1.1 0 0 0-.03 0zm.6.18zm.03-.02zm-.05.04v-.05.05zm1.23.1a.28.28 0 0 0 0-.1.35.35 0 0 1 0 .1zM.9 10.3a.34.34 0 0 1 .05.02.1.1 0 0 1 .02 0zm2.72-5.17a1.13 1.13 0 0 0 .48-.05c.2-.08.1-.05.23-.07a.26.26 0 0 1 .22.1s.06.14.14.1.1-.15.1-.15L4.6 5l.15.02.1-.1-.06-.07-.18-.02-.26-.07.24-.02a2 2 0 0 0-.4-.02c-.24 0 .05.1.05.1l.43.04-.08.1-.15-.07a.82.82 0 0 0-.35.1c-.1.04-.06-.1-.06-.1l.08-.1a.5.5 0 0 0-.32 0 .07.07 0 0 0-.05.07c-.14-.1-.13-.07-.13-.07s.2.2.14.26a.62.62 0 0 1-.16.06zm0 .5a1.13 1.13 0 0 0 .48-.06c.2-.08.1-.05.23-.07a.26.26 0 0 1 .22.1s.06.1.14.1.1-.17.1-.17l-.2-.04h.13l.1-.1-.06-.08-.16-.02-.25-.05.24-.02a2 2 0 0 0-.4-.03c-.26 0 .03.12.03.12l.43.04-.08.08-.16-.05a.82.82 0 0 0-.35.06C3.97 5.53 4 5.4 4 5.4l.08-.1a.5.5 0 0 0-.3 0 .07.07 0 0 0-.06.1c-.14-.14-.13-.1-.13-.1s.2.2.14.25a.62.62 0 0 1-.16.06zm1.14 2.12l.05-.8s.18-.65-.1-.57-.58.13-.58.13-.14-.26-.3-.13a.97.97 0 0 0-.2.48 1.48 1.48 0 0 1 .35.4 1.7 1.7 0 0 0 .32.42c.26 0 .12.3.47.1zm.42-1.05a.7.7 0 0 1-.17.05 1.36 1.36 0 0 0 .5-.04.6.6 0 0 1 .25-.04.3.3 0 0 1 .23.08s.06.1.14.1.1-.16.1-.16L6 6.63l.16.02.1-.08-.06-.06h-.15l-.26-.05H6a2.4 2.4 0 0 0-.4-.03c-.26 0 .03.1.03.1l.44.03L6 6.6l-.15-.05a.96.96 0 0 0-.36.08c-.1.06-.06-.07-.06-.07l.08-.1a.58.58 0 0 0-.32 0 .07.07 0 0 0-.03.1c-.15-.1-.15-.08-.15-.08s.2.18.15.22zm0 .42a.7.7 0 0 1-.17.05 1.36 1.36 0 0 0 .5-.04.6.6 0 0 1 .25-.07.3.3 0 0 1 .23.08s.06.1.14.1.1-.15.1-.15L6 7.03h.16l.1-.07-.06-.07h-.15l-.26-.06H6a2.4 2.4 0 0 0-.4-.03c-.26 0 .03.1.03.1l.44.04L6 7l-.15-.04a.96.96 0 0 0-.36.08c-.1.06-.06-.07-.06-.07l.08-.1a.58.58 0 0 0-.32 0 .07.07 0 0 0-.03.1c-.15-.1-.15-.07-.15-.07s.2.2.15.22zm.67-2.15a.3.3 0 0 0-.03.1.1.1 0 0 0-.07-.04A1 1 0 0 0 5.38 5a.12.12 0 0 1 .04.16c-.04.1-.07-.06-.07-.06l-.1-.06-.02.06.1.1.04.16-.15-.03v.12h.18l.12.12-.07.1.05.12.07-.1.1-.07.1.07.05.1.03.06.1-.08a.54.54 0 0 0-.06-.23l.03-.13s.07.03 0-.14a.94.94 0 0 1-.06-.32l.1.06.02-.06v-.04zm-.13.44a.4.4 0 0 1 0-.2.3.3 0 0 0 .1-.1.7.7 0 0 1-.02.1l.04.18v.1s-.1 0-.12-.05z"/>
</svg>
