<svg xmlns="http://www.w3.org/2000/svg" viewBox="0 0 17.76 19.96">
  <path d="M8.88 19.96A18.17 18.17 0 0 1 2.76 19C.98 18.36 0 17.4 0 16.38s.98-1.98 2.76-2.64a18.2 18.2 0 0 1 6.12-.95 18.2 18.2 0 0 1 6.12.94c1.78.66 2.76 1.6 2.76 2.64S16.78 18.35 15 19a17.96 17.96 0 0 1-6.12.96zm0-6.3a17.4 17.4 0 0 0-5.8.9c-1.4.52-2.2 1.18-2.2 1.8s.8 1.3 2.2 1.82a17.2 17.2 0 0 0 5.8.9 17.4 17.4 0 0 0 5.8-.9c1.4-.52 2.2-1.17 2.2-1.8s-.8-1.3-2.2-1.82a17.44 17.44 0 0 0-5.8-.9zm-2.48 3.7a3.55 3.55 0 0 1-1.2-.2c-.64-.22-.73-.6-.73-.8s.1-.56.72-.8a3.64 3.64 0 0 1 1.2-.2 3.55 3.55 0 0 1 1.2.2c.6.24.7.6.7.8s-.1.58-.72.8a3.55 3.55 0 0 1-1.2.2zm-.8-1a2.66 2.66 0 0 0 .8.1 2.66 2.66 0 0 0 .8-.1 2.6 2.6 0 0 0-.8-.1 2.6 2.6 0 0 0-.8.1zm-.7.44a.45.45 0 0 1-.44-.44V.46a.45.45 0 1 1 .9 0v15.9a.45.45 0 0 1-.45.45zm0-9.7a.45.45 0 0 1-.16-.86l6.58-2.7L4.74.87A.43.43 0 0 1 4.5.62a.4.4 0 0 1 0-.34.44.44 0 0 1 .4-.28.47.47 0 0 1 .18.03l7.6 3.1a.44.44 0 0 1 0 .82l-7.6 3.12a.47.47 0 0 1-.17.04zM14 17.62a1.25 1.25 0 1 1 1.26-1.25A1.25 1.25 0 0 1 14 17.62zm0-1.6a.36.36 0 1 0 .37.35A.36.36 0 0 0 14 16z"/>
</svg>
