<svg xmlns="http://www.w3.org/2000/svg" viewBox="0 0 100 100">
  <path d="M61.4 27.34l-.12.02a2.73 2.73 0 0 0 .84 5.4l.1-.03A2.7 2.7 0 0 0 64 31.6a2.73 2.73 0 0 0-2.6-4.26zm.97 3.13a.75.75 0 0 1-1.36-.3.76.76 0 0 1 .66-.87.75.75 0 0 1 .84.6.74.74 0 0 1-.13.57zm22.93 4.4a2.5 2.5 0 0 0-1.64-2.07l-15.64-5.66a11.43 11.43 0 0 0-4.64-5.27 18.67 18.67 0 0 0-10.36-2.26l-13.6.56-2.63-1.35c-2.86-1.7-10.75-1.65-18.68 3.8l-1.67 1.17L28.2 29.1a11.98 11.98 0 0 0 2.06 1.84 32.74 32.74 0 0 0-1.22 9.14 17.5 17.5 0 0 1-2.56 5.64c-1.18 1-4.42 1.9-8.68 2.35a1.72 1.72 0 0 0-1.15 2.8L35.72 82l.1.2 1.05-1.1c3.77-3.95 9.9-20.42 11.72-25.43a2.5 2.5 0 0 0 .6-1.35c.35-3.1 1.1-9.54 4.73-10.03 2.1-.3 4.74.45 7.05 1.2a23 23 0 0 0 10.06 1.13 14 14 0 0 0 9.48-5.3 6.04 6.04 0 0 0 4.76-6.47zm-49.7-14.1c.5.32 1.02.6 1.52.85a19.18 19.18 0 0 0 3.53 1.42 4.43 4.43 0 0 1-1.35.5 6.6 6.6 0 0 1-5.75-1.6 6.63 6.63 0 0 0-3.94-1.6c2.9-.44 5.1-.1 6 .44zm.55 57.52L18.98 50.23a25.66 25.66 0 0 0 7.8-2c1.1.53 4.4 1.96 19.13 8.03-1.9 5.2-6.52 17.3-9.74 22zm43.5-39.13l-.46.1-.3.38a11.62 11.62 0 0 1-8.16 4.7 20.7 20.7 0 0 1-9.06-1.05c-2.55-.8-5.48-1.65-8.07-1.3-5.25.7-6.23 8-6.63 11.32h-.02l-.06.16c0 .02-.1.24-.23.63-6.9-2.82-15-6.2-18-7.5a22.74 22.74 0 0 0 2.6-6.04l.07-.2v-.23a28.05 28.05 0 0 1 .98-8.02c3.5 1.5 7.28.8 10.97-2l.12-.07-1.38-1.85-.14.1c-7.2 5.42-11.9-.54-12.1-.8l-.15-.2-8.3-3.8c3.47-.9 8.84-1.57 10.56.1A8.86 8.86 0 0 0 38.03 26a8.52 8.52 0 0 0 1.75-.2 5.4 5.4 0 0 0 4.1-3.1l.16-.43 9.07-.36a16.4 16.4 0 0 1 9.1 1.95 8.98 8.98 0 0 1 3.86 4.6l.2.5 16.62 6.03a.2.2 0 0 1 .13.16 3.75 3.75 0 0 1-3.34 4.05z"/>
</svg>
