<svg xmlns="http://www.w3.org/2000/svg" viewBox="0 0 13.74333 19.906">
  <path d="M9.03 4a1.67 1.67 0 0 0 .16 3.34.86.86 0 0 0 .14 0A1.67 1.67 0 1 0 9.04 4zm1.25 1.57a1.1 1.1 0 1 1-1.2-.98c.05 0 .08-.03.12-.03a1.1 1.1 0 0 1 1.08 1zM8.4 2.74a.57.57 0 0 0 .14 0 1.38 1.38 0 0 0 .92-.5 1.34 1.34 0 0 0 .3-1 1.37 1.37 0 0 0-2.72.26A1.38 1.38 0 0 0 8.4 2.74zm0-2.16a.8.8 0 0 1 .6 1.3.83.83 0 0 1-.52.28.8.8 0 0 1-.68-1.3.77.77 0 0 1 .53-.27.25.25 0 0 1 .08-.03zM3.6 11.5a.3.3 0 0 0-.18-.07H3.4a.27.27 0 0 0-.2.1L.58 15a1.1 1.1 0 0 0 .7 1.78L.23 18.1a1.16 1.16 0 0 0-.23.83 1.12 1.12 0 0 0 .43.74 1.15 1.15 0 0 0 .7.24 1.1 1.1 0 0 0 .87-.4l4.27-5.55a.28.28 0 0 0-.05-.4zM.8 19.22a.55.55 0 0 1-.1-.76l1.55-2h.02l.08-.1 2.46-3.22.87.66-4.1 5.33a.6.6 0 0 1-.76.1zm.23-3.88l2.46-3.22.83.66-2.55 3.3a.54.54 0 0 1-.68 0 .53.53 0 0 1-.2-.35.54.54 0 0 1 .1-.4zm12.7-3.94a1.04 1.04 0 0 0-.43-.67l-8.25-5.7L6.5 2.78a1.03 1.03 0 0 0-.3-1.43 1 1 0 0 0-.57-.16 1.03 1.03 0 0 0-.87.46l-2 3.1a1.03 1.03 0 0 0 .3 1.4l2.5 1.74-1.78 2.55a.45.45 0 0 0 .1.62l2.6 1.95a.44.44 0 0 0 .28.1.45.45 0 0 0 .36-.2l1.96-2.6 3.04 2.1a1.07 1.07 0 0 0 .58.2 1.04 1.04 0 0 0 .86-.45 1 1 0 0 0 .17-.77zm-.64.44a.5.5 0 0 1-.66.12L9.2 9.7a.28.28 0 0 0-.4.07L6.74 12.5l-2.42-1.82 1.88-2.7a.33.33 0 0 0 .05-.22.26.26 0 0 0-.12-.18l-2.75-1.9a.45.45 0 0 1-.12-.6l2-3.1a.47.47 0 0 1 .62-.15.5.5 0 0 1 .2.3.48.48 0 0 1-.06.34l-1.6 2.5a.28.28 0 0 0 .07.38l8.46 5.86a.44.44 0 0 1 .2.3.45.45 0 0 1-.08.35z"/>
</svg>
