<svg xmlns="http://www.w3.org/2000/svg" viewBox="0 0 21.66971 21.66968">
  <path d="M20.34 8.7h-.03a10 10 0 0 0-7.4-7.55h-.03v-.02A1.9 1.9 0 0 0 11.13 0h-.6a1.9 1.9 0 0 0-1.68 1v.02h-.02A10 10 0 0 0 .8 9H.76A1.9 1.9 0 0 0 0 10.54v.6a1.9 1.9 0 0 0 .78 1.53v.03a10 10 0 0 0 8.06 7.95h.02v.02a1.9 1.9 0 0 0 1.67 1h.6a1.9 1.9 0 0 0 1.74-1.13v-.02h.02a10 10 0 0 0 7.4-7.55v-.02h.03a1.9 1.9 0 0 0 1.33-1.82v-.6a1.9 1.9 0 0 0-1.33-1.82zm-7.4-3.55a1.9 1.9 0 0 0 .1-.53v-2.6l.05.03a9.14 9.14 0 0 1 6.3 6.52l.04.06h-2.4a1.9 1.9 0 0 0-.67.12l-.04.02-.02-.05a6.12 6.12 0 0 0-3.33-3.5l-.03-.03zM9.47 1.9A1.07 1.07 0 0 1 10.53.85h.6A1.07 1.07 0 0 1 12.2 1.9v2.72a1.07 1.07 0 0 1-1.07 1.06h-.6a1.07 1.07 0 0 1-1.07-1.06zM1.73 8.6a9.06 9.06 0 0 1 6.85-6.7h.06v2.73a1.9 1.9 0 0 0 .04.37v.04h-.04A6.2 6.2 0 0 0 4.87 8.6v.03h-.03a1.93 1.93 0 0 0-.22 0h-2.9zm-.9 2.55v-.6A1.07 1.07 0 0 1 1.9 9.47h2.73a1.07 1.07 0 0 1 1.06 1.08v.6a1.07 1.07 0 0 1-1.07 1.07h-2.7a1.07 1.07 0 0 1-1.08-1.07zm7.84 5.55a1.9 1.9 0 0 0-.04.37v2.7h-.06a9.07 9.07 0 0 1-6.84-6.66V13h2.9a1.86 1.86 0 0 0 .22 0h.04v.05a6.2 6.2 0 0 0 3.72 3.6h.04zm3.53 3.1a1.07 1.07 0 0 1-1.07 1.06h-.6a1.07 1.07 0 0 1-1.07-1.07v-2.73A1.07 1.07 0 0 1 10.53 16h.6a1.07 1.07 0 0 1 1.07 1.07zm.34-4.06h-.03v-.02a1.9 1.9 0 0 0-1.36-.57h-.6a1.9 1.9 0 0 0-1.47.7l-.02.04H9a5.35 5.35 0 0 1-3.33-3.1v-.05l.03-.02a1.9 1.9 0 0 0 .84-1.57v-.6A1.9 1.9 0 0 0 5.7 9l-.04-.03V8.9A5.35 5.35 0 0 1 9 5.8l.05-.02.02.02a1.9 1.9 0 0 0 1.47.7h.6a1.88 1.88 0 0 0 1.36-.55v-.02h.04a5.25 5.25 0 0 1 3.08 3.3v.06a1.9 1.9 0 0 0-.47 1.22v.6a1.9 1.9 0 0 0 .46 1.25h.03v.04a5.25 5.25 0 0 1-3.08 3.3zm6.88-2.63a9.14 9.14 0 0 1-6.34 6.5l-.06.04v-2.58a1.9 1.9 0 0 0-.08-.54v-.03l.04-.03a6.12 6.12 0 0 0 3.34-3.5v-.06h.06a1.88 1.88 0 0 0 .67.14h2.38zm1.4-1.97a1.07 1.07 0 0 1-1.06 1.07h-2.7a1.07 1.07 0 0 1-1.08-1.08v-.6a1.07 1.07 0 0 1 1.07-1.07h2.7a1.07 1.07 0 0 1 1.08 1.08z"/>
</svg>
