<svg xmlns="http://www.w3.org/2000/svg" viewBox="0 0 19.9726 16.77">
  <path d="M9.98 16.77a2.1 2.1 0 1 1 2.1-2.1 2.1 2.1 0 0 1-2.1 2.1zm0-3.5a1.4 1.4 0 1 0 1.4 1.4 1.4 1.4 0 0 0-1.4-1.4zm-4.18-12L6.4.9l1.84 2.97-.42.62-2-3.25zM16.38 15.1c-1.44 0-2.5-.73-3.42-2.35L10.1 8.13a.1.1 0 0 0-.2 0L7 12.76c-.92 1.62-1.97 2.34-3.4 2.34a2.8 2.8 0 0 1-.3 0 3.02 3.02 0 0 1-2.15-1A4.27 4.27 0 0 1 0 11.04 1.67 1.67 0 0 1 1.26 9.6a1.24 1.24 0 0 1 .33-.03 1.52 1.52 0 0 1 1.05.42 1.6 1.6 0 0 1 .45 1 1.66 1.66 0 0 0 .27.87.27.27 0 0 0 .18.08.6.6 0 0 0 .12-.02c.16-.06.43-.2.85-.8L12.17 0l.57.4L7.7 7.7a.1.1 0 0 0-.02.1.22.22 0 0 0 .05.07l.97.6a.14.14 0 0 0 .06.03h.03a.13.13 0 0 0 .05-.05L13.55.9l.6.37-2.57 4.12a.12.12 0 0 0 0 .1l3.87 5.63c.47.67.75.77.85.8a.25.25 0 0 0 .12.02.3.3 0 0 0 .18-.07 1.74 1.74 0 0 0 .28-.9 1.53 1.53 0 0 1 .45-1 1.58 1.58 0 0 1 1.06-.44 1.24 1.24 0 0 1 .3.04A1.7 1.7 0 0 1 19.96 11a4.3 4.3 0 0 1-1.14 3.07 2.98 2.98 0 0 1-2.14.98l-.3.02zm-2.83-5.43a.14.14 0 0 0-.06.02l-1.1.65a.12.12 0 0 0-.03.16l1.17 1.88c.8 1.4 1.66 2 2.84 2a2.35 2.35 0 0 0 .25 0h.03a2.28 2.28 0 0 0 1.66-.78 3.73 3.73 0 0 0 .96-2.5 1 1 0 0 0-.72-.85 1.1 1.1 0 0 0-.18-.02.84.84 0 0 0-.57.23.9.9 0 0 0-.23.6 2.35 2.35 0 0 1-.54 1.35.95.95 0 0 1-.62.24 1.07 1.07 0 0 1-.34-.06 2.58 2.58 0 0 1-1.2-1.06l-1.24-1.8a.14.14 0 0 0-.1-.07zm-11.98.58a1.1 1.1 0 0 0-.18.02.98.98 0 0 0-.73.84 3.74 3.74 0 0 0 .96 2.53 2.28 2.28 0 0 0 1.66.78h.02a2.1 2.1 0 0 0 .25 0c1.18 0 2.02-.6 2.83-2l1.18-1.87a.1.1 0 0 0-.04-.16L6.47 9.7a.14.14 0 0 0-.06-.03.12.12 0 0 0-.1.05l-1.22 1.8a2.58 2.58 0 0 1-1.18 1.06 1.07 1.07 0 0 1-.36.06 1 1 0 0 1-.62-.23 2.17 2.17 0 0 1-.53-1.34.97.97 0 0 0-.27-.58.76.76 0 0 0-.55-.23h-.03zm5.7-1.83a.12.12 0 0 0-.1.05l-.33.48a.1.1 0 0 0-.02.1.22.22 0 0 0 .05.07l1.03.64a.14.14 0 0 0 .06.02H8a.13.13 0 0 0 .06-.05l.3-.5a.13.13 0 0 0-.03-.17l-1-.63a.07.07 0 0 0-.06 0zm5.42 0a.14.14 0 0 0-.08.02l-1 .63a.13.13 0 0 0-.05.17l.3.5c.03.03.05.05.08.05H12a.14.14 0 0 0 .05-.04l1.03-.64a.1.1 0 0 0 .05-.08.1.1 0 0 0-.02-.1l-.3-.47a.1.1 0 0 0-.1-.06zM11.13 6.2a.1.1 0 0 0-.1.05l-.62 1a.15.15 0 0 0 0 .13l.66 1.07c0 .03.03.05.06.05h.03a.14.14 0 0 0 .05-.02l.97-.6a.1.1 0 0 0 .04-.1.1.1 0 0 0-.02-.08l-1-1.47a.1.1 0 0 0-.1-.04zM7.22.4l.56-.4 1.57 2.27-.42.6L7.23.4z"/>
</svg>
