<svg xmlns="http://www.w3.org/2000/svg" viewBox="0 0 18.83402 20.15045">
  <path d="M14.08 7.58a5.6 5.6 0 0 0-.63.04 6.4 6.4 0 0 0 .72-2.87 4.75 4.75 0 1 0-9.5 0 5.57 5.57 0 0 0 .82 2.8A4.75 4.75 0 1 0 4.73 17a6.1 6.1 0 0 0 2.82-.75 13.68 13.68 0 0 1-1.7 2.52l-.1.14v1.24h7.4V18.9l-.12-.13a13.7 13.7 0 0 1-1.64-2.44 5.54 5.54 0 0 0 2.68.74 4.75 4.75 0 0 0 0-9.5zm-1.9 11.62H6.75a14.38 14.38 0 0 0 2.4-4.2l.3-.9.3.86a14.37 14.37 0 0 0 2.4 4.24zm1.9-3.06a5.05 5.05 0 0 1-3.5-1.66l-.9-.97-.17-.17-.2.24-.93.94a5.3 5.3 0 0 1-3.6 1.55 3.8 3.8 0 1 1-.02-7.6 4.62 4.62 0 0 1 1.8.38l2.1.88-1.6-1.64a5.05 5.05 0 0 1-1.43-3.3 3.8 3.8 0 0 1 7.62 0 5.43 5.43 0 0 1-1.14 3.27l-.96 1.2 1.47-.45a5 5 0 0 1 1.5-.24 3.8 3.8 0 0 1 0 7.6z"/>
</svg>
