<svg xmlns="http://www.w3.org/2000/svg" viewBox="0 0 20.01 16.95">
  <circle cx="5.93" cy="6.08" r=".53"/>
  <path d="M19.95 3.17h-.22a7.37 7.37 0 0 0-2.08.3 3 3 0 0 0-2.1-3.35A2.94 2.94 0 0 0 14.7 0a3 3 0 0 0-2.85 2.14 3.82 3.82 0 0 0-.1.57l-1.4.9-.9.6H12l.16.46-.3 1.62.8-.18.52 1.3 1.55-.72.6.26-.88 1.52-3.2-1.5-9.95 4.36-.5-.28.23-.82L6.66 3.9a.33.33 0 0 0 .1-.4 1.67 1.67 0 0 1 .4-2.02 1.65 1.65 0 0 1 .6 1.28 1.7 1.7 0 0 1-.14.67.34.34 0 0 0 .1.4l.82.65.8-.22-1.02-.8a2.26 2.26 0 0 0 .1-.7 2.35 2.35 0 0 0-.34-1.2 2.03 2.03 0 0 0-.73-.78.35.35 0 0 0-.18-.05.37.37 0 0 0-.18.05 2.32 2.32 0 0 0-1.1 1.98 2.28 2.28 0 0 0 .13.78L.4 9.98 0 11.4l2.48 1.38 5.96-2.57c.25.53 2.48 6.56 2.48 6.56a.35.35 0 0 0 .24.2h.06a.37.37 0 0 0 .24-.1l4.85-4.96a.33.33 0 0 0 0-.48l-1.26-1.04-.44.5 1.04.84-4.32 4.32s-2.17-5.9-2.4-6.38a.34.34 0 0 0-.3-.18.2.2 0 0 0-.1.02L2.54 12 2 11.7l9.23-4.05 3.47 1.63 1.55-2.65-1.53-.66-1.2.56-.48-1.2-.37.1.15-.83-.4-1.05h-.8l.75-.5V2.9a2.8 2.8 0 0 1 .1-.6A2.35 2.35 0 0 1 14.7.64a2.16 2.16 0 0 1 .67.1 2.33 2.33 0 0 1 1.6 2.86 8.44 8.44 0 0 1-.8.65l-.03.05.37.52.84-.55a7.06 7.06 0 0 1 2.4-.45H20v-.64z"/>
</svg>
