<svg xmlns="http://www.w3.org/2000/svg" viewBox="0 0 20 16.02">
  <path d="M4.26 9.16a2.13 2.13 0 1 0-2.13 2.13 2.13 2.13 0 0 0 2.13-2.15zm-3.56 0a1.42 1.42 0 1 1 1.42 1.42A1.43 1.43 0 0 1 .7 9.16zM19.1 1.5L17.95 0 4.6 11.5l-1.9.82-.04.04a2.34 2.34 0 0 0-.8 1.82 2.04 2.04 0 0 0 1.7 1.8 2.2 2.2 0 0 0 .37.04 2 2 0 0 0 1.52-.67l.88-1.47 11.1-10.55.4-.08.48.63L20 2.6zm-7.42 4.96l.86-.74.76.47-.8.75zm.4.87l-.77.74-.85-.54.82-.7zm.87-1.97l.82-.7.7.42-.8.73zM5.7 13.38l-.86 1.46a1.27 1.27 0 0 1-1.14.36 1.23 1.23 0 0 1-1.04-1.1 1.55 1.55 0 0 1 .48-1.1l1.9-.82 5-4.3.9.55zm12.77-10.6l-.3-.4-1.1.22-2.22 2.1-.66-.4 3.63-3.15.64.83.4.5z"/>
</svg>
