<svg xmlns="http://www.w3.org/2000/svg" viewBox="0 0 94.07001 38.2">
  <path d="M14.7 15.55a12.08 12.08 0 0 1 .57-3.73A10.67 10.67 0 0 0 14.1 9.4a13.7 13.7 0 0 0-1 2.64 9 9 0 0 1 .73 3.5 9.06 9.06 0 0 1-.75 3.53 13.14 13.14 0 0 0 1 2.64 11.5 11.5 0 0 0 1.23-2.52 11.7 11.7 0 0 1-.6-3.62zm-1.82-2.72a13.14 13.14 0 0 0-.3 2.7 14.08 14.08 0 0 0 .28 2.74 8.15 8.15 0 0 0 .02-5.44zm1.46 9.42A12.14 12.14 0 0 0 15.57 24a12.14 12.14 0 0 0 1.23-1.77A12.16 12.16 0 0 1 15.57 20a12.16 12.16 0 0 1-1.23 2.25zm2.4-13.4a13.75 13.75 0 0 0-1.16-1.72 13.75 13.75 0 0 0-1.16 1.73A11.2 11.2 0 0 1 15.57 11a11.2 11.2 0 0 1 1.17-2.14zm-1.17 9.3a11.13 11.13 0 0 0 .32-2.6 11.73 11.73 0 0 0-.34-2.72 11.73 11.73 0 0 0-.32 2.7 11.13 11.13 0 0 0 .32 2.62zm2.23-2.6a8.45 8.45 0 0 0 .5 2.73 14.08 14.08 0 0 0 .26-2.73 13.14 13.14 0 0 0-.3-2.7 8.5 8.5 0 0 0-.45 2.7zm.26-3.55A13.7 13.7 0 0 0 17 9.4a10.67 10.67 0 0 0-1.17 2.4 12.08 12.08 0 0 1 .58 3.74 11.7 11.7 0 0 1-.56 3.62 11.5 11.5 0 0 0 1.23 2.54 13.14 13.14 0 0 0 1-2.64 8.76 8.76 0 0 1 0-7.06zM15.63 0L0 15.63l15.63 15.62 15.62-15.62zM4.87 16.55a1 1 0 1 1 1-1 1 1 0 0 1-1 1zm2.6 1.6l-.2-.15a3.56 3.56 0 0 0 1-2.4 3.4 3.4 0 0 0-1-2.4l.2-.22a3.7 3.7 0 0 1 1 2.6 3.88 3.88 0 0 1-1 2.56zM9 19.7a5.85 5.85 0 0 0 .06-8.26L9 11.38l.27-.27a6.23 6.23 0 0 1 .06 8.83l-.06.06zm10.87 2.1a8.46 8.46 0 0 1-1.4-1.87 13.66 13.66 0 0 1-1 2.37 12 12 0 0 0 1 1.15l-.4.38a12.66 12.66 0 0 1-.85-1A12.73 12.73 0 0 1 16 24.5c.2.2.38.42.58.6l-.44.48-.58-.6-.58.6-.44-.47c.2-.17.4-.4.58-.6a12.73 12.73 0 0 1-1.2-1.67 12.66 12.66 0 0 1-.86 1l-.4-.38a12 12 0 0 0 1-1.15 13.65 13.65 0 0 1-1-2.38 8.46 8.46 0 0 1-1.4 1.88l-.32-.33a8.16 8.16 0 0 0 1.54-2.2 14.6 14.6 0 0 1-.5-3.74 13.85 13.85 0 0 1 .52-3.7 8.22 8.22 0 0 0-1.57-2.24l.33-.35a8.64 8.64 0 0 1 1.43 1.9 14.4 14.4 0 0 1 1-2.36 11.2 11.2 0 0 0-1-1.2l.37-.4A11.83 11.83 0 0 1 14 8.3a14.4 14.4 0 0 1 1.14-1.67l-.6-.66.45-.46c.2.2.37.43.56.64.2-.2.37-.43.57-.63l.46.5c-.2.2-.4.43-.6.65a14.4 14.4 0 0 1 1.14 1.67 11.83 11.83 0 0 1 .93-1.06l.4.4a11.2 11.2 0 0 0-1 1.17 14.4 14.4 0 0 1 1 2.37 8.63 8.63 0 0 1 1.42-1.9l.32.33a8.2 8.2 0 0 0-1.57 2.23 13.85 13.85 0 0 1 .52 3.7 14.6 14.6 0 0 1-.5 3.74 8.16 8.16 0 0 0 1.54 2.2zm2.2-2.1l-.23.3a6.23 6.23 0 0 1-.06-8.8l.06-.07.27.27a5.85 5.85 0 0 0-.02 8.27l.04.04zm1.56-1.56a3.88 3.88 0 0 1-1-2.6 3.7 3.7 0 0 1 1-2.6l.2.22a3.4 3.4 0 0 0-1 2.4 3.56 3.56 0 0 0 1 2.4zm2.6-1.6a1 1 0 1 1 1-1 1.08 1.08 0 0 1-.96 1zm26.04 9.3c0-.8-.5-1.2-1.7-1.2h-1l-.1 2.36h1c1.2 0 1.8-.25 1.8-1.15zM50.47 29h-1.2l.2 2.4h1.2c1.6 0 2.1-.3 2.1-1.2s-.5-1.2-2.3-1.2zM31 18.35l-14.5 17.9L8.77 27v11.2h85.3V18.35zm7.7 15h-2.6V23h2.6v10.35zm4.2-4a1.3 1.3 0 1 1 1.3-1.3 1.32 1.32 0 0 1-1.33 1.3zm10.7 3.9a5 5 0 0 1-1.9.2h-4.6V23h3.8a5 5 0 0 1 2 .2 2.54 2.54 0 0 1 2 2.4 2.48 2.48 0 0 1-1.4 2.1 2.57 2.57 0 0 1 2.1 2.7 3 3 0 0 1-2.03 2.85zm5.7-3.9a1.3 1.3 0 1 1 1.3-1.3 1.32 1.32 0 0 1-1.33 1.3zm11.3 3.9l-.8-2h-4.6l-.8 2.1h-2.7L65.87 23h3l4.5 10.2h-2.8zm5.1-3.9A1.3 1.3 0 1 1 77 28a1.32 1.32 0 0 1-1.3 1.35h-.03zm7.6 4a9.72 9.72 0 0 1-2.7-.5 1.52 1.52 0 0 1-.9-.5v-2.2a9.66 9.66 0 0 0 1.7.9 4.33 4.33 0 0 0 1.9.4q1.5 0 1.5-.9c0-.5-.4-.8-1.4-1.2l-.5-.2a9.13 9.13 0 0 1-1.7-.8 3.9 3.9 0 0 1-1-.8 3.16 3.16 0 0 1-.7-1.9c0-1.8 1.5-2.9 3.9-2.9a8 8 0 0 1 3.5.8v2.1l-.1.1-.2-.1a7.07 7.07 0 0 0-3.1-.9c-.9 0-1.5.3-1.5.8s.5.8 1.7 1.2l.8.3c2 .7 2.8 1.7 2.8 3.2-.03 1.75-1.63 3.1-4.03 3.1zm-17.43-3.9h3.1l-1.7-4-1.4 4z"/>
</svg>
