<svg xmlns="http://www.w3.org/2000/svg" viewBox="0 0 20.01665 16.37">
  <path d="M6.82 10.8c2.65 0 3.86-.8 3.86-1.54v-2a.13.13 0 0 0 0-.07.1.1 0 0 1 0-.1V7c0-.73-1.2-1.53-3.86-1.53S2.96 6.27 2.96 7a.4.4 0 0 0 0 .1v.1a.13.13 0 0 0 0 .06v1.98c0 .75 1.2 1.55 3.86 1.55zm-3.2-2.76A.2.2 0 0 1 3.7 8a.3.3 0 0 1 .1.03 6.98 6.98 0 0 0 3 .53 6.98 6.98 0 0 0 3-.53.3.3 0 0 1 .1-.03.2.2 0 0 1 .1.04.2.2 0 0 1 .1.18V9.3c-.07.4-1.26.95-3.3.95S3.6 9.7 3.5 9.3V8.24a.24.24 0 0 1 .1-.2zm6.5-.98c-.1.4-1.27.95-3.3.95-2.04 0-3.23-.53-3.3-.92a.22.22 0 0 1 0-.08c.07-.4 1.25-.96 3.3-.96 2.02 0 3.2.55 3.3.94a.1.1 0 0 1 0 .08zm9.7-6.64a1.24 1.24 0 0 0-.94-.42 1.2 1.2 0 0 0-1.02.55.08.08 0 0 0-.02.04c-.04.1-4.3 9.6-5.47 10.95a4.9 4.9 0 0 1-3.44 1.37q-.27 0-.57-.03l-6.24-1.2a1.45 1.45 0 0 0-.3-.03 1.87 1.87 0 0 0-1.8 1.73A2.25 2.25 0 0 0 .4 15a2.4 2.4 0 0 0 1.67.9h.02l6.36.46h.4c.94 0 3.3-.15 4.52-1.6a8.66 8.66 0 0 0 1.24-2.03c.72-1.67 4.9-10.52 5.36-11.52L20 1.2a.14.14 0 0 0 0-.08.77.77 0 0 0-.18-.68zM9.64 15.8a.2.2 0 0 1-.14-.07.24.24 0 0 1-.07-.16l.04-1.93a.2.2 0 0 1 .18-.2 5.45 5.45 0 0 0 3.02-1.38.2.2 0 0 1 .14-.06.3.3 0 0 1 .1.02l1 .47a.2.2 0 0 1 .1.26 8.06 8.06 0 0 1-1.04 1.64 5 5 0 0 1-3.3 1.4zm3.4-4.05a.17.17 0 0 1 .02-.17l.2-.3a.2.2 0 0 1 .18-.1.3.3 0 0 1 .1 0l.77.38a.2.2 0 0 1 .1.27l-.13.34a.22.22 0 0 1-.12.1.17.17 0 0 1-.07.02.3.3 0 0 1-.1-.04l-.82-.4a.2.2 0 0 1-.12-.12zm.63-.74a.22.22 0 0 1-.1-.1.18.18 0 0 1 0-.16c1.65-2.9 4.45-9.14 4.76-9.85 0 0 0-.04.02-.05a.65.65 0 0 1 .53-.27.66.66 0 0 1 .5.22.2.2 0 0 1 .06.08.18.18 0 0 1 0 .16c-.8 1.7-3.53 7.48-4.78 10.2a.22.22 0 0 1-.12.12.17.17 0 0 1-.07 0 .3.3 0 0 1-.1 0zM.84 14.7a1.76 1.76 0 0 1-.27-1.17c.15-.8.6-1.26 1.24-1.26a1.36 1.36 0 0 1 .23.02h.1a.2.2 0 0 1 .18.2l-.13 2.66a.18.18 0 0 1-.08.15.2.2 0 0 1-.13.05.1.1 0 0 1-.05 0 1.72 1.72 0 0 1-1.06-.64z"/>
</svg>
