<svg xmlns="http://www.w3.org/2000/svg" viewBox="0 0 17.66 19.96">
  <path d="M8.83 19.96A8.83 8.83 0 0 1 2.66 4.8l.04-.03-1.62-1.63.52-.52 1.66 1.66.04-.03a8.73 8.73 0 0 1 5.1-1.93h.06V.74H6.84V0h3.94v.74H9.2V2.3h.06a8.73 8.73 0 0 1 5.1 1.94l.04.03 1.66-1.66.52.54-1.63 1.63.04.04A8.83 8.83 0 0 1 8.8 19.98zm0-16.9a8.1 8.1 0 1 0 8.1 8.08 8.1 8.1 0 0 0-8.1-8.1zm0 14.9a6.84 6.84 0 1 1 6.86-6.83 6.87 6.87 0 0 1-6.88 6.82zM8.83 5a6.12 6.12 0 1 0 6.12 6.13A6.13 6.13 0 0 0 8.83 5zm-.37 6.5V5.85h.74v4.92h3.6v.73H8.45z"/>
</svg>
