<svg xmlns="http://www.w3.org/2000/svg" viewBox="0 0 21 21">
  <path d="M10.5 0A10.5 10.5 0 1 0 21 10.5 10.5 10.5 0 0 0 10.5 0zm0 20.2a9.7 9.7 0 0 1-9.7-9.7 9.7 9.7 0 1 1 9.7 9.7zm.04-6.14a.9.9 0 0 0-1 .2.92.92 0 0 0-.26.64.9.9 0 0 0 .26.64.84.84 0 0 0 .3.2.95.95 0 0 0 .7 0 .88.88 0 0 0 .3-.2.94.94 0 0 0 .18-.3.9.9 0 0 0-.48-1.18zm1.83-8.22a2.54 2.54 0 0 0-.85-.47 3.27 3.27 0 0 0-1.06-.17 3.7 3.7 0 0 0-.8.08 3.63 3.63 0 0 0-.7.23 3.72 3.72 0 0 0-.6.35 4.36 4.36 0 0 0-.5.4l.35.55a.3.3 0 0 0 .3.15.4.4 0 0 0 .23-.1 3.1 3.1 0 0 1 .35-.25 2.84 2.84 0 0 1 .53-.23 2.33 2.33 0 0 1 .77-.1 1.95 1.95 0 0 1 .6.08 1.48 1.48 0 0 1 .5.27 1.3 1.3 0 0 1 .34.43 1.28 1.28 0 0 1 .13.57 1.6 1.6 0 0 1-.17.77 2.4 2.4 0 0 1-.44.56 4.2 4.2 0 0 1-.54.45 6.4 6.4 0 0 0-.54.43 2.04 2.04 0 0 0-.4.46.9.9 0 0 0-.12.56l.08 1.2h.9l.12-1.1a.76.76 0 0 1 .2-.44 3.5 3.5 0 0 1 .46-.4l.55-.4a3.25 3.25 0 0 0 .55-.53 2.65 2.65 0 0 0 .42-.7 2.5 2.5 0 0 0 .16-.96 2.3 2.3 0 0 0-.2-.97 2.17 2.17 0 0 0-.56-.74z"/>
</svg>
