<svg xmlns="http://www.w3.org/2000/svg" viewBox="0 0 20 18.16126">
  <path d="M9.7 5.43V3.87h2.54v.83a.37.37 0 1 0 .74 0V3.5a.37.37 0 0 0-.37-.38H9.7a3.22 3.22 0 0 0-6.42 0H.38A.37.37 0 0 0 0 3.5v12.1a2.58 2.58 0 0 0 2.57 2.56h5.66a.37.37 0 1 0 0-.75H2.57a1.83 1.83 0 0 1-1.83-1.8V3.87h2.53v1.56a.37.37 0 0 0 .74 0V3.87H9v1.56a.37.37 0 1 0 .74 0zM4 3.13a2.48 2.48 0 0 1 4.96 0zm15.63 5.5h-2.27v-.5a2.63 2.63 0 0 0-5.25 0v.5H9.86a.37.37 0 0 0-.37.37v7.42a1.74 1.74 0 0 0 1.74 1.74h7.06A1.74 1.74 0 0 0 20 16.42V9a.37.37 0 0 0-.37-.38zm-6.78-.5a1.88 1.88 0 1 1 3.77 0v.5h-3.77zm6.4 8.3a1 1 0 0 1-1 1H11.2a1 1 0 0 1-1-1V9.36h1.9v1.04a.37.37 0 1 0 .76.03V9.36h3.77v1.04a.37.37 0 1 0 .74.02V9.36h1.9z"/>
</svg>
