<svg xmlns="http://www.w3.org/2000/svg" viewBox="0 0 19.58 20.16"><title>Jackpots</title><path d="M19.42 13a5.7 5.7 0 0 0-5.57-4.4h-.4a6.9 6.9 0 0 1 0-1.8 6.53 6.53 0 0 1 1-2.76.46.46 0 0 0 0-.1 21.18 21.18 0 0 1 3.06-.17h.1a.47.47 0 1 0 0-.93h-.1a16 16 0 0 0-5.26.66c-1.63.56-3.76 2.33-5.47 5.17a5.85 5.85 0 0 0-1.06-.1A5.78 5.78 0 1 0 9.26 19a.47.47 0 0 0-.56-.75 4.85 4.85 0 1 1-2.92-8.7 5 5 0 0 1 .57 0c-.28.53-.56 1.1-.8 1.7a.47.47 0 1 0 .86.35 17.86 17.86 0 0 1 .9-1.82 4.82 4.82 0 0 1 1.48.8.47.47 0 0 0 .58-.73A5.76 5.76 0 0 0 7.78 9C9.2 6.7 11 5 12.62 4.4c.23-.07.47-.14.7-.2a7.33 7.33 0 0 0-.8 2.5 7.84 7.84 0 0 0 0 2.06A5.7 5.7 0 1 0 19.4 13zm-5.56 6.16a4.8 4.8 0 0 1-1.16-9.43c.07.32.15.62.22.9a5.82 5.82 0 0 1 .24 1.22.47.47 0 0 0 .46.47.47.47 0 0 0 .47-.46 6.28 6.28 0 0 0-.28-1.46c-.06-.25-.13-.52-.2-.8h.24a4.8 4.8 0 0 1 0 9.58zM16.73 14.33a2.88 2.88 0 0 1-2.88 2.88.47.47 0 1 0 0 .94 3.82 3.82 0 0 0 3.8-3.8.47.47 0 1 0-.92 0zM7.37 16.7a2.86 2.86 0 0 1-1.65.5.47.47 0 0 0 0 .94 3.8 3.8 0 0 0 2.18-.68.47.47 0 0 0-.53-.77zM7.06 7.24h.1a.47.47 0 0 0 .1-.92 10 10 0 0 1-4.4-2.44c.77-.8 3-2.86 5.57-2.95a7.86 7.86 0 0 1 4.67 1.7.47.47 0 0 0 .55-.75A8.76 8.76 0 0 0 8.4 0C4.75.12 2 3.46 1.87 3.6l-.26.32.3.3a11.16 11.16 0 0 0 5.16 3.02z"/></svg>