<svg xmlns="http://www.w3.org/2000/svg" viewBox="0 0 21.49999 20.14949">
  <path d="M4.36 7.98a11.42 11.42 0 0 1-2.98-4.5c.4 0 1.03-.04 1.78-.05Q3.06 2.76 3 2.1H1.6c-.75.05-1.6.08-1.6.88 0 1.83 2.47 5.8 6 7.97l-.15-.2a13.06 13.06 0 0 1-1.5-2.77zM19.9 2.12h-1.4q-.06.67-.15 1.35c.74 0 1.34 0 1.77.04a11.56 11.56 0 0 1-3 4.57 13 13 0 0 1-1.47 2.7l-.2.3C19 8.93 21.5 4.87 21.5 3.02c0-.82-.86-.85-1.6-.88zM14.98 18.8a3.3 3.3 0 0 1-2.8-2.47H9.32a3.3 3.3 0 0 1-2.78 2.48.44.44 0 0 0-.38.47v.67a.22.22 0 0 0 .22.22h8.78a.22.22 0 0 0 .22-.22v-.67a.44.44 0 0 0-.38-.45zM9.4 14.96h2.7c.13-1.93 1.16-2.8 2.47-5a17.28 17.28 0 0 0 2.7-9.5.45.45 0 0 0-.1-.33.43.43 0 0 0-.32-.13H4.65a.43.43 0 0 0-.3.13.45.45 0 0 0-.13.33 17.37 17.37 0 0 0 2.7 9.5c1.32 2.2 2.34 3.07 2.5 5z"/>
</svg>
