<svg xmlns="http://www.w3.org/2000/svg" viewBox="0 0 19.87738 19.89">
  <path d="M13.16 13.73a.98.98 0 0 0 0-1.43l-.66-.66a1 1 0 0 0-.27-.2 1 1 0 0 0-.17-1.12l-.66-.66a1 1 0 0 0-.38-.23 1 1 0 0 0-.28-.88l-.66-.66a1 1 0 0 0-.75-.3 1 1 0 0 0-.26-.48l-.66-.66a1.02 1.02 0 0 0-1.4 0L5.84 7.6c-.1 0-.2.02-.3.04-2.15.5-2.52.88-2.64 1a3.36 3.36 0 0 0-1.07 2.45v.82a6.32 6.32 0 0 1-.04 1.4l-1 1 .54.54 1-1c.3-.3.3-.84.27-1.96v-.82a2.6 2.6 0 0 1 .86-1.9 6.5 6.5 0 0 1 2.27-.8.88.88 0 0 1 .83.24l2.7 2.7a2 2 0 0 1-.77.35 1.46 1.46 0 0 1-1.3-.25l-1.4-1.4-.56.55c.88.88 1.38 3.54.3 4.6l.56.56a3.66 3.66 0 0 0 .8-2.98 4.64 4.64 0 0 0-.12-.65 2.1 2.1 0 0 0 1.02.4 1.08 1.08 0 0 0 .26.47l.67.67a.98.98 0 0 0 .6.27 1.03 1.03 0 0 0 .28.64l.63.6-1.75 1.64a3.2 3.2 0 0 1-1.46.55 2.84 2.84 0 0 0-1.4.55l-.57.82.63.44.52-.74a2.93 2.93 0 0 1 1-.32 3.65 3.65 0 0 0 1.84-.76l1.94-1.8-.04-.05h.1a1.1 1.1 0 0 0 .74-.33zm-3.63-5.3l.66.67a.25.25 0 0 1 0 .34l-.33.3-.55.56L8.3 9.27l.9-.83a.24.24 0 0 1 .33 0zm-2.8-.62l.8-.77a.25.25 0 0 1 .33 0l.66.66a.23.23 0 0 1 0 .3l-.77.73-.64-.64a1.6 1.6 0 0 0-.35-.28zm1.9 4.64h.04a2.06 2.06 0 0 0 1.45-1l.1-.24-.34-.35.55-.55a.38.38 0 0 1 .26-.13.22.22 0 0 1 .14.05l.66.66c.1.08.07.27-.08.42l-.35.35L9.7 13c-.14.16-.33.18-.4.1zM11 14.7a.22.22 0 0 1-.16-.07l-.66-.66a.22.22 0 0 1-.06-.16.32.32 0 0 1 .1-.2l.04-.04 1.36-1.36a.22.22 0 0 1 .16-.1.25.25 0 0 1 .17.1l.66.65a.22.22 0 0 1 0 .34l-1.37 1.37a.4.4 0 0 1-.22.1zm8.58-3.5a4.93 4.93 0 0 1-3.48-2.6c-.56-1.33-.25-3.13.88-5.2a.38.38 0 0 0-.07-.45.4.4 0 0 0-.44-.07C14.4 4 12.6 4.3 11.26 3.76A4.93 4.93 0 0 1 8.65.28a.38.38 0 0 0-.74 0C7.32 2.3 6.42 3.6 5.2 4.1s-2.77.24-4.62-.77a.4.4 0 0 0-.46.06.38.38 0 0 0-.07.44l.2.36a4.75 4.75 0 0 1 .87 3.1l.77.07a4.83 4.83 0 0 0-.6-2.82 5.35 5.35 0 0 0 4.2.27 5.5 5.5 0 0 0 2.8-3.24 5.07 5.07 0 0 0 2.65 2.9 6.16 6.16 0 0 0 4.83-.4 6.16 6.16 0 0 0-.4 4.84 5.1 5.1 0 0 0 2.9 2.66 5.43 5.43 0 0 0-3.24 2.8 5.35 5.35 0 0 0 .27 4.2 4.84 4.84 0 0 0-3.86-.37l.24.76a4.55 4.55 0 0 1 4 .7l.33.2a.4.4 0 0 0 .2.04.4.4 0 0 0 .27-.12.4.4 0 0 0 .06-.46c-1.02-1.85-1.27-3.4-.77-4.62.5-1.22 1.78-2.14 3.8-2.73a.38.38 0 0 0 .28-.37.45.45 0 0 0-.3-.4z"/>
</svg>
