<svg xmlns="http://www.w3.org/2000/svg" viewBox="0 0 19.9663 18.66">
  <path d="M12.22 9.12a.44.44 0 0 0 .3-.13l.3-.3a1.9 1.9 0 0 1 .92-.5 5.28 5.28 0 0 0 1.7-.8 4.4 4.4 0 0 1 1.85-.76 3.44 3.44 0 0 0 1.84-.93c1.47-1.46.72-3.25-.46-4.44a6.1 6.1 0 0 0-.76-.63h-.02A3.3 3.3 0 0 0 16.08 0a2.54 2.54 0 0 0-1.83.8 3.37 3.37 0 0 0-.94 1.9 3.83 3.83 0 0 1-.65 1.7 5.34 5.34 0 0 0-.88 1.8 1.9 1.9 0 0 1-.5.93l-.3.28a.44.44 0 0 0-.12.36l-.86.88-.87-.86A.4.4 0 0 0 9 7.43l-.3-.28a1.9 1.9 0 0 1-.5-.93 5.16 5.16 0 0 0-.88-1.8 3.8 3.8 0 0 1-.66-1.7A3.3 3.3 0 0 0 5.72.8 2.54 2.54 0 0 0 3.9 0a3.3 3.3 0 0 0-1.85.62h-.02a4.8 4.8 0 0 0-.76.63C.1 2.47-.66 4.25.8 5.72a3.37 3.37 0 0 0 1.86.93 4.4 4.4 0 0 1 1.84.74 5.08 5.08 0 0 0 1.7.8 1.9 1.9 0 0 1 .94.5l.28.3a.46.46 0 0 0 .3.1h.04l.86.87-4.6 4.58a.54.54 0 0 0-.22.1l-.96.78a.66.66 0 0 0-.18.8A2.45 2.45 0 0 0 3.7 17.3a.73.73 0 0 0 .3.06.67.67 0 0 0 .5-.25l.78-.94a.54.54 0 0 0 .1-.23l4.6-4.6 4.58 4.6a.54.54 0 0 0 .1.22l.78.96a.67.67 0 0 0 .52.26.66.66 0 0 0 .3-.07 2.45 2.45 0 0 0 1.04-1.05.68.68 0 0 0-.18-.8l-.96-.78a.7.7 0 0 0-.23-.1l-4.6-4.6.87-.86c0 .03 0 .03.02.03zm1.56-2.46a2.72 2.72 0 0 1-.25-.23 2.72 2.72 0 0 1-.23-.25l-.05-.06c.92-.78 1.97-1.8 2.1-1.92l.23-.23a2.05 2.05 0 0 1 .23.2 2.2 2.2 0 0 1 .2.23l-.2.23c-.2.2-1.18 1.2-1.93 2.1a.44.44 0 0 0-.08-.07zm-.7-1.92a4 4 0 0 0 .4-.7 1.48 1.48 0 0 1 .13-.07 2.28 2.28 0 0 1 .97-.32 1.6 1.6 0 0 1 .5.05l-.1.1c-.12.1-1.14 1.1-2.04 1.87l-.02-.03a2.02 2.02 0 0 1-.17-.32 4.57 4.57 0 0 1 .36-.58zm4.3-3.8c-.22.3-.44.6-.66.87l-.62-.46c.17-.36.26-.6.3-.74a2.77 2.77 0 0 1 .97.35zm-1.75.08c-.14-.1-.28-.17-.43-.25a1.96 1.96 0 0 1 .62-.2 3.46 3.46 0 0 1-.2.45zm.75 1.22l-.05.06c-.3.35-.57.67-.85.97a2.25 2.25 0 0 0-.44-.14 14.7 14.7 0 0 0 .8-1.3c.18.12.36.26.54.4zm.7.64l.28.3c-.02 0-.03.02-.05.03-.3.28-.6.55-.9.8a1.5 1.5 0 0 0-.2-.22l-.23-.2.8-.92c0-.02.02-.03.03-.05a3.83 3.83 0 0 1 .28.3zm2.3.67a5.45 5.45 0 0 0-.75.3l-.48-.62.86-.65a3 3 0 0 1 .4.97zm-.2 1.2l-.24-.42c.2-.1.34-.15.45-.2a1.95 1.95 0 0 1-.2.63zm-1.04-.63c-.42.23-.86.5-1.3.8a2.44 2.44 0 0 0-.14-.44c.3-.28.62-.56.97-.85l.06-.05c.14.18.28.36.4.54zm-3 2.82a4.42 4.42 0 0 1-.5.3c-.1-.05-.2-.1-.3-.17l-.04-.02c.58-.68 1.35-1.5 1.88-2.05l.1-.1a1.6 1.6 0 0 1 .04.5 2.3 2.3 0 0 1-.3.94c-.04.06-.08.1-.1.17a4.12 4.12 0 0 0-.78.45zm2.07-.83a4.88 4.88 0 0 0-.53.14 2.76 2.76 0 0 0 .18-.65 18.53 18.53 0 0 1 1.6-1 7.58 7.58 0 0 1 .4.67.46.46 0 0 1-.08.07 2.84 2.84 0 0 1-1.55.78zm1.5-3.96l-.9.7c-.1-.12-.2-.23-.32-.34l-.33-.33.7-.92a4.45 4.45 0 0 1 .46.4c.1.12.26.28.4.48zm-4.06-.93a.46.46 0 0 0 .07-.06 7.73 7.73 0 0 1 .7.38 17.54 17.54 0 0 1-1 1.6 2.68 2.68 0 0 0-.64.2 4.02 4.02 0 0 0 .1-.5 2.8 2.8 0 0 1 .78-1.6zm-3 6.35a2.53 2.53 0 0 0 .67-1.2 2.4 2.4 0 0 1 .14-.4l.22.32v.02l.23.26a3.58 3.58 0 0 0 .25.3l.28.25.28.24c.1.08.23.15.33.22a3.84 3.84 0 0 1-.4.13 2.45 2.45 0 0 0-1.2.65l-.22.22a2.08 2.08 0 0 1-.43-.34 1.78 1.78 0 0 1-.34-.44zm-5.46-.88a.27.27 0 0 1-.06.05C5.52 6 4.74 5.17 4.2 4.6c-.1-.06-.16-.14-.24-.2a1.43 1.43 0 0 1 .2-.24 2.2 2.2 0 0 1 .23-.2l.2.23c.13.1 1.18 1.12 2.1 1.9a.43.43 0 0 1-.06.07 2.62 2.62 0 0 1-.22.25 1.94 1.94 0 0 1-.26.23zM1.82 4.12l.42-.54a.27.27 0 0 0 .06.05c.35.3.67.57.97.85a2.23 2.23 0 0 0-.13.44c-.46-.3-.9-.57-1.32-.8zm-1.25.02c.1.04.26.1.45.2-.1.13-.17.28-.25.42a1.95 1.95 0 0 1-.2-.62zm0-.6a3.13 3.13 0 0 1 .37-.96c.3.22.6.43.86.65l-.47.63C.96 3.7.7 3.6.58 3.56zm2.08-.33a.18.18 0 0 0-.05-.02 3.83 3.83 0 0 1 .28-.3l.3-.27a.18.18 0 0 0 .03.06l.8.9a1.5 1.5 0 0 0-.22.22 1.5 1.5 0 0 0-.2.23l-.92-.8zm.9-2.6a5.87 5.87 0 0 0 .3.74c-.2.15-.4.3-.6.48-.23-.27-.45-.56-.66-.85A2.74 2.74 0 0 1 3.54.6zm.78.43a4.15 4.15 0 0 1-.2-.44 1.96 1.96 0 0 1 .63.2 3.62 3.62 0 0 0-.43.23zm-.2.8c.22.42.48.86.78 1.3a1.67 1.67 0 0 0-.4.15c-.3-.3-.57-.62-.86-.97a.27.27 0 0 0-.05-.05q.26-.23.53-.42zm2.94 3.82l-.03.03C6.14 4.9 5.12 3.9 5 3.8l-.1-.1a1.64 1.64 0 0 1 .5-.05 2.32 2.32 0 0 1 .95.32l.13.08a3.9 3.9 0 0 0 .4.7 6.24 6.24 0 0 1 .37.57l-.18.32zM6.1 2.8l.1.5a2.26 2.26 0 0 0-.63-.18 16.72 16.72 0 0 1-1-1.6 6.6 6.6 0 0 1 .7-.4.46.46 0 0 0 .06.08 2.8 2.8 0 0 1 .78 1.6zM1.67 1.65a4.45 4.45 0 0 1 .47-.4l.7.9c-.12.1-.23.22-.34.33s-.23.2-.33.32l-.92-.7c.16-.2.3-.35.4-.46zM1.2 5.33a.46.46 0 0 1-.07-.07c.12-.23.24-.45.38-.68.53.28 1.07.6 1.63 1a2.83 2.83 0 0 0 .18.65 4.88 4.88 0 0 0-.54-.12 2.84 2.84 0 0 1-1.55-.76zM4.07 6.5a1.4 1.4 0 0 1-.1-.15 2.32 2.32 0 0 1-.32-.95 1.57 1.57 0 0 1 .05-.5l.1.1c.5.54 1.3 1.36 1.87 2.05 0 0-.02 0-.03.02l-.32.18a4.53 4.53 0 0 1-.5-.3 4.68 4.68 0 0 0-.75-.44zm2.27 1.17a3.84 3.84 0 0 1-.4-.13l.3-.22h.02a2.88 2.88 0 0 0 .27-.23 2.44 2.44 0 0 0 .3-.3c.08-.1.17-.2.25-.27a3.1 3.1 0 0 0 .23-.28h.03v-.02a3.62 3.62 0 0 0 .22-.32 3.84 3.84 0 0 1 .13.4 2.45 2.45 0 0 0 .66 1.2l.22.23a1.85 1.85 0 0 1-.34.44 1.78 1.78 0 0 1-.43.34l-.23-.2a2.7 2.7 0 0 0-1.2-.64zm-1.4 7.92a.35.35 0 0 0-.05.06s-.03 0-.03.02a.17.17 0 0 0-.02.1l-.77.97a.1.1 0 0 1-.14.03 1.66 1.66 0 0 1-.46-.34 1.73 1.73 0 0 1-.33-.45.12.12 0 0 1 .03-.14l.96-.77h.02a.25.25 0 0 0 .18-.1L9 10.38l.58.57zm11.82.26a.1.1 0 0 1 .03.13 1.66 1.66 0 0 1-.36.45 1.73 1.73 0 0 1-.45.33.12.12 0 0 1-.15-.04l-.77-.96-.02-.08a.06.06 0 0 0 0-.04.08.08 0 0 1-.03-.04.22.22 0 0 0-.03-.05v-.02l-4.84-4.84-.96-.95-.93-.93a3.84 3.84 0 0 0 .56-.57L15.57 15c.02 0 .03 0 .04.02.03 0 .05.03.07.04s.05 0 .08 0h.03zM10.36 9l.74-.72a2.35 2.35 0 0 0 .27.3 3.3 3.3 0 0 0 .3.26l-.73.73zm-.38 5.78a1.94 1.94 0 1 0 1.94 1.94 1.94 1.94 0 0 0-1.94-1.94zm0 3.32a1.4 1.4 0 1 1 1.4-1.4 1.4 1.4 0 0 1-1.4 1.4z"/>
</svg>
