<svg xmlns="http://www.w3.org/2000/svg" viewBox="0 0 21.125 16.11975">
  <path d="M19.06 1.95h-.96V.43a.43.43 0 0 0-.86 0v1.52H3.87V.43a.43.43 0 1 0-.86 0v1.52H2.1A2.07 2.07 0 0 0 0 4.02v10.03a2.07 2.07 0 0 0 2.07 2.07h17a2.07 2.07 0 0 0 2.05-2.07V4.02a2.07 2.07 0 0 0-2.06-2.07zm-8.93 13.3H2.07a1.2 1.2 0 0 1-1.2-1.2V6.57h9.26zm0-9.54H.86V4.04a1.2 1.2 0 0 1 1.2-1.2h8.07zm10.13 8.36a1.2 1.2 0 0 1-1.2 1.2H11V6.58h9.26zm0-10.03v1.7H11V2.8h8.06a1.2 1.2 0 0 1 1.2 1.2zM5.44 14h.1a1.86 1.86 0 0 0 1.87-1.87V9.7a1.86 1.86 0 0 0-1.84-1.9h-.1a1.86 1.86 0 0 0-1.9 1.9v2.43A1.86 1.86 0 0 0 5.45 14zm-1-4.3a1 1 0 0 1 1-1.02h.1a1 1 0 0 1 1 1v2.45a1 1 0 0 1-1 1h-.1a1 1 0 0 1-1-1zM15.58 14h.1a1.86 1.86 0 0 0 1.86-1.87V9.7a1.86 1.86 0 0 0-1.86-1.88h-.1a1.86 1.86 0 0 0-1.86 1.87v2.42A1.86 1.86 0 0 0 15.58 14zm-1-4.3a1 1 0 0 1 1-1.02h.1a1 1 0 0 1 1 1v2.45a1 1 0 0 1-1 1h-.1a1 1 0 0 1-1-1z"/>
</svg>
