<svg xmlns="http://www.w3.org/2000/svg" viewBox="0 0 20.02 19.9">
  <path d="M12.9 5.72a2.98 2.98 0 0 0-1.12-1.6L15.3.6l-.58-.6-3.7 3.7a3.05 3.05 0 0 0-1-.17 2.77 2.77 0 0 0-1 .18L5.3 0l-.6.6 3.53 3.5a2.98 2.98 0 0 0-1.1 1.6H0v14.2h20.02V5.72zM10 4.36a2.17 2.17 0 0 1 2 1.36H8a2.17 2.17 0 0 1 2-1.36zm9.18 14.7H.84V6.56H19.2v12.5zM4.28 7.4a2.6 2.6 0 0 0-2.6 2.6v5.63a2.6 2.6 0 0 0 2.6 2.6h8.13a2.6 2.6 0 0 0 2.6-2.6V10a2.6 2.6 0 0 0-2.6-2.6zm8.13 10H8a13.07 13.07 0 0 1-2.04-3.96l-.1-.4-1.96.34a.07.07 0 0 1-.06-.02.1.1 0 0 1-.03-.08.1.1 0 0 1 .05-.07L5.3 12l.32-.77a9.7 9.7 0 0 0 3 2.58l.1.06h2.6l.32 1.97-.58-.03-.05.83.8.04h.04a.68.68 0 0 0 .54-.27.66.66 0 0 0 .1-.6l-.3-1.95h2.02v1.8a1.78 1.78 0 0 1-1.8 1.77zm-2.47-4.93l-.38-.76a1.54 1.54 0 0 0 .26-.23.9.9 0 0 0 .1-.14c0-.02 0-.03.03-.05l.06-.14h1.4c.8.07 1.36.35 1.4.72.04.34-.33.84-1.1 1.14H9.98a.68.68 0 0 0-.05-.53zM8.8 11.13a.42.42 0 1 1 .42-.43v.03a.42.42 0 0 1-.3.38l-.05.04H8.8zM14.18 10v3h-1.02a1.6 1.6 0 0 0 .45-1.25c-.03-.38-.33-1.28-2.2-1.46H10a1.24 1.24 0 0 0-1.18-.86 1.26 1.26 0 0 0-.07 2.5l.4.8-.07.25h-.12a8.2 8.2 0 0 1-2.9-2.7L6 10.24a.56.56 0 0 0-.63-.14.58.58 0 0 0-.36.42l-.4.94-1.3 1.1a.96.96 0 0 0-.3.7.93.93 0 0 0 1.04.93l1.22-.2a14.58 14.58 0 0 0 1.7 3.4H4.28a1.77 1.77 0 0 1-1.78-1.8V9.98A1.77 1.77 0 0 1 4.27 8.2h8.14a1.78 1.78 0 0 1 1.8 1.8z"/>
  <circle cx="17.52" cy="10.31" r=".83"/>
  <circle cx="17.52" cy="13.64" r=".83"/>
</svg>
