<svg xmlns="http://www.w3.org/2000/svg" viewBox="0 0 20.80311 20.81005">
  <path d="M15.25 6.73H5.82a.5.5 0 1 0 0 1.02h9.43a.5.5 0 0 0 0-1.02zm0 3.2H5.82a.5.5 0 1 0 0 1h9.43a.5.5 0 0 0 0-1zm0 3.2H5.82a.5.5 0 1 0 0 1h9.43a.5.5 0 0 0 0-1zM17.67 2.9A10.44 10.44 0 0 0 2.35 17.05l.07.1-.05.1A4.25 4.25 0 0 1 .6 19.2a.8.8 0 0 0-.44.85.8.8 0 0 0 .7.67 5.24 5.24 0 0 0 .8.07 6.13 6.13 0 0 0 3.6-1.2l.1-.1.1.07a10.33 10.33 0 0 0 12.2-1.82l.2-.2a10.37 10.37 0 0 0-.2-14.65zM5.5 18.67a.42.42 0 0 0-.2-.06.46.46 0 0 0-.34.16l-.03.02a5.34 5.34 0 0 1-3.3 1.18H1.1l.45-.33A5.76 5.76 0 0 0 3.3 17.3a.46.46 0 0 0 .02-.3.45.45 0 0 0-.1-.25 9.52 9.52 0 1 1 2.3 1.9z"/>
</svg>
