<svg xmlns="http://www.w3.org/2000/svg" viewBox="0 0 20.12499 16.93706">
  <path d="M13.2 7.57a4.7 4.7 0 0 0-.52.03 4.7 4.7 0 1 0-7.46-.15 4.7 4.7 0 1 0 3.7 6.68 4.68 4.68 0 1 0 4.3-6.56zm-8-2.87h-.02A3.83 3.83 0 1 1 9 8.53 3.84 3.84 0 0 1 5.18 4.7zm3.34 7.55a.2.2 0 0 0 0 .05 3.8 3.8 0 1 1 0-.24zm-.03-2.9a4.42 4.42 0 0 0 1.04 0 4.7 4.7 0 0 0-.54.87 4.68 4.68 0 0 0-.5-.87zm4.56 6.6A3.8 3.8 0 0 1 9.4 12.3v-.2a.2.2 0 0 0 0-.04 3.8 3.8 0 1 1 3.66 3.9zM7.7 3.72v2.54h.72v-3.2H7.8l-.84.4.12.55.6-.27zm2.43 2.58c.82 0 1.2-.67 1.2-1.67C11.33 3.77 11 3 10.15 3c-.84 0-1.22.74-1.22 1.66s.37 1.65 1.2 1.65zm.02-2.73c.27 0 .45.37.45 1.08 0 .7-.16 1.1-.45 1.1-.28 0-.46-.36-.46-1.1 0-.72.16-1.08.44-1.08zM5.43 11.8a1.46 1.46 0 0 0-.84-.24 1.4 1.4 0 0 0-.23 0l.07-.5H5.7v-.6H3.92l-.2 1.67a2.76 2.76 0 0 1 .42-.03c.64 0 .9.2.9.53s-.33.5-.64.5a1.84 1.84 0 0 1-.7-.17l-.14.56a2.03 2.03 0 0 0 .9.18 1.22 1.22 0 0 0 1.35-1.05q.03-.03.03-.07a.9.9 0 0 0-.4-.8zm5.53-.7l.13.58.6-.3v2.54h.72v-3.2h-.62l-.84.4zm3.9.94a1.46 1.46 0 0 0-.83-.23 1.4 1.4 0 0 0-.2 0l.06-.47h1.2v-.62h-1.74l-.22 1.7a2.76 2.76 0 0 1 .44-.04c.63 0 .9.2.9.53s-.34.5-.65.5a1.84 1.84 0 0 1-.72-.18l-.13.57a2.03 2.03 0 0 0 .88.2 1.2 1.2 0 0 0 1.37-1.04v-.1a.9.9 0 0 0-.38-.8zm5.27-8.8l-.7-.7-2.94 2.93L15.3 4.3l-.7.7 1.86 1.87 3.63-3.63z"/>
</svg>
