<svg xmlns="http://www.w3.org/2000/svg" viewBox="0 0 20.06 19"><title>Lottobet</title><path d="M19.62 11.63a5.23 5.23 0 0 0-5.4-3.1 5.26 5.26 0 1 0-8.37-.18 5.26 5.26 0 1 0 4.15 7.5 5.26 5.26 0 0 0 9.62-4.22zM5.8 5.27a4.3 4.3 0 1 1 4.3 4.3 4.3 4.3 0 0 1-4.3-4.3zm3.75 8.52a4.25 4.25 0 1 1 0-.27c0 .07 0 .14 0 .22zm0-3.3a5 5 0 0 0 1.17 0 5.26 5.26 0 0 0-.6 1 5.25 5.25 0 0 0-.6-1zM19 14.06a4.25 4.25 0 0 1-8.48-.27c0-.07 0-.14 0-.22a4.25 4.25 0 0 1 8.47.54zM8.62 4.18v2.84h.82v-3.6h-.7l-.95.45.13.63.7-.32zM11.35 7.08c.92 0 1.36-.76 1.36-1.87s-.37-1.83-1.33-1.83S10 4.2 10 5.23s.43 1.85 1.35 1.85zm0-3.07c.34 0 .5.43.5 1.22s-.17 1.22-.5 1.22-.5-.4-.5-1.2.2-1.24.52-1.24zM6.08 13.23a1.64 1.64 0 0 0-.94-.23H4.9l.1-.57h1.37v-.7h-2l-.24 1.9a3.1 3.1 0 0 1 .5 0c.7 0 1 .22 1 .6s-.38.54-.73.54a2.06 2.06 0 0 1-.8-.18l-.1.58a2.28 2.28 0 0 0 1 .2 1.37 1.37 0 0 0 1.53-1.18v-.08a1 1 0 0 0-.45-.9zM12.3 12.46l.13.63.68-.33h.03v2.84h.8v-3.58h-.7l-.94.44zM16.67 13.5a1.64 1.64 0 0 0-.94-.25h-.23l.08-.55H17V12h-2l-.24 1.88a3.1 3.1 0 0 1 .5 0c.7 0 1 .23 1 .6s-.38.55-.73.55a2.06 2.06 0 0 1-.8-.18l-.16.63a2.28 2.28 0 0 0 1 .2 1.37 1.37 0 0 0 1.53-1.18v-.08a1 1 0 0 0-.43-.9z"/></svg>