<svg xmlns="http://www.w3.org/2000/svg" viewBox="0 0 187.12 112.84005">
  <path d="M106.5 54c0 1.08.33 1.35 3.3 2.52a12.3 12.3 0 0 1 2.1 1.07V56.3c0-1.4-.06-2.8-.16-4.17-.66 0-1.3-.06-1.83-.06-2.23.04-3.4.7-3.4 1.9zM59 63.5a2.28 2.28 0 0 0 2.5 2.38c2.84 0 4.88-2.38 5-5.8A12.78 12.78 0 0 0 65 60c-4 0-6 1.16-6 3.5zm31.83-8.6c0-1.88-1.22-3-3.3-3s-3.8 1.5-4.44 4.18h7.66q.05-.7.06-1.17zm13.05 15.9q-1.37 0-3.9-.2-1.2-.08-1.83-.2l-1.3-.23-.3-.05 1-5.36a22.54 22.54 0 0 0 6.32.92c2.8 0 4-.65 4-2.1 0-1.06-.44-1.4-3.3-2.57-3.7-1.5-5.36-3.52-5.36-6.46 0-4.3 2.7-7.86 10.6-7.86h1.3a56.4 56.4 0 0 0-17.55-32.1A55.54 55.54 0 0 0 56 0a56.4 56.4 0 0 0 0 112.78 55.54 55.54 0 0 0 37.54-14.6 56.43 56.43 0 0 0 16.77-28.34 18.1 18.1 0 0 1-6.4.96zM42 70.43l4.14-22-9.53 22H30.3L29.1 48.58 25 70.43h-6.37L24 41.83h10.9l.58 17.7 7.66-17.7h11.33L49 70.43zm31.7-12.35l-1.47 8.25L72 67.8l-.2 1.2-.1.8-.08.64h-5.78L66 68c-1.76 1.9-4.1 2.8-7.3 2.8a6.06 6.06 0 0 1-6.38-6.34c0-5.66 4.5-9 12.24-9a26.72 26.72 0 0 1 2.84.18 5.08 5.08 0 0 0 .27-1.5c0-1.55-1.22-2.12-4.47-2.12a25.58 25.58 0 0 0-5.8.65l-1 .25-.62.15 1-5.23a31.3 31.3 0 0 1 8.34-1.23c6 0 9.15 2.38 9.15 6.84a24.08 24.08 0 0 1-.58 4.65zm14.7 7.5a18.44 18.44 0 0 0 7.23-1.46l-1.16 5.8a27 27 0 0 1-7.14.95c-7.8 0-11.85-3.58-11.85-10.42 0-8 5.16-13.86 12.17-13.86 5.74 0 9.4 3.27 9.4 8.43a22.14 22.14 0 0 1-.86 5.74H82.34a4.48 4.48 0 0 0-.07.73c0 2.7 2.06 4.1 6.1 4.1z"/>
  <path fill="#fff" d="M179.63 87.82zm1.8 1.38a1.38 1.38 0 1 0-1.36-1.4v.02a1.38 1.38 0 0 0 1.37 1.38zm-.23-.58h-.37V87h.67a.72.72 0 0 1 .4.08.48.48 0 0 1 .2.4.44.44 0 0 1-.27.4l.3.72h-.42l-.22-.6h-.27v-.3h.2a.46.46 0 0 0 .24 0 .22.22 0 0 0 .1-.17.2.2 0 0 0-.1-.16.5.5 0 0 0-.24 0h-.2v1.3zM169.56 68.1h-.2v.4h.2a.45.45 0 0 0 .23 0 .22.22 0 0 0 .07-.18.2.2 0 0 0-.1-.16.5.5 0 0 0-.22-.07zm.04-.88a1.38 1.38 0 1 0 .03 0h-.03zm.27 2.18l-.24-.63h-.27v.63H169v-1.6h.67a.72.72 0 0 1 .4.08.48.48 0 0 1 .2.4.43.43 0 0 1-.28.4l.27.72h-.4zm-12.05-17.22c-3.55 0-5.76 4.23-5.76 8 0 3.15 1.5 5.27 4 5.22 1.5 0 4.73-2.07 5.37-5.7a16 16 0 0 0 .23-2.77c0-2.45-.98-4.75-3.84-4.75zM131.12 0a55.54 55.54 0 0 0-37.58 14.6 56.68 56.68 0 0 0-5.65 6h11.3a56.7 56.7 0 0 1 4.25 6H83.63a56.43 56.43 0 0 0-3.23 6h26.28a56 56 0 0 1 2.37 6H78a56.35 56.35 0 0 0-1.63 6h34.28c.16.73.3 1.5.42 2.24 1.56.07 3.5.23 4.9.42l-1 5.38c-1.1-.13-2.2-.23-3.23-.3.1 1.4.17 2.78.17 4.18v1.26a5.82 5.82 0 0 1 2.86 5.22c0 3.4-1.43 5.63-4.42 6.8q-.55 2.26-1.28 4.45H78a56 56 0 0 0 2.37 6h26.28a56.6 56.6 0 0 1-3.22 6h-19.8a56.6 56.6 0 0 0 4.27 6h11.3a56.67 56.67 0 0 1-5.65 6 55.54 55.54 0 0 0 37.57 14.6 56.2 56.2 0 0 0 56-56.4C187.12 25.3 162 0 131.12 0zm-5.24 65.22a6.52 6.52 0 0 0 1.88-.22l-.92 5.14a17.92 17.92 0 0 1-5 .76c-3.57 0-5.5-1.8-5.5-5.1a11.68 11.68 0 0 1 .2-2.1l.42-2.27.33-1.84 3.2-17.77h6.94l-1 5.34H130l-1 5.65h-3.57l-1.84 9.7a5.53 5.53 0 0 0-.14 1c.02 1.16.75 1.7 2.4 1.7zM143 53.72c-3.34 0-4.4 2.5-6.9 16.7h-7l4.24-23.24h6.3L139 50.7c2.13-2.75 3.78-3.78 6.07-3.78a3.9 3.9 0 0 1 .7.06l.6.14a3.75 3.75 0 0 1 .8.25l-2.53 6.57-.82-.17a7.87 7.87 0 0 0-.82-.05zm12.3 17.33c-7.88 0-11.07-4.82-11.07-10.72 0-8.24 5.4-13.82 13.72-13.82 7.23 0 11.05 4.6 11.05 10.5a14.8 14.8 0 0 1-.2 2.9c-1 7.73-6.37 11.16-13.5 11.16zm14.3-.62a1.82 1.82 0 1 1 1.82-1.83 1.8 1.8 0 0 1-1.8 1.83h-.02z"/>
</svg>
