<svg xmlns="http://www.w3.org/2000/svg" viewBox="0 0 19.95055 19.97">
  <path d="M18.95 7.77h-1.87a.7.7 0 0 1-.66-.44.7.7 0 0 1 .16-.78l1.32-1.32a1.03 1.03 0 0 0 .3-.73 1.06 1.06 0 0 0-.3-.73L16.22 2.1a1.04 1.04 0 0 0-1.45 0l-1.32 1.3a.7.7 0 0 1-.78.17.7.7 0 0 1-.44-.66V1.05A1.03 1.03 0 0 0 11.2 0H8.82A1.03 1.03 0 0 0 7.8 1.03V2.9a.72.72 0 0 1-1.25.5L5.23 2.08a1.04 1.04 0 0 0-1.45 0l-1.7 1.7a1 1 0 0 0-.3.72 1.06 1.06 0 0 0 .3.73L3.4 6.55a.7.7 0 0 1 .18.78.72.72 0 0 1-.67.44H1.04A1.03 1.03 0 0 0 0 8.8v2.38a1.03 1.03 0 0 0 1.03 1.03H2.9a.7.7 0 0 1 .66.46.67.67 0 0 1-.16.78l-1.3 1.32a1.03 1.03 0 0 0-.3.73 1.05 1.05 0 0 0 .3.72l1.67 1.7a1.04 1.04 0 0 0 1.45 0l1.32-1.33a.7.7 0 0 1 .78-.17.7.7 0 0 1 .44.67v1.87A1.03 1.03 0 0 0 8.8 20h2.36a1.03 1.03 0 0 0 1.03-1.03V17.1a.7.7 0 0 1 .43-.66.67.67 0 0 1 .78.17l1.33 1.33a1.04 1.04 0 0 0 1.45 0l1.67-1.7a1.03 1.03 0 0 0 .3-.72 1.06 1.06 0 0 0-.3-.72l-1.32-1.32a.7.7 0 0 1-.16-.78.68.68 0 0 1 .65-.44h1.87a1.03 1.03 0 0 0 1.02-1.02V8.8A1 1 0 0 0 19 7.77h-.05zm.3 3.4a.3.3 0 0 1-.3.3h-1.87a1.46 1.46 0 0 0-1.03 2.5l1.32 1.3a.3.3 0 0 1 0 .42l-1.68 1.66a.3.3 0 0 1-.43 0l-1.32-1.32a1.43 1.43 0 0 0-1.6-.32 1.45 1.45 0 0 0-.9 1.35v1.87a.3.3 0 0 1-.28.3H8.8a.3.3 0 0 1-.3-.3v-1.88a1.46 1.46 0 0 0-2.48-1.04L4.7 17.35a.3.3 0 0 1-.4 0l-1.7-1.68a.3.3 0 0 1 0-.4l1.33-1.33a1.42 1.42 0 0 0 .3-1.6 1.44 1.44 0 0 0-1.34-.9H1a.3.3 0 0 1-.3-.28V8.78a.3.3 0 0 1 .3-.3H2.9A1.46 1.46 0 0 0 3.94 6L2.6 4.7a.3.3 0 0 1 0-.4l1.7-1.7a.3.3 0 0 1 .4 0l1.32 1.33a1.45 1.45 0 0 0 1.6.3 1.42 1.42 0 0 0 .9-1.34V1a.3.3 0 0 1 .28-.3h2.38a.3.3 0 0 1 .3.3V2.9a1.46 1.46 0 0 0 2.48 1.04l1.32-1.32a.3.3 0 0 1 .4 0l1.7 1.68a.3.3 0 0 1 0 .4l-1.33 1.33a1.46 1.46 0 0 0 1.03 2.5h1.87a.3.3 0 0 1 .3.28zm-9.27-4.5a3.33 3.33 0 1 0 3.33 3.32v-.03A3.33 3.33 0 0 0 10 6.65zm0 5.9a2.6 2.6 0 1 1 2.6-2.6 2.6 2.6 0 0 1-2.6 2.6z"/>
</svg>
