<svg xmlns="http://www.w3.org/2000/svg" viewBox="0 0 211.49418 126.55313">
  <path d="M43.04 72.17a2.4 2.4 0 0 0 2.46 2.66c2.8 0 4.82-2.66 4.93-6.53a11.45 11.45 0 0 0-1.53-.1c-3.9 0-5.86 1.33-5.86 3.97zM99.9 59.62c-2.18 0-3.74 1.66-4.37 4.66h7.54c.03-1 .72-4.66-3.18-4.66zm24.65 6.9a25.5 25.5 0 0 1 1.66-9.34 63.25 63.25 0 1 0-.46 16 18 18 0 0 1-1.18-6.65zM26.65 80.3L30.6 55.6l-8.8 24.7h-4.68l-.58-24.53L12.4 80.3H5.98l5.37-32h9.88l.3 19.87 6.66-19.87h10.68l-5.3 32zm23.1 0l.12-2.88c-1.74 2.13-4.05 3.07-7.2 3.07-3.72 0-6.28-3-6.28-7.18 0-6.38 4.42-10.1 12.04-10.1a22.76 22.76 0 0 1 2.8.2 6.47 6.47 0 0 0 .27-1.7c0-1.74-1.2-2.38-4.4-2.38a22.82 22.82 0 0 0-7.27 1.17l1-5.88a27.38 27.38 0 0 1 8.22-1.38c5.9 0 9 2.65 9 7.65a35.24 35.24 0 0 1-.56 5.34c-.6 3.78-1.9 12-2.06 14h-5.7zm20.1-15.9c3.45 1.6 4.85 3.7 4.85 7.28 0 6-3.35 8.72-10.6 8.72a31.82 31.82 0 0 1-7.14-.77l.94-6a19.36 19.36 0 0 0 6.16 1c2.72 0 3.95-.7 3.95-2.34 0-1.2-.4-1.57-3.2-2.88-3.62-1.7-5.22-4-5.22-7.3 0-4.8 2.64-8.83 10.32-8.83a46.74 46.74 0 0 1 6 .5l-1 6.06a38.18 38.18 0 0 0-4.95-.4c-2.22 0-3.36.74-3.36 2.15.04 1.23.35 1.52 3.25 2.85zM85.05 74a5.5 5.5 0 0 0 1.84-.25l-.93 5.8a15.7 15.7 0 0 1-4.93.84c-3.5 0-5.43-2-5.43-5.75a58.48 58.48 0 0 1 .95-6.76c.4-2.45 3-17.6 3-17.6h6.83l-.8 4h3.5l-.93 6H84.6c-.78 5-1.9 11.04-1.93 11.86 0 1.34.72 1.83 2.36 1.83zm15.92.56a16.24 16.24 0 0 0 7.1-1.7l-1.14 6.48a23.38 23.38 0 0 1-7 1c-7.65 0-11.63-4-11.63-11.65 0-8.95 5.06-15.5 11.94-15.5 5.63 0 9.23 3.74 9.23 9.5a31.63 31.63 0 0 1-.84 6.5H94.96c-.42 4.07 2 5.35 6 5.35zm15.33 5.7h-6.88l.3-1.7c1.2-8.08 2.73-16.3 3.6-24.3h6.3a24.88 24.88 0 0 1-.4 3.75c2.1-3.07 3.7-4.8 6.6-4.2a26.74 26.74 0 0 0-2.62 7.7c-3.88-.4-4.47 2.8-6.93 18.8z"/>
  <path fill="#fff" d="M191.7 60c-3.13 0-5.34 3.64-5.34 8.77 0 3.42 1.2 5.14 3.52 5.14 3.2 0 5.45-3.6 5.45-8.77 0-3.33-1.28-5.12-3.64-5.12zm13.33 17.3h-.22v.47h.25a.5.5 0 0 0 .26 0 .25.25 0 0 0 .1-.2.24.24 0 0 0-.1-.2.6.6 0 0 0-.26-.06zM148.2 0a63.14 63.14 0 0 0-42.5 16.48 33.67 33.67 0 0 0-6.38 6.8h12.78a30.32 30.32 0 0 1 4.82 7H94.5q-2 3-3.65 6h29.72c1 2 1.9 5 2.68 7H88.18a35.75 35.75 0 0 0-1.84 7h38.76c.27 1 .5 2 .68 3v.2c.18 1.16.32 2.43.43 3.6C128.7 50.85 133.7 47 140.05 47a23.64 23.64 0 0 1 7.55 1.7l-1.13 7a13.1 13.1 0 0 0-6.14-1.74c-5.13 0-8.73 5-8.73 12 0 4.87 2.4 7.82 6.4 7.82a13.3 13.3 0 0 0 5.83-1.65l-1.2 7.3a21.42 21.42 0 0 1-6.08.95 11 11 0 0 1-10.82-7.22 56 56 0 0 1-2.48 10.1H88.18c.77 2 1.66 5 2.68 7h29.73c-1.1 2-2.3 4-3.67 7H94.5q2.2 3 4.83 6h12.78a33.42 33.42 0 0 1-6.37 6.8A63.25 63.25 0 1 0 148.2 0zm15.46 80.28h-5.7l.13-2.88c-1.76 2.13-4.07 3.07-7.2 3.07-3.75 0-6.3-3-6.3-7.18 0-6.38 4.44-10.1 12.06-10.1a22.7 22.7 0 0 1 2.8.2 6.48 6.48 0 0 0 .27-1.7c0-1.74-1.2-2.38-4.4-2.38a22.85 22.85 0 0 0-7.27 1.17l1-5.88a27.38 27.38 0 0 1 8.22-1.38c5.9 0 9 2.65 9 7.65a35 35 0 0 1-.56 5.34c-.63 3.75-1.9 12.03-2.08 14.03zm9.16 0h-6.86l.3-1.7c1.2-8.1 2.73-16.3 3.6-24.3h6.3a25.2 25.2 0 0 1-.4 3.74c2.1-3.1 3.7-4.83 6.58-4.23a26.58 26.58 0 0 0-2.6 7.67c-3.87-.4-4.46 2.8-6.92 18.8zm20.7 0l.32-2.6a8 8 0 0 1-6.33 2.8c-5 0-8.27-4.35-8.27-10.88 0-8.68 5.12-16 11.18-16 2.67 0 4.7 1.3 6.57 3.77l1.52-9.07h6.77l-5.23 32h-6.5zm11.56-.35a2 2 0 1 1 2-2 2 2 0 0 1-2 2zm0-3.6zm.3 2.46l-.27-.73h-.3v.7h-.4V77h.75a.84.84 0 0 1 .46.1.53.53 0 0 1 .24.44.5.5 0 0 1-.3.46l.32.8zm-54.1-6.64a2.4 2.4 0 0 0 2.45 2.66c2.8 0 4.82-2.66 4.93-6.53a11.38 11.38 0 0 0-1.53-.1c-3.9 0-5.86 1.32-5.86 3.96zm51.76 26.38a2 2 0 1 1 2 2 2 2 0 0 1-2-2zm2 1.55h.04zm-.28-.67h-.42v-1.78h.76a.85.85 0 0 1 .46.1.56.56 0 0 1 .23.44.5.5 0 0 1-.33.45l.33.8h-.45l-.28-.72h-.3v.7zm0-1h.23a.54.54 0 0 0 .24 0 .25.25 0 0 0 .1-.2.24.24 0 0 0-.1-.2.57.57 0 0 0-.26 0h-.23v.47zm.32-22.58a2 2 0 1 0 2 2 2 2 0 0 0-2-2zm0 3.6zm.75-1.92a.53.53 0 0 0-.23-.45.84.84 0 0 0-.46-.1h-.76v1.8h.42v-.7h.3l.3.7h.45l-.33-.78a.5.5 0 0 0 .3-.47zm-.54.2a.5.5 0 0 1-.28 0h-.23v-.42h.2a.6.6 0 0 1 .28 0 .24.24 0 0 1 .1.2.25.25 0 0 1-.1.24z"/>
</svg>
