<svg xmlns="http://www.w3.org/2000/svg" viewBox="0 0 20.01 19.07">
  <path d="M17.8 7.08a2.33 2.33 0 0 0-1.06.26L11.98 3.2a2.2 2.2 0 0 0 .24-.98 2.22 2.22 0 0 0-4.44 0 2.16 2.16 0 0 0 .3 1.1l-4.7 4.1a2.27 2.27 0 0 0-1.16-.34 2.22 2.22 0 0 0 0 4.44 3.13 3.13 0 0 0 .44-.04l1.2 3.38a2.22 2.22 0 1 0 3.1 2.52h6.32a2.22 2.22 0 1 0 3.08-2.54l1.18-3.33a2.1 2.1 0 0 0 .25.04 2.23 2.23 0 0 0 0-4.45zM16.34 9.3a1.45 1.45 0 1 1 1.45 1.45 1.45 1.45 0 0 1-1.46-1.45zm-7.8-7.08A1.45 1.45 0 1 1 10 3.67a1.45 1.45 0 0 1-1.44-1.45zM3.66 9.3a1.45 1.45 0 1 1-1.44-1.45A1.45 1.45 0 0 1 3.67 9.3zm2.6 7.56a1.45 1.45 0 1 1-1.44-1.45 1.45 1.45 0 0 1 1.46 1.47zm9.18-1.45A1.45 1.45 0 1 1 14 16.88a1.45 1.45 0 0 1 1.44-1.45zm.3-.73l-.3-.02a2.23 2.23 0 0 0-2.2 1.96h-6.2a2.23 2.23 0 0 0-2.2-1.95 1.84 1.84 0 0 0-.34.03l-1.2-3.44A2.2 2.2 0 0 0 4.44 9.3a2.17 2.17 0 0 0-.54-1.4l4.57-4.05a2.22 2.22 0 0 0 1.53.62 2.18 2.18 0 0 0 1.62-.7l4.56 4.03a2.22 2.22 0 0 0 .68 3.54z"/>
</svg>
