<svg xmlns="http://www.w3.org/2000/svg" viewBox="0 0 20.01237 14.1">
  <path d="M9.74 11.53a.3.3 0 0 0-.37.14l-.8 1.82a.05.05 0 0 1-.05 0h-.96l1.52-3.43a.28.28 0 1 0-.5-.23l-1.63 3.63a.4.4 0 0 0 .03.4.42.42 0 0 0 .35.2h1.2a.6.6 0 0 0 .54-.37l.8-1.8a.26.26 0 0 0-.13-.37zm10.2-6.9a.42.42 0 0 0-.34-.2 2.95 2.95 0 0 1-2.17-.8 7.53 7.53 0 0 1-.57-.75 5.88 5.88 0 0 0-.57-.77 3.64 3.64 0 0 0-1.6-1.03.47.47 0 0 0 0-.3.5.5 0 0 0-.28-.28l-.96-.44a.4.4 0 0 0-.2-.04.5.5 0 0 0-.45.3l-2.27 5.13-.53 1.2L7.2.28a.5.5 0 0 0-.47-.3.4.4 0 0 0-.2.04L5.6.47a.5.5 0 0 0-.26.27.54.54 0 0 0-.02.3 3.12 3.12 0 0 0-.4.16 3.98 3.98 0 0 0-1.17.9 6.06 6.06 0 0 0-.58.78 5.42 5.42 0 0 1-.56.75 2.96 2.96 0 0 1-2.17.82.42.42 0 0 0-.35.2.4.4 0 0 0-.04.38l1.93 4.52a.6.6 0 0 0 .55.37 3.43 3.43 0 0 0 2.6-1 6.9 6.9 0 0 0 .6-.82 5.66 5.66 0 0 1 .53-.7 3.1 3.1 0 0 1 1.08-.8 2.46 2.46 0 0 1 .4-.14l3.22 7.28a.6.6 0 0 0 .55.36h1.2a.42.42 0 0 0 .34-.2.4.4 0 0 0 .04-.4L11.1 9.15l1.2-2.68a3.16 3.16 0 0 1 1.45.93 8.2 8.2 0 0 1 .53.7 6.9 6.9 0 0 0 .62.83 3.4 3.4 0 0 0 2.58 1 .58.58 0 0 0 .55-.38l1.93-4.52a.37.37 0 0 0 0-.4zM11.9 6l-1.35 3.02a.3.3 0 0 0 0 .23l1.9 4.28h-.97a.05.05 0 0 1-.04-.02L8.1 6.04a.3.3 0 0 0-.25-.17.13.13 0 0 0-.06 0 3.63 3.63 0 0 0-2 1.17 6.73 6.73 0 0 0-.58.78 5.38 5.38 0 0 1-.57.77 2.9 2.9 0 0 1-2.17.8.03.03 0 0 1-.04-.02L.64 5A3.34 3.34 0 0 0 3 4.03a6.9 6.9 0 0 0 .62-.83 5.66 5.66 0 0 1 .52-.72 3.13 3.13 0 0 1 1-.76 3.57 3.57 0 0 1 .6-.2.3.3 0 0 0 .2-.17.3.3 0 0 0 0-.24L5.9.97l.8-.38 3 6.73-.24.53a.33.33 0 0 0 0 .22.3.3 0 0 0 .14.16.28.28 0 0 0 .37-.13L13.3.57l.84.38-.07.16a.28.28 0 0 0 .2.4 3.22 3.22 0 0 1 1.6.98c.2.22.36.47.53.7a6.9 6.9 0 0 0 .62.84 3.38 3.38 0 0 0 2.36 1l-1.84 4.32q0 .03-.03.03a2.95 2.95 0 0 1-2.15-.8 7.53 7.53 0 0 1-.57-.77 5.88 5.88 0 0 0-.58-.8 3.63 3.63 0 0 0-2-1.15.3.3 0 0 0-.3.16z"/>
</svg>
