<svg xmlns="http://www.w3.org/2000/svg" viewBox="0 0 100 100">
  <path d="M46.97 17.78l1.22-.6.16-.05.15.06c9.58 4.2 17.6 8.64 19.07 20.54l.02.17-1.16.87-.14.08h-.12c-.86-.1-1.77-.14-2.72-.14-4.7 0-11.04 1.1-14.83 4.16a1.12 1.12 0 0 0-.43 1.03 1.24 1.24 0 0 0 1.22 1.1 1.18 1.18 0 0 0 .76-.28c2.64-2.1 8.1-3.6 13.28-3.6a24.1 24.1 0 0 1 3.05.2h.17a1.22 1.22 0 0 0 .73-.23l2.2-1.65a1.22 1.22 0 0 0 .5-1.08c-1.4-15.05-12.42-19.85-21.3-23.7a1.24 1.24 0 0 0-1 0l-1.87.9a1.2 1.2 0 0 0-.42 1.87 1.23 1.23 0 0 0 1.48.33zM61 45.48a20.03 20.03 0 0 0-12.04 4.05l-.26.2-1.6-1.42a1.26 1.26 0 0 0-1.72.14 1.23 1.23 0 0 0 .1 1.7l2.4 2.1a1.3 1.3 0 0 0 1.6 0 17.55 17.55 0 1 1-6.02 13.22 17.9 17.9 0 0 1 .53-4.3.92.92 0 0 0 .02-.34 1.28 1.28 0 0 0-.13-.53 1.3 1.3 0 0 0-.33-.4 1.25 1.25 0 0 0-.32-.18l-3.06-1.27.12-.36a8.4 8.4 0 0 1 1.24-2.36 1.17 1.17 0 0 0 .26-.9 1.2 1.2 0 0 0-.44-.8 1.24 1.24 0 0 0-1.73.2c-2.75 3.46-3.75 11.6-2.25 18.54l.1.48h-4.34L21.3 32.76a.68.68 0 0 1 .1-.62.7.7 0 0 1 .56-.27h.35c6.14-.08 8.97-.1 10.27-.1.9 0 1.4 0 1.54.03a4.04 4.04 0 0 1 2.26.85l6.8 4.82a1.24 1.24 0 0 0 1.36 0l4.1-2.78a1.2 1.2 0 0 0 .52-.8l.26-1.33a1.22 1.22 0 0 0-.3-1.07l-4.76-5.05a1.2 1.2 0 0 0-.88-.4h-4.1v-3.1h6.53a1.2 1.2 0 0 0 0-2.43h-7.75a1.22 1.22 0 0 0-1.2 1.22v5.53a1.22 1.22 0 0 0 1.2 1.2h4.8l4.05 4.4L43.86 35l-6-4.25a5.14 5.14 0 0 0-2.7-1c-.22-.03-1-.07-3.67-.07-3.36 0-7.9.07-9.04.08h-.5a2.57 2.57 0 0 0-2.36.95 2.64 2.64 0 0 0-.38 2.7l12.43 42.03.08.27h7.37a1.22 1.22 0 0 0 1.16-1.57 29.6 29.6 0 0 1-.72-12.84l.1-.5 1.8.75-.04.3A19.98 19.98 0 1 0 61 45.47zM51.64 62.8a1.16 1.16 0 0 0-.52-.1 1.2 1.2 0 0 0-1.14 1.63 1.25 1.25 0 0 0 .63.68l.5.27v.23a9.9 9.9 0 1 0 9.9-9.95 9.78 9.78 0 0 0-4.17.93 1.1 1.1 0 0 0-.38.28l-.24.28-2.1-1.6a1.24 1.24 0 0 0-1.7.23 1.18 1.18 0 0 0-.24.9 1.2 1.2 0 0 0 .47.8L61 63.73l-1.7 2.6zm9.66 4.92l1.8-2.78a2.3 2.3 0 0 0-.5-3.02l-4.48-3.4.75-.24a7.48 7.48 0 1 1-5.14 8.88l-.2-.8 4.92 2.25a2.36 2.36 0 0 0 2.85-.87z"/>
</svg>
