<svg xmlns="http://www.w3.org/2000/svg" viewBox="0 0 19.95 15.93">
  <path d="M6 4.36A1.64 1.64 0 1 0 4.38 6 1.65 1.65 0 0 0 6 4.36zm-2.57 0a.94.94 0 1 1 .94.94.94.94 0 0 1-.94-.94z"/>
  <circle cx="5.16" cy="13.8" r=".62"/>
  <path d="M19.82 8.5a.35.35 0 0 0-.22-.1.17.17 0 0 0-.07.02l-3.34.7v-.76a4.37 4.37 0 1 0-6.16-4 4.32 4.32 0 0 0 .67 2.33H8.08a4.37 4.37 0 1 0-5.04 1.8v5.92a1.5 1.5 0 0 0 1.5 1.5H14.7a1.5 1.5 0 0 0 1.5-1.5v-.94l3.33.7a.17.17 0 0 0 .07 0 .35.35 0 0 0 .22-.07.37.37 0 0 0 .13-.26v-5.1a.34.34 0 0 0-.13-.27zM.7 4.35A3.67 3.67 0 1 1 4.37 8 3.67 3.67 0 0 1 .7 4.37zm14.78 10.08a.8.8 0 0 1-.8.8H4.53a.8.8 0 0 1-.8-.8V8.68a4.48 4.48 0 0 0 .65.05A4.36 4.36 0 0 0 7.52 7.4h3.75a4.4 4.4 0 0 0 4.22 1.2v5.84zm-1.07-6.4a3.67 3.67 0 1 1 3.68-3.67 3.67 3.67 0 0 1-3.66 3.66zm4.85 5.38l-3.06-.63V9.84l3.05-.64zM14.4 2.73a1.64 1.64 0 1 0 1.65 1.64 1.65 1.65 0 0 0-1.64-1.64zm0 2.58a.94.94 0 1 1 .95-.94.94.94 0 0 1-.94.94zm-3.86 8.07H8.76a.3.3 0 0 0-.28.28v.3a.3.3 0 0 0 .28.3h1.78a.3.3 0 0 0 .28-.3v-.3a.27.27 0 0 0-.28-.28z"/>
  <circle cx="7.13" cy="13.8" r=".62"/>
</svg>
