<svg xmlns="http://www.w3.org/2000/svg" viewBox="0 0 20 16.81053">
  <path d="M2.03 10.87h.86a2.03 2.03 0 0 0 1.75-1.05V7A2.03 2.03 0 0 0 2.9 5.93h-.87A2.03 2.03 0 0 0 0 7.97v.87a2.03 2.03 0 0 0 2.03 2.03zM.86 7.97A1.17 1.17 0 0 1 2.03 6.8h.86a1.17 1.17 0 0 1 1 .6 1.14 1.14 0 0 1 .15.57v.87a1.14 1.14 0 0 1-.15.56 1.17 1.17 0 0 1-1 .6h-.87A1.17 1.17 0 0 1 .86 8.84zm14.48-4.1a2.03 2.03 0 0 0 1.77 1.05H18A2.03 2.03 0 0 0 20 2.9v-.87A2.03 2.03 0 0 0 17.97 0h-.86a2.03 2.03 0 0 0-2 2.03v.13L9.97 7.9 4.92 2.2v-.17A2.03 2.03 0 0 0 2.9 0h-.87A2.03 2.03 0 0 0 0 2.03v.86a2.03 2.03 0 0 0 2.03 2h.86a2.03 2.03 0 0 0 1.76-1.06 2.1 2.1 0 0 0 .18-.44l4.2 4.73L4.9 8.1v-.15A2 2 0 0 0 4.67 7v2.82A2 2 0 0 0 4.9 9h4.35l-4.33 4.9a2 2 0 0 0-.26-.94A2.03 2.03 0 0 0 2.9 11.9h-.87a2.03 2.03 0 0 0-2.03 2v.86a2.03 2.03 0 0 0 2.03 2.03h.86a2.03 2.03 0 0 0 1.96-1.57l5.1-5.75 5.18 5.8a2.03 2.03 0 0 0 1.96 1.5h.87A2.03 2.03 0 0 0 20 14.8v-.86a2.03 2.03 0 0 0-2.03-2.03h-.86a2.03 2.03 0 0 0-1.75 1.05 2 2 0 0 0-.26.98l-4.38-4.9h4.4a2.05 2.05 0 0 0 2 1.85H18a2.03 2.03 0 0 0 2-2.04v-.87a2.03 2.03 0 0 0-2.03-2.03h-.86a2.05 2.05 0 0 0-2 2.03v.2l-4.2-.02 4.25-4.77a2.1 2.1 0 0 0 .2.5zm.6-1.84A1.17 1.17 0 0 1 17.1.86h.87a1.17 1.17 0 0 1 1.17 1.17v.86a1.17 1.17 0 0 1-1.17 1.15h-.86a1.17 1.17 0 0 1-1-.6 1.14 1.14 0 0 1-.15-.57zM4.06 2.9a1.14 1.14 0 0 1-.15.54 1.16 1.16 0 0 1-1 .62h-.86A1.17 1.17 0 0 1 .86 2.9v-.87A1.17 1.17 0 0 1 2.03.86h.86a1.17 1.17 0 0 1 1.15 1.17zm0 11.88a1.17 1.17 0 0 1-1.17 1.17H2a1.17 1.17 0 0 1-1.17-1.17v-.86a1.17 1.17 0 0 1 1.17-1.17h.86a1.17 1.17 0 0 1 1 .6 1.14 1.14 0 0 1 .16.57zm11.88-.86a1.14 1.14 0 0 1 .15-.56 1.17 1.17 0 0 1 1-.6h.86a1.17 1.17 0 0 1 1.17 1.16v.86a1.17 1.17 0 0 1-1.17 1.17h-.86a1.17 1.17 0 0 1-1.16-1.17zm0-5.95a1.14 1.14 0 0 1 .18-.6 1.16 1.16 0 0 1 1-.56h.85A1.17 1.17 0 0 1 19.14 8v.87A1.17 1.17 0 0 1 17.97 10h-.86a1.17 1.17 0 0 1-1-.6 1.14 1.14 0 0 1-.15-.56z"/>
</svg>
