<svg xmlns="http://www.w3.org/2000/svg" viewBox="0 0 18.18 19.81">
  <path d="M3.24 19.8A3.87 3.87 0 0 1 1 19.13a2.13 2.13 0 0 1 0-3.6 3.77 3.77 0 0 1 2.23-.7 3.84 3.84 0 0 1 2.14.63l.22.15V4.1a.43.43 0 0 1 .3-.4L17.6 0a.6.6 0 0 1 .13-.02.46.46 0 0 1 .27.1.44.44 0 0 1 .18.34v13.2a2.26 2.26 0 0 1-1 1.82 3.8 3.8 0 0 1-2.23.7 3.87 3.87 0 0 1-2.25-.7 2.13 2.13 0 0 1 0-3.6 3.77 3.77 0 0 1 2.24-.7 3.84 3.84 0 0 1 2.14.63l.22.14V4.9L6.48 8.25v9.06a2.26 2.26 0 0 1-1 1.83 3.87 3.87 0 0 1-2.24.7zm0-4.13c-1.28 0-2.36.75-2.36 1.64s1.08 1.66 2.36 1.66S5.6 18.2 5.6 17.3s-1.08-1.63-2.36-1.63zM14.94 12c-1.28 0-2.36.76-2.36 1.65s1.08 1.64 2.36 1.64c1.27 0 2.35-.77 2.36-1.65 0-.9-1.08-1.65-2.36-1.65zM6.48 4.4v2.95L17.3 3.98V1.02z"/>
</svg>
