<svg xmlns="http://www.w3.org/2000/svg" viewBox="0 0 21 21.00002">
  <defs>
    <style>
      .cls-1{fill:#78be20;}.cls-2{fill:#ffcd00;}.cls-3{fill:#ef3340;}.cls-4{fill:#fff;}
    </style>
  </defs>
  <path d="M12.07 14.18H21v1.57h-8.93z" class="cls-1"/>
  <path d="M12.07 16.8H21v1.57h-8.93z" class="cls-2"/>
  <path d="M12.07 19.43H21V21h-8.93z" class="cls-3"/>
  <path d="M15.46 13.13a9.45 9.45 0 0 0-2.9-1.76A6.15 6.15 0 0 0 9.26 0 6.15 6.15 0 0 0 6 11.37a9.4 9.4 0 0 0-5.97 7.1C0 18.9 0 21 0 21h1.5s0-2.16.1-2.52a7.83 7.83 0 0 1 11.12-5.35zm-6.2-2.35a4.62 4.62 0 1 1 4.62-4.63 4.63 4.63 0 0 1-4.6 4.63z" class="cls-4"/>
</svg>
