<svg xmlns="http://www.w3.org/2000/svg" viewBox="0 0 21.33333 21.33333">
  <defs>
    <style>
      .cls-1{fill:#78bd43;}.cls-2{fill:#ffcd00;}.cls-3{fill:none;}.cls-4{fill:#fff;}
    </style>
  </defs>
  <path d="M10.67 4.38a6.28 6.28 0 1 0 0 12.56.83.83 0 0 0 0-1.65 4.62 4.62 0 1 1 4.62-4.65.83.83 0 1 0 1.63 0 6.28 6.28 0 0 0-6.27-6.28zm-.93 6.5l-1.2-1.2-1.34 1.3 1.86 1.86.68.68.7-.7 3.7-3.7L12.8 7.8l-3.06 3.07z" class="cls-1"/>
  <path d="M20.8 17.92a1.98 1.98 0 0 0 .5-1.05v-.15a1.98 1.98 0 0 0-.52-1.06 1.98 1.98 0 0 0 .5-1.05v-.06c0-1.3-1.76-2.27-4.1-2.27-2.36 0-4.14.98-4.14 2.27v.08a1.97 1.97 0 0 0 .5 1.06 1.98 1.98 0 0 0-.5 1.05v.17a1.98 1.98 0 0 0 .5 1.05 1.98 1.98 0 0 0-.5 1.05v.16a1.98 1.98 0 0 0 1.2 1.54h.03l.02.02a6.27 6.27 0 0 0 2.7.62h.13A6.33 6.33 0 0 0 20 20.7h.05a1.98 1.98 0 0 0 1.24-1.57v-.16a1.98 1.98 0 0 0-.5-1.05zm-1.15 1.74a.52.52 0 0 0-.07.02 5.13 5.13 0 0 1-2.44.54 5.14 5.14 0 0 1-2.4-.54h-.03v-.02a.88.88 0 0 1-.53-.6.88.88 0 0 1 .36-.53 6.2 6.2 0 0 0 2.62.53h.15a6.28 6.28 0 0 0 2.5-.54.88.88 0 0 1 .38.53.88.88 0 0 1-.53.6zm0-2.25a.52.52 0 0 0-.07.03 5.16 5.16 0 0 1-2.44.54 5.1 5.1 0 0 1-2.4-.54h-.03v-.02a.88.88 0 0 1-.53-.6.88.88 0 0 1 .36-.52 6.23 6.23 0 0 0 2.48.53h.15a6.36 6.36 0 0 0 2.66-.53.88.88 0 0 1 .4.53.88.88 0 0 1-.54.6zm0-2.25a.5.5 0 0 0-.07.02 5.15 5.15 0 0 1-2.44.54 5.1 5.1 0 0 1-2.4-.53h-.04v-.02a.88.88 0 0 1-.55-.64c.05-.46 1.22-1.12 3.02-1.12s2.96.66 3.02 1.13a.88.88 0 0 1-.57.65z" class="cls-2"/>
  <path d="M0 18.3v3.03h3.03A3.03 3.03 0 0 1 0 18.3zM3.03 0H18.3a3.04 3.04 0 0 1 3.03 3.03V0H0v3.03A3.03 3.03 0 0 1 3.03 0z" class="cls-3"/>
  <path d="M3.03 19.68a1.38 1.38 0 0 1-1.38-1.38V3.03a1.38 1.38 0 0 1 1.38-1.38H18.3a1.38 1.38 0 0 1 1.38 1.38v8.26h1.65V3A3.04 3.04 0 0 0 18.3 0H3.03A3.03 3.03 0 0 0 0 3.03V18.3a3.03 3.03 0 0 0 3.03 3.03h8.35v-1.65z" class="cls-4"/>
</svg>
