<svg xmlns="http://www.w3.org/2000/svg" viewBox="0 0 19.98 19.92">
  <path d="M9.1 1.75a9.1 9.1 0 1 0 9.08 9.08 9.1 9.1 0 0 0-9.1-9.08zm0 .67a7.88 7.88 0 0 1 1.6.16 17.4 17.4 0 0 0-8.27 5.35 11.6 11.6 0 0 1-.94-.7 8.4 8.4 0 0 1 7.6-4.8zm2.97.54a8.2 8.2 0 0 1 2.2 1.24A19.3 19.3 0 0 0 5.8 9.47a14.1 14.1 0 0 1-2.78-1.2 16.13 16.13 0 0 1 9.05-5.3zm2.82 1.78a8.02 8.02 0 0 1 1.24 1.52A16.65 16.65 0 0 0 9 10.46c-.83-.3-1.65-.52-2.46-.76a18.05 18.05 0 0 1 8.35-4.96zm1.6 2.1a8.42 8.42 0 0 1-1 9.44c.85-3.3.06-6-.54-8.92.5-.2 1-.36 1.54-.5zm-2.17.78c.67 3.26 1.5 6 .15 9.67a8.24 8.24 0 0 1-2.33 1.36 18.37 18.37 0 0 0-.15-9.8 15.56 15.56 0 0 1 2.32-1.25zM1.2 7.87c2.48 2 5.1 2.4 7.56 3.2.04.9.08 1.78.08 2.65-3.47-.9-6-2.12-8.05-4.32a7.86 7.86 0 0 1 .4-1.53zm10.2 1.4a17.56 17.56 0 0 1-.02 9.66 8.28 8.28 0 0 1-2.3.32h-.46c1.07-2.67.95-5.5.8-8.28a14.08 14.08 0 0 1 2-1.7zm-10.7 1a16.9 16.9 0 0 0 8.13 4.14 16.77 16.77 0 0 1-.3 2.78 12.13 12.13 0 0 1-7.58-4.2 8.37 8.37 0 0 1-.27-2.14 5.42 5.42 0 0 1 0-.57zm.85 4.32a13.33 13.33 0 0 0 6.85 3.2 9.65 9.65 0 0 1-.47 1.34 8.4 8.4 0 0 1-6.37-4.57zM18.1 0a1.9 1.9 0 0 0-.36 3.74v.57h-.5a.32.32 0 0 0-.3.34.32.32 0 0 0 .3.32h.5v.36a.32.32 0 0 0 .32.33.32.32 0 0 0 .32-.32v-.36h.52a.32.32 0 0 0 0-.64h-.52v-.55a1.9 1.9 0 0 0-.3-3.75zm0 3.14a1.25 1.25 0 1 1 1.24-1.25 1.26 1.26 0 0 1-1.25 1.23z"/>
</svg>
