<svg xmlns="http://www.w3.org/2000/svg" viewBox="0 0 20.11151 19.12504">
  <path d="M20.06 7.26a.87.87 0 0 0-.75-.58l-5.86-.53L10.84.5a.88.88 0 0 0-1.6 0L6.7 6.16.8 6.7a.88.88 0 0 0-.54 1.5l4.34 4.3-1.08 5.57a.88.88 0 0 0 1.25.95l5.28-2.62 5.3 2.65a.88.88 0 0 0 1.24-.95l-1.1-5.6 4.34-4.3a.87.87 0 0 0 .2-.92zm-.78.34l-4.5 4.46a.4.4 0 0 0-.1.36l1.12 5.8a.07.07 0 0 1-.1.1l-5.46-2.75a.4.4 0 0 0-.36 0l-5.48 2.7a.07.07 0 0 1-.06 0 .06.06 0 0 1-.03-.08l1.15-5.78a.4.4 0 0 0-.12-.37L.83 7.6a.07.07 0 0 1 .04-.12L7 6.94a.4.4 0 0 0 .32-.24L10 .85a.07.07 0 0 1 .12 0L12.8 6.7a.4.4 0 0 0 .32.24l6.12.54a.07.07 0 0 1 .04.12zM10.2 3.4a.4.4 0 0 0-.52.2L8.26 6.93a.4.4 0 1 0 .75.32l1.44-3.3a.4.4 0 0 0-.22-.54zm-2.42 7.06a9.43 9.43 0 0 0 .05 1.06 7.4 7.4 0 0 0-.42-.87l-.5-.93h-.7v2.54h.54v-.76c0-.42 0-.78-.03-1.1l.03-.02a9.4 9.4 0 0 0 .45.9l.54.98h.6V9.72H7.8zm1.62.74h.92v-.48H9.4v-.53h.98v-.5H8.8v2.54h1.63v-.47H9.4v-.6zm3.7-.44l-.14.88c-.04-.28-.08-.55-.14-.85l-.2-1.1H12l-.2 1.05-.18.9-.15-.9-.2-1.04h-.6l.6 2.55h.62l.22-1.1c.06-.25.1-.5.15-.78l.13.8.22 1.08h.63l.65-2.54h-.58z"/>
</svg>
