<svg xmlns="http://www.w3.org/2000/svg" viewBox="0 0 21.12491 18.63875">
  <path d="M8.17 14.8H3.34a.48.48 0 0 0 0 .97h4.83a.48.48 0 1 0 0-.96zm7.23 0h-4.84a.48.48 0 1 0 0 .97h4.83a.48.48 0 0 0 0-.96zm0-11.93H3.33a.48.48 0 0 0 0 .95H15.4a.48.48 0 0 0 0-.95zm0 2.4h-4.84a.48.48 0 0 0 0 .94h4.83a.48.48 0 0 0 0-.93zm0 2.38h-4.84a.48.48 0 1 0 0 .95h4.83a.48.48 0 1 0 0-.95zm0 2.38h-4.84a.48.48 0 1 0 0 .96h4.83a.48.48 0 1 0 0-.98zm0 2.4h-4.84a.48.48 0 1 0 0 .95h4.83a.48.48 0 1 0 0-.95zm-7.23 0H3.34a.48.48 0 0 0 0 .95h4.83a.48.48 0 0 0 0-.95zm0-7.17H3.34a.48.48 0 0 0-.47.47v4.83a.48.48 0 0 0 .47.48h4.83a.48.48 0 0 0 .48-.47V5.73a.48.48 0 0 0-.48-.47zm-.48 4.82H3.8V6.2h3.9zM20.16 2.4h-1.44V.95a.96.96 0 0 0-.95-.96H.96A.96.96 0 0 0 0 .95v15.3a2.4 2.4 0 0 0 2.4 2.38h16.33a2.4 2.4 0 0 0 2.4-2.4V3.34a.96.96 0 0 0-.96-.94zm0 13.85a1.44 1.44 0 0 1-1.44 1.43H2.4a1.44 1.44 0 0 1-1.44-1.43V.95h16.82v14.58a1.2 1.2 0 0 0 1.2 1.2.48.48 0 0 0 0-.96.24.24 0 0 1-.25-.24V3.33h1.44z"/>
</svg>
