<svg xmlns="http://www.w3.org/2000/svg" viewBox="0 0 314.78 169.98">
  <path d="M237.18 45.33a14.35 14.35 0 1 0 14.35 14.35 14.35 14.35 0 0 0-14.35-14.35m0 21.7a7.36 7.36 0 1 1 7.36-7.35 7.36 7.36 0 0 1-7.36 7.32m-65.8-21.67a14.35 14.35 0 1 0 14.35 14.35 14.35 14.35 0 0 0-14.35-14.35m0 21.7a7.36 7.36 0 1 1 7.36-7.35 7.36 7.36 0 0 1-7.36 7.32"/>
  <path d="M221.9 67.44a14.3 14.3 0 0 1-2.8.52c-2.46 0-3-.84-3-3.2V51.53h5.9V46h-5.86v-7.85h-6.6L208.1 46h-5c-3.75 0-6.6 2.3-8.4 5.9l-2.27-5.9h-4.73v27.5h8.1v-12c0-6 3.56-9.88 7.78-10H208v13.7c0 6.44 3.3 8.84 8.7 8.84a19.38 19.38 0 0 0 6.17-1zm39.42-12.74v18.8h-7.86V46h4.77l1.6 4.2m-.03 0c2.4-2.76 5.66-4.86 9.5-4.86 6.54 0 9.24 5.22 9.24 10.07v18.1h-8.1V55.65c0-2.36-2-3.64-4.1-3.64a7 7 0 0 0-5 2.68M125.48 36h9l12.4 23.6V36h7.46v37.5h-8.17l-13.22-25.9v25.9h-7.47V36zm176.95-14.07v1.34h-1.97v6.6h-1.53v-6.6H297v-1.34h5.43zm1.1 7.95v-7.95h2.07l1.38 5.2 1.4-5.2h2.1v7.95h-1.27v-6.22l-1.6 6.22h-1.14l-1.62-6.22h-.04v6.22h-1.27zm-180.3 76.86l1.87-2.9a11.14 11.14 0 0 0 6.58 2.16c2.7 0 4.37-1.23 4.37-3.35 0-2.45-2.1-3.1-5.57-4.3-3.1-1.1-6.16-2.66-6.16-7.06 0-4.15 3.25-6.4 7.63-6.4a13 13 0 0 1 6.78 1.6l-1.5 3.1a11.16 11.16 0 0 0-5.22-1.3c-2.42 0-3.9.94-3.9 2.87 0 2.27 1.7 2.85 4.9 3.9s7 2.62 7 7.5c0 4.12-3 6.84-8.24 6.84a13.8 13.8 0 0 1-8.5-2.67M147.08 85.28h14.17v3.3H151.1v6.5h8.02v3.23h-8v7.53h10.75v3.3h-14.8V85.27zm20.56 11.94c0-7 3.33-12.3 10-12.3a8.73 8.73 0 0 1 7 2.87l-2.35 2.7a5.94 5.94 0 0 0-4.6-2.07c-3.9 0-5.7 3.2-5.7 9.1 0 5.52 1.9 8.33 5.75 8.33a6.66 6.66 0 0 0 4.94-2.5L185 106a9 9 0 0 1-7.34 3.43c-6.85 0-10-5.22-10-12.2M191.6 100V85.28h4.06v15.36c0 3.28.8 5.42 4.27 5.42s4.27-2.14 4.27-5.42V85.28h4.1V100c0 5.9-2.27 9.43-8.4 9.43s-8.3-3.53-8.3-9.43"/>
  <path d="M233.17 109.12h-4.4L224.17 99h-3.76v10.1h-4V85.3h7.78c4.8 0 8.57 1.73 8.57 6.95a6.2 6.2 0 0 1-4.5 6.2zM224 95.9c3 0 4.58-1 4.58-3.73s-1.58-3.6-4.34-3.6h-3.83v7.33zm16.07-10.62h14.18v3.3H244.1v6.5h8v3.23h-8v7.53h10.75v3.3h-14.78V85.27zm21.6 0h6c7.76 0 11.5 4.2 11.5 11.83s-3.8 12-11.3 12h-6.15zm5.7 20.54c5.56 0 7.46-2.57 7.46-8.7 0-5.4-1.5-8.55-7-8.55h-2.17v17.25zm-5.7-83.9H78.86a57.34 57.34 0 1 0-.06 106.27h182.87a53.13 53.13 0 0 0 0-106.28zm-204.4 92.33a39.2 39.2 0 1 1 39.2-39.15 39.2 39.2 0 0 1-39.24 39.15zm204.4 9.75H87.1a57.37 57.37 0 0 0 27.54-49 57.3 57.3 0 0 0-27.5-49h174.5a49 49 0 0 1 0 97.92zM119.76 8.9h4.48v4.48h-4.47zm0-8.9h4.48v4.48h-4.47zM107.2 13.35h4.18v4.36h-4.17zm-8.27 8.57h4.2v4.17h-4.2zm12.45-4.22h4.68v4.2h-4.68zm-16.64.22h4.2v4h-4.2zm12.46 4h4.18v4.17h-4.17zm8.16-17.44h4.42V8.9h-4.42zM107.2 8.9h8.16v4.45h-8.15zm-4.06 4.45h4.06v8.57h-4.06zm0 12.75v4.2h-4.2v-4.2h-7v3H88.2v3.73h4.2V37h-4.2v-4.14h-4.44v6.54h-4.2v4.17h-2.78v4.2H73.7c-3.43 5.1-12.06 21.06-14.7 27.56-9.38-13.08-16.68-18.27-22.43-20.15-3.1-.93-6.84 2.44-1.7 7.76C46.73 76 50.45 86.74 54.02 95.32c1.9 4.53 10.44 5.24 12.15.62a139.6 139.6 0 0 1 15.2-29.7v-4.67h3.35v-4.2h3.5V52.5h4.2v-4.7h-4.24v-4.3h4.24v4.27h4.15v-4.24h3.32v-5.1h3.73V35h3.6v-8.9zM22.27 152h3.14v2.28a5.47 5.47 0 0 1 4.6-2.52c3.26 0 6.4 2.57 6.4 7.1v.06c0 4.54-3.1 7.1-6.4 7.1a5.58 5.58 0 0 1-4.62-2.4v6.28h-3.1zm11 6.87v-.05a4.06 4.06 0 0 0-3.92-4.38 4.13 4.13 0 0 0-4 4.25v.16a4.12 4.12 0 0 0 3.84 4.38h.14c2.15 0 3.92-1.7 3.92-4.4M39 159v-.05a7.3 7.3 0 0 1 14.6-.05v.05a7.16 7.16 0 0 1-7.26 7.05h-.08a7.08 7.08 0 0 1-7.25-6.9v-.1m11.5 0v-.05a4.23 4.23 0 0 0-4-4.4h-.16a4.1 4.1 0 0 0-4.13 4.08v.32a4.25 4.25 0 0 0 4.1 4.4h.1a4.13 4.13 0 0 0 4.12-4.12V159M55.1 152.04h3.23l2.75 9.4L64.1 152h2.7l3.05 9.42 2.8-9.4h3.14l-4.5 13.8h-2.8l-3.05-9.35-3.1 9.36h-2.8l-4.43-13.8zm22.3 6.9v-.05c0-3.94 2.78-7.15 6.7-7.15 4.35 0 6.55 3.42 6.55 7.37a5.38 5.38 0 0 1-.05.88H80.54a3.82 3.82 0 0 0 3.94 3.48 5 5 0 0 0 3.7-1.63l1.83 1.63a6.92 6.92 0 0 1-5.6 2.57 6.84 6.84 0 0 1-7-6.67v-.44m10.16-1c-.2-2-1.4-3.6-3.48-3.6-1.92 0-3.27 1.48-3.55 3.6zm6.36-5.94h3.1v3.1a4.86 4.86 0 0 1 4.84-3.36v3.32h-.18c-2.75 0-4.67 1.8-4.67 5.42v5.2h-3.07zm9.8 6.94v-.05c0-3.94 2.8-7.15 6.7-7.15 4.36 0 6.56 3.42 6.56 7.37v.87h-10.1a3.82 3.82 0 0 0 3.93 3.46 5 5 0 0 0 3.73-1.63l1.84 1.63a6.93 6.93 0 0 1-5.6 2.57 6.84 6.84 0 0 1-7-6.67v-.44m10.14-1c-.2-2-1.4-3.6-3.47-3.6-1.92 0-3.27 1.48-3.55 3.6zm5.63.98v-.04c0-4.54 3.1-7.1 6.35-7.1a5.67 5.67 0 0 1 4.67 2.4v-7.36h3.14v18.94h-3.16v-2.28a5.48 5.48 0 0 1-4.67 2.57c-3.22 0-6.35-2.57-6.35-7.1m11.08 0v-.06a4.1 4.1 0 0 0-3.82-4.37h-.17c-2.13 0-3.92 1.66-3.92 4.38v.05a4.08 4.08 0 0 0 3.76 4.38h.18a4.13 4.13 0 0 0 4-4.23v-.14m17.9 4.67v2.14h-3.14V146.8h3.14v7.53a5.47 5.47 0 0 1 4.64-2.57c3.24 0 6.38 2.57 6.38 7.1v.06c0 4.54-3.1 7.1-6.38 7.1a5.58 5.58 0 0 1-4.64-2.4m7.83-4.7v-.04a4.06 4.06 0 0 0-3.92-4.38 4.13 4.13 0 0 0-4 4.25v.18a4.12 4.12 0 0 0 3.84 4.38h.16c2.15 0 3.92-1.67 3.92-4.37m5.33 10.2l1.06-2.33a3.85 3.85 0 0 0 1.84.52c.88 0 1.43-.4 1.95-1.58l-5.7-13.7h3.34L168 162.2l3.62-10.2h3.27l-5.47 14.1c-1.1 2.8-2.3 3.83-4.5 3.83a6.38 6.38 0 0 1-3.25-.83M184.16 147.58h3.53l5.45 13.95 5.45-13.95h3.46l-7.55 18.3h-2.8l-7.53-18.3zm18.54 11.36v-.05c0-3.94 2.78-7.15 6.7-7.15 4.35 0 6.55 3.42 6.55 7.37a5.38 5.38 0 0 1-.05.88h-10.06a3.82 3.82 0 0 0 3.94 3.48 5 5 0 0 0 3.7-1.63l1.85 1.63a6.93 6.93 0 0 1-5.6 2.57 6.83 6.83 0 0 1-7-6.65v-.46m10.14-1c-.2-2-1.4-3.6-3.47-3.6-1.92 0-3.27 1.48-3.55 3.6zm6.36-5.94h3.14v3.1a4.86 4.86 0 0 1 4.85-3.36v3.32h-.2c-2.76 0-4.68 1.8-4.68 5.42v5.2h-3.14zm10.55-5h3.37v3h-3.37zm.13 5.08h3.1v13.7h-3.1zm6.4 11.02l1.93-2.3a8.35 8.35 0 0 0 5.73 2.37c2 0 3.22-.9 3.22-2.28v-.07c0-1.3-.73-2-4.1-2.77-3.87-.93-6-2.07-6-5.42v-.05c0-3.1 2.6-5.27 6.2-5.27a10.06 10.06 0 0 1 6.6 2.28l-1.78 2.4a8.26 8.26 0 0 0-4.92-1.87c-1.87 0-3 1-3 2.15v.05c0 1.4.83 2 4.3 2.85 3.85.93 5.84 2.3 5.84 5.32 0 3.4-2.67 5.42-6.5 5.42a11.2 11.2 0 0 1-7.56-2.9M253.83 147h3.37v3h-3.37zm.13 5.08h3.14v13.7H254zM261 168.3l1.18-2.35a8.93 8.93 0 0 0 4.88 1.45c2.8 0 4.33-1.45 4.33-4.2v-1.06a5.74 5.74 0 0 1-4.84 2.5 6.15 6.15 0 0 1-6.23-6.05v-.42a6.18 6.18 0 0 1 5.92-6.44h.3a5.9 5.9 0 0 1 4.8 2.33v-2h3.15V163a7 7 0 0 1-1.73 5.16c-1.25 1.24-3.16 1.84-5.63 1.84a11.8 11.8 0 0 1-6.12-1.63m10.4-10.07v-.05a3.83 3.83 0 0 0-3.87-3.8h-.13a3.7 3.7 0 0 0-3.9 3.5v.32a3.74 3.74 0 0 0 3.7 3.8h.2a3.84 3.84 0 0 0 4-3.7v-.07M278.57 152h3.14v2.13a4.93 4.93 0 0 1 4.3-2.4c3.1 0 4.88 2.07 4.88 5.25v8.72h-3.14V158c0-2.13-1.06-3.35-2.93-3.35s-3.1 1.27-3.1 3.4v7.73h-3.12z"/>
</svg>
