<svg xmlns="http://www.w3.org/2000/svg" viewBox="0 0 18.11375 20.01434">
  <path d="M18.02 3.48L15.26.14a.35.35 0 0 0-.34-.14H3.2a.38.38 0 0 0-.35.13L.1 3.48a.4.4 0 0 0-.05.44l4.55 7.9a5.32 5.32 0 1 0 8.92 0l4.55-7.9a.4.4 0 0 0-.05-.44zm-3.8-2.7l-1.8 3.14h-6.7L3.9.77zm-5.16 8.6h-.18L6.16 4.7h5.8l-2.7 4.7a1.48 1.48 0 0 0-.2-.02zm-8.2-5.6L3.13 1 5.1 4.4a.37.37 0 0 0 .1.2l2.83 4.87a5.4 5.4 0 0 0-2.92 1.66zm8.2 15.45a4.54 4.54 0 1 1 4.54-4.54 4.54 4.54 0 0 1-4.54 4.52zm3.94-8.1a5.32 5.32 0 0 0-2.88-1.65l2.8-4.9a.42.42 0 0 0 .1-.17L14.97 1l2.27 2.76zm-3.94-.26a3.82 3.82 0 1 0 3.82 3.82 3.83 3.83 0 0 0-3.82-3.84zm0 6.86a3.04 3.04 0 1 1 3.04-3.04 3.05 3.05 0 0 1-3.04 3.02zm0-5.48l-.74 1.5-1.66.24 1.2 1.15-.28 1.65 1.48-.77 1.48.78-.28-1.63 1.2-1.17-1.66-.25zm.6 2.7l.13.83-.75-.4-.73.4.14-.82-.6-.58.83-.12.36-.74.37.74.82.12z"/>
</svg>
