<svg xmlns="http://www.w3.org/2000/svg" viewBox="0 0 10.50521 19.98593">
  <path d="M7 10.6a.4.4 0 0 0 .43.15c1.64-.48 2.63-1.25 2.96-2.3.3-1.02-.07-2.24-1.1-3.54a6.77 6.77 0 0 0-1.4-1.24C6.86 2.92 6.2 2.46 6.7.5a.4.4 0 0 0-.2-.44.38.38 0 0 0-.45.05C2.8 3.1 2 5.14 1.85 6.2a2.1 2.1 0 0 1-.2-1.14.4.4 0 0 0-.25-.42.4.4 0 0 0-.46.15A4.7 4.7 0 0 0 .1 8.46a5.17 5.17 0 0 0 2.2 3l.22.12c-.55.1-1.1.2-1.68.33a.4.4 0 0 0-.14.7l.1.07c1.1.82 2.43 1.83 2.74 2.9.03.34.03 2.6.03 4a.43.43 0 0 0 .1.28.4.4 0 0 0 .3.1h2.76a.4.4 0 0 0 .4-.4c-.02-1.4-.02-3.67 0-4 .13-.66 1.05-1.44 1.95-2.2.3-.25.62-.5.92-.78a.4.4 0 0 0 .12-.38.4.4 0 0 0-.27-.3A15.87 15.87 0 0 0 5 11.35a.37.37 0 0 0-.12-.12.65.65 0 0 1-.3-.4 1.98 1.98 0 0 1 .22-1.36l.45.32a.4.4 0 0 0 .44 0 .38.38 0 0 0 .16-.4 2.1 2.1 0 0 0-.07-.3 2.5 2.5 0 0 1 .52-2.55c.52.67 1.4 2.38.68 3.6a.4.4 0 0 0 0 .47zm-3.2 3.85a26.2 26.2 0 0 1 3.07 0 2.88 2.88 0 0 0-.43.75 11.86 11.86 0 0 0-2.23 0 4.56 4.56 0 0 0-.4-.75zm2.52 4.8h-2a33.32 33.32 0 0 0-.05-3.8v-.03a12.15 12.15 0 0 1 2.1 0l-.02.05c-.04.3-.04 1.1-.03 3.77zm2.6-6.72l-.35.3a16.38 16.38 0 0 0-1.34 1.2 24.85 24.85 0 0 0-3.76 0 11.1 11.1 0 0 0-1.64-1.5 16.55 16.55 0 0 1 7.08 0zM6.5 5.67a.37.37 0 0 0-.5.05 3.5 3.5 0 0 0-1.15 2.86.4.4 0 0 0-.3-.06.38.38 0 0 0-.26.2 3.14 3.14 0 0 0-.5 2.34c0 .06.03.1.05.16a3.6 3.6 0 0 1-1.17-.4 4.48 4.48 0 0 1-1.84-2.5 3.48 3.48 0 0 1 .18-2 1.5 1.5 0 0 0 1.1 1 .4.4 0 0 0 .37-.1.37.37 0 0 0 .1-.36c-.06-.34-.2-2.1 3.14-5.4A3.04 3.04 0 0 0 7.4 4.28a5.68 5.68 0 0 1 1.27 1.1 3.24 3.24 0 0 1 .95 2.83 2.7 2.7 0 0 1-1.67 1.53A4.87 4.87 0 0 0 6.5 5.68z"/>
</svg>
