<svg xmlns="http://www.w3.org/2000/svg" viewBox="0 0 19.88 19.90002">
  <path d="M19.55 9.62h-3.9L10.02.16A.32.32 0 0 0 9.74 0a.33.33 0 0 0-.28.16L3.28 9.62H.33a.33.33 0 0 0-.33.33v9.62a.33.33 0 0 0 .33.33h19.22a.33.33 0 0 0 .33-.33V9.95a.33.33 0 0 0-.33-.33zM9.73.96l5.15 8.65H4.08zm9.5 18.27H.67v-8.95h18.56zM3.9 17.1a2.2 2.2 0 0 0 1.58-.62 3.04 3.04 0 0 0 .8-2.13 1.67 1.67 0 0 0-1.75-1.84 2.23 2.23 0 0 0-1.56.64 3.08 3.08 0 0 0-.83 2.14A1.7 1.7 0 0 0 3.9 17.1zm-.33-3.56a1.2 1.2 0 0 1 .88-.38c.82 0 1.02.63 1.02 1.22a2.67 2.67 0 0 1-.6 1.7 1.24 1.24 0 0 1-.87.38c-.75 0-1.05-.56-1.05-1.23a2.6 2.6 0 0 1 .62-1.7zm4.03 1.8c.13 0 .27.04.43.04a2.3 2.3 0 0 0 1.4-.42 1.5 1.5 0 0 0 .56-1.2 1.05 1.05 0 0 0-.43-.9 1.9 1.9 0 0 0-1.14-.3 4.67 4.67 0 0 0-1.08.1l-.83 4.37h.76zm.4-2.12a1.43 1.43 0 0 1 .43-.04c.43 0 .77.17.77.64v.06a.98.98 0 0 1-1.08.88 1.64 1.64 0 0 1-.4-.04zm4.77 3.16h-1.8l.25-1.33h1.6l.13-.65h-1.6l.2-1.17h1.7l.14-.65h-2.5l-.85 4.45h2.57l.13-.65zm1.3.65l.35-1.9c.12-.66.2-1.2.26-1.63h.03a10.46 10.46 0 0 0 .44 1.42l.8 2.1h.8l.84-4.44h-.73l-.37 1.95a12.15 12.15 0 0 0-.2 1.5 11.82 11.82 0 0 0-.4-1.38l-.8-2.07h-.87l-.84 4.45z"/>
</svg>
