<svg xmlns="http://www.w3.org/2000/svg" viewBox="0 0 20.11 20.17"><title>Other_Games</title><path d="M20.1 9.93a.46.46 0 0 0-.32-.3l-1-.3a3.42 3.42 0 0 1-2-4.94l.5-.92a.46.46 0 0 0-.62-.62l-.9.5a3.42 3.42 0 0 1-4.95-2l-.28-1a.45.45 0 0 0-.87 0l-.3 1a3.42 3.42 0 0 1-4.93 2l-.9-.5a.46.46 0 0 0-.63.62l.5.9a3.42 3.42 0 0 1-2 4.95l-1 .3a.46.46 0 0 0 0 .86l1 .28a3.42 3.42 0 0 1 2 4.94l-.5.9a.46.46 0 0 0 .6.63l.92-.5a3.4 3.4 0 0 1 2.46-.33.46.46 0 0 0 .22-.88 4.3 4.3 0 0 0-2.7.22 4.34 4.34 0 0 0-2.4-5.7A4.33 4.33 0 0 0 4.38 4.4 4.34 4.34 0 0 0 10 2a4.34 4.34 0 0 0 5.65 2.37A4.34 4.34 0 0 0 18.07 10a4.34 4.34 0 0 0-2.38 5.65 4.3 4.3 0 0 0-2.78-.2.46.46 0 1 0 .23.88 3.4 3.4 0 0 1 2.5.3l.92.5a.46.46 0 0 0 .62-.6l-.5-.92a3.42 3.42 0 0 1 2-4.93l1-.3a.46.46 0 0 0 .3-.55zM10 16.63a1.77 1.77 0 1 0 1.77 1.77A1.77 1.77 0 0 0 10 16.63zm.86 1.77a.86.86 0 1 1-.86-.86.86.86 0 0 1 .86.86zM14.35 9.6a4.15 4.15 0 0 0-8.3.18v.15a1 1 0 0 0 .22.82A.93.93 0 0 0 7 11h1.27c1 0 1-.77 1-1.17a.93.93 0 1 1 1.58.78c-.14.15-.34.32-.55.5-.87.77-2.06 1.82-2.06 2.95v1.3a.9.9 0 0 0 .9.9h1.3a.9.9 0 0 0 .9-.9v-.8a5 5 0 0 1 1.16-1.15c.23-.18.45-.36.6-.5a4 4 0 0 0 1.25-3.3zm-1.85 2.6c-.13.14-.33.3-.55.47-.8.65-1.4 1.15-1.5 1.7v.9h-1.3V14c0-.72 1.05-1.64 1.75-2.26.22-.2.43-.38.6-.54a1.84 1.84 0 0 0-1.3-3.14 1.8 1.8 0 0 0-1 .27 1.85 1.85 0 0 0-.87 1.37 2.12 2.12 0 0 1 0 .28H7s0 .02 0-.04V9.8a3.24 3.24 0 0 1 5-2.58 3.3 3.3 0 0 1 1.46 2.46 3.1 3.1 0 0 1-.94 2.53z"/></svg>