<svg xmlns="http://www.w3.org/2000/svg" viewBox="0 0 20.62499 17.9637">
  <path d="M20.56 8.22a12.2 12.2 0 0 0-1.73-3.04l-1.3 1.28a10.42 10.42 0 0 1 1.22 2.1 9.32 9.32 0 0 1-8.44 5.83q-.3 0-.64-.05l-1.58 1.57a10.38 10.38 0 0 0 2.24.25 11.14 11.14 0 0 0 10.26-7.3.9.9 0 0 0 0-.66zM18.96 0L16.2 2.75A10.52 10.52 0 0 0 10.3.9 11.14 11.14 0 0 0 .07 8.23a.9.9 0 0 0 0 .66 11.74 11.74 0 0 0 4.5 5.55L2.3 16.7l1.28 1.26 16.64-16.7zM1.85 8.55A9.3 9.3 0 0 1 10.3 2.7a8.72 8.72 0 0 1 4.62 1.34l-1.7 1.72a4 4 0 0 0-2.9-1.25 4.05 4.05 0 0 0-4.05 4.06 4 4 0 0 0 1.26 2.9l-1.68 1.7a9.86 9.86 0 0 1-3.98-4.6z"/>
</svg>
