<svg xmlns="http://www.w3.org/2000/svg" viewBox="0 0 782.24005 132.58202">
  <path d="M101.92 55.85q.13-8.95 4-13.6a17.08 17.08 0 0 1 5.1-3.3 15.12 15.12 0 0 1 6.22-1.4h24.34q16.1.12 16.42 17.6v35.88a14.83 14.83 0 0 1-4.85 10.75 15.54 15.54 0 0 1-11.15 4.9h-23v25.9h-17V55.85zm39 3.38q-.13-4.06-3.85-4.2H123.8c-3.15.18-4.77 1.9-4.85 5.15v23.85c.08 3.34 1.87 5 5.36 5.15h12.18a4 4 0 0 0 3.15-1.43 3.4 3.4 0 0 0 1.3-2.78V59.23zm69.9-.42c.07-2.6-1.44-3.85-4.6-3.76h-34.3v-17.5h38.62q16.87.28 17.15 16.36v36.6a17 17 0 0 1-4.28 11.47 14.4 14.4 0 0 1-11.13 4.73H189q-17-.15-17.3-15.6V76.97q.13-16.16 16.5-16.44h22.65V58.8zM188.7 85.75a2.7 2.7 0 0 0 1.34 2.38 4.43 4.43 0 0 0 3.08 1.1h13.1c3 0 4.48-1.15 4.57-3.46v-4.9c0-2.67-1.57-4-4.7-4h-13a5.77 5.77 0 0 0-3.54.82c-.6.64-.92 1.88-.92 3.73v4.34zm86.83 29.35a5.56 5.56 0 0 0 3.47-1.45 3.67 3.67 0 0 0 1.38-2.8v-4.15h-21.8a17.73 17.73 0 0 1-6.83-1.1 15.72 15.72 0 0 1-5.37-3.62 17.42 17.42 0 0 1-3.67-5.8 18.15 18.15 0 0 1-1.16-7V37.54h17v46.1c0 3.7 1.5 5.56 4.56 5.56h12a5.28 5.28 0 0 0 3.7-1.44 3.6 3.6 0 0 0 1.5-2.9V37.53h16.9v76.2q-.14 8.47-4.33 13.6c-2.84 3.42-6.7 5.16-11.64 5.25h-39.7v-17.5zm35.1-25.9H341c2.78-.1 4.22-1.2 4.3-3.34V84.3a3.53 3.53 0 0 0-.4-1.5c-.68-1.34-1.5-2-2.5-2h-15a16.8 16.8 0 0 1-11.48-4.6 13.15 13.15 0 0 1-5-10.1V53.03q.26-15.27 16.6-15.54h35.2v17.53h-29.87c-3.5 0-5.27 1.08-5.27 3.22v1.7q0 3.33 5.4 3.33h15a14.1 14.1 0 0 1 10.23 4.6 15.57 15.57 0 0 1 4.47 10.73V91.4q-.15 5.38-4.94 10.74a13.92 13.92 0 0 1-4.74 3.65 19.5 19.5 0 0 1-6.76.94h-35.6V89.2zm103.3-30.38c.08-2.6-1.44-3.86-4.6-3.78h-34.3v-17.5h38.64q16.87.26 17.13 16.35v36.6a17 17 0 0 1-4.24 11.46 14.35 14.35 0 0 1-11.12 4.72h-23.36q-17-.15-17.28-15.6V76.96q.12-16.16 16.5-16.44h22.65zM391.8 85.75a2.7 2.7 0 0 0 1.4 2.38 4.4 4.4 0 0 0 3.06 1.1h13.1c3 0 4.5-1.15 4.58-3.46v-4.9c0-2.67-1.6-4-4.72-4h-13a5.73 5.73 0 0 0-3.52.82c-.6.63-.93 1.87-.93 3.72v4.33zm52.86-58.12a14.48 14.48 0 0 1 5.26-11.35q5-4.33 13-4.45h10.82v16.9h-6.55c-3.6.07-5.46 1.8-5.53 5.13v3.7h12.06v17.5H461.7v51.65h-17V27.6zm56.46 55.62v1.08a4.7 4.7 0 0 0 1.1 3.32 2.44 2.44 0 0 0 2.2 1.56h35v17.5h-37.2a25.86 25.86 0 0 1-7.9-1 14.4 14.4 0 0 1-5.48-3.3 14.57 14.57 0 0 1-3.84-5.6 25.22 25.22 0 0 1-1-8.06l-.14-35q.28-15.87 16.58-16.14h23q15.92.27 16.16 16.74v13.8zm21.1-24.74v-.44a2.7 2.7 0 0 0-1.1-2.23 5 5 0 0 0-2.94-.82h-11.86a5.22 5.22 0 0 0-3.7 1.3 3.7 3.7 0 0 0-1.77 3.2v7zm53.37 48.2a35.53 35.53 0 0 1-7.1-.65 15.15 15.15 0 0 1-6.74-3.16 16.14 16.14 0 0 1-4.83-6.84 23.8 23.8 0 0 1-1.38-8.45V54.93a21.2 21.2 0 0 1 .8-7 14.6 14.6 0 0 1 3.6-5.94 15.54 15.54 0 0 1 6.4-4.06 30 30 0 0 1 7.3-.8h26.1v4.08h-25.5q-6.75 0-10.63 2.78c-2.65 2-4 5.5-4 10.4v32.65a21.64 21.64 0 0 0 1 6.7 11.8 11.8 0 0 0 9.17 8.3 28.58 28.58 0 0 0 6 .6h24.32v4.1H575.6zM671 87.87a42.27 42.27 0 0 1-.53 7 15.8 15.8 0 0 1-3.4 6.37 17.13 17.13 0 0 1-13.3 5.5h-20.4c-5.3 0-9.57-1.58-12.9-4.72s-5.1-7.42-5.1-13V78.48q.26-17.82 17.75-18.24H667v-4.6a16 16 0 0 0-3.28-10 10.37 10.37 0 0 0-4.9-3.74 25.16 25.16 0 0 0-6.36-.76h-37v-4.12h35.06a52.28 52.28 0 0 1 8.73.67 10.22 10.22 0 0 1 3.75 1.6 12.23 12.23 0 0 1 3.35 3.16 21.74 21.74 0 0 1 4.6 14v31.38zm-4.06-23.53h-34.28q-6.15.14-9.62 3.8t-3.57 10.2v10.42a21.88 21.88 0 0 0 .64 5.53 8.63 8.63 0 0 0 3.2 4.66 15 15 0 0 0 9.83 3.66h20.74q13-.14 13-13.73V64.32zm42.3-23.15q-14.25.27-14 15.55v50h-4.1v-50q-.27-19.7 18.74-19.64h4.53v4.06zm73 46.17q-.54 19.78-20.94 19.37h-15.1a42 42 0 0 1-8.6-.8 16.27 16.27 0 0 1-7.47-4.72 15.7 15.7 0 0 1-3.42-6.76 25.63 25.63 0 0 1-.8-7.63V57.03q.28-20.1 20.27-19.94h32V14.52h4.08v72.8zm-4.08-46.15H745.9a24.73 24.73 0 0 0-6.28.74 11.1 11.1 0 0 0-5.62 3.6 12.2 12.2 0 0 0-3.23 5.26 17.77 17.77 0 0 0-.76 6.36v31.87c0 5.3 1.55 8.9 4.66 10.83a18.3 18.3 0 0 0 5.1 2 24.6 24.6 0 0 0 6.3.75h14.1c5.26 0 9.58-1.2 12.9-3.64 3.32-2.3 5-6.25 5.13-11.9V41.2zM7.32 34.9a20.9 20.9 0 0 1 4-1.34 25.88 25.88 0 0 1 50.65 0 18.67 18.67 0 0 1 9.46 4.58 37.24 37.24 0 0 0-.25-6.47 34.7 34.7 0 0 0-69.24 1.65 49.76 49.76 0 0 0-.1 5A22.2 22.2 0 0 1 7.3 34.9m49.6 2.63H15.3a15.12 15.12 0 0 0-6.2 1.42A17.22 17.22 0 0 0 4 42.23Q.12 46.9 0 55.83v32.54q.13 9 4 13.6a16.9 16.9 0 0 0 5.1 3.3 15.4 15.4 0 0 0 6.2 1.42h41.6Q73 106.52 73.3 89V55.17q-.3-17.5-16.4-17.64"/>
</svg>
