<svg xmlns="http://www.w3.org/2000/svg" viewBox="0 0 19.96302 19.35355">
  <path d="M19.84 2.2A2.44 2.44 0 0 0 18.52.3c-.94-.35-1.56-.4-2-.14-.56.34-.65 1.02-.76 1.9A6.4 6.4 0 0 1 14 6.16a37.36 37.36 0 0 1-6.5 4.34 22.22 22.22 0 0 0-3.3 2.1l-1.1 1.1a.13.13 0 0 0-.05.06.8.8 0 0 0-.14.12L.55 16.26a1.8 1.8 0 0 0 2.56 2.56l2.37-2.38.1-.1c0-.02.04-.03.06-.05l1.12-1.14A15.34 15.34 0 0 1 10 13.73c2.52-.96 5.67-2.15 7.13-3.62a9.4 9.4 0 0 0 2.7-7.9zM2.5 18.23a.97.97 0 1 1-1.38-1.37l2.38-2.38a.38.38 0 0 1 .54 0l.83.83a.4.4 0 0 1 .1.28.4.4 0 0 1-.1.27zm14.02-8.7c-1.34 1.34-4.4 2.5-6.84 3.42a13 13 0 0 0-3.54 1.63l-.46.46a1.04 1.04 0 0 0-.23-.32l-.83-.82a1.2 1.2 0 0 0-.32-.22l.5-.5a24.07 24.07 0 0 1 3.1-1.93 37.6 37.6 0 0 0 6.7-4.47 7.2 7.2 0 0 0 1.98-4.6c.07-.6.14-1.16.35-1.28.1-.06.4-.12 1.26.2a1.65 1.65 0 0 1 .8 1.3 8.5 8.5 0 0 1-2.5 7.14z"/>
</svg>
