<svg xmlns="http://www.w3.org/2000/svg" viewBox="0 0 20.01 20.02">
  <path d="M8.34 6.08a3.04 3.04 0 1 0-2.15-.9 3.04 3.04 0 0 0 2.13.9zm-2-4.14a.04.04 0 0 0 .02.03l.2.45a.38.38 0 0 0 .37.2.38.38 0 0 0 .03.4l.3.38a.37.37 0 0 0 .38.1.4.4 0 0 0 .1.4l.35.3a.4.4 0 0 0 .4.07.4.4 0 0 0 .15.37 4.5 4.5 0 0 0 .42.24.35.35 0 0 0 .17.04.38.38 0 0 0 .34-.2.37.37 0 0 0-.18-.52L9.05 4a.4.4 0 0 0-.36-.03.4.4 0 0 0-.14-.34l-.3-.28a.4.4 0 0 0-.37-.1.37.37 0 0 0-.1-.35q-.1-.18-.23-.33a.4.4 0 0 0-.33-.16.36.36 0 0 0 0-.34 3.52 3.52 0 0 1-.17-.35.34.34 0 0 0-.15-.17.34.34 0 0 0 .07-.2.15.15 0 0 1 0-.05.38.38 0 0 0 .1-.13 2.28 2.28 0 0 1 2.84.3 2.27 2.27 0 0 1 .3 2.84.38.38 0 0 0-.13.1.15.15 0 0 1-.05 0 .4.4 0 0 0-.36.4.14.14 0 0 0 0 .06 2.28 2.28 0 0 1-3.36-2.9zM19.2.8a2.75 2.75 0 0 0-3.9 0l-1.94 1.96a29.9 29.9 0 0 0-3.06 3.6L8.2 9.22a28.84 28.84 0 0 1-2.95 3.47l-3.7 3.7a1.07 1.07 0 0 0-1.22.2 1.1 1.1 0 0 0 0 1.56l1.52 1.52a1.1 1.1 0 0 0 1.58 0 1.05 1.05 0 0 0 .2-1.24l3.68-3.7a28.84 28.84 0 0 1 3.5-2.95l2.87-2.1a29.9 29.9 0 0 0 3.6-3.05L19.2 4.7a2.76 2.76 0 0 0 0-3.9zM6.8 14.23l-3.65 3.65-.26-.27a.38.38 0 1 0-.56.54l.47.48c0 .02 0 .02.03.03 0 .02.02.03.03.05l.04.04a.3.3 0 0 1 0 .42.35.35 0 0 1-.5 0L.86 17.62a.35.35 0 0 1 0-.5.3.3 0 0 1 .42 0l.03.04a.38.38 0 0 0 .55 0l3.93-3.93.53-.55 1 1-.54.54zM18.7 4.18l-2 1.92a29.3 29.3 0 0 1-3.5 3l-2.88 2.08c-.85.62-1.67 1.3-2.46 2L6.84 12.1a29.15 29.15 0 0 0 2-2.45L10.9 6.8a30.1 30.1 0 0 1 2.98-3.5l1.95-1.96a2 2 0 0 1 3.4 1.4 1.93 1.93 0 0 1-.58 1.43z"/>
</svg>
