<svg xmlns="http://www.w3.org/2000/svg" viewBox="0 0 241.34209 171.94358">
  <path d="M51.64 51.34a11.42 11.42 0 0 0-3.5-.52l-6.6-.02-.05 19.8 3.75.02.02-6.6h2.8a10.93 10.93 0 0 0 3.46-.56 6.8 6.8 0 0 0 2.44-1.4 5.54 5.54 0 0 0 1.46-2.1 7.3 7.3 0 0 0 .48-2.67 7 7 0 0 0-.44-2.58 5.28 5.28 0 0 0-1.4-2.04 6.7 6.7 0 0 0-2.43-1.36zm-.72 8.7a3.83 3.83 0 0 1-2.82 1.16h-2.8v-6.62h2.83a6.2 6.2 0 0 1 1.64-.06 2.9 2.9 0 0 1 1.15.5 2.42 2.42 0 0 1 .68.98 4.33 4.33 0 0 1 .22 1.42 3.7 3.7 0 0 1-.9 2.62zm26.16-9.12l-7.3 18.85v-1.9l-7.53-.02.06-16.98-4.7-.02-.07 19.8 11.77.05h3.2a1.3 1.3 0 0 0 .84-.26 1.62 1.62 0 0 0 .48-.64l1.35-3.8 7.87.03 1.32 3.8a1.55 1.55 0 0 0 .5.66 1.4 1.4 0 0 0 .86.25h3.17l-7.65-19.83zm-.9 12.26l2.16-6c.13-.3.26-.67.4-1.1.15-.43.28-.9.4-1.4l.4 1.4.4 1.1 2.12 6.02zm20.96 7.62l.03-7.6 7.1-12.2h-3.63a1.25 1.25 0 0 0-.84.3 2.08 2.08 0 0 0-.5.63l-3.23 6.22-.57 1.17c-.17.37-.32.73-.45 1.1q-.2-.55-.46-1.1-.3-.54-.6-1.17l-3.23-6.23a1.92 1.92 0 0 0-.5-.68 1.35 1.35 0 0 0-.86-.28h-3.6L93.4 63.2l-.03 7.57zm20.8-15.97v-3.78L105.7 51l-.07 19.82 12.26.04v-2.83l-8.5-.03.02-5.66 6.6.03.02-2.83-6.6-.02V54.8l8.5.03zm15.53 5.55a5.47 5.47 0 0 0 .82-1.6 6.13 6.13 0 0 0 .27-1.85 6.03 6.03 0 0 0-.43-2.33 4.57 4.57 0 0 0-1.37-1.82 6.82 6.82 0 0 0-2.4-1.23 12.68 12.68 0 0 0-3.55-.47l-6.04-.02-.08 19.8 3.78.03.02-7.57h1.53a1.65 1.65 0 0 1 .83.18 1.6 1.6 0 0 1 .5.54l3.75 6.07a1.6 1.6 0 0 0 1.5.8h3.7l-4.58-7.1a3.6 3.6 0 0 0-.6-.73 3.97 3.97 0 0 0-.74-.53 6.76 6.76 0 0 0 1.76-.9 5.84 5.84 0 0 0 1.3-1.27zm-3.1-1.86a2.7 2.7 0 0 1-.7 1.04 3.24 3.24 0 0 1-1.18.7 5.2 5.2 0 0 1-1.74.26h-2.24l.02-5.67h2.27c1.28 0 2.23-.03 2.85.5a2.38 2.38 0 0 1 .92 2.02 2.98 2.98 0 0 1-.22 1.15zm15.93 49.9a6.1 6.1 0 0 0 1.45-.7 4.25 4.25 0 0 0 1-.95 3.64 3.64 0 0 0 .58-1.1 4.03 4.03 0 0 0 .2-1.22 5.3 5.3 0 0 0-.4-2.06 3.8 3.8 0 0 0-1.2-1.58 6.05 6.05 0 0 0-2.15-.64 14.46 14.46 0 0 0-3.2 0l-6.86-.03-.06 17.92h7.47a9.3 9.3 0 0 0 2.92-.46 6.3 6.3 0 0 0 2.14-1.17 5 5 0 0 0 1.3-1.77 5.3 5.3 0 0 0 .47-2.2 3.77 3.77 0 0 0-.9-2.62 5.3 5.3 0 0 0-2.8-1.46zm-6.82-5.4h3.1c.54 0 1-.28 1.4-.2a2.44 2.44 0 0 1 .96.28 1.5 1.5 0 0 1 .57.7 3.07 3.07 0 0 1 .2 1.14 2.62 2.62 0 0 1-.23 1.13 1.87 1.87 0 0 1-.64.76 3.05 3.05 0 0 1-1.05.6 6.33 6.33 0 0 1-1.43.3h-2.87zm6.57 10.36a2.03 2.03 0 0 1-.5.85 2.75 2.75 0 0 1-.96.7 4.15 4.15 0 0 1-1.53.35h-3.64l.02-4.72h3.6c.6 0 1.08-.23 1.47-.12a2.46 2.46 0 0 1 .96.34 1.6 1.6 0 0 1 .53.68 2.67 2.67 0 0 1 .17.97 3.26 3.26 0 0 1-.15.95zm6.6 4.77l11.3.03v-2.83l-7.53-.02.02-4.72 5.66.04v-2.83h-5.66l.02-4.7H164l.02-2.83-11.32-.04-.06 17.93zm12.3-15.05h5.66l-.03 15.1 3.77.02.05-15.1 5.65.03v-2.83l-15.08-.05v2.83zm26.43 5.84a5.45 5.45 0 0 0-1.34-.94 13.77 13.77 0 0 0-1.54-.65l-1.54-.5a8.92 8.92 0 0 1-1.35-.53 3.16 3.16 0 0 1-.93-.7 1.46 1.46 0 0 1-.36-1.02 1.98 1.98 0 0 1 .68-1.54 2.9 2.9 0 0 1 2-.6 3.97 3.97 0 0 1 1.3.2 7.45 7.45 0 0 1 1 .44q.43.23.75.43a1.18 1.18 0 0 0 .6.2.8.8 0 0 0 .5-.13 1.45 1.45 0 0 0 .35-.43l.95-1.8a6.95 6.95 0 0 0-2.4-1.43 9 9 0 0 0-3.1-.53 7.13 7.13 0 0 0-2.64.47 6 6 0 0 0-1.96 1.2 5.12 5.12 0 0 0-1.62 3.72 5.6 5.6 0 0 0 .37 2.15 4.46 4.46 0 0 0 .94 1.46 4.76 4.76 0 0 0 1.33.96 12.65 12.65 0 0 0 1.54.6q.8.27 1.54.48a7.5 7.5 0 0 1 1.34.5 2.92 2.92 0 0 1 .95.74 1.7 1.7 0 0 1 .36 1.14 2.24 2.24 0 0 1-.75 1.83 3.14 3.14 0 0 1-2.07.6 4.36 4.36 0 0 1-1.58-.26 7.15 7.15 0 0 1-1.16-.57q-.5-.3-.88-.55a1.32 1.32 0 0 0-.73-.26.95.95 0 0 0-.48.12 1.13 1.13 0 0 0-.37.34l-1.13 1.8a6.7 6.7 0 0 0 1.25 1 9.28 9.28 0 0 0 1.52.77 10.1 10.1 0 0 0 1.68.5 8.77 8.77 0 0 0 1.75.2 7.6 7.6 0 0 0 2.77-.47 5.9 5.9 0 0 0 2.05-1.3 5.62 5.62 0 0 0 1.27-1.9 6.33 6.33 0 0 0 .45-2.38 4.8 4.8 0 0 0-.38-1.97 4.27 4.27 0 0 0-.95-1.36zm46.32-9.57l-51.93-52.3c-2-2-4.02-3.03-6-3.04a5.47 5.47 0 0 0-2.12.4c-1.46.6-3.9 2.4-3.92 7.6l-.08 22.27a6.18 6.18 0 0 1-6.2 6.15l-64.85-.22A12.55 12.55 0 0 0 90.04 92.7l-.12 31.86a12.56 12.56 0 0 0 12.5 12.56l64.85.22a6.18 6.18 0 0 1 6.15 6.2l-.07 20.45c-.02 5.2 2.38 7.1 3.87 7.6 3.3 1.1 6.13-.6 8.14-2.6l52.3-51.94a12.53 12.53 0 0 0 .05-17.7zm-4.52 13.2l-53.5 53.1.1-22.12a12.54 12.54 0 0 0-12.5-12.57l-64.85-.2a6.2 6.2 0 0 1-6.15-6.2l.1-31.85a6.2 6.2 0 0 1 6.2-6.15l64.86.22A12.54 12.54 0 0 0 180 74.32l.08-23.95 53.12 53.47a6.17 6.17 0 0 1-.02 8.72zM67.83 89.17l.02 34.1c0 2.55-.73 4.25-2.05 4.8-1.28.52-3-.18-4.8-1.98L9.08 73.8a9.5 9.5 0 0 1 .04-13.4L61.4 8.46c1.4-1.4 2.3-2.37 3.43-2.5a2.53 2.53 0 0 1 1.8.36 5.65 5.65 0 0 1 2.4 4.62l-.06 20.75c0 2.8.46 4.9 2.1 6.54A8.92 8.92 0 0 0 77.3 41l65.26.23a9.04 9.04 0 0 1 6.34 2.83 9.98 9.98 0 0 1 2.66 5.56l.07.6 6.37.02-.06-.72a17 17 0 0 0-4.54-9.87 15.77 15.77 0 0 0-11.17-4.72l-64.9-.25c-.73-.04-.86-.28-1.45-.87-.45-.45-.3-1.1-.3-2.02l.06-20.46C75.67 4 71.04 1.42 69.2.64A10.62 10.62 0 0 0 65.57 0c-2.94 0-5.86 1.32-8.52 3.96L4.7 55.9a15.82 15.82 0 0 0-.12 22.38l51.93 52.28c2.65 2.66 5.46 4 8.36 4.02a8.84 8.84 0 0 0 3.36-.64c1.8-.74 5.98-3.24 6-10.68l-.02-34.1zm6.05-77.83z"/>
</svg>
