<svg xmlns="http://www.w3.org/2000/svg" viewBox="0 0 20.03 17.41">
  <path d="M7.48 17.4a1.42 1.42 0 0 1-.98-.4 1.35 1.35 0 0 1-.4-.9v-.03a1.38 1.38 0 0 1-.94-.4 1.4 1.4 0 0 1-.4-.94 1.46 1.46 0 0 1-.95-.42 1.4 1.4 0 0 1-.4-.92 1.42 1.42 0 0 1-.93-.4 1.37 1.37 0 0 1-.4-.94 1.2 1.2 0 0 1 .34-.9L3.75 9.8.14 6.2a.57.57 0 0 1 0-.77l5-5a.56.56 0 0 1 .78 0l1.7 1.7h4.48l2-2a.54.54 0 0 1 .4-.15.6.6 0 0 1 .38.15l5 5a.56.56 0 0 1 0 .77L16.4 9.38l.9.88a1.2 1.2 0 0 1 .34.9 1.4 1.4 0 0 1-1.32 1.35 1.62 1.62 0 0 1-.44.96 1.37 1.37 0 0 1-.9.4 1.62 1.62 0 0 1-.45.95 1.4 1.4 0 0 1-.9.4 1.62 1.62 0 0 1-.45.96 1.4 1.4 0 0 1-.98.4 1.18 1.18 0 0 1-.86-.34l-1.2-1.18a1.2 1.2 0 0 1-.3.58l-1.5 1.5a1.28 1.28 0 0 1-.86.3zm1.3-3.3a.43.43 0 0 0-.3.13l-1.5 1.5a.42.42 0 0 0-.1.32.62.62 0 0 0 .6.58.43.43 0 0 0 .3-.12l1.5-1.47a.42.42 0 0 0 .1-.33.62.62 0 0 0-.6-.6zm2.1-.88a.62.62 0 0 0-.4.18.52.52 0 0 0-.07.73l1.5 1.5a.43.43 0 0 0 .3.1.6.6 0 0 0 .44-.18.57.57 0 0 0 .18-.4.42.42 0 0 0-.1-.33l-1.5-1.5a.53.53 0 0 0-.3-.1zm-3.43-.46a.43.43 0 0 0-.3.12l-1.5 1.5a.52.52 0 0 0 .06.72.62.62 0 0 0 .44.18.43.43 0 0 0 .3-.12l1.5-1.5a.43.43 0 0 0 .12-.34.57.57 0 0 0-.18-.38.64.64 0 0 0-.42-.18zm4.78-.88a.62.62 0 0 0-.42.18.52.52 0 0 0-.04.73l1.5 1.47a.43.43 0 0 0 .3.1.62.62 0 0 0 .42-.17.52.52 0 0 0 .06-.72l-1.5-1.5a.45.45 0 0 0-.3-.1zm-6.13-.46a.43.43 0 0 0-.3.12l-1.5 1.5a.52.52 0 0 0 .06.72.62.62 0 0 0 .42.18.47.47 0 0 0 .3-.1l1.5-1.5A.42.42 0 0 0 6.7 12a.64.64 0 0 0-.18-.4.55.55 0 0 0-.42-.18zm2.73 1.9a1.44 1.44 0 0 1 .7.23 1.43 1.43 0 0 1 .38-.7 1.4 1.4 0 0 1 .95-.4v-.02a1.42 1.42 0 0 1 .4-.92 1.37 1.37 0 0 1 .92-.4 1.62 1.62 0 0 1 .44-.93 1.4 1.4 0 0 1 .94-.4v-.03a1.42 1.42 0 0 1 .4-.92 1.07 1.07 0 0 1 .17-.13l-3.17-3.2H9.37l-.83.82v2.2a1.35 1.35 0 1 1-2.7 0v-3.2L3.1 8.06l1.28 1.28a1.14 1.14 0 0 1 .37-.05 1.42 1.42 0 0 1 .98.4 1.4 1.4 0 0 1 .4.93 1.38 1.38 0 0 1 .94.4 1.35 1.35 0 0 1 .4.92v.02a1.38 1.38 0 0 1 .94.4 1.32 1.32 0 0 1 .44.95zm4.75-2.8a.62.62 0 0 0-.42.2.6.6 0 0 0-.18.37.43.43 0 0 0 .12.33l1.5 1.5a.44.44 0 0 0 .3.1.62.62 0 0 0 .42-.17.52.52 0 0 0 .06-.73l-1.5-1.5a.48.48 0 0 0-.3-.1zm-8.83-.45a.43.43 0 0 0-.3.12l-1.5 1.47a.42.42 0 0 0-.1.33.64.64 0 0 0 .17.4.62.62 0 0 0 .42.2.47.47 0 0 0 .3-.12l1.5-1.5a.42.42 0 0 0 .12-.32.62.62 0 0 0-.18-.4.6.6 0 0 0-.43-.2zm10.18-.88a.64.64 0 0 0-.42.16.52.52 0 0 0-.04.73l1.5 1.5a.43.43 0 0 0 .3.1.62.62 0 0 0 .42-.2.57.57 0 0 0 .18-.4.42.42 0 0 0-.12-.32l-1.5-1.5a.47.47 0 0 0-.3-.1zM7.55 2.9a.78.78 0 0 0-.26.04.95.95 0 0 0-.65.63 1.07 1.07 0 0 0-.03.24v4.7a.56.56 0 1 0 1.12 0V6.15a.4.4 0 0 1 .12-.28l1.06-1.06a.4.4 0 0 1 .28-.12h1.9a.4.4 0 0 1 .27.12l3.58 3.58a1.23 1.23 0 0 1 .84.35l.03.05 1.07-1.07-4.8-4.8zm-5 4.58l3.3-3.3v-.36a1.72 1.72 0 0 1 .87-1.48l-1.2-1.2-4.64 4.7zm14.9-.32l1.68-1.67L14.48.86 12.8 2.53z"/>
</svg>
