<svg xmlns="http://www.w3.org/2000/svg" viewBox="0 0 20.02 20.02">
  <path d="M10 20.02a10 10 0 0 1-7.07-17.1A10 10 0 1 1 10 20.02zm0-19.2a9.2 9.2 0 0 0-6.5 15.7 9.2 9.2 0 1 0 13.02-13 9.1 9.1 0 0 0-6.5-2.7zm0 16.92a.4.4 0 1 1 0-.8 6.93 6.93 0 0 0 6.93-6.92.4.4 0 1 1 .8 0A7.73 7.73 0 0 1 10 17.74zm0-2.16A5.57 5.57 0 1 1 15.6 10a5.58 5.58 0 0 1-5.6 5.6zm0-10.33A4.76 4.76 0 1 0 14.78 10 4.76 4.76 0 0 0 10 5.26zm0 4.8a.2.2 0 0 1-.07 0 2.7 2.7 0 0 1-.76-.32 1.56 1.56 0 0 1-.83-1.36A1.67 1.67 0 0 1 10 6.7a.4.4 0 1 1 0 .8.87.87 0 0 0-.86.87.75.75 0 0 0 .44.67 1.98 1.98 0 0 0 .5.2.4.4 0 0 1-.07.8zm0 3.28a.4.4 0 0 1 0-.8 1.1 1.1 0 0 0 1.15-1.1c0-1.05-1.23-1.4-1.24-1.4a.4.4 0 1 1 .2-.77 2.38 2.38 0 0 1 1.86 2.17 1.9 1.9 0 0 1-1.94 1.9zm0-3.28a.4.4 0 0 1-.38-.32.4.4 0 0 1 .3-.48c.03 0 .97-.22.97-.88a.87.87 0 0 0-.9-.87.4.4 0 1 1 0-.8 1.67 1.67 0 0 1 1.67 1.67 1.56 1.56 0 0 1-.84 1.36 2.84 2.84 0 0 1-.76.3l-.1.02zm0 3.28a1.93 1.93 0 0 1-1.43-.6 1.9 1.9 0 0 1-.5-1.3A2.36 2.36 0 0 1 9.9 9.28a.4.4 0 0 1 .2.78c-.04 0-1.23.35-1.23 1.4a1.1 1.1 0 0 0 1.14 1.1.4.4 0 1 1 0 .78z"/>
</svg>
