<svg xmlns="http://www.w3.org/2000/svg" viewBox="0 0 100 100">
  <path d="M17.7 54.68l5.62 3.53a7.82 7.82 0 0 0 .23 2.74A5.7 5.7 0 0 0 25.1 64a7.88 7.88 0 0 1-1.3.1 7.75 7.75 0 0 1-5.54-2.3 1.25 1.25 0 0 0-1.77 1.8 10.3 10.3 0 0 0 12.85 1.36l.03-.02a10.38 10.38 0 0 0 1.67-1.35 7.8 7.8 0 0 1 11.04 0 10.3 10.3 0 0 0 14.56 0 7.8 7.8 0 0 1 11.04 0 10.3 10.3 0 0 0 14.58 0 1.25 1.25 0 1 0-1.77-1.78 7.8 7.8 0 0 1-11 0 10.3 10.3 0 0 0-14.58 0 7.8 7.8 0 0 1-11.03 0 10.3 10.3 0 0 0-11.6-2.04l.93-3.04c1.55-.52 5.12-1.72 7.66-2.72C66 44.17 82.35 34.65 89.5 25.7c4.7-5.7 3.44-8.77 3.03-9.78l-.55-1.4-14 6.1c-2.35-.43-14.83-2.56-23.36-.2l-1.8.5 1.02 1.55c.02.03 2.05 3.27.53 8.47l-8.3 3.63-3.75-5.54-2.26 1.52 3.47 5.13-16.2 7.07-2.44-6.22-20.2 7.9 5.2 13.3zm55.6-32l-15.84 6.9a14 14 0 0 0-.56-6.9c5.35-1.07 12.05-.56 16.4 0zm-45 22.6l61.97-27.05a4.03 4.03 0 0 1-.05.6 11.95 11.95 0 0 1-2.8 5.14l-.02.02c-3.87 4.82-10.8 9.96-20.63 15.27a245.6 245.6 0 0 1-26.9 12.2c-3.2 1.24-8.2 2.9-8.26 2.9l-.74.25-1.42 7.07-.13.1a7.85 7.85 0 0 1-1.4 1.1 5.4 5.4 0 0 1-1.7-2.56 4.93 4.93 0 0 1-.1-2.42l.3-1-5.54-3.48 9.24-3.62zm-4.95-5.22l3.22 8.23-15.12 5.9-3.22-8.24zm13.3 31.1a7.75 7.75 0 0 1 5.52 2.3 1.25 1.25 0 1 0 1.76-1.77 10.3 10.3 0 0 0-14.57 0 7.8 7.8 0 0 1-11.03 0 10.3 10.3 0 0 0-14.57 0 1.25 1.25 0 0 0 1.77 1.74 7.8 7.8 0 0 1 11.03 0 10.3 10.3 0 0 0 14.57 0 7.75 7.75 0 0 1 5.52-2.28zm59.6.54a10.3 10.3 0 0 0-14.58 0 7.8 7.8 0 0 1-11.03 0 10.3 10.3 0 0 0-14.57 0 1.25 1.25 0 0 0 1.76 1.75 7.8 7.8 0 0 1 11.04 0 10.3 10.3 0 0 0 14.57 0 7.8 7.8 0 0 1 11.03 0 1.25 1.25 0 1 0 1.77-1.76zm-34.05 6a10.23 10.23 0 0 0-7.3 3 7.8 7.8 0 0 1-11.03 0 10.3 10.3 0 0 0-14.57 0 1.25 1.25 0 0 0 1.77 1.76 7.8 7.8 0 0 1 11.04 0 10.3 10.3 0 0 0 14.58 0 7.8 7.8 0 0 1 11.04 0 1.25 1.25 0 1 0 1.78-1.76 10.23 10.23 0 0 0-7.3-3z"/>
</svg>
