<svg xmlns="http://www.w3.org/2000/svg" viewBox="0 0 21.0083 20.99998">
  <path d="M20.62 6.94L14.06.4A1.33 1.33 0 0 0 12.8.03a1.2 1.2 0 0 0-.6.35 1.32 1.32 0 0 0-.33.53 6.05 6.05 0 0 1-1.57 2.6 18.1 18.1 0 0 1-3.75 2.6 19.68 19.68 0 0 0-4.27 2.98 8.63 8.63 0 0 0-2.23 3.65 1.3 1.3 0 0 0-.05.35v.03a1.36 1.36 0 0 0 .38.97l6.56 6.55a1.33 1.33 0 0 0 1.25.36 1.26 1.26 0 0 0 .6-.35 1.22 1.22 0 0 0 .32-.53 5.95 5.95 0 0 1 1.58-2.56 17.83 17.83 0 0 1 3.75-2.6 20.24 20.24 0 0 0 4.28-3 8.77 8.77 0 0 0 2.23-3.64 1.35 1.35 0 0 0-.34-1.32zM7.87 19.67L1.3 13.1C3.2 7.1 11.28 7.35 13.15 1.3c2.17 2.17 4.4 4.38 6.56 6.56-1.87 6.04-9.96 5.78-11.83 11.8zm2.25-5.1a.36.36 0 0 0-.46-.03 11.54 11.54 0 0 0-1.18 1.03 9 9 0 0 0-.95 1.1l-.46.63a.33.33 0 0 0 .5.42l.06-.07.43-.57a8.84 8.84 0 0 1 .9-1.05 10.6 10.6 0 0 1 1.13-.96v-.04a.33.33 0 0 0 0-.46zm2.7-4.8a1.74 1.74 0 0 0-.63-.36 2.23 2.23 0 0 0-.67-.06 2.03 2.03 0 0 0-.65.15 5.88 5.88 0 0 0-.67.3c-.35-.4-.7-.8-1.06-1.18a.73.73 0 0 1 .46-.2 1.44 1.44 0 0 1 .44.03l.38.1a.37.37 0 0 0 .3-.1.4.4 0 0 0 .16-.3.5.5 0 0 0-.15-.38.8.8 0 0 0-.5-.3 1.64 1.64 0 0 0-.6 0 2.15 2.15 0 0 0-.6.25 1.9 1.9 0 0 0-.45.34l-.13-.13a.25.25 0 0 0-.17-.05.23.23 0 0 0-.18.08.2.2 0 0 0-.06.2.24.24 0 0 0 .08.15c.05.04.1.1.13.1a2.8 2.8 0 0 0-.4.68 2.25 2.25 0 0 0-.2.7 1.56 1.56 0 0 0 .06.64 1.25 1.25 0 0 0 .4.5 1.5 1.5 0 0 0 1.1.34 3.43 3.43 0 0 0 1.37-.4c.37.45.77.9 1.15 1.3a1.15 1.15 0 0 1-.44.24.58.58 0 0 1-.32 0 2.4 2.4 0 0 1-.3-.14l-.26-.15a.6.6 0 0 0-.27-.06.5.5 0 0 0-.3.13.42.42 0 0 0-.15.32.53.53 0 0 0 .17.36 1.32 1.32 0 0 0 .43.32 1.62 1.62 0 0 0 1.3.04 1.92 1.92 0 0 0 .7-.48l.35.32A.24.24 0 0 0 13 13a.22.22 0 0 0 .05-.2.24.24 0 0 0-.08-.17l-.35-.3a3.77 3.77 0 0 0 .48-.74 2.2 2.2 0 0 0 .2-.74 1.17 1.17 0 0 0-.1-.6 1.2 1.2 0 0 0-.37-.5zm-3.66.44a.62.62 0 0 1-.48-.17.5.5 0 0 1-.13-.2.57.57 0 0 1-.03-.28.87.87 0 0 1 .1-.3 1.1 1.1 0 0 1 .2-.32c.34.34.67.68 1 1.06a1.46 1.46 0 0 1-.66.22zm3.1 1.34a1.42 1.42 0 0 1-.2.3c-.38-.38-.75-.8-1.1-1.22l.28-.12a2.06 2.06 0 0 1 .3-.1 1.1 1.1 0 0 1 .34.02.67.67 0 0 1 .3.17.52.52 0 0 1 .18.3.72.72 0 0 1 .02.32 1 1 0 0 1-.12.33zm1.2-8.24a.3.3 0 0 0-.02.04.24.24 0 0 0-.05.1l-.46.58a9.85 9.85 0 0 1-.9 1.05 10.35 10.35 0 0 1-1.1.94.33.33 0 0 0-.07.07.34.34 0 0 0 0 .48.32.32 0 0 0 .46 0 13.08 13.08 0 0 0 1.18-1 11.04 11.04 0 0 0 .97-1.12l.44-.6a.34.34 0 0 0 0-.47.3.3 0 0 0-.44-.04z"/>
</svg>
