<svg xmlns="http://www.w3.org/2000/svg" viewBox="0 0 20.01 19.3">
  <path d="M7.38 12.26a.4.4 0 0 1-.4-.4V6.3a.4.4 0 0 1 .8 0v5.55a.4.4 0 0 1-.4.4zm8.98 5.9h-.2c-.33 0-.6-.3-1.54-1.26-1.55-1.62-4.44-4.64-7.34-4.64h-5.3A1.97 1.97 0 0 1 0 10.3V7.85A1.97 1.97 0 0 1 1.97 5.9h5.3c2.9 0 5.8-3.03 7.35-4.65C15.55.28 15.82 0 16.17 0h.2a1.56 1.56 0 0 1 1.55 1.56v15.02a1.56 1.56 0 0 1-1.56 1.57zm-.12-.83h.12a.76.76 0 0 0 .75-.75V1.56a.75.75 0 0 0-.73-.75h-.12a10.83 10.83 0 0 0-1.02 1C13.6 3.54 10.55 6.7 7.3 6.7H1.96A1.16 1.16 0 0 0 .8 7.87v2.42a1.16 1.16 0 0 0 1.17 1.16h5.3c3.26 0 6.3 3.18 7.94 4.9a9.57 9.57 0 0 0 1.05 1zM16.26.8zm1.24 11.5a.4.4 0 0 1-.4-.3.4.4 0 0 1 .3-.5 2.5 2.5 0 0 0-.02-4.84.4.4 0 1 1 .23-.8 3.33 3.33 0 0 1 0 6.4.22.22 0 0 1-.1.03zm-10.24 7h-1.9a1.86 1.86 0 0 1-1.72-1.36l-1.42-6a.4.4 0 0 1 .08-.35.42.42 0 0 1 .32-.18h3.5a.4.4 0 0 1 .4.34 8.3 8.3 0 0 1 .1 1.3 4.12 4.12 0 0 0 .48 2.24l1.26 2a1.2 1.2 0 0 1-.03 1.27 1.24 1.24 0 0 1-1.07.73zm-4.12-7.04l1.3 5.5a1.04 1.04 0 0 0 .92.73h1.9c.12 0 .27-.15.37-.3a.48.48 0 0 0 .05-.46l-1.26-2a4.8 4.8 0 0 1-.6-2.64c-.02-.28-.03-.56-.06-.83H3.14z"/>
</svg>
