<svg xmlns="http://www.w3.org/2000/svg" viewBox="0 0 20.16667 20.85477">
  <defs>
    <style>
      .cls-1{fill:#78bd43;}.cls-2{fill:#ffcd00;}.cls-3{fill:#fff;}
    </style>
  </defs>
  <path d="M9.43 2.95a.78.78 0 0 1-.2 1.1H9.2a.78.78 0 0 1-1.03-.1c-.32-.26-1.26-1.2-1.26-1.2v3.52a.8.8 0 0 1-1.57 0V2.7l-1.1 1.15a.63.63 0 0 1-.27.26.76.76 0 0 1-.37.1.8.8 0 0 1-.8-.77.75.75 0 0 1 .3-.63A23.45 23.45 0 0 1 5.64.2a.68.68 0 0 1 .53-.2.85.85 0 0 1 .58.26c.53.48 2 2 2.53 2.53l.16.14" class="cls-1"/>
  <path d="M12.9 14.6a1.68 1.68 0 0 1 .53-1.38 2.03 2.03 0 0 1 1.42-.47 4.6 4.6 0 0 1 .84.1 1.65 1.65 0 0 1 .5.27l.17.15a.32.32 0 0 1 .05.2.47.47 0 0 1-.05.28c-.06.05-.06.16-.1.2l-.17.17-.14.1a1.3 1.3 0 0 0-1.06-.37 1.06 1.06 0 0 0-.68.2.8.8 0 0 0-.2.6v.1h1.25a1.54 1.54 0 0 1 .48.1.57.57 0 0 1 .15.37.9.9 0 0 1-.05.37.4.4 0 0 1-.1.2H14v.9h2.38v1.1h-3.53v-3.2zm1.84 6.25a5.42 5.42 0 1 1 5.43-5.42 5.43 5.43 0 0 1-5.43 5.42zm0-9.26a3.85 3.85 0 1 0 3.85 3.82 3.85 3.85 0 0 0-3.87-3.84z" class="cls-2"/>
  <path d="M12.32 7.32a2.85 2.85 0 0 0-1.8-2.4.8.8 0 0 0-.7 1.42c.63.32.92.73.92.98 0 .28-.36.66-.95 1a7.32 7.32 0 0 1-3.6.8H6.1A7.48 7.48 0 0 1 2.7 8.4a.78.78 0 0 0-.2-.15c-.63-.32-.93-.73-.93-.98 0-.28.38-.66.97-1a.8.8 0 1 0-.77-1.37C.3 5.72 0 6.64 0 7.27A2.4 2.4 0 0 0 .84 9 2.3 2.3 0 0 0 0 10.7a2.38 2.38 0 0 0 .8 1.7 2.3 2.3 0 0 0-.8 1.66 2.74 2.74 0 0 0 1.56 2.26.78.78 0 0 0 .24.2 9.1 9.1 0 0 0 4.05.97c.1 0 .2 0 .3-.03A9.97 9.97 0 0 0 8 17.3a.8.8 0 1 0-.3-1.54 8.5 8.5 0 0 1-1.57.15 7.4 7.4 0 0 1-3.43-.7.78.78 0 0 0-.2-.15c-.63-.32-.93-.73-.93-.98 0-.22.24-.5.64-.8a9.03 9.03 0 0 0 3.66.8h.3a8.65 8.65 0 0 0 2.15-.23.8.8 0 1 0-.37-1.53 7.16 7.16 0 0 1-1.8.2 7.45 7.45 0 0 1-3.6-.8c-.65-.34-.95-.75-.95-1 0-.2.24-.5.64-.8a9.07 9.07 0 0 0 3.96.8h.3a8.96 8.96 0 0 0 3.65-.8 1.7 1.7 0 0 1 .24.2A.78.78 0 0 0 11.5 9a2.3 2.3 0 0 0 .82-1.7z" class="cls-3"/>
</svg>
