<svg xmlns="http://www.w3.org/2000/svg" viewBox="0 0 19.98 19.29"><title>REDEEM_POINTS</title><path d="M8.16 4.17a.44.44 0 0 0 .1.1l.1.04.57-.44V6.2h.76V3h-.4A.8.8 0 0 0 9 3l-.15.08-.17.12-.28.2a2.25 2.25 0 0 0-.26.23.38.38 0 0 0-.14.28.28.28 0 0 0 0 .16zm9.52 8.74l.46-.2a1.42 1.42 0 0 1 .52-.1h.06a.62.62 0 0 1 .52.27l.07.1v.14c0 .23-.3.48-.84.78-.72.4-1.42.86-2.1 1.3l-1.65 1c-.73.46-1.5 1-2.27 1.4h-.1a6.5 6.5 0 0 1-1.52.74 4.53 4.53 0 0 1-1.24.17 3.9 3.9 0 0 1-.5 0 9.74 9.74 0 0 1-1.58-.4L7 18l-.65-.2a17.3 17.3 0 0 0-1.94-.55 9.33 9.33 0 0 0-1.65-.16 9.2 9.2 0 0 0-1.17.07.35.35 0 0 0-.3.4.36.36 0 0 0 .35.3 7.83 7.83 0 0 1 1.08-.07 8.8 8.8 0 0 1 1.62.2 14.68 14.68 0 0 1 1.85.52l.7.22.38.12a8.92 8.92 0 0 0 1.75.4 5.65 5.65 0 0 0 .6 0 5.48 5.48 0 0 0 1.42-.2 7.08 7.08 0 0 0 1.7-.82h.1c.8-.47 1.57-1 2.33-1.46l1.6-1c.68-.43 1.38-.87 2.08-1.27A2.2 2.2 0 0 0 20 13.27a1.1 1.1 0 0 0-.18-.82 1.33 1.33 0 0 0-1.1-.55 2 2 0 0 0-.72.1l-.3.1-.1-.3a1.23 1.23 0 0 0-.2-.3 1.07 1.07 0 0 0-.83-.36 1.64 1.64 0 0 0-.37.05 2.46 2.46 0 0 0-.64.25l-.23.13-.17-.2a.9.9 0 0 0-.2-.18 1 1 0 0 0-.54-.13 5.18 5.18 0 0 0-2.2.86l-1.76.94a.32.32 0 0 0-.17.2 3.86 3.86 0 0 1-1.14-.3 13 13 0 0 1-2.2-1.47c-.34-.26-.7-.52-1-.77a2.07 2.07 0 0 0-1.23-.34 2.94 2.94 0 0 0-.65.06 8.76 8.76 0 0 0-1.82.65l-.6.27-1.4.56a.35.35 0 0 0 .14.68.28.28 0 0 0 .13 0l1.4-.55.56-.24h.04a8.28 8.28 0 0 1 1.63-.6 2.35 2.35 0 0 1 .52-.05 1.4 1.4 0 0 1 .8.22c.34.24.67.5 1 .75a13.68 13.68 0 0 0 2.33 1.55 7.1 7.1 0 0 0 3 .46h.97l.5.06-.27.42c0 .07-.14.17-.45.32a6.22 6.22 0 0 1-2.6.6 5.83 5.83 0 0 1-.58 0 9.17 9.17 0 0 1-3.12-1.17.3.3 0 0 0-.16 0 .34.34 0 0 0-.15.64A10.08 10.08 0 0 0 9.3 16c.2 0 .44 0 .66 0a7 7 0 0 0 2.88-.66 1.35 1.35 0 0 0 .9-1 1 1 0 0 0-.66-1.07 2 2 0 0 0-.6-.1h-1.1l.88-.45.28-.16a4.23 4.23 0 0 1 1.8-.76h.3v.28a.62.62 0 0 1 0 .15.34.34 0 0 0 .2.3.32.32 0 0 0 .15 0 .36.36 0 0 0 .2-.05l.43-.3a2.07 2.07 0 0 1 .66-.3h.2a.32.32 0 0 1 .16 0h.08v.05a.76.76 0 0 1 0 .73.34.34 0 0 0 0 .26.4.4 0 0 0 .2.2.27.27 0 0 0 .12 0 .35.35 0 0 0 .3-.16.57.57 0 0 1 .32-.05zM9.1 9.32a4.66 4.66 0 1 0-4.66-4.66A4.66 4.66 0 0 0 9.1 9.32zm0-8.6a4 4 0 1 1-4 4 4 4 0 0 1 4-4zm6.16 5.88l.07.06h.06l.37-.3V8h.5V5.84h-.47l-.1.05-.1.07-.2.14-.17.16a.24.24 0 0 0-.06.18.17.17 0 0 0 0 .1.16.16 0 0 0 .1.06zM14.16 9.67a3.2 3.2 0 0 0 1.73.5 3.23 3.23 0 0 0 .32-6.45.36.36 0 0 0-.35.3.35.35 0 0 0 .3.4 2.53 2.53 0 0 1-.25 5.04 2.56 2.56 0 0 1-1.35-.4.32.32 0 0 0-.23-.06.37.37 0 0 0-.3.16.38.38 0 0 0 .12.5z"/></svg>