<svg xmlns="http://www.w3.org/2000/svg" viewBox="0 0 15.93698 19.96588">
  <path d="M9.87 19.95c-2.83 0-4.85-.98-6.17-3L.34 11.87a2.08 2.08 0 0 1-.3-1.57 1.82 1.82 0 0 1 1.8-1.45 2.1 2.1 0 0 1 1.56.74l.54.6V3.1A1.67 1.67 0 0 1 5.6 1.46a1.76 1.76 0 0 1 .8.2l.37.2.07-.44A1.68 1.68 0 0 1 9.98.9l.16.3.3-.2a1.7 1.7 0 0 1 .94-.3 1.67 1.67 0 0 1 1.67 1.68v.9l.45-.23a1.68 1.68 0 0 1 2.44 1.5v9.73a5.73 5.73 0 0 1-1.35 3.8 5.83 5.83 0 0 1-4.74 1.87zM1.85 9.6a1.2 1.2 0 0 0-.6.16 1.1 1.1 0 0 0-.48.7 1.33 1.33 0 0 0 .2 1l3.35 5.1c1.2 1.8 2.96 2.66 5.56 2.66 4.96 0 5.35-3.76 5.35-4.9V4.56a.94.94 0 1 0-1.88 0v4.7a.5.5 0 0 1-1 0V2.4a.94.94 0 1 0-1.88 0v6.14a.5.5 0 0 1-1 0V1.7a.94.94 0 0 0-1.88 0v6.84a.5.5 0 0 1-.5.5.5.5 0 0 1-.5-.5v-5.4a.94.94 0 1 0-1.9 0v9a.13.13 0 0 1-.1.14h-.04a.13.13 0 0 1-.1-.05l-1.5-2.02a1.44 1.44 0 0 0-1.12-.6z"/>
</svg>
