<svg xmlns="http://www.w3.org/2000/svg" viewBox="0 0 17.25 20.48284">
  <path d="M17.25 5.24v-.1a.13.13 0 0 0-.02-.03l-3.85-5h-.03a.12.12 0 0 0-.03-.03l-.06-.04a.17.17 0 0 0-.03-.02H.43A.42.42 0 0 0 0 .38v19.7a.42.42 0 0 0 .42.4h16.4a.42.42 0 0 0 .43-.4V5.23zm-1.27-.35h-2.5l-.02-3.3zm.43 14.74H.85V.8h11.8v4.5a.42.42 0 0 0 .4.43h3.38zM5.96 11.77A2.68 2.68 0 0 0 7.1 9.9a1.34 1.34 0 0 0-1.52-1.35 2.38 2.38 0 0 0-1.4.45l.27.72a1.56 1.56 0 0 1 .92-.36c.5 0 .7.28.7.63 0 .5-.46 1-1.4 1.8l-.56.5v.63h3.1v-.83H5.55zm1.75-.9h1.75v.66H7.72zm3.82-2.3c-1.13 0-1.66 1.02-1.66 2.23s.5 2.2 1.62 2.2 1.63-.9 1.63-2.24c0-1.18-.44-2.2-1.57-2.2zm-.02 3.68c-.4 0-.62-.47-.62-1.46 0-1 .2-1.5.6-1.5s.63.5.63 1.47-.2 1.47-.6 1.47z"/>
</svg>
