<svg xmlns="http://www.w3.org/2000/svg" viewBox="0 0 12.93 19.98">
  <path d="M3.57 0C1.73 0 0 4.84 0 9.97c0 5.12 1.74 9.97 3.57 9.97 1.57 0 3.57-4.7 3.57-9.97C7.14 4.94 5.37 0 3.57 0zm0 19.13C2.62 19.13.8 15.26.8 9.97S2.64.8 3.58.8c.8 0 2.76 3.66 2.76 9.17 0 5.46-2.08 9.16-2.76 9.16zm0-8.7c-.95 0-1.66.97-1.66 2.26s.73 2.24 1.68 2.24 1.66-.97 1.66-2.26-.72-2.27-1.66-2.27zm0 3.93c-.4 0-.93-.64-.93-1.68S3.18 11 3.57 11s.93.64.93 1.68-.55 1.68-.93 1.68zm0-10.78a.37.37 0 0 0 .37-.37V1.8a.37.37 0 0 0-.37-.37.36.36 0 0 0-.37.37v1.42a.36.36 0 0 0 .37.36zm0 12.72a.37.37 0 0 0-.37.37v1.42a.37.37 0 0 0 .37.35.36.36 0 0 0 .37-.37v-1.43a.38.38 0 0 0-.37-.37zM1.95 7.28c0 1.3.7 2.26 1.66 2.26S5.3 8.57 5.3 7.28s-.7-2.26-1.66-2.26S1.96 6 1.96 7.28zm2.58 0c0 1.04-.54 1.68-.93 1.68s-.93-.64-.93-1.68.54-1.68.93-1.68.93.65.93 1.68zm7.52-1.83l.48-.55a1.6 1.6 0 0 0 .4-1.06V.78A.33.33 0 0 0 12.9.6c-.4-.74-2.37-.4-2.4-.37-.42.1-.64.3-.64.57v3.05a1.63 1.63 0 0 0 .37 1.04l.46.54a.42.42 0 0 0 .3.14v8.92a.42.42 0 0 0-.3.14l-.46.56a1.63 1.63 0 0 0-.37 1.04v3.06c0 .28.2.47.64.57a6.6 6.6 0 0 0 1.04.08c.55 0 1.16-.1 1.34-.48a.33.33 0 0 0 .03-.17v-3.05a1.6 1.6 0 0 0-.4-1.06l-.47-.56a.38.38 0 0 0-.24-.13V5.6a.44.44 0 0 0 .24-.13zm-1.36-1.6V1a4.05 4.05 0 0 1 1.4 0v2.83a.8.8 0 0 1-.2.53l-.14.17v-2.6a.37.37 0 0 0-.37-.37.36.36 0 0 0-.38.37v2.63l-.16-.2a.88.88 0 0 1-.18-.5zm1.4 12.4v2.85a4.05 4.05 0 0 1-1.42 0v-2.85a.83.83 0 0 1 .18-.52l.16-.2v2.83a.37.37 0 0 0 .37.37.36.36 0 0 0 .37-.37v-2.8l.15.17a.86.86 0 0 1 .2.53z"/>
</svg>
