<svg xmlns="http://www.w3.org/2000/svg" viewBox="0 0 19.82956 19.82001">
  <path d="M18.54 1.3A4.93 4.93 0 0 0 14.96 0C11.84 0 8 1.9 4.96 4.94.26 9.6-1.4 15.84 1.28 18.54a4.93 4.93 0 0 0 3.57 1.28c3.13 0 6.97-1.9 10.02-4.94a17.52 17.52 0 0 0 4.58-7.56c.7-2.6.36-4.73-.94-6.03zM.94 15.62H.8C.47 12.66 2.35 8.6 5.47 5.47 8.37 2.57 12 .75 14.95.75c.2 0 .43 0 .63.03v.15C13.12 1.6 9.75 3.85 6.8 6.8a27.03 27.03 0 0 0-5.12 6.86 11.3 11.3 0 0 0-.75 1.95zm.9 2.38c-.58-.58-.37-2.1.55-3.98a26.4 26.4 0 0 1 5-6.66c4-4.03 7.8-5.86 9.6-5.86a1.38 1.38 0 0 1 1 .32c.6.58.37 2.1-.55 3.98a26.1 26.1 0 0 1-4.98 6.66c-4.02 4.03-7.8 5.86-9.62 5.86A1.42 1.42 0 0 1 1.82 18zm12.53-3.66c-2.9 2.9-6.54 4.72-9.48 4.72-.23 0-.44 0-.65-.03v-.16c2.43-.67 5.8-2.92 8.75-5.87a27.03 27.03 0 0 0 5.13-6.86 11.3 11.3 0 0 0 .75-1.95h.17c.3 2.93-1.57 7-4.7 10.13zM10.04 6.9a2.9 2.9 0 1 0 2.9 2.9 2.9 2.9 0 0 0-2.9-2.9zm1.2 3.17c0 .97-.5 1.37-1.2 1.37-.64 0-1.12-.37-1.12-1.35V8.2h.4v1.87c0 .7.32 1 .74 1 .47 0 .77-.3.77-1V8.22h.4z"/>
</svg>
