<svg xmlns="http://www.w3.org/2000/svg" viewBox="0 0 15.94172 19.96">
  <path d="M3.25 18.3a2.1 2.1 0 0 1-1-.25 19.04 19.04 0 0 1-1.6-1.77.38.38 0 0 1 0-.44.38.38 0 0 1 .3-.18.22.22 0 0 1 .1 0 41.33 41.33 0 0 0 4.4.24.12.12 0 0 0 .07-.04l.77-1.34h.3a.07.07 0 0 0 .04-.02.1.1 0 0 0 .03-.06v-.2a.1.1 0 0 0-.07-.1 8.05 8.05 0 0 0-1.6-.16 9.14 9.14 0 0 0-4 .93.4.4 0 0 1-.2.07.4.4 0 0 1-.15-.03.4.4 0 0 1-.22-.25C-1.9 6.1 6.47 1.07 6.55 1.02A.5.5 0 0 1 6.6 1a.08.08 0 0 0 .07-.08V.5A.32.32 0 0 1 6.7.34.4.4 0 0 1 7.1 0h1.3a.38.38 0 0 1 .37.38v.24a.1.1 0 0 0 .1.1h.93a.38.38 0 0 1 .38.37.4.4 0 0 1-.4.37H8.4A.38.38 0 0 1 8 1.1V.85a.1.1 0 0 0-.1-.1h-.38a.1.1 0 0 0-.1.1v1.52a.06.06 0 0 0 .02.04l5.22 10.38a.1.1 0 0 0 .08.05h.3a.38.38 0 0 1 0 .76H7.52a.1.1 0 0 0-.1.1v.75a.1.1 0 0 0 .1.1l2.87.05.6 1.34a.1.1 0 0 0 .07.05h2.7a.38.38 0 0 1 .34.24l.6 1.44a4.2 4.2 0 0 1-.68.37l-.5-1.24a.1.1 0 0 0-.08-.05c-1.94 0-8.5-.07-11.4-.25a.1.1 0 0 0-.08.05.2.2 0 0 0 .03.1 9.67 9.67 0 0 0 1.7 1.58 2.3 2.3 0 0 1-.46.05zm3.52-3.02a.12.12 0 0 0-.08.04l-.28.46a.07.07 0 0 0 0 .1.08.08 0 0 0 .08.03c1.18.05 2.4.06 3.54.08a.08.08 0 0 0 .07-.04.1.1 0 0 0 .03-.1l-.2-.45a.08.08 0 0 0-.1-.06c.02.02-3.05-.05-3.05-.05zM5.4 2.8a.14.14 0 0 0-.05.02C3.2 4.6-.2 8.42 1 13.92c.02.03.03.05.06.06a.06.06 0 0 0 .04 0 .04.04 0 0 0 .03 0 10 10 0 0 1 3.82-.77c.2 0 .4.03.6.04a.1.1 0 0 0 .1-.05.07.07 0 0 0-.02-.1C4.68 11.76 3.4 8.7 5.5 2.92a.1.1 0 0 0-.04-.1L5.4 2.8zm1.18-.43a.08.08 0 0 0-.08.06c-2.57 6.44-.85 9.52 0 10.55a.1.1 0 0 0 .08.03.04.04 0 0 0 .03 0 .1.1 0 0 0 .08-.07V2.46a.1.1 0 0 0-.07-.1zm.92 2a.1.1 0 0 0-.07.1v8.26a.1.1 0 0 0 .1.1h4.16a.12.12 0 0 0 .06-.05.07.07 0 0 0 0-.1L7.6 4.43a.1.1 0 0 0-.08-.05zm5.56 15.6a4.06 4.06 0 0 1-2.34-.8h-.05a.1.1 0 0 0-.05 0 4.46 4.46 0 0 1-2.43.8 4.05 4.05 0 0 1-2.38-.8c-.02 0-.03-.03-.05-.03a.1.1 0 0 0-.05 0 4.45 4.45 0 0 1-2.44.8 4.04 4.04 0 0 1-2.65-1.02.38.38 0 0 1 0-.54.4.4 0 0 1 .54 0 3.13 3.13 0 0 0 2.06.8 3.84 3.84 0 0 0 2.3-.84.35.35 0 0 1 .23-.07h.02a.4.4 0 0 1 .27.1 3.13 3.13 0 0 0 2.06.82 3.88 3.88 0 0 0 2.3-.85.55.55 0 0 1 .14-.08.13.13 0 0 1 .05 0h.02a.17.17 0 0 1 .08 0 .4.4 0 0 1 .2.12 3.1 3.1 0 0 0 2.07.8 3.84 3.84 0 0 0 2.3-.87.37.37 0 0 1 .23-.07.38.38 0 0 1 .23.7 4.56 4.56 0 0 1-2.74 1z"/>
</svg>
