<svg xmlns="http://www.w3.org/2000/svg" viewBox="0 0 20 17.84889">
  <path d="M3.8 10.4a.34.34 0 0 0-.33.35v.7a.34.34 0 0 0 .34.34v-.03a.34.34 0 0 0 .36-.34v-.7a.34.34 0 0 0-.34-.33zm0-3.4a.34.34 0 0 0-.32.34V8a.34.34 0 0 0 .33.35.34.34 0 0 0 .36-.34v-.65A.34.34 0 0 0 3.8 7zm3.1 4.8v-.02a.34.34 0 0 0 .33-.34v-.7a.34.34 0 1 0-.67 0v.7a.34.34 0 0 0 .33.35zm-3.1 3.4zm0-1.36a.34.34 0 0 0-.33.34v.7a.34.34 0 0 0 .67 0v-.7a.34.34 0 0 0-.33-.34zm9.32-5.5a.34.34 0 0 0 .33-.33v-.65a.34.34 0 1 0-.67 0V8a.34.34 0 0 0 .34.35zM6.9 15.2zm3.1-1.36a.34.34 0 0 0-.33.34v.7a.34.34 0 0 0 .68 0v-.7a.34.34 0 0 0-.34-.34zm-3.1 0a.34.34 0 0 0-.33.34v.7a.34.34 0 0 0 .67 0v-.7a.34.34 0 0 0-.33-.34zM16.2 7a.34.34 0 0 0-.33.34V8a.34.34 0 0 0 .33.35v-.02a.34.34 0 0 0 .34-.32v-.65A.34.34 0 0 0 16.2 7zm-2.45 2.54H12.4a.9.9 0 0 0-.9.9v1.35a.9.9 0 0 0 .9.87h1.35a.9.9 0 0 0 .9-.9v-1.34a.9.9 0 0 0-.9-.9zm.22 2.25a.22.22 0 0 1-.22.2H12.4a.22.22 0 0 1-.23-.2v-1.37a.22.22 0 0 1 .23-.23h1.35a.22.22 0 0 1 .22.24zM18.5 1.3h-2.28V.34a.34.34 0 1 0-.67 0v.96H12.3V.34a.34.34 0 1 0-.68 0v.96H8.37V.34a.34.34 0 1 0-.67 0v.96H4.45V.34a.34.34 0 0 0-.67 0v.96H1.5A1.5 1.5 0 0 0 0 2.8v13.55a1.5 1.5 0 0 0 1.5 1.5h17a1.5 1.5 0 0 0 1.5-1.5V2.8a1.5 1.5 0 0 0-1.5-1.5zm-17 .67h2.28v1.07a.34.34 0 0 0 .67 0V1.97H7.7v1.07a.34.34 0 0 0 .67 0V1.97h3.25v1.07a.34.34 0 1 0 .68 0V1.97h3.25v1.07a.34.34 0 1 0 .67 0V1.97h2.28a.83.83 0 0 1 .83.83v1.55H.67V2.8a.83.83 0 0 1 .83-.83zm17 15.2h-17a.83.83 0 0 1-.83-.82V5.03h18.66v11.32a.83.83 0 0 1-.83.83zm-2.3-6.77a.34.34 0 0 0-.34.35v.7a.34.34 0 0 0 .34.34v-.03a.34.34 0 0 0 .33-.34v-.7a.34.34 0 0 0-.33-.33zM6.9 7a.34.34 0 0 0-.32.34V8a.34.34 0 0 0 .33.35.34.34 0 0 0 .36-.34v-.65A.34.34 0 0 0 6.9 7zm3.12 0a.34.34 0 0 0-.34.34V8a.34.34 0 0 0 .34.35.34.34 0 0 0 .33-.34v-.65a.34.34 0 0 0-.33-.34zM10 11.8v-.02a.34.34 0 0 0 .33-.34v-.7a.34.34 0 1 0-.67 0v.7a.34.34 0 0 0 .34.35z"/>
</svg>
