<svg xmlns="http://www.w3.org/2000/svg" viewBox="0 0 12.47051 20.1665">
  <path d="M2.32 20.17h8.32v-2.6H2.32zm.83-1.77H9.8v.92H3.15zm9.22-12.98a1.9 1.9 0 0 0-1.02-1.1L9.7 3.56a4.08 4.08 0 1 0-7.84 1.98l-1.5 2.6A1.97 1.97 0 0 0 .1 9.9l2.34 6.75h8.04l.1-.24c1.48-2.9-.4-7.24-1.5-9.3a7.38 7.38 0 0 0 1.97.38 1.26 1.26 0 0 0 1.2-.55 1.9 1.9 0 0 0 .12-1.5zM4.2 1.2a3.26 3.26 0 0 1 4.7 2.9 3.3 3.3 0 0 1-.1.78c0 .03 0 .05-.02.08a3.2 3.2 0 0 1-.27.68v.03a3.18 3.18 0 0 1-.4.55l-.06.08a3.02 3.02 0 0 1-.54.46h-.02l-.07.05V5.4a1.75 1.75 0 1 0-3.5 0v1.45l-.2-.16a3.22 3.22 0 0 1-.3-.26 3.3 3.3 0 0 1-.25-.3l-.2-.24a3.15 3.15 0 0 1-.18-.34A3.22 3.22 0 0 1 4.2 1.2zm5.74 14.6H3.02L.9 9.63a1.12 1.12 0 0 1 .16-1l1.26-2.2a4.02 4.02 0 0 0 .55.64l.2.18.16.12a4.05 4.05 0 0 0 .34.23c.04 0 .07.03.1.05.08.05.16.1.24.13v2.9h.86v-5.3a.92.92 0 1 1 1.83 0v5.32h.82V7.76a4.12 4.12 0 0 0 .83-.5c.86 1.6 2.84 5.8 1.7 8.54zm1.56-9.28c0 .03-.12.1-.45.1a7.07 7.07 0 0 1-1.9-.38 4.04 4.04 0 0 0 .58-1.74l1.28.57a1.04 1.04 0 0 1 .57.62 1 1 0 0 1-.06.8z"/>
</svg>
