<svg xmlns="http://www.w3.org/2000/svg" viewBox="0 0 559.8 87.76">
  <defs>
    <style>
      .a{fill:#faea26;}.b{fill:#1d1d1b;}.c{fill:#fff;}
    </style>
  </defs>
  <path d="M0 0h559.8v87.76H0z" class="a"/>
  <path d="M371.72 47.6a4.25 4.25 0 0 1-3.48 1.68c-2.7 0-4.63-2.35-4.62-5.6s2-5.63 4.84-5.62a4.9 4.9 0 0 1 3.28 1.5V38.3h3.88v2.23h-1v8.84c0 2.75-2.07 4.37-5.52 4.37a5.84 5.84 0 0 1-3.93-1.2 3.94 3.94 0 0 1-1.44-2.54h2.77a2.27 2.27 0 0 0 2.5 1.56c1.65 0 2.73-.85 2.73-2.14V47.6zm-5.16-3.88c0 2.06.9 3.22 2.52 3.23s2.66-1.37 2.67-3.3-1-3.2-2.46-3.2c-1.68 0-2.76 1.28-2.76 3.28m19.62 3.85h1v2.23h-3.56V48.5a4.36 4.36 0 0 1-3.5 1.54 3.77 3.77 0 0 1-4-3.52v-.06c0-3.36 3.8-3.72 7.5-4.05 0-1.77-.46-2.2-2.13-2.2a1.85 1.85 0 0 0-2.05 1.6v.1l-2.8-.1c.16-2.3 2-3.76 4.74-3.76 3.18 0 4.9 1.46 4.88 4.07v5.48zm-2.67-3.2c-2.7.25-4.5.48-4.5 2.07a1.65 1.65 0 0 0 1.73 1.55h.16a2.5 2.5 0 0 0 2.6-2.44v-.1zm8-4.68c1.23-1.3 2-1.65 3.3-1.65a2.8 2.8 0 0 1 2.73 1.8 4.63 4.63 0 0 1 3.46-1.78 3 3 0 0 1 3.1 3.26v6.3h1.06v2.22h-3.88v-7.72c0-1-.5-1.6-1.24-1.6-1.18 0-2.28 1.48-2.28 3.1v4h1.1v2.22H395V42.2c0-1.15-.38-1.7-1.2-1.7-1.26 0-2.34 1.53-2.3 3.35v3.73h1.1v2.23h-4.88v-2.2h1v-7h-1v-2.24h3.8v1.36zm14.36-5.7h3.9v5.62A4.27 4.27 0 0 1 413 38c2.88 0 5 2.48 4.94 6 0 3.7-1.94 6.16-4.82 6.15a4.58 4.58 0 0 1-3.53-1.53v1.24h-3.9v-2.23h1.2V36.26h-1.1V34zm3.8 10.14c0 2.34 1 3.6 2.76 3.6 1.6 0 2.6-1.42 2.6-3.65s-1-3.7-2.6-3.7c-1.75 0-2.76 1.37-2.77 3.73m8.78-10.1l3.93.02-.04 13.6h1.1v2.24l-5.03-.04v-2.23h1.1l.02-11.4h-1.12V34zm16.45 12.1a5.12 5.12 0 0 1-5.4 4c-3.2 0-5.56-2.5-5.56-6s2.4-6 5.6-6a5.2 5.2 0 0 1 4.48 2.3 7.66 7.66 0 0 1 1.13 4.3h-8.28c.27 3 2.22 3.13 2.76 3.13a2.32 2.32 0 0 0 2.4-1.7h2.95zm-2.88-3.4a2.3 2.3 0 0 0-2.36-2.25h-.06a2.67 2.67 0 0 0-2.58 2.25h5zm11.32 5.67a5.34 5.34 0 0 1-3.87 1.78 3.5 3.5 0 0 1-3.72-3.24v-.22a3.17 3.17 0 0 1 .86-2.23c.85-.9 2.12-1.34 5.2-1.67l1.5-.17V42c0-1.33-.86-2.06-2.4-2.06a2 2 0 0 0-2.4 1.9h-2.37a3.55 3.55 0 0 1 1.12-2.44 5.47 5.47 0 0 1 3.73-1.25c2.85 0 4.5 1.42 4.5 3.83v6.13h1.38v1.85h-3.62V48.4zm0-4.3l-1 .15c-2.1.32-3 .62-3.56 1.2a1.7 1.7 0 0 0-.5 1.1 2 2 0 0 0 2 2 3.14 3.14 0 0 0 3.07-2.86v-1.6zm3.24-5.66h4.42v1.82h-1.3l1.88 7.8 2.23-9.63h2.16l2.17 9.62 1.9-7.78h-1.26v-1.83h4.35v1.83H462l-2.65 9.7h-2.43l-2.08-8.64-2.08 8.62-2.45.02-2.63-9.7h-1.12v-1.83zm24.44 10a5.34 5.34 0 0 1-3.87 1.8A3.5 3.5 0 0 1 463.4 47v-.22a3.16 3.16 0 0 1 .88-2.23c.88-.9 2.15-1.3 5.2-1.64l1.5-.14V42c0-1.33-.84-2.06-2.4-2.06a2 2 0 0 0-2.37 1.9h-2.35A3.54 3.54 0 0 1 465 39.4a5.46 5.46 0 0 1 3.78-1.2c2.85 0 4.52 1.43 4.52 3.84v6.14h1.37V50H471zm0-4.3l-1 .17c-2.1.35-3 .65-3.56 1.2a1.7 1.7 0 0 0-.5 1.1 2 2 0 0 0 2 2 3.14 3.14 0 0 0 3.06-2.9v-1.53zm8.14-3.08c.62-1.37 1.34-2.83 3.36-2.82a4.1 4.1 0 0 1 1.1.15v2.13a4.53 4.53 0 0 0-1.12-.17c-2.57 0-3.33 2.55-3.33 3.43v4.4h1.3V50h-4.88v-1.82h1.33V40.3h-1.3v-1.82h3.55V41zM494 46.5a5.24 5.24 0 0 1-5 3.8c-3.26 0-5.47-2.5-5.46-6.16a5.54 5.54 0 0 1 5.55-5.9c1.83 0 5.05 1.07 5.04 6.5h-8.28c.1 2.6 1.7 3.63 3.25 3.63a2.3 2.3 0 0 0 2.37-1.86h2.5zm-2.33-3.37c-.1-1.9-1-2.94-2.6-3-2.37 0-3.06 2.6-3.07 2.93h5.66zm3.17 6.93V47.6h2.45v2.46zm10.1-2.46a3.14 3.14 0 0 1-3.23 2.6 3.28 3.28 0 0 1-3.26-3.27v-.28c0-2 1.27-3.5 3.1-3.5a2.4 2.4 0 0 1 1.88.9v-.7h1.4v2.48h-1.46a2.14 2.14 0 0 0-.65-1 1.45 1.45 0 0 0-1-.3 1.78 1.78 0 0 0-1.63 1.9v.1c0 1.34.63 2.2 1.65 2.2a1.53 1.53 0 0 0 1.5-1.2h1.67zm7.52-.9a3.34 3.34 0 1 1-3.3-3.54 3.4 3.4 0 0 1 3.3 3.53m-4.94 0c0 1.24.62 2.1 1.57 2.1s1.6-.8 1.6-2.1a1.8 1.8 0 0 0-1.5-2.1h-.1c-.96 0-1.6.85-1.6 2.07m6.05 3.4v-1.8h1.8v1.8zm3.15-6.7h2.3v4.34a1 1 0 0 0 .82 1.2h.18a1.73 1.73 0 0 0 1.54-1.76V44.7h-.65v-1.3h2.26v5.4h.6v1.3h-2.2v-.82a3.2 3.2 0 0 1-2.18 1 1.9 1.9 0 0 1-2-2.18v-3.4h-.66v-1.3zm7.93-2.52h2.25v4.9l2.4-2.34h1.44v1.34h-.65l-1.15 1.02 1.85 3.07.56.02v1.3h-1.56l-1.96-3.32-.9.8v1.2h.67v1.3l-2.87-.04v-1.35h.54v-6.6l-.6.02v-1.3zM120.23 62.3h13.5v-9.9h11.4V39.75h-11.4v-2h11.4V25h-24.9zm.9-36.36h23.1v10.94h-11.4v3.77h11.4V51.5h-11.4v9.9h-11.7zm22.52 15.28h-11.38v-4.9h11.38v-9.8h-22v34.3h10.6v-9.9h11.37v-9.7zm-2.5-12.93a.65.65 0 1 1-.65.62.65.65 0 0 1 .65-.65zm0 2.42a.65.65 0 1 1-.65.65.65.65 0 0 1 .64-.67zm0 2.45a.65.65 0 1 1-.65.64.65.65 0 0 1 .64-.65zm-2.84-4.9a.65.65 0 1 1-.62.64.65.65 0 0 1 .65-.64zm0 2.44a.65.65 0 1 1-.62.66.65.65 0 0 1 .64-.67zm0 2.46a.65.65 0 1 1-.62.64.65.65 0 0 1 .64-.65zm-2.8-4.9a.65.65 0 1 1-.66.64.65.65 0 0 1 .65-.64zm0 2.44a.65.65 0 1 1-.66.66.65.65 0 0 1 .64-.67zm0 2.46a.65.65 0 1 1-.66.64.65.65 0 0 1 .64-.66zm-2.85-4.9a.65.65 0 1 1-.65.64.65.65 0 0 1 .64-.65zm0 2.44a.65.65 0 1 1-.65.65.65.65 0 0 1 .63-.67zm0 2.45a.65.65 0 1 1-.65.64.65.65 0 0 1 .63-.68zm-8.5 25.8a.65.65 0 1 1 .64-.65.65.65 0 0 1-.66.65zm0-2.45a.65.65 0 1 1 .64-.65.65.65 0 0 1-.66.65zm0-2.45a.65.65 0 1 1 .64-.65.65.65 0 0 1-.66.65zm0-2.45a.65.65 0 1 1 .64-.65.65.65 0 0 1-.66.65zm0-2.45a.65.65 0 1 1 .64-.65.65.65 0 0 1-.66.65zm0-2.45a.65.65 0 1 1 .64-.65.65.65 0 0 1-.66.65zm0-2.45a.65.65 0 1 1 .64-.65.65.65 0 0 1-.66.65zm0-2.45a.65.65 0 1 1 .64-.65.65.65 0 0 1-.66.65zm0-2.45a.65.65 0 1 1 .64-.65.65.65 0 0 1-.66.65zm0-2.45a.65.65 0 1 1 .64-.65.65.65 0 0 1-.66.65zm0-2.45a.65.65 0 1 1 .64-.65.65.65 0 0 1-.66.65zm0-2.45a.65.65 0 1 1 .64-.65.65.65 0 0 1-.66.65zm0-2.45a.65.65 0 1 1 .64-.65.65.65 0 0 1-.66.65zM127 59a.65.65 0 1 1 .65-.65.65.65 0 0 1-.65.65zm0-2.45a.65.65 0 1 1 .65-.65.65.65 0 0 1-.65.65zm0-2.45a.65.65 0 1 1 .65-.65.65.65 0 0 1-.65.65zm0-2.45a.65.65 0 1 1 .65-.65.65.65 0 0 1-.65.65zm0-2.45a.65.65 0 1 1 .65-.65.65.65 0 0 1-.65.65zm0-2.45a.65.65 0 1 1 .65-.65.65.65 0 0 1-.65.65zm0-2.45a.65.65 0 1 1 .65-.65.65.65 0 0 1-.65.65zm0-2.45a.65.65 0 1 1 .65-.65.65.65 0 0 1-.65.65zm0-2.45a.65.65 0 1 1 .65-.65.65.65 0 0 1-.65.65zm0-2.45a.65.65 0 1 1 .65-.65.65.65 0 0 1-.65.65zm0-2.45a.65.65 0 1 1 .65-.65.65.65 0 0 1-.65.65zm0-2.5a.65.65 0 1 1 .65-.65.65.65 0 0 1-.65.65zm0-2.45a.65.65 0 1 1 .65-.65.65.65 0 0 1-.65.65zM129.8 59a.65.65 0 1 1 .64-.65.65.65 0 0 1-.65.65zm0-2.45a.65.65 0 1 1 .64-.65.65.65 0 0 1-.65.62zm0-2.45a.65.65 0 1 1 .64-.65.65.65 0 0 1-.65.62zm0-2.45a.65.65 0 1 1 .64-.65.65.65 0 0 1-.65.63zm0-2.45a.65.65 0 1 1 .64-.65.65.65 0 0 1-.65.63zm0-2.45a.65.65 0 1 1 .64-.65.65.65 0 0 1-.65.63zm0-2.45a.65.65 0 1 1 .64-.65.65.65 0 0 1-.65.63zm0-2.45a.65.65 0 1 1 .64-.65.65.65 0 0 1-.65.63zm0-2.45a.65.65 0 1 1 .64-.65.65.65 0 0 1-.65.64zm0-2.45a.65.65 0 1 1 .64-.65.65.65 0 0 1-.65.64zm0-2.45a.65.65 0 1 1 .64-.65.65.65 0 0 1-.65.64zm0-2.45a.65.65 0 1 1 .64-.65.65.65 0 0 1-.65.6zm0-2.45a.65.65 0 1 1 .64-.65.65.65 0 0 1-.65.64zm2.83 19.58a.65.65 0 1 1 .65-.65.65.65 0 0 1-.65.65zm0-2.45a.65.65 0 1 1 .65-.65.65.65 0 0 1-.65.65zm0-2.45a.65.65 0 1 1 .65-.65.65.65 0 0 1-.65.65zm2.84 4.9a.65.65 0 1 1 .65-.65.65.65 0 0 1-.65.65zm0-2.45a.65.65 0 1 1 .65-.65.65.65 0 0 1-.65.65zm0-2.45a.65.65 0 1 1 .65-.65.65.65 0 0 1-.65.65zm2.84 4.9a.65.65 0 1 1 .68-.65.65.65 0 0 1-.65.65zm0-2.45a.65.65 0 1 1 .68-.65.65.65 0 0 1-.65.65zm0-2.45a.65.65 0 1 1 .68-.65.65.65 0 0 1-.65.65zm2.87 4.9a.65.65 0 1 1 .65-.65.65.65 0 0 1-.64.65zm0-2.45a.65.65 0 1 1 .65-.65.65.65 0 0 1-.64.65zm0-2.45a.65.65 0 1 1 .65-.65.65.65 0 0 1-.64.65zM201.37 25v11.53L194.5 26l-.6-1H181v37.3h13.5V50.8l7 10.55.66.94h12.6V25h-13.4zm12.5 36.35h-11.24l-.4-.55-8.6-13v13.6h-11.7V25.94h11.45l.35.57 8.53 13V25.97h11.6v35.4zm-20.8-34.85H182.5v34.33h10.57V45.9l9.65 14.62.2.3h10.4v-34.3h-10.48v14.93l-9.6-14.63zm17.83 1.8a.65.65 0 1 1-.65.64.65.65 0 0 1 .65-.65zm0 2.44a.65.65 0 1 1-.65.65.65.65 0 0 1 .65-.68zm0 2.45a.65.65 0 1 1-.65.62.65.65 0 0 1 .65-.65zm0 2.42a.65.65 0 1 1-.65.65.65.65 0 0 1 .65-.65zm0 2.45a.65.65 0 1 1-.65.64.65.65 0 0 1 .65-.63zm0 2.44a.65.65 0 1 1-.65.66.65.65 0 0 1 .65-.65zm0 2.46a.65.65 0 1 1-.65.64.65.65 0 0 1 .65-.63zm0 2.44a.65.65 0 1 1-.65.66.65.65 0 0 1 .65-.64zm0 2.46a.65.65 0 1 1-.65.64.65.65 0 0 1 .65-.63zm0 2.44a.65.65 0 1 1-.65.65.65.65 0 0 1 .65-.63zm0 2.45a.65.65 0 1 1-.65.64.65.65 0 0 1 .65-.64zm0 2.44a.65.65 0 1 1-.65.63.65.65 0 0 1 .65-.63zm0 2.43a.65.65 0 1 1-.65.64.65.65 0 0 1 .65-.6zM208 28.3a.65.65 0 1 1-.65.64.65.65 0 0 1 .65-.65zm0 2.44a.65.65 0 1 1-.65.65.65.65 0 0 1 .65-.68zm0 2.45a.65.65 0 1 1-.65.62.65.65 0 0 1 .65-.65zm0 2.42a.65.65 0 1 1-.65.65.65.65 0 0 1 .65-.65zm0 2.45a.65.65 0 1 1-.65.64.65.65 0 0 1 .65-.63zm0 2.44a.65.65 0 1 1-.65.66.65.65 0 0 1 .65-.65zm0 2.47a.65.65 0 1 1-.65.65.65.65 0 0 1 .65-.65zm0 2.45a.65.65 0 1 1-.65.65.65.65 0 0 1 .65-.64zm0 2.45a.65.65 0 1 1-.65.65.65.65 0 0 1 .65-.64zm0 2.45a.65.65 0 1 1-.65.65.65.65 0 0 1 .65-.63zm0 2.45a.65.65 0 1 1-.65.65.65.65 0 0 1 .65-.63zm0 2.45a.65.65 0 1 1-.65.65.65.65 0 0 1 .65-.63zm0 2.45a.65.65 0 1 1-.65.65.65.65 0 0 1 .65-.62zm-2.9-29.44a.65.65 0 1 1-.64.65.65.65 0 0 1 .66-.6zm0 2.45a.65.65 0 1 1-.64.65.65.65 0 0 1 .66-.62zm0 2.45a.65.65 0 1 1-.64.65.65.65 0 0 1 .66-.6zm0 2.45a.65.65 0 1 1-.64.66.65.65 0 0 1 .66-.6zm0 2.46a.65.65 0 1 1-.64.65.65.65 0 0 1 .66-.6zm0 2.45a.65.65 0 1 1-.64.66.65.65 0 0 1 .66-.6zm0 2.46a.65.65 0 1 1-.64.65.65.65 0 0 1 .66-.6zm0 2.45a.65.65 0 1 1-.64.67.65.65 0 0 1 .66-.6zm0 2.47a.65.65 0 1 1-.64.65.65.65 0 0 1 .66-.6zm0 2.45a.65.65 0 1 1-.64.66.65.65 0 0 1 .66-.6zm0 2.46a.65.65 0 1 1-.64.64.65.65 0 0 1 .66-.58zm0 2.44a.65.65 0 1 1-.64.66.65.65 0 0 1 .66-.6zm0 2.46a.65.65 0 1 1-.64.65.65.65 0 0 1 .66-.57zM184.88 59a.65.65 0 1 1 .65-.65.65.65 0 0 1-.65.65zm0-2.45a.65.65 0 1 1 .65-.65.65.65 0 0 1-.62.68zm0-2.45a.65.65 0 1 1 .65-.65.65.65 0 0 1-.62.68zm0-2.45a.65.65 0 1 1 .65-.65.65.65 0 0 1-.63.67zm0-2.45a.65.65 0 1 1 .65-.65.65.65 0 0 1-.63.67zm0-2.45a.65.65 0 1 1 .65-.65.65.65 0 0 1-.63.67zm0-2.45a.65.65 0 1 1 .65-.65.65.65 0 0 1-.64.66zm0-2.45a.65.65 0 1 1 .65-.65.65.65 0 0 1-.64.66zm0-2.45a.65.65 0 1 1 .65-.65.65.65 0 0 1-.64.66zm0-2.45a.65.65 0 1 1 .65-.65.65.65 0 0 1-.6.7h-.05zm0-2.45a.65.65 0 1 1 .65-.65.65.65 0 0 1-.65.65zm0-2.45a.65.65 0 1 1 .65-.65.65.65 0 0 1-.65.6zm0-2.45a.65.65 0 1 1 .65-.65.65.65 0 0 1-.65.64zm2.9 29.4a.65.65 0 1 1 .65-.65.65.65 0 0 1-.65.65zm0-2.45a.65.65 0 1 1 .65-.65.65.65 0 0 1-.62.68zm0-2.45a.65.65 0 1 1 .65-.65.65.65 0 0 1-.62.68zm0-2.45a.65.65 0 1 1 .65-.65.65.65 0 0 1-.63.67zm0-2.45a.65.65 0 1 1 .65-.65.65.65 0 0 1-.63.67zm0-2.45a.65.65 0 1 1 .65-.65.65.65 0 0 1-.63.67zm0-2.45a.65.65 0 1 1 .65-.65.65.65 0 0 1-.64.66zm0-2.45a.65.65 0 1 1 .65-.65.65.65 0 0 1-.64.66zm0-2.45a.65.65 0 1 1 .65-.65.65.65 0 0 1-.64.66zm0-2.45a.65.65 0 1 1 .65-.65.65.65 0 0 1-.6.7h-.05zm0-2.45a.65.65 0 1 1 .65-.65.65.65 0 0 1-.65.65zm0-2.45a.65.65 0 1 1 .65-.65.65.65 0 0 1-.65.6zm0-2.45a.65.65 0 1 1 .65-.65.65.65 0 0 1-.65.64zm2.9 29.4a.65.65 0 1 1 .64-.65.65.65 0 0 1-.64.65zm0-2.45a.65.65 0 1 1 .64-.65.65.65 0 0 1-.6.68zm0-2.45a.65.65 0 1 1 .64-.65.65.65 0 0 1-.6.68zm0-2.45a.65.65 0 1 1 .64-.65.65.65 0 0 1-.62.67zm0-2.45a.65.65 0 1 1 .64-.65.65.65 0 0 1-.62.67zm0-2.45a.65.65 0 1 1 .64-.65.65.65 0 0 1-.62.67zm0-2.45a.65.65 0 1 1 .64-.65.65.65 0 0 1-.63.66zm0-2.45a.65.65 0 1 1 .64-.65.65.65 0 0 1-.63.66zm0-2.45a.65.65 0 1 1 .64-.65.65.65 0 0 1-.63.66zm0-2.45a.65.65 0 1 1 .64-.65.65.65 0 0 1-.6.7h-.04zm0-2.45a.65.65 0 1 1 .64-.65.65.65 0 0 1-.64.65zm0-2.45a.65.65 0 1 1 .64-.65.65.65 0 0 1-.64.6zm0-2.45a.65.65 0 1 1 .64-.65.65.65 0 0 1-.64.64zm2.88 14.72a.65.65 0 1 1 .65-.65.65.65 0 0 1-.63.64zm0-2.45a.65.65 0 1 1 .65-.65.65.65 0 0 1-.63.64zm0-2.45a.65.65 0 1 1 .65-.65.65.65 0 0 1-.63.64zm0-2.45a.65.65 0 1 1 .65-.65.65.65 0 0 1-.6.68zm0-2.45a.65.65 0 1 1 .65-.65.65.65 0 0 1-.63.63zm8.68 8.48a.65.65 0 1 1-.65.65.65.65 0 0 1 .63-.65zm0 2.45a.65.65 0 1 1-.65.65.65.65 0 0 1 .63-.64zm0 2.45a.65.65 0 1 1-.65.65.65.65 0 0 1 .63-.64zm0 2.45a.65.65 0 1 1-.65.65.65.65 0 0 1 .63-.63zm0 2.45a.65.65 0 1 1-.65.65.65.65 0 0 1 .63-.63zm0 2.45a.65.65 0 1 1-.65.65.65.65 0 0 1 .63-.63zm-2.9-14.72a.65.65 0 1 1-.64.65.65.65 0 0 1 .63-.63zm0 2.45a.65.65 0 1 1-.64.65.65.65 0 0 1 .63-.63zm0 2.45a.65.65 0 1 1-.64.65.65.65 0 0 1 .63-.62zm0 2.45a.65.65 0 1 1-.64.65.65.65 0 0 1 .63-.62zm0 2.45a.65.65 0 1 1-.64.65.65.65 0 0 1 .63-.6zm-2.88-14.72a.65.65 0 1 1-.65.68.65.65 0 0 1 .66-.6zm0 2.48a.65.65 0 1 1-.65.65.65.65 0 0 1 .66-.6zm0 2.45a.65.65 0 1 1-.65.66.65.65 0 0 1 .66-.6zm0 2.46a.65.65 0 1 1-.65.64.65.65 0 0 1 .66-.6zm0 2.44a.65.65 0 1 1-.65.66.65.65 0 0 1 .66-.6zm-2.25-14a.65.65 0 1 1-.63-.64.65.65 0 0 1 .65.62zM165.45 47.2c0 .74-.3 2-2.27 2s-2.27-1.25-2.27-2V25h-13.7v22.2a15.54 15.54 0 0 0 15.56 15.52h.48a15.54 15.54 0 0 0 15.87-15.2V25h-13.7zm.9 0V25.94h11.9V47.2a14.65 14.65 0 0 1-14.7 14.62H163a14.65 14.65 0 0 1-15-14.3V25.94h12V47.2c0 .68.23 2.9 3.17 2.9s3.16-2.22 3.16-2.9zm-6.06 2.35a3.48 3.48 0 0 1-.84-2.35V26.5H148.7v20.7a14.1 14.1 0 0 0 14.12 14.05h.46a14.1 14.1 0 0 0 14.4-13.78V26.5H166.9v20.7a3.48 3.48 0 0 1-.85 2.35 4.32 4.32 0 0 1-5.78 0zm-9.37 2.06a.65.65 0 1 1 .66-.62.65.65 0 0 1-.65.65zm0-2.42a.65.65 0 1 1 .66-.65.65.65 0 0 1-.64.67zm0-2.45a.65.65 0 1 1 .66-.64.65.65 0 0 1-.64.65zm0-2.44a.65.65 0 1 1 .66-.66.65.65 0 0 1-.64.67zm0-2.46a.65.65 0 1 1 .66-.64.65.65 0 0 1-.64.65zm0-2.44a.65.65 0 1 1 .66-.66.65.65 0 0 1-.64.67zm0-2.46a.65.65 0 1 1 .66-.64.65.65 0 0 1-.63.67zm0-2.44a.65.65 0 1 1 .66-.65.65.65 0 0 1-.63.68zm0-2.45a.65.65 0 1 1 .66-.64.65.65 0 0 1-.65.66zm0-2.44a.65.65 0 1 1 .66-.63.65.65 0 0 1-.63.68zm24.44-1.3a.65.65 0 1 1-.65.66.65.65 0 0 1 .63-.63zm0 2.46a.65.65 0 1 1-.65.65.65.65 0 0 1 .63-.62zm0 2.45a.65.65 0 1 1-.65.66.65.65 0 0 1 .63-.63zm0 2.46a.65.65 0 1 1-.65.65.65.65 0 0 1 .63-.62zm0 2.45a.65.65 0 1 1-.65.66.65.65 0 0 1 .63-.63zm0 2.46a.65.65 0 1 1-.65.65.65.65 0 0 1 .63-.63zm0 2.45a.65.65 0 1 1-.65.66.65.65 0 0 1 .63-.6zm0 2.46a.65.65 0 1 1-.65.65.65.65 0 0 1 .63-.63zm0 2.45a.65.65 0 1 1-.65.66.65.65 0 0 1 .63-.64zm0 2.46a.65.65 0 1 1-.65.65.65.65 0 0 1 .63-.63zm-3.05-22a.65.65 0 1 1-.66.65.65.65 0 0 1 .62-.67zm0 2.45a.65.65 0 1 1-.66.66.65.65 0 0 1 .62-.68zm0 2.46a.65.65 0 1 1-.66.65.65.65 0 0 1 .62-.67zm0 2.45a.65.65 0 1 1-.66.66.65.65 0 0 1 .62-.68zm0 2.46a.65.65 0 1 1-.66.65.65.65 0 0 1 .62-.67zm0 2.45a.65.65 0 1 1-.66.66.65.65 0 0 1 .6-.7zm0 2.46a.65.65 0 1 1-.66.65.65.65 0 0 1 .64-.64zm0 2.45a.65.65 0 1 1-.66.66.65.65 0 0 1 .6-.7zm0 2.46a.65.65 0 1 1-.66.65.65.65 0 0 1 .6-.7zm0 2.45a.65.65 0 1 1-.66.66.65.65 0 0 1 .6-.7zm0 2.46a.65.65 0 1 1-.66.65.65.65 0 0 1 .6-.7zm0 2.45a.65.65 0 1 1-.66.66.65.65 0 0 1 .6-.7zm-3.06-26.92a.65.65 0 1 1-.65.65.65.65 0 0 1 .6-.7zm0 2.45a.65.65 0 1 1-.65.65.65.65 0 0 1 .6-.7zm0 2.45a.65.65 0 1 1-.65.65.65.65 0 0 1 .6-.7zm0 2.45a.65.65 0 1 1-.65.65.65.65 0 0 1 .6-.7zm0 2.45a.65.65 0 1 1-.65.65.65.65 0 0 1 .6-.7zm0 2.45a.65.65 0 1 1-.65.65.65.65 0 0 1 .6-.7h.03zm0 2.45a.65.65 0 1 1-.65.65.65.65 0 0 1 .62-.67zm0 2.45a.65.65 0 1 1-.65.65.65.65 0 0 1 .6-.7h.03zm0 2.45a.65.65 0 1 1-.65.65.65.65 0 0 1 .6-.7h.03zm0 2.45a.65.65 0 1 1-.65.65.65.65 0 0 1 .6-.7h.03zm0 2.45a.65.65 0 1 1-.65.65.65.65 0 0 1 .57-.72h.06zm0 2.45a.65.65 0 1 1-.65.65.65.65 0 0 1 .57-.72h.06zm0 2.45a.65.65 0 1 1-.65.65.65.65 0 0 1 .57-.72h.06zM154 56.58a.65.65 0 1 1 .65-.65.65.65 0 0 1-.66.58zm0-2.45a.65.65 0 1 1 .65-.65.65.65 0 0 1-.66.58zm0-2.45a.57.57 0 1 0 0-.07zm0-2.45a.65.65 0 1 1 .65-.65.65.65 0 0 1-.66.6zm0-2.45a.65.65 0 1 1 .65-.65.65.65 0 0 1-.66.6zm0-2.45a.65.65 0 1 1 .65-.65.65.65 0 0 1-.66.6zm0-2.45a.65.65 0 1 1 .65-.65.65.65 0 0 1-.66.6zm0-2.45a.65.65 0 1 1 .65-.65.65.65 0 0 1-.66.6zm0-2.43a.65.65 0 1 1 .65-.65.65.65 0 0 1-.66.6zm0-2.45a.65.65 0 1 1 .65-.65.65.65 0 0 1-.66.6zm0-2.45a.65.65 0 1 1 .65-.65.65.65 0 0 1-.66.57zm0-2.45a.65.65 0 1 1 .65-.65.65.65 0 0 1-.66.6zM157 59a.65.65 0 1 1 .65-.65.65.65 0 0 1-.65.65zm0-2.45a.65.65 0 1 1 .65-.65.65.65 0 0 1-.65.6zm0-2.45a.65.65 0 1 1 .65-.65.65.65 0 0 1-.65.6zm0-2.45a.65.65 0 1 1 .65-.65.65.65 0 0 1-.65.6zm0-2.45a.65.65 0 1 1 .65-.65.65.65 0 0 1-.65.62zm0-2.45a.65.65 0 1 1 .65-.65.65.65 0 0 1-.65.62zm0-2.45a.65.65 0 1 1 .65-.65.65.65 0 0 1-.65.62zm0-2.45a.65.65 0 1 1 .65-.65.65.65 0 0 1-.65.62zm0-2.45a.65.65 0 1 1 .65-.65.65.65 0 0 1-.65.62zm0-2.45a.65.65 0 1 1 .65-.65.65.65 0 0 1-.65.63zm0-2.45a.65.65 0 1 1 .65-.65.65.65 0 0 1-.65.63zm0-2.5a.65.65 0 1 1 .65-.65.65.65 0 0 1-.65.65zm0-2.45a.65.65 0 1 1 .65-.65.65.65 0 0 1-.62.68zM160.06 59a.65.65 0 1 1 .65-.65.65.65 0 0 1-.62.65zm0-2.45a.65.65 0 1 1 .65-.65.65.65 0 0 1-.62.6zm0-2.45a.65.65 0 1 1 .65-.65.65.65 0 0 1-.62.6zm3.05 4.9a.65.65 0 1 1 .68-.65.65.65 0 0 1-.65.65zm0-2.45a.65.65 0 1 1 .68-.65.65.65 0 0 1-.65.6zm3.08-3.76a.65.65 0 1 1-.65.62.65.65 0 0 1 .62-.7zm0 2.42a.65.65 0 1 1-.65.65.65.65 0 0 1 .62-.7zm0 2.45a.65.65 0 1 1-.65.64.65.65 0 0 1 .62-.7zm-2.4-4.25a.65.65 0 1 1-.65-.65.65.65 0 0 1 .66.6z" class="b"/>
  <circle cx="124.12" cy="43.63" r=".65" class="c"/>
  <circle cx="124.12" cy="55.87" r=".65" class="c"/>
  <circle cx="124.12" cy="58.32" r=".65" class="c"/>
  <circle cx="124.12" cy="48.52" r=".65" class="c"/>
  <circle cx="124.12" cy="46.08" r=".65" class="c"/>
  <circle cx="126.96" cy="31.39" r=".65" class="c"/>
  <circle cx="124.12" cy="50.97" r=".65" class="c"/>
  <circle cx="124.12" cy="53.42" r=".65" class="c"/>
  <circle cx="126.96" cy="43.63" r=".65" class="c"/>
  <circle cx="126.96" cy="41.18" r=".65" class="c"/>
  <circle cx="126.96" cy="46.08" r=".65" class="c"/>
  <circle cx="126.96" cy="33.84" r=".65" class="c"/>
  <circle cx="126.96" cy="28.94" r=".65" class="c"/>
  <circle cx="126.96" cy="38.73" r=".65" class="c"/>
  <circle cx="126.96" cy="36.28" r=".65" class="c"/>
  <circle cx="141.15" cy="48.52" r=".65" class="c"/>
  <circle cx="124.12" cy="41.18" r=".65" class="c"/>
  <circle cx="135.47" cy="46.08" r=".65" class="c"/>
  <circle cx="138.31" cy="43.63" r=".65" class="c"/>
  <circle cx="138.31" cy="48.52" r=".65" class="c"/>
  <circle cx="141.15" cy="46.08" r=".65" class="c"/>
  <circle cx="141.15" cy="43.63" r=".65" class="c"/>
  <circle cx="126.96" cy="48.52" r=".65" class="c"/>
  <circle cx="138.31" cy="46.08" r=".65" class="c"/>
  <circle cx="135.47" cy="48.52" r=".65" class="c"/>
  <circle cx="124.12" cy="33.84" r=".65" class="c"/>
  <circle cx="124.12" cy="38.73" r=".65" class="c"/>
  <circle cx="124.12" cy="36.28" r=".65" class="c"/>
  <circle cx="135.47" cy="43.63" r=".65" class="c"/>
  <circle cx="124.12" cy="31.39" r=".65" class="c"/>
  <circle cx="124.12" cy="28.94" r=".65" class="c"/>
  <circle cx="132.63" cy="43.63" r=".65" class="c"/>
  <circle cx="132.63" cy="28.94" r=".65" class="c"/>
  <circle cx="132.63" cy="33.84" r=".65" class="c"/>
  <circle cx="135.47" cy="31.39" r=".65" class="c"/>
  <circle cx="132.63" cy="48.52" r=".65" class="c"/>
  <circle cx="132.63" cy="31.39" r=".65" class="c"/>
  <circle cx="129.79" cy="58.32" r=".65" class="c"/>
  <circle cx="132.63" cy="46.08" r=".65" class="c"/>
  <circle cx="135.47" cy="28.94" r=".65" class="c"/>
  <circle cx="141.15" cy="28.94" r=".65" class="c"/>
  <circle cx="135.47" cy="33.84" r=".65" class="c"/>
  <circle cx="141.15" cy="31.39" r=".65" class="c"/>
  <circle cx="141.15" cy="33.84" r=".65" class="c"/>
  <circle cx="138.31" cy="31.39" r=".65" class="c"/>
  <circle cx="138.31" cy="28.94" r=".65" class="c"/>
  <circle cx="138.31" cy="33.84" r=".65" class="c"/>
  <circle cx="129.79" cy="50.97" r=".65" class="c"/>
  <circle cx="129.79" cy="28.94" r=".65" class="c"/>
  <circle cx="129.79" cy="36.28" r=".65" class="c"/>
  <circle cx="129.79" cy="33.84" r=".65" class="c"/>
  <circle cx="129.79" cy="31.39" r=".65" class="c"/>
  <circle cx="126.96" cy="53.42" r=".65" class="c"/>
  <circle cx="126.96" cy="55.87" r=".65" class="c"/>
  <circle cx="126.96" cy="58.32" r=".65" class="c"/>
  <circle cx="129.79" cy="46.08" r=".65" class="c"/>
  <circle cx="126.96" cy="50.97" r=".65" class="c"/>
  <circle cx="129.79" cy="38.73" r=".65" class="c"/>
  <circle cx="129.79" cy="53.42" r=".65" class="c"/>
  <circle cx="129.79" cy="48.52" r=".65" class="c"/>
  <circle cx="129.79" cy="41.18" r=".65" class="c"/>
  <circle cx="129.79" cy="43.63" r=".65" class="c"/>
  <circle cx="129.79" cy="55.87" r=".65" class="c"/>
  <circle cx="208.01" cy="58.38" r=".65" class="c"/>
  <circle cx="210.9" cy="31.39" r=".65" class="c"/>
  <circle cx="210.9" cy="33.85" r=".65" class="c"/>
  <circle cx="208.01" cy="41.21" r=".65" class="c"/>
  <circle cx="210.9" cy="36.3" r=".65" class="c"/>
  <circle cx="208.01" cy="55.93" r=".65" class="c"/>
  <circle cx="208.01" cy="46.11" r=".65" class="c"/>
  <circle cx="208.01" cy="43.66" r=".65" class="c"/>
  <circle cx="208.01" cy="48.57" r=".65" class="c"/>
  <circle cx="208.01" cy="51.02" r=".65" class="c"/>
  <circle cx="210.9" cy="38.75" r=".65" class="c"/>
  <circle cx="208.01" cy="53.47" r=".65" class="c"/>
  <circle cx="210.9" cy="28.94" r=".65" class="c"/>
  <circle cx="199.33" cy="48.57" r=".65" class="c"/>
  <circle cx="199.33" cy="51.02" r=".65" class="c"/>
  <circle cx="210.9" cy="58.38" r=".65" class="c"/>
  <circle cx="199.33" cy="43.66" r=".65" class="c"/>
  <circle cx="210.9" cy="55.93" r=".65" class="c"/>
  <circle cx="199.33" cy="46.11" r=".65" class="c"/>
  <circle cx="210.9" cy="43.66" r=".65" class="c"/>
  <circle cx="210.9" cy="53.47" r=".65" class="c"/>
  <circle cx="210.9" cy="41.21" r=".65" class="c"/>
  <circle cx="210.9" cy="46.11" r=".65" class="c"/>
  <circle cx="210.9" cy="48.57" r=".65" class="c"/>
  <circle cx="210.9" cy="51.02" r=".65" class="c"/>
  <circle cx="202.23" cy="51.02" r=".65" class="c"/>
  <circle cx="205.12" cy="28.94" r=".65" class="c"/>
  <circle cx="205.12" cy="31.39" r=".65" class="c"/>
  <circle cx="205.12" cy="33.85" r=".65" class="c"/>
  <circle cx="205.12" cy="41.21" r=".65" class="c"/>
  <circle cx="202.23" cy="55.93" r=".65" class="c"/>
  <circle cx="205.12" cy="36.3" r=".65" class="c"/>
  <circle cx="205.12" cy="38.75" r=".65" class="c"/>
  <circle cx="202.23" cy="43.66" r=".65" class="c"/>
  <circle cx="202.23" cy="46.11" r=".65" class="c"/>
  <circle cx="199.33" cy="41.21" r=".65" class="c"/>
  <circle cx="202.23" cy="48.57" r=".65" class="c"/>
  <circle cx="202.23" cy="53.47" r=".65" class="c"/>
  <circle cx="208.01" cy="36.3" r=".65" class="c"/>
  <circle cx="208.01" cy="31.39" r=".65" class="c"/>
  <circle cx="208.01" cy="28.94" r=".65" class="c"/>
  <circle cx="208.01" cy="38.75" r=".65" class="c"/>
  <circle cx="208.01" cy="33.85" r=".65" class="c"/>
  <circle cx="205.12" cy="58.38" r=".65" class="c"/>
  <circle cx="205.12" cy="55.93" r=".65" class="c"/>
  <circle cx="205.12" cy="48.57" r=".65" class="c"/>
  <circle cx="205.12" cy="43.66" r=".65" class="c"/>
  <circle cx="205.12" cy="46.11" r=".65" class="c"/>
  <circle cx="205.12" cy="51.02" r=".65" class="c"/>
  <circle cx="205.12" cy="53.47" r=".65" class="c"/>
  <circle cx="184.87" cy="28.94" r=".65" class="c"/>
  <circle cx="184.87" cy="53.47" r=".65" class="c"/>
  <circle cx="184.87" cy="51.02" r=".65" class="c"/>
  <circle cx="184.87" cy="58.38" r=".65" class="c"/>
  <circle cx="184.87" cy="46.11" r=".65" class="c"/>
  <circle cx="184.87" cy="55.93" r=".65" class="c"/>
  <circle cx="184.87" cy="48.57" r=".65" class="c"/>
  <circle cx="187.77" cy="28.94" r=".65" class="c"/>
  <circle cx="187.77" cy="38.75" r=".65" class="c"/>
  <circle cx="187.77" cy="36.3" r=".65" class="c"/>
  <circle cx="184.87" cy="43.66" r=".65" class="c"/>
  <circle cx="187.77" cy="33.85" r=".65" class="c"/>
  <circle cx="187.77" cy="31.39" r=".65" class="c"/>
  <circle cx="193.55" cy="31.39" r=".65" class="c"/>
  <circle cx="193.55" cy="41.21" r=".65" class="c"/>
  <circle cx="193.55" cy="36.3" r=".65" class="c"/>
  <circle cx="193.55" cy="38.75" r=".65" class="c"/>
  <circle cx="187.77" cy="41.21" r=".65" class="c"/>
  <circle cx="193.55" cy="33.85" r=".65" class="c"/>
  <circle cx="184.87" cy="41.21" r=".65" class="c"/>
  <circle cx="193.55" cy="43.66" r=".65" class="c"/>
  <circle cx="184.87" cy="38.75" r=".65" class="c"/>
  <circle cx="184.87" cy="36.3" r=".65" class="c"/>
  <circle cx="196.44" cy="43.66" r=".65" class="c"/>
  <circle cx="184.87" cy="33.85" r=".65" class="c"/>
  <circle cx="184.87" cy="31.39" r=".65" class="c"/>
  <circle cx="190.66" cy="48.57" r=".65" class="c"/>
  <circle cx="190.66" cy="51.02" r=".65" class="c"/>
  <circle cx="190.66" cy="58.38" r=".65" class="c"/>
  <circle cx="190.66" cy="53.47" r=".65" class="c"/>
  <circle cx="190.66" cy="41.21" r=".65" class="c"/>
  <circle cx="190.66" cy="46.11" r=".65" class="c"/>
  <circle cx="190.66" cy="43.66" r=".65" class="c"/>
  <circle cx="196.44" cy="41.21" r=".65" class="c"/>
  <circle cx="190.66" cy="55.93" r=".65" class="c"/>
  <circle cx="196.44" cy="46.11" r=".65" class="c"/>
  <circle cx="196.44" cy="38.75" r=".65" class="c"/>
  <circle cx="196.44" cy="36.3" r=".65" class="c"/>
  <circle cx="187.77" cy="55.93" r=".65" class="c"/>
  <circle cx="187.77" cy="51.02" r=".65" class="c"/>
  <circle cx="187.77" cy="53.47" r=".65" class="c"/>
  <circle cx="187.77" cy="46.11" r=".65" class="c"/>
  <circle cx="187.77" cy="58.38" r=".65" class="c"/>
  <circle cx="190.66" cy="38.75" r=".65" class="c"/>
  <circle cx="187.77" cy="48.57" r=".65" class="c"/>
  <circle cx="187.77" cy="43.66" r=".65" class="c"/>
  <circle cx="190.66" cy="36.3" r=".65" class="c"/>
  <circle cx="190.66" cy="33.85" r=".65" class="c"/>
  <circle cx="190.66" cy="31.39" r=".65" class="c"/>
  <circle cx="190.66" cy="28.94" r=".65" class="c"/>
  <path d="M34.84 49.23h-.05l-2.94-14.7H30.2l-2.8 14.7h-.05l-2.23-14.7h-1.87l3.12 18.7h1.7l2.97-14.7h.05l2.94 14.7h1.7l3.03-18.7H36.9l-2.08 14.7zM48 42.55h-5.62v-8.03H40.5v18.72h1.88v-8.82h5.6v8.82h1.9V34.52h-1.9v8.03zm5.73 1.87h4.8v-1.87h-4.8V36.4h6.4v-1.9H51.6v18.72h8.83v-1.6h-6.67V44.4zm16.42 4h-.17l-4.82-13.9h-3.3v18.7H64v-16.3h.07l5.8 16.3h2.15v-18.7h-1.87v13.9zm9.63-12.02h3.75v16.84h2.14V36.4h3.74v-1.9h-9.6v1.87zm19.12 6.15h-5.63v-8.03h-2.14v18.72h2.14v-8.82h5.62v8.82h1.84V34.52H98.9v8.03zm5.72 9.1V44.4h4.8v-1.87h-4.8V36.4h6.42v-1.9h-8.56v18.72h8.82v-1.6h-6.68zm121.1-13.22A2.4 2.4 0 0 1 228.1 36h.2c1.94 0 2.7 1.48 2.87 3.35H233c-.16-3.2-1.92-5.07-4.62-5.07a4.2 4.2 0 0 0-4.52 4.38c0 5.35 7.53 5.83 7.53 10.08 0 2-1.1 3.06-2.8 3.06-2 0-3-1.23-3.1-3.63h-1.87c.05 3.2 1.82 5.34 4.75 5.34 3.1 0 4.8-1.7 4.8-4.7.03-6.06-7.5-6.1-7.5-10.35zm8.44-2.07h3.75V53.2h2.16V36.37h3.75V34.5h-9.63v1.86zm15.54-2.1c-3.16 0-5.28 2.66-5.28 9.64s2.13 9.63 5.3 9.63S255 50.88 255 43.9s-2.12-9.63-5.3-9.63zm0 17.55c-1.8 0-3.26-1.53-3.26-7.9s1.46-7.9 3.27-7.9 3.3 1.56 3.3 7.9-1.45 7.9-3.3 7.9zm11.75-17.3H257v18.7h2.14v-8.27h2.3c3 0 5-2.1 5-5.2s-1.98-5.23-5-5.23zm-.26 8.5h-2v-6.63h2c2 0 3.2 1 3.2 3.34s-1.2 3.3-3.2 3.3zm8.8-4.56a2.4 2.4 0 0 1 2.4-2.43h.1c2 0 2.74 1.5 2.9 3.36h1.86c-.16-3.2-1.92-5.07-4.62-5.07a4.2 4.2 0 0 0-4.52 4.37c0 5.35 7.53 5.83 7.53 10.08 0 2-1.1 3.06-2.78 3.06-2 0-3-1.22-3.1-3.62h-1.86c0 3.2 1.83 5.34 4.76 5.34 3.1 0 4.8-1.72 4.8-4.7 0-6.07-7.47-6.1-7.47-10.36zm58.2-1.18H327V43h1.25c2.1 0 2.76-.65 2.76-2.9s-.66-2.85-2.8-2.85zM316.67 37c-1.3 0-1.72.68-1.72 2.08v9.53c0 1.44.4 2.1 1.72 2.1s1.72-.7 1.72-2.1V39c0-1.35-.4-2-1.72-2zm5.98-19.5h-21.94L285.3 33v21.92l15.4 15.34h22l13.44-13.38 2-2V33zm-28.38 36.17c-3 0-4.72-2.4-4.85-5.2l3.07-.47c.13 1.9.9 2.84 1.93 2.84a1.66 1.66 0 0 0 1.88-1.72c0-3.73-6.54-4.72-6.54-10.1 0-3 1.82-4.7 5-4.7 2.63 0 4.2 1.9 4.5 4.56l-3.1.34c-.12-1.62-1-2.1-1.7-2.1A1.58 1.58 0 0 0 292.8 39c0 3.2 6.57 4.75 6.57 9.85 0 3.15-2.1 4.82-5.12 4.82zm15.8-16.27H307v16h-3.23v-16h-3.13v-2.8h9.5v2.8zm11.55 11.44c0 2.66-1.56 4.82-5 4.82s-5-2.17-5-4.82v-9.7c0-2.66 1.56-4.82 5-4.82s5 2.16 5 4.82zm6.74-3.15H327v7.7h-3.23V34.6h4.64c4 0 5.87 1.53 5.87 5.54s-1.9 5.55-5.87 5.55zm5.56-24.45h.4v-3.4h.78v-.36h-1.92v.34h.77v3.4zm1.87-3.44h.02l.78 3.45h.27l.78-3.44v3.45h.38V17.5h-.64l-.67 2.84-.67-2.84h-.64v3.76h.37v-3.44z" class="b"/>
  <circle cx="169.22" cy="58.3" r=".65" class="c"/>
  <circle cx="169.22" cy="46.06" r=".65" class="c"/>
  <circle cx="169.22" cy="53.41" r=".65" class="c"/>
  <circle cx="169.22" cy="55.86" r=".65" class="c"/>
  <circle cx="169.22" cy="48.51" r=".65" class="c"/>
  <circle cx="169.22" cy="43.62" r=".65" class="c"/>
  <circle cx="169.22" cy="36.27" r=".65" class="c"/>
  <circle cx="169.22" cy="38.72" r=".65" class="c"/>
  <circle cx="169.22" cy="41.17" r=".65" class="c"/>
  <circle cx="172.27" cy="33.82" r=".65" class="c"/>
  <circle cx="172.27" cy="48.51" r=".65" class="c"/>
  <circle cx="172.27" cy="46.06" r=".65" class="c"/>
  <circle cx="172.27" cy="43.62" r=".65" class="c"/>
  <circle cx="172.27" cy="50.96" r=".65" class="c"/>
  <circle cx="172.27" cy="41.17" r=".65" class="c"/>
  <circle cx="172.27" cy="36.27" r=".65" class="c"/>
  <circle cx="172.27" cy="31.38" r=".65" class="c"/>
  <circle cx="172.27" cy="38.72" r=".65" class="c"/>
  <circle cx="169.22" cy="33.82" r=".65" class="c"/>
  <circle cx="169.22" cy="50.96" r=".65" class="c"/>
  <circle cx="175.32" cy="38.72" r=".65" class="c"/>
  <circle cx="175.32" cy="41.17" r=".65" class="c"/>
  <circle cx="175.32" cy="43.62" r=".65" class="c"/>
  <circle cx="175.32" cy="36.27" r=".65" class="c"/>
  <circle cx="172.27" cy="53.41" r=".65" class="c"/>
  <circle cx="175.32" cy="48.51" r=".65" class="c"/>
  <circle cx="175.32" cy="50.96" r=".65" class="c"/>
  <circle cx="175.32" cy="46.06" r=".65" class="c"/>
  <circle cx="175.32" cy="33.82" r=".65" class="c"/>
  <circle cx="163.11" cy="53.41" r=".65" class="c"/>
  <circle cx="166.16" cy="55.86" r=".65" class="c"/>
  <circle cx="166.16" cy="53.41" r=".65" class="c"/>
  <circle cx="166.16" cy="58.3" r=".65" class="c"/>
  <circle cx="169.22" cy="31.38" r=".65" class="c"/>
  <circle cx="169.22" cy="28.93" r=".65" class="c"/>
  <circle cx="163.11" cy="55.86" r=".65" class="c"/>
  <circle cx="175.32" cy="28.93" r=".65" class="c"/>
  <circle cx="175.32" cy="31.38" r=".65" class="c"/>
  <circle cx="163.11" cy="58.3" r=".65" class="c"/>
  <circle cx="160.06" cy="55.86" r=".65" class="c"/>
  <circle cx="150.9" cy="48.51" r=".65" class="c"/>
  <circle cx="153.95" cy="31.38" r=".65" class="c"/>
  <circle cx="153.95" cy="28.93" r=".65" class="c"/>
  <circle cx="150.9" cy="50.96" r=".65" class="c"/>
  <circle cx="153.95" cy="33.82" r=".65" class="c"/>
  <circle cx="153.95" cy="41.17" r=".65" class="c"/>
  <circle cx="153.95" cy="38.72" r=".65" class="c"/>
  <circle cx="153.95" cy="36.27" r=".65" class="c"/>
  <circle cx="150.9" cy="46.06" r=".65" class="c"/>
  <circle cx="153.95" cy="43.62" r=".65" class="c"/>
  <circle cx="160.06" cy="58.3" r=".65" class="c"/>
  <circle cx="150.9" cy="31.38" r=".65" class="c"/>
  <circle cx="150.9" cy="43.62" r=".65" class="c"/>
  <circle cx="160.06" cy="53.41" r=".65" class="c"/>
  <circle cx="150.9" cy="28.93" r=".65" class="c"/>
  <circle cx="150.9" cy="38.72" r=".65" class="c"/>
  <circle cx="150.9" cy="41.17" r=".65" class="c"/>
  <circle cx="150.9" cy="33.82" r=".65" class="c"/>
  <circle cx="150.9" cy="36.27" r=".65" class="c"/>
  <circle cx="157" cy="48.51" r=".65" class="c"/>
  <circle cx="172.27" cy="55.86" r=".65" class="c"/>
  <circle cx="157" cy="46.06" r=".65" class="c"/>
  <circle cx="153.95" cy="46.06" r=".65" class="c"/>
  <circle cx="157" cy="50.96" r=".65" class="c"/>
  <circle cx="157" cy="41.17" r=".65" class="c"/>
  <circle cx="157" cy="53.41" r=".65" class="c"/>
  <circle cx="172.27" cy="28.93" r=".65" class="c"/>
  <circle cx="157" cy="55.86" r=".65" class="c"/>
  <circle cx="157" cy="58.3" r=".65" class="c"/>
  <circle cx="157" cy="43.62" r=".65" class="c"/>
  <circle cx="153.95" cy="53.41" r=".65" class="c"/>
  <circle cx="153.95" cy="50.96" r=".65" class="c"/>
  <circle cx="153.95" cy="55.86" r=".65" class="c"/>
  <circle cx="153.95" cy="48.51" r=".65" class="c"/>
  <circle cx="157" cy="36.27" r=".65" class="c"/>
  <circle cx="157" cy="38.72" r=".65" class="c"/>
  <circle cx="157" cy="33.82" r=".65" class="c"/>
  <circle cx="157" cy="28.93" r=".65" class="c"/>
  <circle cx="157" cy="31.38" r=".65" class="c"/>
</svg>
