<svg xmlns="http://www.w3.org/2000/svg" viewBox="0 0 19.96903 14.59054">
  <path d="M5.4 9.08a1.93 1.93 0 1 0-1.93-1.93A1.94 1.94 0 0 0 5.4 9.08zM4.12 7.15A1.28 1.28 0 1 1 5.4 8.43a1.28 1.28 0 0 1-1.28-1.28zM19.84.1a.36.36 0 0 0-.5.02l-8.57 9.63a3.22 3.22 0 0 1-2.25.94H1.84A1.9 1.9 0 0 0 0 12.52a1.98 1.98 0 0 0 .58 1.52 1.8 1.8 0 0 0 1.26.53h.1l3.87-.24a4.78 4.78 0 0 0 3.3-1.6l2.2-2.5.17-.18.52-.6c0-.02.02-.04.04-.06L19.88.6a.35.35 0 0 0-.04-.5zM5.3 13.65l-1.63.1V11.4H5.3zm-3.4.2a1.03 1.03 0 0 1-.8-.32 1.27 1.27 0 0 1-.38-.97 1.18 1.18 0 0 1 1.13-1.16h1.1v2.4zm6.64-1.6A4.05 4.05 0 0 1 6 13.6v-2.2h2.53a3.55 3.55 0 0 0 .86-.1z"/>
</svg>
