<svg xmlns="http://www.w3.org/2000/svg" viewBox="0 0 19.97603 17.94">
  <path d="M2.53 17.94a.3.3 0 0 1-.23-.12L.05 14.67a.28.28 0 0 1-.05-.22.3.3 0 0 1 .12-.2l5.53-3.94-.18-.23-.77-.13a.3.3 0 0 1-.24-.33.28.28 0 0 1 .3-.23h.04l.77.13L17.73.8 17.6.62a.3.3 0 0 1 .07-.4.26.26 0 0 1 .17-.05.33.33 0 0 1 .24.12l.13.16.6-.42A.26.26 0 0 1 19 0a.33.33 0 0 1 .24.1l.72 1a.33.33 0 0 1 .05.23.26.26 0 0 1-.13.2l-8.2 5.85v.02a1.06 1.06 0 0 1-.4 1.08L8.5 10.45l.04.04.1.1a1.48 1.48 0 0 1-.34 2.07 1.46 1.46 0 0 1-1.44.16h-.03l-4.05 5.03a.6.6 0 0 1-.25.07zM.7 14.57l1.85 2.6 3.9-4.84v-.9L6 10.8zm6.33-2.3h.03a.95.95 0 0 0 .37.08.87.87 0 0 0 .52-.17.9.9 0 0 0 .37-.6.88.88 0 0 0-.16-.66l-.1-.13-.06-.05-.62.44.1.02a.3.3 0 0 1 .2.14.3.3 0 0 1 .02.22.28.28 0 0 1-.28.2.22.22 0 0 1-.08 0l-.33-.1zm-1-2.4l.77 1.05L10.9 8a.47.47 0 0 0 .1-.65l-.5-.7zM11 6.32l.37.52 7.9-5.65-.37-.53z"/>
</svg>
