<svg xmlns="http://www.w3.org/2000/svg" viewBox="0 0 16.06 20.15">
  <path d="M14.9 4.35a.4.4 0 0 0-.42-.35H11.9v-.1a3.9 3.9 0 1 0-7.76 0V4H1.57a.4.4 0 0 0-.4.37L0 17.54a2.76 2.76 0 0 0 2.92 2.56h10.23a2.76 2.76 0 0 0 2.92-2.56zM5 3.88a3.07 3.07 0 0 1 6.15 0V4H5zm8.2 15.43H2.9A2 2 0 0 1 .8 17.6l1.13-12.8h2.2v1.88a.4.4 0 0 0 .8 0V4.78h6.15v1.87a.4.4 0 0 0 .8 0V4.78h2.2l1.15 12.8a2 2 0 0 1-2.1 1.75zM8 9.2a2.35 2.35 0 0 0-2.35 2.35C5.68 13.67 8 16 8 16s2.35-2.47 2.35-4.46A2.35 2.35 0 0 0 8 9.18zm-.7 3.1a1 1 0 1 1 1.46 0 1 1 0 0 1-1.46 0z"/>
</svg>
