<svg xmlns="http://www.w3.org/2000/svg" viewBox="0 0 19.375 21.45899">
  <path d="M6.74 14.23a.32.32 0 0 0 .35-.35v-.94a1.5 1.5 0 0 0 .95.3 1.7 1.7 0 0 0 1.6-1.56C9.9 10.52 9.13 9.9 8.4 9.3a5.43 5.43 0 0 1-1.36-1.4.34.34 0 0 0-.55 0 6 6 0 0 1-1.3 1.43 2.93 2.93 0 0 0-1.34 2.3 1.6 1.6 0 0 0 1.6 1.6 1.5 1.5 0 0 0 .96-.3v.95a.32.32 0 0 0 .3.35zM5.5 12.6a.97.97 0 0 1-.98-.97c0-.8.47-1.23 1.12-1.8a7.78 7.78 0 0 0 1.14-1.2 7.24 7.24 0 0 0 1.2 1.17c.8.64 1.2 1 1.05 1.76-.04.24-.25 1.04-.96 1.04-.52 0-.7-.18-1-.78a.3.3 0 0 0-.06-.08v-.02a.33.33 0 0 0-.07-.04H6.9a.3.3 0 0 0-.24 0h-.02a.3.3 0 0 0-.08.04l-.02.02a.32.32 0 0 0-.05.08c-.33.6-.5.78-1 .78zm-3.9 6.12a.97.97 0 0 1-.95-.97V4.2a.97.97 0 0 1 .96-.98h1.7a.32.32 0 0 0 .34-.26l.1-.52a.97.97 0 0 1 1.12-.8l1.82.33a.33.33 0 0 0 .36-.2l.2-.5a.96.96 0 0 1 1.2-.55l4.97 1.8-5-.87a.32.32 0 0 0-.1.64l1.8.3H4.53a.32.32 0 1 0 0 .64h7.42a.97.97 0 0 1 .97.97v9.4h.67V4.2a1.6 1.6 0 0 0-.42-1.08l1.88.33a.97.97 0 0 1 .78 1.12l-1.6 9.05h.68l1.56-8.94a1.6 1.6 0 0 0-.24-1.16l1.9.7a.96.96 0 0 1 .56 1.22l-2.98 8.18h.7l2.88-7.96a1.6 1.6 0 0 0-.96-2.05L8.67.1a1.6 1.6 0 0 0-2.05.94l-.1.25L4.96 1a1.6 1.6 0 0 0-1.87 1.3l-.07.26H1.6A1.6 1.6 0 0 0 0 4.2v13.56a1.6 1.6 0 0 0 1.6 1.6h9.6l-.65-.64zm17.75-2.15l-1.12-2.02a.18.18 0 0 0-.15-.1h-7.02a.18.18 0 0 0-.16.1l-1.12 2.02a.18.18 0 0 0 .03.2l4.67 4.64a.18.18 0 0 0 .25 0l4.62-4.6a.18.18 0 0 0 .03-.22zm-1.62-1.75L16.7 16.4 15 14.8zm-1.46 1.67h-3.4l1.7-1.6zm-2.17-1.7l-1.66 1.57-1.04-1.58zm-3.03.17l1 1.48h-1.83zm-.7 1.84h1.93l1.7 3.6zm4.22 4.04l-1.9-4.02h3.72zm.56-.43l1.66-3.6h1.95zm1.9-3.95l1-1.5.82 1.5zm-2.46 5z"/>
</svg>
