<svg xmlns="http://www.w3.org/2000/svg" viewBox="0 0 15.51754 20.18639">
  <path d="M15.08 4.77a.44.44 0 0 0-.44.43v14.1H.86V2.53H9a.44.44 0 0 0 0-.88H.44A.44.44 0 0 0 0 2.1v17.66a.44.44 0 0 0 .44.44h14.64a.44.44 0 0 0 .44-.45V5.2a.44.44 0 0 0-.44-.43zM4.6 8.7L4 11a.44.44 0 0 0 .42.54.45.45 0 0 0 .1 0l2.3-.6a.44.44 0 0 0 .2-.13L14 3.87l1.4-1.4a.44.44 0 0 0 0-.62L13.7.14a.44.44 0 0 0-.6 0l-1.4 1.4-7 6.96a.43.43 0 0 0-.1.2zm8.78-7.64l1.08 1.08-.78.78-1.08-1.08zM5.4 9.03L12 2.46l1.08 1.1L6.5 10.1l-1.47.38z"/>
</svg>
