<svg xmlns="http://www.w3.org/2000/svg" viewBox="0 0 19.96013 20.10842">
  <path d="M3.9 16.8L.13 19.56a.3.3 0 1 0 .36.5l3.75-2.74a.26.26 0 0 0 .1-.12.32.32 0 0 0-.03-.3.32.32 0 0 0-.43-.07zm14.44-9.7a.3.3 0 0 0-.04-.3.3.3 0 0 0-.43-.06l-4.7 3.42-1.1-3.2a.28.28 0 0 0-.3-.2l-3 .07v.6l2.8-.07 1.1 3.2-.57.4-1.02-2.45a.3.3 0 0 0-.38-.15L7.6 9.4c-.3.12-.65-.25-.74-.35a10.2 10.2 0 0 1-.38-1.1l2.63-2 .4.17a.3.3 0 0 0 .3-.02l2.6-1.56-.3-.52L9.6 5.5l-2.1-.88-.24.57 1.2.5-2.13 1.6a6.38 6.38 0 0 1 .15-3.44c.1-.27.62-.32.85-.3l2.2.9a.3.3 0 0 0 .24 0l2-.83-.24-.56-1.88.78-2.14-.88a.3.3 0 0 0-.07-.02c-.13 0-1.2-.07-1.5.68A6.95 6.95 0 0 0 5.8 7.7l-3.65 2.8a.32.32 0 0 0-.07.43.3.3 0 0 0 .43.06l3.47-2.65a9.62 9.62 0 0 0 .35.97.2.2 0 0 0 .05.06 1.32 1.32 0 0 0 1.47.56l2.8-.95.97 2.33-6.44 4.7a.3.3 0 0 0-.07.4.3.3 0 0 0 .42.08l12.74-9.26a.45.45 0 0 0 .1-.14zM6.78 2.35A1.22 1.22 0 0 0 7.7.1a1.2 1.2 0 0 0-1.58.65 1.23 1.23 0 0 0 .66 1.6zM6.68 1a.6.6 0 1 1 .33.78.6.6 0 0 1-.3-.8zm6.1 12.4a.3.3 0 0 0-.04-.3.3.3 0 0 0-.43-.05l-4.26 3.18a.3.3 0 1 0 .37.5l4.3-3.2a.38.38 0 0 0 .1-.12zm4.32-2.35l-2.34 1.67a.3.3 0 1 0 .36.5l2.34-1.67a.26.26 0 0 0 .1-.13.3.3 0 0 0-.03-.3.3.3 0 0 0-.43-.07zm2.8.72a.3.3 0 0 0-.43-.07l-6.63 4.86a.3.3 0 1 0 .36.5l6.63-4.86a.26.26 0 0 0 .1-.13.27.27 0 0 0-.03-.3z"/>
</svg>
