<svg xmlns="http://www.w3.org/2000/svg" viewBox="0 0 17.26947 19.90701">
  <path d="M10.83.02a2.36 2.36 0 0 0-2.13 3.8 2.3 2.3 0 0 0 1.58.9 2.36 2.36 0 0 0 2.62-2.08A2.37 2.37 0 0 0 10.83.02zm1.2 2.52a1.5 1.5 0 0 1-.76 1.12 1.45 1.45 0 0 1-.9.17 1.5 1.5 0 0 1-.98-.55 1.48 1.48 0 0 1-.33-1.1 1.5 1.5 0 0 1 .75-1.1 1.45 1.45 0 0 1 .9-.18 1.48 1.48 0 0 1 1.3 1.64zM9.33 19.9a.28.28 0 0 0 .03 0 .1.1 0 0 1-.05 0zm5.3-10.62l-3.75-1.35-.76-2.06c-.1-.3-.45-.44-.7-.6a2.2 2.2 0 0 0-.83-.32 3 3 0 0 0-2.33.77 9.38 9.38 0 0 0-2 2.43 6.66 6.66 0 0 0-.45.83h-.3l-1.94-.06V8.5a.44.44 0 0 0-.87-.02v.42a2.44 2.44 0 0 1-.27 0 .44.44 0 0 0-.02.87h.25l-.04.53a.44.44 0 0 0 .9.02l.02-.52 2.02.05a2.53 2.53 0 0 0 0 .9 2.72 2.72 0 0 0 .97 1.5 2.53 2.53 0 0 0 .8.5l3.3 1.1c-.36 1.57-.7 3.13-1.07 4.68a2.03 2.03 0 0 0-.06.42H1.4a.44.44 0 0 0-.04.87c1.32 0 2.64 0 3.97.02l7.18.03h3.24A1.5 1.5 0 0 0 17.1 19a1.6 1.6 0 0 0 .16-.4.44.44 0 1 0-.85-.26 1.1 1.1 0 0 1-.03.17l-.07.15a.36.36 0 0 1-.08.1l-.07.07a.5.5 0 0 1-.18.13c.03 0-.18.03-.13.03h-.6c-.83.02-1.65 0-2.48 0H10.5a.43.43 0 0 0 .04-.1l.3-1.25 1.3-5.4a.28.28 0 0 0 0-.1.42.42 0 0 0-.2-.4.36.36 0 0 0-.1-.04l-3.6-1.6.05-.1 3.1.1c1.02 0 2.03.03 3.05.06a.33.33 0 0 0 .17 0 .4.4 0 0 0 .25-.17.55.55 0 0 0 .08-.16.4.4 0 0 0-.07-.36.48.48 0 0 0-.24-.16zm-3.46 3.07c-.4 1.65-.8 3.3-1.18 4.95l-.3 1.28c-.05.12-.08.23-.1.35v.05h-1a.65.65 0 0 0-.2-.02 159229954017.86 159229954017.86 0 0 0 0-.02.16.16 0 0 0-.03-.04c.03.07.02 0 0 0 .02-.02.02-.05.03-.07l.1-.4 1.1-4.76a.46.46 0 0 0-.3-.55.6.6 0 0 0-.15-.02l-2.44-.82-1.1-.38s-.02 0-.03-.02a2.6 2.6 0 0 1-.4-.25.87.87 0 0 0-.1-.08l-.12-.12a1.8 1.8 0 0 1-.13-.14c0-.04-.03-.07-.05-.1h-.02a1.25 1.25 0 0 1-.22-.37v-.02l-.03-.1a1.98 1.98 0 0 1-.06-.26v-.17l.02-.26a.08.08 0 0 1 0-.05.14.14 0 0 1 .03-.07l2.87.08-.05.1a.45.45 0 0 0 .15.62c1.25.55 2.5 1.1 3.75 1.67zM7.75 9.1L4.8 9c.16-.3.4-.62.6-.92a10.02 10.02 0 0 1 .93-1.2 4.5 4.5 0 0 1 .96-.8 1.96 1.96 0 0 1 .24-.13l.1-.05.08-.02a1.02 1.02 0 0 1 .25-.06c.04 0 .08 0 .12-.02h.1a1.24 1.24 0 0 1 .7.18l.26.18L7.74 9.1zm2.83.06L8.7 9.1c.34-.64.66-1.3.97-1.95l.45 1.24c.1.23.27.3.48.37l.54.2.66.23c-.4 0-.8-.03-1.2-.04z"/>
</svg>
