<svg xmlns="http://www.w3.org/2000/svg" viewBox="0 0 20.08 18.59">
  <path d="M20.08 7.2A1.75 1.75 0 1 0 18 8.9V12a1.38 1.38 0 0 1-1.38 1.38.37.37 0 0 0-.32.18v-4.1a.37.37 0 1 0-.74 0V16a1.84 1.84 0 0 1-1.84 1.84h-9.9A1.84 1.84 0 0 1 2 16v-.86a.37.37 0 1 0-.74 0V16a2.6 2.6 0 0 0 2.6 2.58h9.86A2.6 2.6 0 0 0 16.26 16v-2a.37.37 0 0 0 .32.18A2.13 2.13 0 0 0 18.7 12V8.9a1.75 1.75 0 0 0 1.38-1.7zm-1.74 1a1 1 0 0 1 0-2 1 1 0 0 1 0 2zM1.6 6.86a.37.37 0 0 0 .4-.38v-1.8a1.85 1.85 0 0 1 1.8-1.85h9.9a1.85 1.85 0 0 1 1.82 1.84v.1a.37.37 0 1 0 .74 0v-.1a2.58 2.58 0 0 0-2-2.5l-.22-.06v-.75A1.34 1.34 0 0 0 12.74 0h-8A1.34 1.34 0 0 0 3.4 1.34v.77l-.2.07a2.58 2.58 0 0 0-2 2.5V6.5a.37.37 0 0 0 .36.36zm2.56-5.52a.6.6 0 0 1 .6-.6h8a.6.6 0 0 1 .6.6v.74h-9.2zM5.64 16.7a.27.27 0 0 0 .2-.1l5.35-5.35a.27.27 0 0 0 0-.38l-2.7-2.7a.27.27 0 0 0-.2-.07H3a.27.27 0 0 0-.2.08L.1 10.86a.27.27 0 0 0 0 .38l5.37 5.36a.27.27 0 0 0 .2.1zm-2.57-8H5l-2.24 2.16a.27.27 0 0 0 .4.38l2.6-2.6h1.9l-2.22 2.22a.27.27 0 0 0 .38.4l2.5-2.5 2.3 2.3-5 5-5-5zm7.5 5.07a1.65 1.65 0 1 0 1.64-1.65 1.65 1.65 0 0 0-1.63 1.65zm1.64-1.1a1.1 1.1 0 1 1-1.1 1.1 1.1 1.1 0 0 1 1.13-1.1zm-1.85-5.75a.27.27 0 0 0 .27-.26V5h2.64v4.6h-.13a.27.27 0 0 0 .06.55.6.6 0 0 0 .6-.6v-4.5a.6.6 0 0 0-.6-.6H4.26a.6.6 0 0 0-.6.6.27.27 0 0 0 .54.07V5h2.65v1.66a.27.27 0 0 0 .54 0V5h2.67v1.66a.27.27 0 0 0 .27.26z"/>
</svg>
