<svg xmlns="http://www.w3.org/2000/svg" viewBox="0 0 19.70876 20.12766">
  <path d="M11.5 11.68H4.43a1.56 1.56 0 0 0-1.32.65 1.08 1.08 0 0 0-.05 1.05l1.18 2.6a1.5 1.5 0 0 0 1.4.8h4.7a1.5 1.5 0 0 0 1.4-.8l1.18-2.6a1.07 1.07 0 0 0-.07-1.05 1.56 1.56 0 0 0-1.32-.65zm.64 1.35l-1.2 2.6a.7.7 0 0 1-.63.3H5.64a.7.7 0 0 1-.63-.3l-1.2-2.6a.23.23 0 0 1 .02-.24.72.72 0 0 1 .6-.3h7.08a.72.72 0 0 1 .62.28.23.23 0 0 1 .02.23zm-4.6-9.68h.85v4.2h-.86zm-3.34 0h.83v4.2H4.2zm6.7 0h.84v4.2h-.84zm7.13 1.68a1.68 1.68 0 0 0-.42 3.3v5.93h-1.66V3.74A3.74 3.74 0 0 0 12.2 0H3.74A3.74 3.74 0 0 0 0 3.74v16.4h15.93V15.1h2.52V8.33a1.68 1.68 0 0 0-.42-3.3zM15.1 19.3H.84V3.73a2.9 2.9 0 0 1 2.9-2.9h8.46a2.9 2.9 0 0 1 2.9 2.9zm2.93-11.75a.84.84 0 1 1 .84-.84.84.84 0 0 1-.84.86z"/>
</svg>
