<svg xmlns="http://www.w3.org/2000/svg" viewBox="0 0 18.72983 19.98">
  <path d="M18.66 6.96A8.02 8.02 0 0 0 10.76 0h-.06a8 8 0 0 0-6.86 12.13v.03L.1 16.64a.36.36 0 0 0 .03.52.38.38 0 0 0 .53-.05l2.9-3.42 2.67 2.25-2.9 3.44a.38.38 0 0 0 .06.53.36.36 0 0 0 .22.08.4.4 0 0 0 .3-.13l3.1-3.7.02-.02s0-.02.02-.03l.55-.65h.04a7.8 7.8 0 0 0 3.08.64 7.66 7.66 0 0 0 2.18-.33 8.1 8.1 0 0 0 5.76-8.82zM8.03 8.36a.6.6 0 0 1 .04-.07.7.7 0 0 1 .93-.05l1.62 1.37.04.03a.68.68 0 0 1 .05.93.6.6 0 0 0-.02.05l-.2.23L7.8 8.63zm3.26 2.72a.42.42 0 0 0 .03-.07 1.43 1.43 0 0 0-.23-1.94.14.14 0 0 0-.03-.03L9.47 7.7a1.46 1.46 0 0 0-.92-.34 1.44 1.44 0 0 0-1.1.5.42.42 0 0 0-.05.08l-.38.46c-.02 0-.03.02-.05.04a.6.6 0 0 1-.04.06l-2.56 3.05-.03-.05a7.36 7.36 0 0 1 1.64-9 7.28 7.28 0 1 1 4.75 12.84 7 7 0 0 1-2.55-.48l-.05-.02zm-1.3.37l-3.28 3.9-2.68-2.25L7.3 9.2zm2.45-8.27a5.13 5.13 0 0 1 3.35 4.1.38.38 0 0 0 .37.32h.05a.37.37 0 0 0 .25-.15.4.4 0 0 0 .07-.28 5.9 5.9 0 0 0-3.84-4.7.37.37 0 1 0-.25.7z"/>
</svg>
