<svg xmlns="http://www.w3.org/2000/svg" viewBox="0 0 20 19.56">
  <path d="M6.28 13.54L4.94 10.1l-1.27 3.47L0 13.7l2.94 2.2L2 19.57l3-2.24 3.1 2.18-1-3.62L10 13.6zm.32 3.84L5 16.26l-1.57 1.16.48-1.84-1.44-1.1 1.82-.07.73-1.85.73 1.86h1.83L6.1 15.57zm8.9-9.4l1.54-1.12 1.53 1.1-.5-1.8 1.42-1.13L17.66 5 17 3.25 16.35 5l-1.8.08L16 6.18l-.5 1.8zM4.44 4.72L5.96 3.6 7.5 4.7 7 2.9l1.4-1.14-1.8-.03L5.9 0l-.64 1.76-1.8.06 1.44 1.1-.48 1.8zm15.44 12.92l-6.07-6.07a.42.42 0 0 0-.37-.1 2.84 2.84 0 1 0-.33.32.42.42 0 0 0 .1.37l6.07 6.07a.43.43 0 0 0 .6-.6zM12.65 11a2 2 0 1 1 0-2.8 2 2 0 0 1 0 2.8z"/>
</svg>
