<svg xmlns="http://www.w3.org/2000/svg" viewBox="0 0 100 100">
  <defs>
    <style>
      .cls-1{stroke:#231f20;stroke-miterlimit:10;stroke-width:0.5px;}
    </style>
  </defs>
  <path d="M69.58 43.53a19.14 19.14 0 0 0-8.7 2.1l-4.55-8.12.6-.3a16.16 16.16 0 0 1 18.4 2.8.94.94 0 1 0 1.3-1.36A18.06 18.06 0 0 0 59 34.4l-.4.1-.3-.32c-.26-.33-.56-.65-.9-.97l-.23-.24.08-.35a9.2 9.2 0 0 0-1.76-8.3 2.53 2.53 0 0 0-1.73-.9h-.2a2.54 2.54 0 0 0-1.68.64l-2.3 2.03-2-3.43-.65-1.26c-.72-1.43-2.87-5.7-3.63-6.3a2.02 2.02 0 0 0-.86.24l-5.45 3a.94.94 0 0 0 .9 1.67l4.7-2.8 5.6 10.14-1.3 1.14-.27-.02c-.72-.07-1.4-.1-2.05-.1-5.45 0-10.5 2.1-13.54 5.6l-.3.34-10.44-3.84-.08-.02-.1-.03h-.05a.96.96 0 0 0-.15-.02 1 1 0 0 0-.1 0 .85.85 0 0 0-.13.03l-.05.03h-.04l-.1.05a1 1 0 0 0-.2.1l-.02.05a.93.93 0 0 0-.1.13l-.05.06a1.08 1.08 0 0 0-.07.14l-.02.05-.02.06v.08l-.03.1v.2l.03.13v.06l8.12 27.2a.94.94 0 0 0 .52.57l.2.1h16.58a3.5 3.5 0 0 0 3.5-3.44l.04-4.42A16 16 0 0 1 54.13 39l.6-.47 4.5 8.07a19.25 19.25 0 1 0 10.34-3.04zM53.64 25l.42.5a6.98 6.98 0 0 1 1.6 5.05l-.05 1.07-.9-.56a17.92 17.92 0 0 0-4.27-1.9l-1.1-.3zM46.1 51.6c0 .82 0 2.3-.04 4.4a1.6 1.6 0 0 1-1.6 1.58h-15.7L21.4 32.84l8.27 3.05-.4.8-.15.3a.94.94 0 0 0 .5 1.24.9.9 0 0 0 .37.07.94.94 0 0 0 .85-.56c1.92-4.5 7.44-7.53 13.73-7.53a16.74 16.74 0 0 1 10.92 3.77q.32.28.6.58l.63.62-.78.4A17.93 17.93 0 0 0 46.1 51.6zm23.5 28.76a17.52 17.52 0 0 1-9.5-32.25l1.26 2.27-.47.33a14.7 14.7 0 1 0 2.63-1.5l-.52.24-1.25-2.27a17.52 17.52 0 1 1 7.86 33.18zm-.25-13.58a4 4 0 1 0-.64-7.97l-.44.1-4.35-7.8.7-.27a12.94 12.94 0 1 1-2.9 1.62l.57-.43 4.34 7.8-.3.33a4 4 0 0 0 3.04 6.64z" class="cls-1"/>
</svg>
