<svg xmlns="http://www.w3.org/2000/svg" viewBox="0 0 19.8105 18.61">
  <path d="M4.67 18.6a1.66 1.66 0 0 1-1.17-.44 1.78 1.78 0 0 1-.46-1.54.28.28 0 0 1-.27-.2l-.54-1.92v-.02a1.9 1.9 0 0 1 0-.75A2.56 2.56 0 0 1 3.86 12a9.08 9.08 0 0 0 2.95-1.77 6.77 6.77 0 0 0 1.37-1.8 5.94 5.94 0 0 0 .14-3.77c-1.1.13-1.6.74-1.6 1.97 0 2.1-.67 3.48-1.75 3.72a2.48 2.48 0 0 1-.45.05 1.17 1.17 0 0 1-1.06-.6 1 1 0 0 1 .07-1.13.3.3 0 0 1 .2-.08.28.28 0 0 1 .2.06.3.3 0 0 1 .1.2.28.28 0 0 1-.1.2.57.57 0 0 0 .06.47.6.6 0 0 0 .57.3 1.27 1.27 0 0 0 .32-.05c.8-.2 1.28-1.4 1.3-3.17A2.22 2.22 0 0 1 8.2 4.1c-.1-.45-.2-.87-.3-1.23l-.1-.27a3.3 3.3 0 0 0-.76-.08 3.17 3.17 0 0 0-.7.08 6.9 6.9 0 0 0-1.87.9 5.34 5.34 0 0 1-2.52 1 1.98 1.98 0 0 1-.76-.14C-.1 3.82-.1 2.86.07 2.4a.58.58 0 0 1 .5-.45.5.5 0 0 1 .1.02.33.33 0 0 1 .18.14.28.28 0 0 1 .02.24.28.28 0 0 1-.22.2.64.64 0 0 0-.07.42c0 .25.2.6.83.87a1.37 1.37 0 0 0 .54.1 4.87 4.87 0 0 0 2.2-.9 7.7 7.7 0 0 1 2.06-1 3.3 3.3 0 0 1 .83-.1A4.44 4.44 0 0 1 7.7 2 1.54 1.54 0 0 1 8.94.4h.03l4.9-.4a.38.38 0 0 1 .1 0 .66.66 0 0 1 .66.54.1.1 0 0 0 0 .05 25.5 25.5 0 0 0 1.8 7.77 3.98 3.98 0 0 1 .3 1.5.14.14 0 0 1 0 .05l.65 2.18a1.1 1.1 0 0 1-.62 1.3 1.24 1.24 0 0 0 .95.4h.1c.16 0 .3-.02.46-.03a4.7 4.7 0 0 1 .63-.05.95.95 0 0 1 .74.25.6.6 0 0 1 .13.6 1.15 1.15 0 0 1-.8.7l-13.9 3.3a1.4 1.4 0 0 1-.4.04zm-1.04-2.07a1.35 1.35 0 0 0 .26 1.22 1.1 1.1 0 0 0 .75.3 1.36 1.36 0 0 0 .3-.04l13.92-3.27a.6.6 0 0 0 .37-.32v-.02a.46.46 0 0 0-.32-.08 3.75 3.75 0 0 0-.56.04l-.48.05h-.15a1.8 1.8 0 0 1-1.54-.8l-1.05.3a1.15 1.15 0 0 1-.84 1.37l-5.1 1.3a1.26 1.26 0 0 1-.27.02 1.14 1.14 0 0 1-1.1-.88l-.02-.06-.5.13v.04a1.15 1.15 0 0 1-.9 1.34l-1.07.2a1.5 1.5 0 0 1-.2 0A1.16 1.16 0 0 1 4 16.5v-.02l-.37.07zm.92-.15a.57.57 0 0 0 .56.46.45.45 0 0 0 .13 0l1.08-.2a.57.57 0 0 0 .46-.67v-.03c-.8.18-1.63.33-2.2.44zm3.84-.78a.57.57 0 0 0 .53.43.68.68 0 0 0 .14-.02l5.1-1.27a.58.58 0 0 0 .43-.63l-.73.22a.25.25 0 0 1-.08 0 .23.23 0 0 1-.16-.03.28.28 0 0 1-.14-.2l-.2-.84a10.56 10.56 0 0 0-2.46 1.12 10.3 10.3 0 0 1-1.63.83 7.9 7.9 0 0 1-.8.3zm-5.16.4a39.97 39.97 0 0 0 5.73-1.3 10.22 10.22 0 0 0 1.55-.8 11.34 11.34 0 0 1 2.86-1.26.28.28 0 0 1 .08 0 .23.23 0 0 1 .14.03.28.28 0 0 1 .14.18l.23.84 2.46-.78a.53.53 0 0 0 .33-.25.5.5 0 0 0 .04-.4l-.4-1.36a2.35 2.35 0 0 1-1 .85 4.72 4.72 0 0 1-.78.28 12.32 12.32 0 0 0-4.05 1.6A10.25 10.25 0 0 1 9 14.5a38.24 38.24 0 0 1-5.8 1.3zM8.48 2.83c.44 1.7 1.08 4.2.22 5.86a7.2 7.2 0 0 1-1.47 1.95 9.92 9.92 0 0 1-3.13 1.87 1.98 1.98 0 0 0-1.3 1.32 1.3 1.3 0 0 0 0 .52l.2.74.05.14a39.97 39.97 0 0 0 5.73-1.3 10.12 10.12 0 0 0 1.55-.8 12.98 12.98 0 0 1 4.2-1.66 4.32 4.32 0 0 0 .68-.24c1-.48 1.23-1.3.7-2.63A26.18 26.18 0 0 1 14.1.67.1.1 0 0 0 14 .6a.2.2 0 0 0-.05 0l-4.9.4a.95.95 0 0 0-.77 1.02.2.2 0 0 0 .02.08v.05a4.38 4.38 0 0 1 1.28.66v.03a.38.38 0 0 1 .03.76h-.05a.38.38 0 0 1-.38-.3V3.2a3.96 3.96 0 0 0-.68-.37zm1.45 3.02a.38.38 0 0 1-.38-.32.37.37 0 0 1 .06-.3.38.38 0 0 1 .27-.15h.07a.38.38 0 0 1 .38.3.37.37 0 0 1-.05.3.38.38 0 0 1-.25.16.2.2 0 0 1-.07 0zm.08 2.4a.38.38 0 0 1-.36-.3.4.4 0 0 1 .3-.46c.03 0 .06-.03.08-.03a.38.38 0 0 1 .4.32.37.37 0 0 1-.07.3.38.38 0 0 1-.25.14.17.17 0 0 1-.07 0z"/>
</svg>
