<svg xmlns="http://www.w3.org/2000/svg" viewBox="0 0 19.88617 19.95274">
  <path d="M17.7 2.65l-.44-.43C15.96.92 14.06-.68 12.3.3a8.02 8.02 0 0 0-2.3 2l-.43.5-.44.53c-.28.33-.7.84-.8.93a.37.37 0 1 0 .53.52l.83-1c.2-.22.35-.42.4-.5l.46-.5A7.23 7.23 0 0 1 12.66.9c1.32-.72 2.97.7 4.1 1.8.13.15.3.3.44.45 1 1 2.18 2.12 1.9 3.1a8.85 8.85 0 0 1-2.18 3c-.25.27-.5.53-.73.8l-1.04 1.04c-.97.97-4.5 1.84-6.9 1.94l-1.4.07h-.03c-.13-1.23-.28-5.9 1.04-7.36a.36.36 0 1 0-.54-.5C5.93 6.8 5.9 11.1 6.07 12.9c-.3.47-.48.5-.77.56a2 2 0 0 0-1.2.62l-.9.9a1.1 1.1 0 0 0-.73.3l-2 2.02a1.55 1.55 0 0 0 0 2.18 1.55 1.55 0 0 0 2.17 0l2-2a1 1 0 0 0 .3-.73l.93-.92a2.35 2.35 0 0 0 .63-1.34c.1-.46.12-.57.48-.6a.5.5 0 0 0 .13-.06c.28 0 .66-.03 1.23-.06 2.23-.1 6.14-.93 7.38-2.17.2-.17.87-.86 1.06-1.07l.72-.78a9.16 9.16 0 0 0 2.35-3.3c.38-1.4-.95-2.68-2.12-3.82zM4.13 16.98l-2 2a.8.8 0 0 1-1.16 0 .8.8 0 0 1 0-1.14l2-2a.33.33 0 0 1 .46 0l.7.7a.33.33 0 0 1 0 .44zm1.22-1.64l-.7.7V16l-.7-.7h-.02l.7-.67a1.3 1.3 0 0 1 .8-.42 2.6 2.6 0 0 0 .4-.1 1.67 1.67 0 0 0-.05.3 1.67 1.67 0 0 1-.43.95zM2.8 7.18A2.8 2.8 0 1 0 0 4.38a2.8 2.8 0 0 0 2.8 2.8zm2.07-2.8a2 2 0 0 1-.06.5 2 2 0 0 1-.47.05 2.07 2.07 0 0 1-2.07-2.07 2 2 0 0 1 .07-.5 2 2 0 0 1 .5-.05 2.07 2.07 0 0 1 2.03 2.1zM1.52 2.76v.1a2.8 2.8 0 0 0 2.8 2.8h.1a2.07 2.07 0 1 1-2.9-2.9z"/>
</svg>
