<svg xmlns="http://www.w3.org/2000/svg" viewBox="0 0 19.79979 19.43545">
  <path d="M17.8 4.37a.27.27 0 0 0 .52 0L19.78.42a.27.27 0 0 0-.36-.34l-3.83 1.8a.27.27 0 0 0 .04.52l1.15.25-3.3 3.58-3.33-1.7a.7.7 0 0 0-.73.04L.88 10.4V.48a.44.44 0 1 0-.88 0v18.5a.44.44 0 0 0 .44.46h18.52a.44.44 0 0 0 0-.9H.88v-7.07l9-6.12 3.34 1.73a.7.7 0 0 0 .85-.15l3.37-3.7zM5.33 17.07v-6.8l-2.48 1.7v5.1zm-1.8-4.75l1.12-.77v4.84H3.52zm5.57 4.75V7.72l-2.5 1.7v7.65zm-1.82-7.3L8.4 9v7.4H7.3zm5.57 7.3V8.7l-2.48-1.3v9.65zm-1.8-8.55l1.13.58v7.3h-1.13zm5.55 8.55V6.1l-2.47 2.7v8.27zm-1.8-8.02l1.14-1.23v8.57H14.8z"/>
</svg>
