<svg xmlns="http://www.w3.org/2000/svg" viewBox="0 0 19.39148 20.83334">
  <path d="M10.44 13.12a1.37 1.37 0 0 0-.82.25l-.7.52a4.82 4.82 0 0 1-3-2.5 4.83 4.83 0 0 1-.67-3.86l.8-.36c.86-.4 1.12-1.53.76-3.2-.27-1.4-1.27-4-2.9-4a1.45 1.45 0 0 0-.46.07L2.2.47a2.94 2.94 0 0 0-2 2.2c-.64 3.17.2 7.07 2.3 10.7 2.1 3.64 5.05 6.3 8.13 7.32a2.94 2.94 0 0 0 2.88-.63l1-.88a1.8 1.8 0 0 0 .3-2.17c-.6-1.55-2.8-3.92-4.35-3.92zM14 18.68l-.96.88a2.24 2.24 0 0 1-2.2.46c-3.05-1-5.86-3.74-7.74-7C1.2 9.76.25 5.97.9 2.82a2.24 2.24 0 0 1 1.5-1.68l1.25-.4A.74.74 0 0 1 3.88.7C5.5.7 7.1 5.95 5.78 6.55l-1.07.48a5.3 5.3 0 0 0 .6 4.72 5.3 5.3 0 0 0 3.8 2.87l.94-.68a.67.67 0 0 1 .4-.12c1.54 0 4.78 3.78 3.58 4.86zm3.77-15.93h-7.7a1.62 1.62 0 0 0-1.64 1.63v3.9a1.63 1.63 0 0 0 1.22 1.56v.9a.84.84 0 0 0 1.35.68l2.02-1.53h4.75a1.62 1.62 0 0 0 1.62-1.64v-3.9a1.62 1.62 0 0 0-1.64-1.62zm.92 1.63v3.9a.92.92 0 0 1-.94.9h-5l-2.2 1.68a.14.14 0 0 1-.22-.1V9.18h-.3a.92.92 0 0 1-.92-.93v-3.9a.92.92 0 0 1 .93-.9h7.7a.92.92 0 0 1 .93.9zm-7.35.82a1.12 1.12 0 1 0 1.12 1.12 1.13 1.13 0 0 0-1.12-1.12zm.42 1.12zm4.7-1.12a1.12 1.12 0 1 0 1.13 1.12 1.13 1.13 0 0 0-1.13-1.12zm.43 1.12zm-3-1.12a1.12 1.12 0 1 0 1.14 1.12A1.13 1.13 0 0 0 13.9 5.2zm.44 1.12z"/>
</svg>
