<svg xmlns="http://www.w3.org/2000/svg" viewBox="0 0 19.99425 19.66">
  <path d="M17.17 19.66a3 3 0 0 1-2.4-1.17 3.03 3.03 0 0 1-4.77 0 3.03 3.03 0 0 1-4.78 0 3.03 3.03 0 0 1-5.2-.7.36.36 0 1 1 .68-.3 2.3 2.3 0 0 0 4.2.15.37.37 0 0 1 .32-.2.36.36 0 0 1 .32.2 2.3 2.3 0 0 0 4.14 0 .37.37 0 0 1 .32-.2.36.36 0 0 1 .32.2 2.3 2.3 0 0 0 4.14 0 .37.37 0 0 1 .32-.2.36.36 0 0 1 .32.2 2.3 2.3 0 0 0 4.2-.14.37.37 0 0 1 .47-.2.36.36 0 0 1 .2.48 3.03 3.03 0 0 1-2.8 1.86zm0-3.5a3 3 0 0 1-2.4-1.16A3.03 3.03 0 0 1 10 15a3.03 3.03 0 0 1-4.78 0 3.03 3.03 0 0 1-5.2-.7.36.36 0 0 1 .68-.27 2.3 2.3 0 0 0 4.2.14.37.37 0 0 1 .32-.2.36.36 0 0 1 .32.2 2.3 2.3 0 0 0 4.14 0 .37.37 0 0 1 .32-.2.36.36 0 0 1 .32.2 2.3 2.3 0 0 0 4.14 0 .37.37 0 0 1 .32-.2.36.36 0 0 1 .32.2 2.3 2.3 0 0 0 4.2-.14.37.37 0 0 1 .47-.2.36.36 0 0 1 .2.47 3.02 3.02 0 0 1-2.8 1.87zm-.7-2.2a.36.36 0 0 1-.35-.37V11.5h-7.7v2.06a.36.36 0 1 1-.7 0V1.78a1.78 1.78 0 1 1 3.55 0 .36.36 0 1 1-.72 0 1.05 1.05 0 0 0-2.1 0V6.7h7.68V1.8a1.78 1.78 0 0 1 3.56 0 .36.36 0 0 1-.74 0 1.05 1.05 0 0 0-2.1 0v11.8a.4.4 0 0 1-.4.37zM8.44 10.8h7.7V7.44h-7.7z"/>
</svg>
