<svg xmlns="http://www.w3.org/2000/svg" viewBox="0 0 19.99425 13.0122">
  <path d="M17.17 13a3 3 0 0 1-2.4-1.16 3.03 3.03 0 0 1-4.77 0 3.03 3.03 0 0 1-4.78 0 3.03 3.03 0 0 1-5.2-.7.36.36 0 1 1 .68-.27 2.3 2.3 0 0 0 4.2.14.36.36 0 0 1 .64 0 2.3 2.3 0 0 0 4.14 0 .37.37 0 0 1 .32-.2.36.36 0 0 1 .32.2 2.3 2.3 0 0 0 4.14 0 .37.37 0 0 1 .32-.2.36.36 0 0 1 .32.2 2.3 2.3 0 0 0 4.2-.12.36.36 0 0 1 .67.27 3.03 3.03 0 0 1-2.8 1.87zm0-3.48a3 3 0 0 1-2.4-1.17 3.03 3.03 0 0 1-4.77 0 3.03 3.03 0 0 1-4.78 0 3.03 3.03 0 0 1-5.2-.7.36.36 0 0 1 .68-.27 2.3 2.3 0 0 0 4.2.14.36.36 0 0 1 .64 0 2.3 2.3 0 0 0 4.14 0 .37.37 0 0 1 .32-.2.36.36 0 0 1 .32.2 2.3 2.3 0 0 0 4.14 0 .37.37 0 0 1 .32-.2.36.36 0 0 1 .32.2 2.3 2.3 0 0 0 4.2-.14.36.36 0 0 1 .67.27 3.02 3.02 0 0 1-2.8 1.87zM15.6.65a2.87 2.87 0 0 0-2.36-.6 2.8 2.8 0 1 0 3.38 2.74 2.9 2.9 0 0 0-1-2.16zm-.74 3.83a2.08 2.08 0 0 1-.96.3 1.94 1.94 0 0 1-1-.2 2 2 0 0 1-.73-.65 2 2 0 0 1-.34-.94 3.95 3.95 0 0 1 0-.5 2.6 2.6 0 0 1 .16-.53 3.23 3.23 0 0 1 .22-.4 2.46 2.46 0 0 1 .37-.36 3.17 3.17 0 0 1 .44-.25A2.86 2.86 0 0 1 13.6.8a1.96 1.96 0 0 1 1.1.2 1.87 1.87 0 0 1 .77.74 1.94 1.94 0 0 1 .3 1.05 1.97 1.97 0 0 1-.9 1.67zm-7-3.83A2.87 2.87 0 0 0 5.5.05 2.8 2.8 0 1 0 8.88 2.8a2.84 2.84 0 0 0-1-2.15zm-.74 3.83a2.08 2.08 0 0 1-.96.3 1.94 1.94 0 0 1-1-.2 2.1 2.1 0 0 1-.72-.66 2 2 0 0 1-.34-.94 3.95 3.95 0 0 1 0-.5 2.6 2.6 0 0 1 .16-.5 3.23 3.23 0 0 1 .24-.4 2.46 2.46 0 0 1 .37-.37 3.17 3.17 0 0 1 .45-.24A2.86 2.86 0 0 1 5.88.8a2.18 2.18 0 0 1 1.1.23 1.87 1.87 0 0 1 .77.72 1.94 1.94 0 0 1 .3 1.05 2 2 0 0 1-.93 1.68z"/>
</svg>
