<svg xmlns="http://www.w3.org/2000/svg" viewBox="0 0 19.91073 19.89">
  <path d="M17.4 2.57A8.67 8.67 0 0 0 11.2 0a8.8 8.8 0 0 0-6.24 2.58 7.86 7.86 0 0 0-2.1 7.47l.2.98a4.33 4.33 0 0 1-.9 3.92L.13 17a.4.4 0 0 0-.12.27.36.36 0 0 0 .13.28l2.2 2.2a.42.42 0 0 0 .26.12.3.3 0 0 0 .1.02.3.3 0 0 0 .2-.1l.38-.45 1.65-1.64a4.36 4.36 0 0 1 3.92-.86l1 .2A7.83 7.83 0 0 0 17.3 15a8.77 8.77 0 0 0 2.6-6.23 8.58 8.58 0 0 0-2.5-6.2zM4.36 17.17L2.6 18.9.97 17.3l1-1 3.67-3.22 1.25 1.25L4.53 17a.93.93 0 0 0-.18.16zm-.44-5.8l1.28 1.27-1.5 1.33a5.8 5.8 0 0 0 .23-2.6zm2.16 4.8l1.22-1.4L8.56 16a5.64 5.64 0 0 0-2.47.16zm10.65-1.74A7.1 7.1 0 0 1 10 16.28h-.04a.42.42 0 0 0-.1-.18l-6-6a.44.44 0 0 0-.2-.1v-.1a7.1 7.1 0 0 1 1.87-6.74A8 8 0 0 1 11.2.8a7.9 7.9 0 0 1 7.92 7.98 7.97 7.97 0 0 1-2.37 5.65zm-3.46-4.95a2.42 2.42 0 1 0 2.42 2.42 2.42 2.42 0 0 0-2.44-2.42zm1.58 2.43a1.58 1.58 0 1 1-1.58-1.56 1.58 1.58 0 0 1 1.58 1.58z"/>
</svg>
