<svg xmlns="http://www.w3.org/2000/svg" viewBox="0 0 20.08337 12.45393">
  <circle cx="3.35" cy="4.92" r=".84"/>
  <circle cx="3.35" cy="7.43" r=".84"/>
  <circle cx="3.35" cy="9.94" r=".84"/>
  <circle cx="6.7" cy="4.92" r=".84"/>
  <circle cx="6.7" cy="7.43" r=".84"/>
  <circle cx="6.7" cy="9.94" r=".84"/>
  <path d="M19.85 6.57l-3.3-5.7A1.73 1.73 0 0 0 14.2.22l-4.66 2.7A1.72 1.72 0 0 0 8.3 2.4H1.74A1.73 1.73 0 0 0 0 4.15v6.6a1.73 1.73 0 0 0 1.73 1.7H8.3a1.73 1.73 0 0 0 1.74-1.7v-1.1l1.12 1.93a1.73 1.73 0 0 0 2.35.62h.03l5.7-3.3a1.73 1.73 0 0 0 .63-2.35zM9.2 10.73a.9.9 0 0 1-.9.9H1.74a.9.9 0 0 1-.9-.9v-6.6a.9.9 0 0 1 .9-.88H8.3a.9.9 0 0 1 .74.38l.03.05a.93.93 0 0 1 .1.2v.04a.84.84 0 0 1 .04.22zm9.6-2.53l-5.7 3.3a.9.9 0 0 1-1.22-.33L10.04 8V4.13a1.73 1.73 0 0 0-.02-.24v-.04a1.7 1.7 0 0 0-.05-.23L14.62.96a.9.9 0 0 1 1.2.32l3.3 5.7a.9.9 0 0 1-.32 1.22zm-2.14-2.14a.86.86 0 0 0-1.14-.3.84.84 0 1 0 1.14.3zM15.5 4.52a.83.83 0 0 0-.1-.64.86.86 0 0 0-1.14-.3.84.84 0 1 0 1.23.94zm-1.74 3.2a.86.86 0 0 0-1.14-.3.84.84 0 1 0 1.14.3zM12.6 6.2a.83.83 0 0 0-.1-.64.86.86 0 0 0-1.14-.3.84.84 0 1 0 1.23.93z"/>
</svg>
