<svg xmlns="http://www.w3.org/2000/svg" viewBox="0 0 18.27727 19.98">
  <path d="M2.2 4.4A2.2 2.2 0 1 0 0 2.2a2.2 2.2 0 0 0 2.2 2.2zm0-3.53A1.33 1.33 0 1 1 .9 2.2 1.34 1.34 0 0 1 2.2.87zm15.74.1a1.54 1.54 0 0 0-2.17-.24L10.84 4.7l1.5-1.83a1.54 1.54 0 0 0 .33-1.13A1.52 1.52 0 0 0 12.1.7 1.54 1.54 0 0 0 11 .36a1.52 1.52 0 0 0-1.04.56L8.6 2.62l-2.24-.1a1.53 1.53 0 0 0-1.04.33l-1.97 1.6-.15.16L.4 7.65a1.54 1.54 0 0 0-.2 1.8 1.57 1.57 0 0 0 1.64.76l3.22-.65 1.9.75v8.14a1.54 1.54 0 1 0 3.07 0V9.3l7.67-6.18a1.54 1.54 0 0 0 .24-2.17zm-8.6 7.8a.44.44 0 0 0-.17.35v9.3a.67.67 0 1 1-1.34 0V10a.43.43 0 0 0-.27-.4l-1-.4a1.54 1.54 0 0 0-1-2.9l-2 .4a.43.43 0 0 0-.32.52.44.44 0 0 0 .2.27.45.45 0 0 0 .3.04l1.97-.4a.68.68 0 0 1 .8.52.67.67 0 0 1-.5.8l-4.3.85a.68.68 0 0 1-.65-1.1L3.8 5.17l.08-.07 1.97-1.6a.68.68 0 0 1 .45-.13l2.45.1a.44.44 0 0 0 .37-.16l1.5-1.83a.66.66 0 0 1 .45-.25.65.65 0 0 1 .5.16.66.66 0 0 1 .25.45.65.65 0 0 1-.15.5L9.82 4.6a.68.68 0 0 1-.55.24L8.2 4.8a.36.36 0 0 0-.26.07.44.44 0 0 0-.3.2.47.47 0 0 0-.05.32.4.4 0 0 0 .17.25l1.56 1a.44.44 0 0 0 .5-.02l6.5-5.22a.7.7 0 0 1 .5-.14.66.66 0 0 1 .44.25.68.68 0 0 1-.1.96zm.12-3.06h.2l-.12.1z"/>
</svg>
