<svg xmlns="http://www.w3.org/2000/svg" viewBox="0 0 19.84269 19.84346">
  <path d="M18.87 10.43a2.3 2.3 0 0 0-.2-.82c1.7-2.77 1.54-6.04-.42-8a5.7 5.7 0 0 0-4.7-1.56 8.17 8.17 0 0 0-5 2.45 8.3 8.3 0 0 0-2.44 5 6 6 0 0 0 .6 3.35v.06a3.33 3.33 0 0 1-.26 1.04 3.28 3.28 0 0 1-.38.6 1.2 1.2 0 0 0-.53-.12 1.14 1.14 0 0 0-.8.34l-4.4 4.4a1.13 1.13 0 0 0 0 1.6l.8.77a1.13 1.13 0 0 0 1.6 0l4.38-4.38a1.13 1.13 0 0 0 .2-1.33 2.98 2.98 0 0 1 1.65-.66.13.13 0 0 0 .06 0 5.95 5.95 0 0 0 2.73.62 7.7 7.7 0 0 0 4-1.18 2.08 2.08 0 0 0 .82.18h.08a2.22 2.22 0 0 0 1.6-.66 2.25 2.25 0 0 0 .65-1.6v-.07zM16.24 12a1.54 1.54 0 0 1-1.1-1.08 2.23 2.23 0 0 0 1.9-1.9 1.5 1.5 0 0 1 .68.4 1.55 1.55 0 0 1 .4.7 2.23 2.23 0 0 0-1.88 1.9zm.4-3.73a2.22 2.22 0 0 0-1.6.66 2.25 2.25 0 0 0-.66 1.6 2.64 2.64 0 0 0 .02.28 5.3 5.3 0 0 1-2.72.74 3.46 3.46 0 0 1-2.4-.97C7.7 9 8.08 6.07 10.1 4.02a6 6 0 0 1 3.5-1.77 3.63 3.63 0 0 1 3.05.94c1.2 1.2 1.3 3.22.26 5.1a2.64 2.64 0 0 0-.26-.04zM16.3 9a1.54 1.54 0 0 1-1.2 1.2 1.5 1.5 0 0 1 .42-.77A1.54 1.54 0 0 1 16.3 9zm-9.7 5.62L2.2 19a.43.43 0 0 1-.3.13.42.42 0 0 1-.3-.12l-.77-.76a.42.42 0 0 1 0-.6l4.38-4.4a.43.43 0 0 1 .6 0l.8.78a.43.43 0 0 1 0 .62zm1-1.85a3.32 3.32 0 0 0-.77.5L6.6 13a3.7 3.7 0 0 0 .48-.77 3.33 3.33 0 0 0 .2-.52c.12.18.26.34.4.5a3.63 3.63 0 0 0 .47.4 2.37 2.37 0 0 0-.53.2zm.56-1.1A5.02 5.02 0 0 1 6.8 7.54a7.55 7.55 0 0 1 2.24-4.56C11.7.34 15.6-.06 17.76 2.1c1.66 1.66 1.84 4.43.5 6.87l-.04-.03a2.37 2.37 0 0 0-.6-.44 5.8 5.8 0 0 0 .7-2.96 4.1 4.1 0 0 0-1.17-2.84 4.3 4.3 0 0 0-3.64-1.14 6.77 6.77 0 0 0-3.9 1.97 6.65 6.65 0 0 0-1.95 3.9 4.33 4.33 0 0 0 1.14 3.64 4.14 4.14 0 0 0 2.87 1.18h.14a5.93 5.93 0 0 0 2.8-.74 2.33 2.33 0 0 0 .45.63l.04.04c-2.46 1.35-5.24 1.18-6.9-.5zm8.77.36a1.47 1.47 0 0 1 .42-.77 1.5 1.5 0 0 1 .77-.42 1.47 1.47 0 0 1-.42.77 1.58 1.58 0 0 1-.77.44z"/>
</svg>
