<svg xmlns="http://www.w3.org/2000/svg" viewBox="0 0 20.00732 20.01101">
  <path d="M18.67 5A10 10 0 0 0 5 1.35 10 10 0 0 0 15 18.7 10 10 0 0 0 18.67 5zm-2.85-2.07l-1.76 1.95a6.53 6.53 0 0 0-6.97-.74L5.76 1.87A9.13 9.13 0 0 1 15.8 2.93zm-.87 4.22A5.72 5.72 0 1 1 10 4.3a5.72 5.72 0 0 1 4.95 2.85zm-13.8.48a9.1 9.1 0 0 1 3.9-5.35L6.4 4.56a6.53 6.53 0 0 0-2.86 6.4l-2.57.55a9.14 9.14 0 0 1 .2-3.86zm7.48 11.44a9.17 9.17 0 0 1-7.5-6.75l2.57-.55a6.5 6.5 0 0 0 5.2 4.7zm5.96-1.12a9.17 9.17 0 0 1-4.6 1.23c-.18 0-.37 0-.55-.02l.27-2.6H10a6.54 6.54 0 0 0 5.8-3.5l2.4 1.06a9.1 9.1 0 0 1-3.6 3.83zm4.25-5.57a9.3 9.3 0 0 1-.32.97l-2.4-1.06.2-.6a6.52 6.52 0 0 0-1.66-6.28l1.76-1.95a9.15 9.15 0 0 1 2.42 8.9zM5.77 8.98l2.12 2.05-.5 2.9 2.6-1.36 2.6 1.37-.5-2.9 2.1-2.07-2.9-.43L10 5.9 8.7 8.53zM10 7.77l.75 1.53 1.7.26-1.23 1.2.3 1.67-1.52-.8-1.5.8.28-1.68-1.22-1.2 1.7-.23z"/>
</svg>
