<svg xmlns="http://www.w3.org/2000/svg" viewBox="0 0 21.39973 20.59599">
  <path d="M21.32 1.73a.42.42 0 0 0-.34-.18h-3.65V.43a.42.42 0 0 0-.4-.43H4.48a.42.42 0 0 0-.43.42v1.12H.42a.42.42 0 0 0-.4.56 8.55 8.55 0 0 0 4.04 4.82v3.1c0 3.14 2.75 5.72 6.22 5.92v3.8H5.02a.42.42 0 0 0 0 .86h11.36a.42.42 0 0 0 0-.85h-5.26v-3.8c3.47-.2 6.22-2.78 6.22-5.93v-3.1a8.53 8.53 0 0 0 4.03-4.8.42.42 0 0 0-.05-.4zM4.06 5.97A7.6 7.6 0 0 1 1.04 2.4h3.02zm12.44 4.05c0 2.8-2.6 5.1-5.8 5.1s-5.8-2.3-5.8-5.1V.84h11.6zm.84-4.05V2.4h3.02a7.6 7.6 0 0 1-3.02 3.57z"/>
</svg>
