<svg xmlns="http://www.w3.org/2000/svg" viewBox="0 0 19.66001 20.06">
  <path d="M6.05 3.63c0-.32-.32-.52-.83-.52s-.82.2-.82.54v2.53a.83.83 0 0 0 .82.83h2.9v-.64h-2.9a.2.2 0 0 1-.2-.2v-2.4a.65.65 0 0 1 .2-.03 1.13 1.13 0 0 1 .2.02v2.2h2.7v-.62H6.05zm5.37 2.07a5.7 5.7 0 1 0-5.7 5.72 5.7 5.7 0 0 0 5.7-5.7zm-5.7 5.12a5.12 5.12 0 1 1 5.1-5.1 5.12 5.12 0 0 1-5.1 5.1zm13.9-5.34v-.03H13.4v.64h5.62V19.4H6.65v-6H6v6.63h13.66V5.48h-.03zm-3.25 8.2v-2.04h-7.4v2.13h7.4zm-.63-.63H9.6v-.7h6.14zm-6.78 2.57v1.4h7.4v-2h-7.4zm.63 0h6.13v.8H9.6zm6.76-5.12v-2h-4.43v2.03zm-.62-.6h-3.2v-.8h3.2z"/>
</svg>
