<svg xmlns="http://www.w3.org/2000/svg" viewBox="0 0 19.98723 13.92791">
  <path d="M19.44 10.08h-.08a.56.56 0 0 0-.07 0l-.1-.04h-.03c-.07-.04-.13-.08-.2-.1a.55.55 0 0 1-.07-.07.14.14 0 0 0-.03-.03 3.7 3.7 0 0 0-.93-.6 2.36 2.36 0 0 0-2.3.4l-.35.25a1.18 1.18 0 0 1-.2.1h-.06a.5.5 0 0 1-.13.05.42.42 0 0 1-.1.02h-.1a1.42 1.42 0 0 1-.2 0 1.28 1.28 0 0 1-.48-.2c-.3-.17-.57-.4-.9-.57a2.04 2.04 0 0 0-1.32-.15 2.16 2.16 0 0 0-.95.58l-.14.12-.04.05a.56.56 0 0 1-.13.08.9.9 0 0 1-.45.1.5.5 0 0 0-.13.03.5.5 0 0 0-.13 0h-.07a.56.56 0 0 0-.07 0l-.1-.04h-.02c-.06-.04-.12-.08-.18-.1a.55.55 0 0 1-.08-.07.14.14 0 0 0-.04-.04 3.7 3.7 0 0 0-.93-.6 2.36 2.36 0 0 0-2.3.4l-.34.25a1.18 1.18 0 0 1-.2.1l-.05.04a.5.5 0 0 1-.13.04.48.48 0 0 0-.13 0h-.1a1.42 1.42 0 0 1-.23 0 1.28 1.28 0 0 1-.47-.2c-.32-.17-.58-.4-.9-.57a2.04 2.04 0 0 0-1.33-.15 2.16 2.16 0 0 0-.96.58 1.74 1.74 0 0 1-.12.12l-.06.05a.57.57 0 0 1-.12.07.9.9 0 0 1-.45.1.43.43 0 0 0 0 .88 1.84 1.84 0 0 0 1.1-.38c.15-.1.28-.22.4-.33a.57.57 0 0 0 .1-.07s0-.02.02-.03a1.32 1.32 0 0 1 .2-.12l.07-.03.12-.05h.22a.6.6 0 0 1 .2.02.68.68 0 0 1 .23.08c.3.16.6.4.9.58a1.98 1.98 0 0 0 2.23-.13l.35-.26a2 2 0 0 1 .2-.12l.1-.06.04-.02a.1.1 0 0 1 .05 0 1.4 1.4 0 0 1 1.03 0l.07.03.1.06a1.07 1.07 0 0 1 .23.15l.06.04.06.05.25.2a1.76 1.76 0 0 0 1.03.38.5.5 0 0 0 .13-.02.5.5 0 0 0 .14.02 1.84 1.84 0 0 0 1.1-.38c.15-.1.28-.22.4-.33a.58.58 0 0 0 .1-.07s0-.02.02-.03a1.32 1.32 0 0 1 .2-.12l.06-.03.12-.05h.22a.6.6 0 0 1 .2.02.68.68 0 0 1 .23.08c.32.16.6.4.9.58a1.98 1.98 0 0 0 2.23-.13l.35-.26a2 2 0 0 1 .2-.12l.1-.06s.03 0 .05-.02a.1.1 0 0 1 .04 0 1.4 1.4 0 0 1 1.02 0l.06.03.1.06a1.07 1.07 0 0 1 .23.15l.06.04.06.05.26.2a1.76 1.76 0 0 0 1.03.38.44.44 0 1 0 .1-.87zm0 2.98h-.08a.56.56 0 0 0-.07 0l-.1-.04h-.03c-.07-.04-.13-.08-.2-.1a.55.55 0 0 1-.07-.07.14.14 0 0 0-.03-.03 3.7 3.7 0 0 0-.93-.6 2.36 2.36 0 0 0-2.3.4l-.35.25a1.18 1.18 0 0 1-.2.1l-.06.03a.5.5 0 0 1-.13.04.42.42 0 0 1-.1.02h-.1a1.42 1.42 0 0 1-.2 0 1.28 1.28 0 0 1-.48-.2c-.3-.17-.57-.4-.9-.57a2.04 2.04 0 0 0-1.32-.18 2.16 2.16 0 0 0-.95.58l-.14.13-.04.05a.57.57 0 0 1-.13.08.9.9 0 0 1-.45.1.5.5 0 0 0-.13.03.5.5 0 0 0-.13-.04h-.07a.56.56 0 0 0-.07 0l-.1-.04h-.02c-.06-.04-.12-.08-.18-.1a.55.55 0 0 1-.08-.07.14.14 0 0 0-.04-.03 3.7 3.7 0 0 0-.93-.6 2.36 2.36 0 0 0-2.3.4l-.34.25a1.18 1.18 0 0 1-.2.1l-.05.03a.5.5 0 0 1-.13.05.48.48 0 0 0-.13 0h-.1a1.42 1.42 0 0 1-.23 0 1.28 1.28 0 0 1-.47-.2c-.32-.17-.58-.4-.9-.57a2.04 2.04 0 0 0-1.33-.16 2.16 2.16 0 0 0-.96.58 1.74 1.74 0 0 1-.12.12l-.06.05a.57.57 0 0 1-.12.08.9.9 0 0 1-.45.1.43.43 0 0 0 0 .88 1.84 1.84 0 0 0 1.1-.38c.15-.1.28-.22.4-.33a.57.57 0 0 0 .1-.07s0-.02.02-.03a1.32 1.32 0 0 1 .2-.12l.07-.03.12-.03h.22a.6.6 0 0 1 .2.02.68.68 0 0 1 .23.08c.3.16.6.4.9.58a1.98 1.98 0 0 0 2.23-.13l.35-.3a2 2 0 0 1 .2-.1c.02-.03.06-.05.1-.07l.04-.02a.1.1 0 0 1 .05 0A1.4 1.4 0 0 1 8 13l.07.04.1.06a1.07 1.07 0 0 1 .23.16l.06.04.06.05.25.2a1.76 1.76 0 0 0 1.03.38.5.5 0 0 0 .13-.02.5.5 0 0 0 .14.04 1.84 1.84 0 0 0 1.1-.38c.15-.1.28-.22.4-.33a.58.58 0 0 0 .1-.07s0-.02.02-.03a1.32 1.32 0 0 1 .2-.12l.06-.02.12-.03h.22a.6.6 0 0 1 .2.02.68.68 0 0 1 .23.08c.32.16.6.4.9.58a1.98 1.98 0 0 0 2.23-.13c.12-.1.23-.2.35-.28a2 2 0 0 1 .2-.12l.1-.06s.03 0 .05-.02a.1.1 0 0 1 .04 0 1.4 1.4 0 0 1 1.02 0l.06.03.1.06a1.07 1.07 0 0 1 .23.17l.06.04.06.06.26.2a1.76 1.76 0 0 0 1.03.38.44.44 0 1 0 .1-.87zM13.98 5.9a2.98 2.98 0 0 0 1.3-5.2 3.07 3.07 0 0 0-2.53-.64 2.98 2.98 0 1 0 1.23 5.84zm-2.7-3.24a2.9 2.9 0 0 1 .17-.54 3.7 3.7 0 0 1 .26-.43 2.3 2.3 0 0 1 .4-.4 2.18 2.18 0 0 1 .5-.27 2.5 2.5 0 0 1 .6-.15 2.1 2.1 0 0 1 2.3 2.1 2.15 2.15 0 0 1-1 1.78 2.1 2.1 0 0 1-1 .32 2.1 2.1 0 0 1-1.85-.9 2.13 2.13 0 0 1-.36-1 2.33 2.33 0 0 1 0-.54zm-9.82 2.5A1.75 1.75 0 0 0 3.1 4.14a1.5 1.5 0 0 1 .17-.3l.07-.07a.9.9 0 0 1 .1-.1c0 .02.08-.04.1-.06l.03-.03a.04.04 0 0 0 .02 0 .83.83 0 0 1 .13-.05h.2a1.46 1.46 0 0 1 .2.05 1.33 1.33 0 0 1 .2.07c-.04 0 .05.03.06.03a1.1 1.1 0 0 1 .14.08 5.07 5.07 0 0 1 1.05.8 8.43 8.43 0 0 1 .82.85L1.96 7.05l-.78.3a.44.44 0 0 0-.3.53.43.43 0 0 0 .54.3l5.1-1.88.8-.3a.44.44 0 0 0 .18-.72 9.08 9.08 0 0 0-2.73-2.4A1.8 1.8 0 0 0 3 2.9a1.95 1.95 0 0 0-.58.63c-.07.1-.12.24-.2.35a.44.44 0 0 1-.03.07c0-.03-.05.04-.06.05l-.08.08a.22.22 0 0 1-.05.04c-.04.04-.1.07-.16.1 0 0 0 .02-.02.02l-.1.03c-.03 0-.06 0-.1.02a.06.06 0 0 0-.03 0 1.2 1.2 0 0 1-.2 0 .8.8 0 0 1-.1-.04h-.06a.33.33 0 0 1-.06-.04.9.9 0 0 1-.1-.05A.46.46 0 0 1 1 4.1v-.05C.96 4.03.94 4 .93 3.95a1.46 1.46 0 0 1-.06-.2l-.03-.1v-.12a.5.5 0 0 1 0-.12.13.13 0 0 1 .02-.04v-.02A2.54 2.54 0 0 1 1 2.88c-.02.02.02-.08.03-.08l.06-.1a2.13 2.13 0 0 1 .16-.26A2.98 2.98 0 0 1 2 1.78a3.4 3.4 0 0 1 1.13-.44 3.47 3.47 0 0 1 2.4.3A9 9 0 0 1 7.77 3.3c.73.7 1.4 1.44 2.1 2.16a17.9 17.9 0 0 0 2.3 2.08 2.8 2.8 0 0 0 1.95.64 13 13 0 0 0 2.15-.43c.64-.17 1.27-.4 1.9-.53a.04.04 0 0 0 .04 0 .28.28 0 0 0 .1-.02h.14a1.1 1.1 0 0 1 .17.05.04.04 0 0 0 .03 0 .4.4 0 0 1 .1.06.2.2 0 0 1 .05.06l.12.13c-.03-.04.05.06.06.1a.57.57 0 0 0 .05.06.08.08 0 0 0 .03.04c0 .03.03.07.04.1v.28a.26.26 0 0 1 0 .07l-.03.06v.03c0 .02-.06.1-.07.1l-.08.08-.1.06a.45.45 0 0 0-.3.54.44.44 0 0 0 .55.3 1.4 1.4 0 0 0 .86-1.65 1.67 1.67 0 0 0-1.32-1.3 2.43 2.43 0 0 0-1.1.14l-1.1.3-1.27.3c-.2.04-.37.1-.56.1-.23.05-.28.06-.48.08a2.4 2.4 0 0 1-.38 0l-.16-.03-.22-.07c.03 0-.06-.03-.07-.03l-.1-.06c-.1-.04-.16-.1-.24-.13-.16-.1-.34-.23-.47-.33a22.65 22.65 0 0 1-2.3-2.2c-.68-.7-1.35-1.4-2.07-2.06A8.98 8.98 0 0 0 5.72.75 4.46 4.46 0 0 0 2.95.48 4.12 4.12 0 0 0 .75 1.7 2.8 2.8 0 0 0 0 3.9a1.5 1.5 0 0 0 1.44 1.27z"/>
</svg>
