<svg xmlns="http://www.w3.org/2000/svg" viewBox="0 0 20.04 19.45">
  <path d="M10.62 5.5L15.57.57 15 0l-4.98 5-5-5-.55.56L9.42 5.5H0v13.95h20.04V5.5zm8.63 13.16H.8V6.3h18.45zM17.78 7.82H2.25v9.23h15.53zm-14.72 8.5V8.55h13.9v7.8zm9.64-5.05h-1.64l-.5-1.55a.4.4 0 0 0-.74 0l-.5 1.55H7.68a.4.4 0 0 0-.37.27.38.38 0 0 0 .16.43l1.32.96-.5 1.55a.38.38 0 0 0 .14.43.4.4 0 0 0 .24.1.48.48 0 0 0 .23-.08l1.3-.95 1.3.96a.37.37 0 0 0 .47 0 .38.38 0 0 0 .14-.42l-.5-1.54 1.33-.96a.38.38 0 0 0 .14-.43.4.4 0 0 0-.37-.27zM11 12.6a.25.25 0 0 0-.1.26l.37 1.1-.95-.68a.22.22 0 0 0-.28 0l-.95.7.34-1.12a.24.24 0 0 0-.1-.27l-.94-.7h1.2a.25.25 0 0 0 .23-.18l.37-1.1.38 1.1a.24.24 0 0 0 .23.17H12z"/>
</svg>
