<svg xmlns="http://www.w3.org/2000/svg" viewBox="0 0 21.66667 21.66667">
  <defs>
    <style>
      .cls-1{fill:#27bfcf;}
    </style>
  </defs>
  <path d="M10.83 0a10.83 10.83 0 1 0 10.84 10.83A10.83 10.83 0 0 0 10.83 0zm0 20.97a10.13 10.13 0 1 1 10.14-10.14 10.13 10.13 0 0 1-10.14 10.14zm5.54-14.72a4.8 4.8 0 0 1-1.53.58 2.4 2.4 0 0 0-4.1 2.2A6.82 6.82 0 0 1 5.8 6.5a2.4 2.4 0 0 0 .73 3.22 2.4 2.4 0 0 1-1.08-.3v.03a2.4 2.4 0 0 0 1.92 2.36 2.4 2.4 0 0 1-1.08.06 2.4 2.4 0 0 0 2.22 1.67 4.82 4.82 0 0 1-2.98 1.03 4.88 4.88 0 0 1-.58-.04A6.84 6.84 0 0 0 15.5 8.76v-.3a4.88 4.88 0 0 0 1.2-1.25 4.8 4.8 0 0 1-1.4.4 2.4 2.4 0 0 0 1.07-1.34z" class="cls-1"/>
</svg>
