<svg xmlns="http://www.w3.org/2000/svg" viewBox="0 0 19.9647 17.45">
  <path d="M9.5 17.45a2.56 2.56 0 0 1-1.7-.64l-.4-.1a3.25 3.25 0 0 1-.36-.1c-.1-.03-.2-.06-.27-.1-.12 0-.24-.03-.37-.05a1.8 1.8 0 0 1-1.63-1.15 5.42 5.42 0 0 0-1.03-1.75 1.44 1.44 0 0 1-.2-1.82 1.17 1.17 0 0 0 .14-.34l.05-.4.05-.5-.28-.2c-.28-.2-.55-.43-.8-.65-.3-.24-.54-.44-.8-.63A4.92 4.92 0 0 1 .23 6.95c-.83-2.22.67-5 2.6-6.22h.03L2.88.7a6.64 6.64 0 0 1 3.1-.7 7.06 7.06 0 0 1 2.17.32 6.9 6.9 0 0 1 3.05 1.7l.12.13h.06a9.17 9.17 0 0 1 5.06 1.8l.18.24h.02a1.84 1.84 0 0 1 .43.15A5.08 5.08 0 0 1 19 6.3a6.74 6.74 0 0 1 .96 3.16 6.3 6.3 0 0 1-.92 3.2 3.12 3.12 0 0 1-2.1 1.76l-.3.07a2.66 2.66 0 0 1-2.06 1.07h-.2l-.03.02a3.1 3.1 0 0 1-2.22.93h-.17a3.47 3.47 0 0 1-1.4.72l-.13.05a3.33 3.33 0 0 1-.93.15zM4.76 6.85a5.24 5.24 0 0 0-.23 2.97l.6.66a2.58 2.58 0 0 0 .7.54 3.75 3.75 0 0 0 .43.17c.67.22 1.8.62 1.9 1.73l.3 3.43a1.85 1.85 0 0 0 1.04.3 2.1 2.1 0 0 0 .68-.1l.15-.06a2.2 2.2 0 0 0 1.28-.75l.4-1.15.45-1.43a3.12 3.12 0 0 1-.08 1.52 6.2 6.2 0 0 1-.18.6 2.8 2.8 0 0 0-.13.37l-.02.07h.07a2.3 2.3 0 0 0 1.94-1.02l.3-.95.48-1.47a3.12 3.12 0 0 1-.08 1.53 5.54 5.54 0 0 1-.18.62l-.1.3-.02.06h.13a2 2 0 0 0 1.64-1.06 5.36 5.36 0 0 0 .63-1.87 3.22 3.22 0 0 1-.08 1.5l-.1.34h.1a2.32 2.32 0 0 0 1.6-1.4 5.7 5.7 0 0 0 .8-2.8 6.03 6.03 0 0 0-.87-2.8 4.36 4.36 0 0 0-1.2-1.38l-1.38-.07h-.3a11.45 11.45 0 0 0-6.7 2.38l-.08.1-.1.03a1 1 0 0 1-.45.1 5.4 5.4 0 0 1-1.4-.34l-.3-.1c-.5-.15-1-.34-1.32-.48l-.25-.1-.05-.02zm-.28 4.28c0 .1-.03.22-.04.33v.07a2.35 2.35 0 0 1-.2.55.7.7 0 0 0 .07.98 6.33 6.33 0 0 1 1.2 2c.2.53.6.6 1.02.65a3.98 3.98 0 0 1 .44.1c.1 0 .2.05.3.08l.04.02a2.66 2.66 0 0 0 .32.08l.07.02-.27-2.97c-.04-.63-.8-.9-1.4-1.1a4.47 4.47 0 0 1-.54-.22.67.67 0 0 0-.13-.04 2.7 2.7 0 0 1-.3-.15c-.14-.1-.48-.37-.5-.4l-.06-.06zM5.98.75a5.95 5.95 0 0 0-2.74.62C1.6 2.4.24 4.84.94 6.7a4.33 4.33 0 0 0 1.42 1.73c.28.2.54.43.8.64l.45.37.1.08V9.4a5.65 5.65 0 0 1 .37-2.86l.07-.15.1-.25.24-.5c.93-1.6 3.67-2.95 5.78-3.4h.1l-.08-.08A7.28 7.28 0 0 0 7.9 1.03 6.47 6.47 0 0 0 6 .75zM11.3 2.9c-1.42 0-4.97 1.28-6.1 3.03a1.25 1.25 0 0 1-.1.12l-.02.06.06.04.32.13c.3.12.74.3 1.17.42l.3.1a5.56 5.56 0 0 0 1.2.3.37.37 0 0 0 .1-.04 12.18 12.18 0 0 1 7.2-2.6c.12 0 .24 0 .35.02h.1l-.06-.08a2.7 2.7 0 0 0-.52-.34 10.43 10.43 0 0 0-3-1.02l-1-.14z"/>
</svg>
