<svg xmlns="http://www.w3.org/2000/svg" viewBox="0 0 19.66665 21.07183">
  <path d="M9.83 12.57c3.25 0 5.32-4.84 5.32-7.4A5.26 5.26 0 0 0 9.83 0a5.25 5.25 0 0 0-5.3 5.18c0 2.54 2.06 7.4 5.3 7.4zm0-11a3.67 3.67 0 0 1 3.72 3.6c0 2.16-1.83 5.84-3.72 5.84s-3.7-3.7-3.7-5.8a3.67 3.67 0 0 1 3.7-3.6zm9.83 14.33c0-3.88-4.9-5.13-5.12-5.17a.8.8 0 0 0-.97.56.78.78 0 0 0 .58.93c.05.02 3.92 1 3.92 3.65v3.6H1.6v-3.6c0-2.66 3.86-3.66 3.9-3.66h.02a.78.78 0 0 0 .57-.95.8.8 0 0 0-1-.57C4.9 10.75 0 12 0 15.86v5.17h19.66z"/>
</svg>
