<svg xmlns="http://www.w3.org/2000/svg" viewBox="0 0 20.01591 15.34355">
  <path d="M10 10.53a30.25 30.25 0 0 1 1.24-3.7c.14-.3-.3-.74-.38-.92-.16-.4-.62-.4-1.04-.23-.06.02-.23.13-.3.16a32.48 32.48 0 0 0-3.2 3.28c-.34.3-.86.6-.95.16-.06-.32-.04-.5.12-.55a2.53 2.53 0 0 0 1.8-1.14.88.88 0 0 0 .05-1.03c-.48-.7-.76-.96-1.54-.22C4.5 7.6 4.2 9 4.67 9.75a1.18 1.18 0 0 0 1.6.45A12.58 12.58 0 0 0 8 8.3c0 .43-.12.8.15 1.12.07.07.56.63 1.34-.25a13.5 13.5 0 0 1-.8 1.48 11.46 11.46 0 0 0-3.04.42c-.22.13-.8.9-.45 1.03.13.04 2.04-.25 3-.38a24.4 24.4 0 0 0-1.14 2.2 1.1 1.1 0 0 0 1.28 1.4c.8-.1.78-1.47 1.4-3.85 4.44-.84 4.44-.84 10.27-1.85 0 0-8.62.76-10 .9zm-3.34-4.1A2.86 2.86 0 0 1 5.52 8.1a2.5 2.5 0 0 1 1.14-1.66zM8.4 14.1c-.05.3-.13.43-.25.43-.4 0-.4-.3-.3-.54s.9-1.7.9-1.7-.32 1.5-.36 1.8zm.46-5.24a2.04 2.04 0 0 1 .26-1.12 4.1 4.1 0 0 1 .8-1.18 1.75 1.75 0 0 1 .33-.27.18.18 0 0 1 .06-.05 1.7 1.7 0 0 1-.16.78 4.05 4.05 0 0 1-1.27 1.82zm2.47-.26a1.06 1.06 0 0 0 .7.73.72.72 0 0 0 .77-.38 3.48 3.48 0 0 0 .33-.7 3.5 3.5 0 0 0 .17.7c.3.63.94.44 1.35-.1a9.38 9.38 0 0 0 .82-1.18 8.98 8.98 0 0 0 .47-.8c.1.53.68.8.26.88s-.5.1-.65.3a.78.78 0 0 0-.06.65.9.9 0 0 0 1.1.5 1.03 1.03 0 0 0 .77-.8.3.3 0 0 1 .22-.18c.52-.05.8.1 1-.38.13-.25.03-.62-.22-.62s-.25.1-.86.2c-.14.02-.2.02-.24-.14-.16-.6-.52-.75-.7-1.36-.1-.4.37-.7.45-1.08.1-.5-.46-.7-.76-.3a3.13 3.13 0 0 0-.44.94 2.8 2.8 0 0 1-.28.7c-.28.47-.54.97-.83 1.43-.2.3-.8 1.18-.7.6l.3-1.55a.8.8 0 0 0-.2-.76 2.38 2.38 0 0 1-.32-.4.5.5 0 0 0-.64-.26h-.03a1.78 1.78 0 0 0-.5.3 4.58 4.58 0 0 0-1.25 2 1.7 1.7 0 0 0-.1 1.06zm5.1-.1c.02.07-.08.17-.14.17a.3.3 0 0 1-.26-.08.12.12 0 0 1-.04-.18l.02-.02c.05-.04.16-.1.34-.02.02.03.07.03.07.12zM12.5 7.22a3.68 3.68 0 0 1 .72-1.06 1.57 1.57 0 0 1 .3-.24.16.16 0 0 1 .06-.03 1.53 1.53 0 0 1-.17.7 3.53 3.53 0 0 1-1.1 1.62 1.8 1.8 0 0 1 .22-1zm-1.62-6.18c.7-.3.5-.46.4-.55A1.78 1.78 0 0 0 9.55.05C4.28 2.6 2.47 9.9 2.48 9.86a36.96 36.96 0 0 1 1.08-6.83 1.57 1.57 0 0 0-.3-1.42.27.27 0 0 0-.46 0A16.7 16.7 0 0 1 .1 3.9c-.13.1-.13.2 0 .3a.65.65 0 0 0 .2.1.97.97 0 0 0 .7-.05 4.58 4.58 0 0 0 1.34-.73 66.9 66.9 0 0 0-.7 7.74 1.08 1.08 0 0 0 .52.9c.3.18.77.22.82-.12a13.6 13.6 0 0 1 7.9-10.98z"/>
</svg>
