<svg xmlns="http://www.w3.org/2000/svg" viewBox="0 0 20.44836 16.19003">
  <path d="M17.86 0H2.6A2.6 2.6 0 0 0 0 2.6v3.36a10.22 10.22 0 0 0 20.45 0V2.6a2.6 2.6 0 0 0-2.6-2.6zm1.74 5.96a9.37 9.37 0 0 1-18.75 0V2.6A1.74 1.74 0 0 1 2.6.84h15.26A1.74 1.74 0 0 1 19.6 2.6zm-3.84-1.7a5.54 5.54 0 0 1-11.07 0H3.15v.85h.72a6.34 6.34 0 0 0 .44 1.67l-.74.43.42.73.7-.4A6.44 6.44 0 0 0 6.06 9.1l-.85.85.6.6.9-.9-.16-.18a6.37 6.37 0 0 0 7.4 0l-.2.18.9.9.62-.6-.86-.85a6.43 6.43 0 0 0 1.32-1.58l.7.4.43-.73-.75-.45a6.34 6.34 0 0 0 .46-1.65h.72v-.84h-1.52zm-8.1-1.7h5.1v.85h-5.1z"/>
</svg>
