<svg xmlns="http://www.w3.org/2000/svg" viewBox="0 0 19.97 19.27">
  <path d="M12.65 4.7H2.83a.37.37 0 0 0-.37.38v5a.37.37 0 0 0 .37.37h9.82A.37.37 0 0 0 13 10V5a.37.37 0 0 0-.37-.37zm-6.93 5H3.2V5.44h2.53zM9 9.68H6.46V5.44H9zm3.27 0H9.74V7.93h2.53zm0-2.5H9.74V5.45h2.53zm7.66-1.28a1.62 1.62 0 0 0-1.58-1.26 1.62 1.62 0 0 0-.35 3.2v4.9a1.65 1.65 0 0 1-1.65 1.64h-.87V4.65a2.4 2.4 0 0 0-2.36-2.4v-1.2a1 1 0 0 0-1-1h-8.7a1 1 0 0 0-1 1v1.2A2.4 2.4 0 0 0 0 4.63v12.24a2.4 2.4 0 0 0 2.38 2.4h10.66a2.4 2.4 0 0 0 2.4-2.4v-1.74h.86a2.4 2.4 0 0 0 2.4-2.38v-4.9a1.62 1.62 0 0 0 1.2-1.95zM3.13 1a.3.3 0 0 1 .3-.3h8.62a.3.3 0 0 1 .3.3v1.27H3.13zM14.7 16.9a1.65 1.65 0 0 1-1.7 1.63H2.34a1.65 1.65 0 0 1-1.6-1.66V4.64A1.65 1.65 0 0 1 2.4 3h10.67a1.65 1.65 0 0 1 1.64 1.65zm4.53-10.64a.88.88 0 1 1-.88-.88.88.88 0 0 1 .88.88zM7.73 13a1.5 1.5 0 1 0 1.47 1.5A1.5 1.5 0 0 0 7.72 13zm0 2.23a.75.75 0 1 1 .74-.75.75.75 0 0 1-.75.75zm3.8-2.23A1.5 1.5 0 1 0 13 14.47 1.5 1.5 0 0 0 11.52 13zm.73 1.5a.75.75 0 1 1-.75-.76.75.75 0 0 1 .77.73zM3.93 13a1.5 1.5 0 1 0 1.5 1.5 1.5 1.5 0 0 0-1.5-1.5zm0 2.23a.75.75 0 1 1 .75-.75.75.75 0 0 1-.75.74z"/>
</svg>
