<svg xmlns="http://www.w3.org/2000/svg" viewBox="0 0 20.017 19.89482">
  <path d="M12.9 5.72a3 3 0 0 0-1.12-1.6L15.3.6l-.58-.6-3.7 3.7A2.9 2.9 0 0 0 9 3.7L5.3 0l-.6.6 3.55 3.5a3 3 0 0 0-1.1 1.6H0v14.2h20.02V5.7zM10 4.36a2.17 2.17 0 0 1 2 1.36H8a2.17 2.17 0 0 1 2-1.36zm9.18 14.7H.83V6.56h18.35zm-14.9-.83h8.13a2.6 2.6 0 0 0 2.6-2.6V10a2.6 2.6 0 0 0-2.6-2.62H4.3a2.6 2.6 0 0 0-2.6 2.6v5.65a2.6 2.6 0 0 0 2.6 2.6zM2.5 10a1.77 1.77 0 0 1 1.77-1.8h8.14a1.77 1.77 0 0 1 1.8 1.8v5.63a1.77 1.77 0 0 1-1.77 1.76H4.28A1.77 1.77 0 0 1 2.5 15.6z"/>
  <circle cx="17.52" cy="10.3" r=".83"/>
  <circle cx="17.52" cy="13.64" r=".83"/>
  <path d="M8.27 15.8a.44.44 0 0 0 .1 0c.47-.1 2.85-2.57 2.9-3.97a1.64 1.64 0 0 0-2.85-1.17 1.64 1.64 0 0 0-2.9 1C5.48 13 7.74 15.8 8.27 15.8zm-1.1-5a.9.9 0 0 1 .87.7.37.37 0 0 0 .7.04.9.9 0 0 1 1.8.26c-.04.93-1.68 2.72-2.25 3.2-.56-.52-2.1-2.4-2.06-3.32a.9.9 0 0 1 .93-.88z"/>
</svg>
