<svg xmlns="http://www.w3.org/2000/svg" viewBox="0 0 20.05858 13.74292">
  <path d="M19.7 10.62h-1.1V1.14A1.24 1.24 0 0 0 17.36 0H2.66a1.18 1.18 0 0 0-1.2 1.18v9.45H.36a.35.35 0 0 0-.35.35v.96a1.8 1.8 0 0 0 1.8 1.8h16.47a1.8 1.8 0 0 0 1.8-1.8v-.97a.35.35 0 0 0-.35-.35zm-.34 1.32a1.1 1.1 0 0 1-1.1 1.1H1.8a1.1 1.1 0 0 1-1.1-1.1v-.62h1.12a.35.35 0 0 0 .35-.35v-9.8A.48.48 0 0 1 2.65.7h14.7a.55.55 0 0 1 .54.5v9.77a.35.35 0 0 0 .33.35h1.12zM16.74 1.46H3.44a.35.35 0 0 0-.36.35V10.7a.36.36 0 0 0 .35.34h4.8v.03a.8.8 0 0 0 .73.58h2.14a.8.8 0 0 0 .72-.58v-.03h4.8a.56.56 0 0 0 .48-.4V1.8a.35.35 0 0 0-.36-.34zm-7.78 9.46a.2.2 0 0 1-.07-.16v-.1a.35.35 0 0 0-.37-.34H3.8V2.17h4v.03-.03h4.58v.03-.03h4v4.9h-1.1a1.3 1.3 0 0 0 .35-1.02c-.03-.3-.28-1.04-1.78-1.18h-1.17a1.02 1.02 0 1 0-1 1.35l.32.65-.07.2h-.1A6.7 6.7 0 0 1 9.47 4.9l-.05-.07a.47.47 0 0 0-.5-.12.47.47 0 0 0-.3.38l-.3.76-1.07.9a.77.77 0 0 0-.07 1.08l.05.06a.74.74 0 0 0 .6.2l1-.17a12.03 12.03 0 0 0 1.6 3.03zm3.68-4.28l-.3-.62a1.03 1.03 0 0 0 .2-.2 1 1 0 0 0 .07-.12l.04-.04a1 1 0 0 0 .05-.1v-.02h1.12c.68.07 1.12.3 1.16.6.04.27-.27.68-.9.93h-1.4a.55.55 0 0 0-.02-.43zm-.58-1.45a.34.34 0 0 1-.24.3l-.04.03a.34.34 0 1 1 .28-.35zm4.33 5.1h-4.9a.35.35 0 0 0-.35.36v.04A12.07 12.07 0 0 1 9.4 7.43l-.07-.32-1.6.3a.06.06 0 0 1-.06-.03.1.1 0 0 1-.03-.06.1.1 0 0 1 .02-.05l1.18-1 .25-.63a7.86 7.86 0 0 0 2.44 2.1l.08.04h2.1l.27 1.6-.48-.02-.04.68.64.04h.03a.55.55 0 0 0 .5-.7l-.25-1.6h1.94z"/>
</svg>
