<svg xmlns="http://www.w3.org/2000/svg" viewBox="0 0 225.53 69.9007">
  <path d="M76.1 68.9L87.02 1.17h17.5l-10.95 67.7h-17.5M157 2.84A43.3 43.3 0 0 0 141.33 0C124 0 111.88 9.2 111.78 22.35c-.1 9.73 8.68 15.16 15.3 18.4 6.82 3.32 9.1 5.44 9.08 8.4 0 4.54-5.44 6.6-10.46 6.6a35.1 35.1 0 0 1-16.47-3.54L107 51.15l-2.45 15.16c4.08 1.88 11.64 3.5 19.48 3.6 18.37 0 30.3-9.08 30.45-23.13.06-7.72-4.6-13.57-14.7-18.4-6.1-3.14-9.85-5.22-9.8-8.4 0-2.8 3.16-5.83 10-5.83a30.73 30.73 0 0 1 13.07 2.6l1.57.77L157 2.86M201.85 1.25h-13.5c-4.2 0-7.34 1.2-9.17 5.6l-26 62.06h18.36s3-8.33 3.68-10.16h22.4l2.12 10.14H216L201.85 1.25M180.28 44.9l7-18.94c-.1.18 1.44-3.92 2.32-6.46l1.18 5.84s3.36 16.16 4 19.55zM28.43 1.2H.23L0 2.6C21.94 8.2 36.46 21.73 42.48 38L36.35 6.9c-1.05-4.3-4.13-5.56-7.92-5.7zm33 .25L44.3 47.5l-1.2-6.2a60.78 60.78 0 0 0-24.33-29.73l15.15 57.28 18.5.1L80 1.45zm160.24 59.4a3.86 3.86 0 1 1-3.86 3.85 3.84 3.84 0 0 1 3.84-3.86h.04zm0 7.13a3.28 3.28 0 1 0-3.13-3.43v.15a3.18 3.18 0 0 0 3.06 3.3h.07zm-1.4-5.23H222a1.1 1.1 0 0 1 1.27 1.1.9.9 0 0 1-.65.9.8.8 0 0 1 .55.9 1.5 1.5 0 0 0 .16.93h-.74a1.26 1.26 0 0 1-.16-.88c0-.36 0-.72-.85-.72h-.6v1.6h-.7v-3.84zm.73 1.72h.83a.6.6 0 0 0 .7-.62c0-.47-.3-.58-.77-.58H221z"/>
</svg>
