<svg xmlns="http://www.w3.org/2000/svg" viewBox="0 0 19.96 19.96">
  <path d="M9.98 0a9.98 9.98 0 1 0 9.98 9.98A9.98 9.98 0 0 0 9.98 0zm0 .73a9.5 9.5 0 0 1 1.78.17 19.13 19.13 0 0 0-9.1 5.88A11.48 11.48 0 0 1 1.63 6 9.23 9.23 0 0 1 9.98.74zm3.28.6a8.93 8.93 0 0 1 2.4 1.36A21.2 21.2 0 0 0 6.4 8.46a16.33 16.33 0 0 1-3.07-1.3 17.6 17.6 0 0 1 9.96-5.85zm3.1 1.95a9.22 9.22 0 0 1 1.38 1.67 18.23 18.23 0 0 0-7.86 4.6c-.9-.3-1.8-.55-2.7-.8a19.85 19.85 0 0 1 9.18-5.47zm1.77 2.33A9.24 9.24 0 0 1 17.03 16c.93-3.64.07-6.58-.6-9.8a16.73 16.73 0 0 1 1.7-.56zm-2.4.86c.75 3.6 1.65 6.6.18 10.62a9.24 9.24 0 0 1-2.53 1.5 20.35 20.35 0 0 0-.16-10.76 18.53 18.53 0 0 1 2.55-1.35zm-14.4.27c2.7 2.2 5.58 2.62 8.3 3.53.05.97.1 1.94.1 2.9-3.82-1-6.6-2.33-8.85-4.75a8 8 0 0 1 .45-1.67zm11.22 1.54a19.17 19.17 0 0 1-.05 10.6 9.13 9.13 0 0 1-2.52.36h-.5c1.17-2.93 1.03-6.04.88-9.1a17.14 17.14 0 0 1 2.2-1.86zM.75 9.37c2.33 2.3 5.22 3.6 8.96 4.54a18 18 0 0 1-.3 3.06 13.34 13.34 0 0 1-8.34-4.6A9.12 9.12 0 0 1 .76 10a3.4 3.4 0 0 1 0-.65zm.96 4.74a14.6 14.6 0 0 0 7.5 3.57 9.84 9.84 0 0 1-.5 1.47 9.22 9.22 0 0 1-7-5.02z"/>
</svg>
