<svg xmlns="http://www.w3.org/2000/svg" viewBox="0 0 19.90001 14.92001">
  <path d="M18.24 0H1.66A1.66 1.66 0 0 0 0 1.65v11.6a1.66 1.66 0 0 0 1.65 1.67h16.6a1.66 1.66 0 0 0 1.65-1.65V1.67A1.67 1.67 0 0 0 18.24 0zM6.64.83h11.6a.83.83 0 0 1 .82.83V4.4h-8.28V4A1.76 1.76 0 0 0 9.1 2.14a1.56 1.56 0 0 0-.9.3l-1.4 1c-.04-.02-.1-.04-.17-.05zm.85 3.15l1.2-.86a.73.73 0 0 1 .4-.14.94.94 0 0 1 .84 1v1.3a1.1 1.1 0 0 1-.27.74.72.72 0 0 1-.86.2l-1.3-.58a1.22 1.22 0 0 0 .16-.6v-.42a1.28 1.28 0 0 0-.18-.64zM.8 1.66a.83.83 0 0 1 .83-.83H5.8V3.4c-.06 0-.12.03-.17.04l-1.4-1a1.56 1.56 0 0 0-.9-.28A1.77 1.77 0 0 0 1.66 4v.4H.83zm4.1 3.98l-1.3.6a.75.75 0 0 1-.3.05.93.93 0 0 1-.83-1.03V4a.93.93 0 0 1 .83-1 .73.73 0 0 1 .42.13l1.2.86a1.14 1.14 0 0 0-.2.6V5a1.23 1.23 0 0 0 .17.63zm.87 8.46H1.65a.83.83 0 0 1-.83-.84V5.22h.83v.07A1.77 1.77 0 0 0 3.32 7.1 1.52 1.52 0 0 0 3.95 7l1.7-.77a.75.75 0 0 0 .15.04zm.62-8.65H6a.4.4 0 0 1-.4-.4V4.6a.4.4 0 0 1 .4-.4h.42a.4.4 0 0 1 .4.4V5a.4.4 0 0 1-.36.43h-.03zm11.8 8.64H6.64V6.24a.93.93 0 0 0 .16-.04l1.68.77a1.56 1.56 0 0 0 .63.14 1.6 1.6 0 0 0 1.2-.53 1.95 1.95 0 0 0 .48-1.3V5.2h8.3v8.05a.83.83 0 0 1-.83.83z"/>
</svg>
