<svg xmlns="http://www.w3.org/2000/svg" viewBox="0 0 19.94835 16.53">
  <path d="M16.27 14.52a1.7 1.7 0 0 1-.22 0 8.2 8.2 0 0 0 2.07-4.43.18.18 0 0 0-.1-.2 8.1 8.1 0 0 0-1.1-.48.13.13 0 0 0-.07 0 .3.3 0 0 0-.1 0 .18.18 0 0 0-.08.13 17.62 17.62 0 0 1-1.8 4.62 2.15 2.15 0 0 1-.5-.33.65.65 0 0 0-.08-.08 17.57 17.57 0 0 0 1.7-4.4.22.22 0 0 0-.03-.15.2.2 0 0 0-.12-.06 12.1 12.1 0 0 0-1.82-.28.2.2 0 0 0-.2.15 13.43 13.43 0 0 1-2.23 5.08 4.32 4.32 0 0 1-1.22.42 13.53 13.53 0 0 0 2.72-5.45.2.2 0 0 0-.04-.16.2.2 0 0 0-.15-.1 14.42 14.42 0 0 0-2.5.3.17.17 0 0 0-.13.14A13.78 13.78 0 0 1 8 13.87a.22.22 0 0 0-.04-.04 1.77 1.77 0 0 0-.55-.35 11 11 0 0 0 .8-1.15.18.18 0 0 0-.04-.24 11.88 11.88 0 0 1-4.12-6.73 6.63 6.63 0 0 1 .58-.8 11.47 11.47 0 0 0 3.83 6.82.17.17 0 0 0 .12.03h.04a.17.17 0 0 0 .13-.1 13.54 13.54 0 0 0 .82-2.16A.2.2 0 0 0 9.5 9a12.22 12.22 0 0 1-3.2-7.12.18.18 0 0 0-.1-.15.16.16 0 0 0-.1-.04.3.3 0 0 0-.1 0 8.24 8.24 0 0 0-2.18 12.8 2.93 2.93 0 0 1-.4 0 2.72 2.72 0 0 1-.56-.05 8.86 8.86 0 0 1-1.9-5.5 8.97 8.97 0 0 1 15.9-5.7v.03c.02 0 .02 0 .03.02a8.98 8.98 0 0 1 .13 11.1 3.37 3.37 0 0 1-.77.1zm-3.1-6.43a11.66 11.66 0 0 1 4.76.95.2.2 0 0 0 .08.02.17.17 0 0 0 .1-.03.2.2 0 0 0 .1-.16A8.4 8.4 0 0 0 17.98 7a.17.17 0 0 0-.1-.12 12 12 0 0 0-5.37-1.3 11.05 11.05 0 0 0-2.76.36 6.6 6.6 0 0 1-.36-.64 11.65 11.65 0 0 1 3.16-.44 12.44 12.44 0 0 1 4.68.93.17.17 0 0 0 .07 0 .2.2 0 0 0 .12-.05.2.2 0 0 0 .04-.2 8.9 8.9 0 0 0-1-1.63.16.16 0 0 0-.07-.06A15.36 15.36 0 0 0 11 2.74a8.1 8.1 0 0 0-2.44.34c-.06-.24-.12-.47-.16-.7a9 9 0 0 1 2.6-.36 13.6 13.6 0 0 1 3.42.46.43.43 0 0 0 .05 0 .18.18 0 0 0 .17-.1.18.18 0 0 0-.07-.23A8.2 8.2 0 0 0 9.94.73a8.33 8.33 0 0 0-2.84.5.2.2 0 0 0-.12.18 11.33 11.33 0 0 0 2.93 7 .2.2 0 0 0 .16.07h.04a12.73 12.73 0 0 1 3.08-.37zM5.5 13.85A9.17 9.17 0 0 1 3.3 11 7.07 7.07 0 0 1 3 8.97q0-.33.03-.66a10.14 10.14 0 0 0 3.1 5.18 1.83 1.83 0 0 0-.33.18 2.4 2.4 0 0 1-.3.2zm10.82 2.67a5.24 5.24 0 0 1-3.03-1 .2.2 0 0 0-.13-.03.17.17 0 0 0-.1.03 5.9 5.9 0 0 1-3.16 1 5.35 5.35 0 0 1-3.05-1 .2.2 0 0 0-.1-.05.17.17 0 0 0-.1.03 5.95 5.95 0 0 1-3.2 1.03A5.25 5.25 0 0 1 .1 15.28a.36.36 0 0 1 0-.5.36.36 0 0 1 .26-.1.4.4 0 0 1 .25.1 4.3 4.3 0 0 0 2.86 1.05 5.45 5.45 0 0 0 3.12-1.1.36.36 0 0 1 .2-.05h.04a.3.3 0 0 1 .25.1 4.44 4.44 0 0 0 2.84 1.05 5.4 5.4 0 0 0 3.1-1.07.33.33 0 0 1 .2-.08.34.34 0 0 1 .28.12 4.35 4.35 0 0 0 2.8 1.03 5.45 5.45 0 0 0 3.13-1.1.36.36 0 0 1 .2-.05.35.35 0 0 1 .3.15.37.37 0 0 1-.1.5 6.1 6.1 0 0 1-3.47 1.2z"/>
</svg>
