<svg xmlns="http://www.w3.org/2000/svg" viewBox="0 0 17.85 19.82">
  <path d="M2.26 13.4A2.4 2.4 0 0 1 0 11a2.6 2.6 0 0 1 .08-.63 2.3 2.3 0 0 1 2.18-1.74 2.28 2.28 0 0 1 .8.14.88.88 0 0 1 .2.1 3 3 0 0 1 .17-.9A2.87 2.87 0 0 1 8.6 7.5a2.16 2.16 0 0 1 1-.23 2.26 2.26 0 0 1 2.26 2.17 1.93 1.93 0 0 1 1.62 1.9 2.08 2.08 0 0 1-1.1 1.82l-.04.02a.05.05 0 0 0-.04.02 1.43 1.43 0 0 1-.67.2H2.26zm0-4.1a1.64 1.64 0 0 0-1.53 1.25 2.33 2.33 0 0 0-.06.48 1.72 1.72 0 0 0 1.6 1.75h9.35a.8.8 0 0 0 .3-.12l.06-.03.05-.03a.43.43 0 0 1 .07-.04 1.42 1.42 0 0 0 .72-1.23 1.24 1.24 0 0 0-1.2-1.25h-.1a.32.32 0 0 1-.24-.1.32.32 0 0 1-.08-.3 1.15 1.15 0 0 0 0-.18 1.6 1.6 0 0 0-1.58-1.6 1.6 1.6 0 0 0-.94.32.37.37 0 0 1-.2.07.28.28 0 0 1-.1-.03.35.35 0 0 1-.2-.2 2.22 2.22 0 0 0-2.05-1.34A2.2 2.2 0 0 0 4.06 8.2a2.1 2.1 0 0 0-.13.75A2.24 2.24 0 0 0 4 9.5a.33.33 0 0 1-.17.37.3.3 0 0 1-.16.04.36.36 0 0 1-.25-.1 1.5 1.5 0 0 0-.6-.4 1.37 1.37 0 0 0-.56-.1zm8.52-3.15A2.2 2.2 0 0 1 8.6 3.93a2 2 0 0 1 .05-.48 2.17 2.17 0 0 1 2.13-1.72 2.78 2.78 0 0 1 .52.05 2.6 2.6 0 0 1 5.06.68 1.77 1.77 0 0 1 1.5 1.74 1.85 1.85 0 0 1-1.1 1.7.18.18 0 0 1-.06.04l-.06.03-.05.02a1.32 1.32 0 0 1-.58.14zm0-3.76A1.5 1.5 0 0 0 9.3 3.56a2.17 2.17 0 0 0-.03.38 1.57 1.57 0 0 0 1.52 1.58h5.23a.46.46 0 0 0 .2-.1.67.67 0 0 1 .13-.05.2.2 0 0 0 .06-.05.2.2 0 0 1 .08-.04 1.18 1.18 0 0 0 .7-1.1 1.1 1.1 0 0 0-1.13-1.1h-.04a.32.32 0 0 1-.24-.1.34.34 0 0 1-.1-.26V2.6A1.94 1.94 0 0 0 13.75.66 1.92 1.92 0 0 0 11.92 2a.83.83 0 0 0-.06.26.34.34 0 0 1-.18.24.42.42 0 0 1-.15.04.32.32 0 0 1-.14-.03c-.06 0-.1 0-.15-.03a1.5 1.5 0 0 0-.48-.07zm4.42 6.37a.33.33 0 0 1-.24-.1l-.18-.18-.18.17a.35.35 0 0 1-.24.1.33.33 0 0 1-.24-.1.33.33 0 0 1 0-.47l.18-.17-.18-.18a.33.33 0 0 1 0-.47.35.35 0 0 1 .24-.1.33.33 0 0 1 .24.1l.18.18.18-.18a.35.35 0 0 1 .24-.1.33.33 0 0 1 .24.1.33.33 0 0 1 0 .47l-.18.18.18.18a.33.33 0 0 1 0 .5.37.37 0 0 1-.24.1zm-11.16 8.3a.33.33 0 0 1-.24-.1l-.18-.2-.18.2a.35.35 0 0 1-.24.1.33.33 0 0 1-.24-.1.33.33 0 0 1 0-.48l.18-.2-.17-.18a.33.33 0 0 1 0-.47.35.35 0 0 1 .24-.1.33.33 0 0 1 .26.1l.18.18.18-.18a.35.35 0 0 1 .25-.1.33.33 0 0 1 .24.1.33.33 0 0 1 0 .47l-.2.18.2.2a.33.33 0 0 1 0 .46.36.36 0 0 1-.25.1zm4.03 2.75a.33.33 0 0 1-.24-.1l-.18-.18-.18.18a.35.35 0 0 1-.24.1.33.33 0 0 1-.24-.1.33.33 0 0 1 0-.47l.16-.18L7 18.9a.33.33 0 0 1 0-.48.35.35 0 0 1 .23-.1.33.33 0 0 1 .24.1l.18.18.18-.18a.35.35 0 0 1 .24-.1.33.33 0 0 1 .24.1.33.33 0 0 1 0 .47l-.16.16.18.18a.33.33 0 0 1 0 .47.4.4 0 0 1-.23.1zm2.12-3.9a.33.33 0 0 1-.26-.1l-.18-.17-.18.18a.35.35 0 0 1-.25.1.33.33 0 0 1-.24-.1.33.33 0 0 1 0-.47l.2-.18-.2-.18a.33.33 0 0 1 0-.47.35.35 0 0 1 .24-.1.33.33 0 0 1 .24.1l.17.18.18-.16a.35.35 0 0 1 .24-.1.33.33 0 0 1 .23.1.33.33 0 0 1 0 .47l-.18.2.18.17a.33.33 0 0 1 0 .47.33.33 0 0 1-.24.1z"/>
</svg>
