<svg xmlns="http://www.w3.org/2000/svg" viewBox="0 0 20.0075 19.9975">
  <path d="M19.88 16.05l-1.38-1.38 1.32-1.32a.42.42 0 0 0 0-.6l-1.46-1.46 1.2-1.2a.42.42 0 0 0 0-.6l-1.68-1.7a.43.43 0 0 0-.6 0l-3.6 3.6-5.1-5.1 3.6-3.6a.42.42 0 0 0 0-.6L10.52.45a.43.43 0 0 0-.6 0l-1.2 1.2L7.26.2a.42.42 0 0 0-.6 0l-1.3 1.3L3.94.14a.42.42 0 0 0-.6 0L.14 3.36a.42.42 0 0 0 0 .6L1.5 5.34.2 6.64a.43.43 0 0 0 0 .6L1.65 8.7.45 9.9a.42.42 0 0 0 0 .6l1.68 1.7a.43.43 0 0 0 .6 0l3.6-3.6 5.1 5.1-3.6 3.6a.42.42 0 0 0 0 .6l1.67 1.67a.43.43 0 0 0 .6 0l1.2-1.2 1.46 1.46a.43.43 0 0 0 .6 0l1.32-1.32 1.38 1.4a.43.43 0 0 0 .6 0l3.23-3.24a.42.42 0 0 0 .1-.3.43.43 0 0 0-.13-.3zM3.66 1.03L4.74 2.1 2.1 4.75l-1.06-1.1zm3.3.06l1.07 1.06-5.86 5.86L1.1 6.95zM2.42 11.3l-1.08-1.08 8.87-8.87 1.1 1.08zm4.55-3.25l1.08-1.08L13.1 12 12 13.1zm2.8 10.6L8.72 17.6l3.55-3.54a.27.27 0 0 0 .06-.05l1.7-1.7 3.57-3.6 1.08 1.1zm3.28.27l-1.08-1.08 5.86-5.86 1.08 1.08-1.3 1.3-3.23 3.24zm3.3.07l-1.1-1.1 2.64-2.63 1.07 1.08z"/>
</svg>
