<svg xmlns="http://www.w3.org/2000/svg" viewBox="0 0 19.96 10.27">
  <path d="M14.16 1.2c-.55 0-1.37.05-2.17.1-.8.06-1.63.1-2.16.1-.5 0-1.26-.04-2-.1-.76-.04-1.53-.1-2.05-.1a4 4 0 0 0-2.86 1.2l-.18.18a4.03 4.03 0 0 0 3.03 6.7A5 5 0 0 0 8.76 8.1 2.6 2.6 0 0 1 10 7.5a2.8 2.8 0 0 1 1.3.63 5 5 0 0 0 2.86 1.15 3.96 3.96 0 0 0 1.76-.4 4.18 4.18 0 0 0 1.1-.8 4.03 4.03 0 0 0-2.86-6.88zm2.5 6.54a3.67 3.67 0 0 1-.96.7 3.43 3.43 0 0 1-1.55.35 4.52 4.52 0 0 1-2.6-1.08A2.98 2.98 0 0 0 10 7a2.87 2.87 0 0 0-1.52.7 4.5 4.5 0 0 1-2.7 1.1 3.55 3.55 0 0 1-2.66-5.9l.16-.17a3.52 3.52 0 0 1 2.5-1.04c.5 0 1.26.03 2 .1.75.03 1.52.1 2.04.1.55 0 1.37-.06 2.17-.1.77-.07 1.6-.1 2.12-.1a3.55 3.55 0 0 1 3.55 3.53 3.42 3.42 0 0 1-1.02 2.5zm3.22-4.8a.22.22 0 0 0-.2-.06l-1.04.1A5.04 5.04 0 0 0 15.56.4 30.53 30.53 0 0 0 9.83 0 26 26 0 0 0 4.4.4a5.08 5.08 0 0 0-3.1 2.57l-1.04-.1a.24.24 0 0 0-.18.07.2.2 0 0 0-.08.18v3.8a.24.24 0 0 0 .22.23l.97.1a5 5 0 0 0 4.6 3.02 6.12 6.12 0 0 0 3.54-1.24 1.03 1.03 0 0 1 1.38.02 6.02 6.02 0 0 0 3.43 1.22A5 5 0 0 0 18.6 7.6a3.97 3.97 0 0 0 .17-.36l.97-.1a.24.24 0 0 0 .22-.23V3.14a.2.2 0 0 0-.08-.18zm-19.4.44l.63.05a5.42 5.42 0 0 0-.26 1.05 4.65 4.65 0 0 0-.06.75c0 .16 0 .32.02.48A5.02 5.02 0 0 0 1 6.74l-.52-.05v-3.3zm13.68 6.4A5.63 5.63 0 0 1 11 8.64a1.77 1.77 0 0 0-.98-.36 1.67 1.67 0 0 0-.94.34A5.65 5.65 0 0 1 5.8 9.78a4.53 4.53 0 0 1-4.5-4.1l-.03-.45a5.06 5.06 0 0 1 .05-.68A4.55 4.55 0 0 1 4.55.85a26.88 26.88 0 0 1 5.3-.38 31.33 31.33 0 0 1 5.58.4 4.6 4.6 0 0 1 2.85 2.44 4.08 4.08 0 0 1 .17.44 4.44 4.44 0 0 1 .25 1.5 4.56 4.56 0 0 1-.32 1.67 3.1 3.1 0 0 1-.2.46 4.5 4.5 0 0 1-4.02 2.43zm5.3-3.1l-.5.05a5 5 0 0 0 .23-1.5 4.9 4.9 0 0 0-.3-1.65l-.06-.15.62-.05zm-5.1.37l-.67-.32a.25.25 0 0 0-.24.44l.66.32a.2.2 0 0 0 .1 0 .24.24 0 0 0 .23-.14.22.22 0 0 0-.1-.32zm-1.98-.98c-1.1-.55-2.22-1.08-3.3-1.6l-.76-.35a.24.24 0 0 0-.33.12.25.25 0 0 0 .1.33l4 1.95a.2.2 0 0 0 .1.02h.05a.25.25 0 0 0 .24-.18.23.23 0 0 0-.13-.3zm-4.2-.32C7.7 5.5 6.2 4.8 5.84 4.63a.24.24 0 0 0-.22 0 .26.26 0 0 0-.13.2c-.02.1 0 .17.14.24.02 0 .03.02.05.03.03.03.1.05.16.1l.57.27 1.5.74a.22.22 0 0 0 .25 0 .24.24 0 0 0 .1-.2.24.24 0 0 0-.13-.24zM6.6 3.85a.26.26 0 0 0 .12.02.23.23 0 0 0 .17-.08.23.23 0 0 0 .05-.24.24.24 0 0 0-.13-.18l-1.07-.53a.25.25 0 1 0-.22.44c.36.2.72.36 1.07.53z"/>
</svg>
