<svg xmlns="http://www.w3.org/2000/svg" viewBox="0 0 19.83 19.86">
  <path d="M9.92 19.86a1.16 1.16 0 0 1-1.16-1.15v-.33l-.46.46a.82.82 0 0 1-1.08.07l-.08-.08a.82.82 0 0 1 0-1.16l1.62-1.62v-3.3l-2.34 2.32v2.3a.82.82 0 0 1-.7.8l-.12.02a.82.82 0 0 1-.82-.82v-.66l-.25.25a1.16 1.16 0 0 1-1.64 0 .98.98 0 0 1-.23-.3 1.2 1.2 0 0 1-.13-.55 1.16 1.16 0 0 1 .34-.78l.24-.25H2.5a.82.82 0 1 1 0-1.64h2.3l2.33-2.34h-3.3L2.2 12.7a.82.82 0 0 1-1.08.08.57.57 0 0 1-.08-.07.8.8 0 0 1 0-1.13l.46-.46h-.35A1.15 1.15 0 0 1 0 9.96 1.16 1.16 0 0 1 1.15 8.8h.35l-.46-.47a.8.8 0 0 1-.24-.58.84.84 0 0 1 .24-.58.78.78 0 0 1 .5-.23.7.7 0 0 1 .65.2l1.6 1.63h3.3L4.8 6.43H2.5a.82.82 0 0 1-.2-1.63 1.1 1.1 0 0 1 .17 0h.65l-.25-.26-.14-.16A1.17 1.17 0 0 1 2.9 2.9a1.16 1.16 0 0 1 1.64 0l.25.26V2.5a.82.82 0 0 1 1.62 0v2.3l2.34 2.34v-3.3L7.14 2.2a.83.83 0 0 1-.24-.58.84.84 0 0 1 .24-.58.82.82 0 0 1 1.16 0l.46.46v-.34a1.16 1.16 0 1 1 2.3 0v.35l.47-.44A.82.82 0 0 1 12.7 2.2l-1.63 1.63v3.3L13.4 4.8V2.5a.82.82 0 1 1 1.65 0v.66l.25-.25a1.16 1.16 0 1 1 1.64 1.65l-.25.25h.64a.82.82 0 0 1 0 1.63h-2.3L12.7 8.77h3.32l1.62-1.62A.82.82 0 1 1 18.8 8.3l-.47.48h.35a1.15 1.15 0 0 1 .34 2.25 1.27 1.27 0 0 1-.34.05h-.35l.46.46a.86.86 0 0 1 .2.33.82.82 0 0 1-.8 1.07.84.84 0 0 1-.58-.24L16 11.08h-3.3l2.34 2.34h2.3a.82.82 0 0 1 .72.43.76.76 0 0 1 .1.4.82.82 0 0 1-.82.8h-.66l.25.26a1.14 1.14 0 0 1 .34.8 1.16 1.16 0 0 1-.34.85 1.24 1.24 0 0 1-.48.3 1.27 1.27 0 0 1-.34.04 1.15 1.15 0 0 1-.8-.35l-.25-.25v.65a.78.78 0 0 1-.18.5.8.8 0 0 1-.53.3l-.1.02a.82.82 0 0 1-.83-.82v-2.3l-2.33-2.34v3.33l1.62 1.62a.82.82 0 0 1-.6 1.4.84.84 0 0 1-.57-.24l-.46-.45v.35a1.17 1.17 0 0 1-.25.7v.03a1.2 1.2 0 0 1-.35.3 1.05 1.05 0 0 1-.53.13zm-.87-2.47a.43.43 0 0 1 .1 0 .27.27 0 0 1 .18.26v1.03a.58.58 0 0 0 .6.6.5.5 0 0 0 .26-.1.76.76 0 0 0 .15-.12v-.03a.54.54 0 0 0 .14-.37v-1.03a.3.3 0 0 1 .16-.26.3.3 0 0 1 .3.06l.96.95a.25.25 0 0 0 .18.1.3.3 0 0 0 .2-.08.25.25 0 0 0 0-.36l-1.72-1.7a.28.28 0 0 1-.08-.2v-4.12a.3.3 0 0 1 .17-.26.3.3 0 0 1 .3.05l2.92 2.9a.28.28 0 0 1 .06.2v2.42a.26.26 0 0 0 .26.26h.03a.26.26 0 0 0 .17-.1.25.25 0 0 0 .06-.14v-1.34a.3.3 0 0 1 .16-.26.3.3 0 0 1 .3.06l.74.73a.6.6 0 0 0 .6.15.55.55 0 0 0 .23-.15.56.56 0 0 0 .18-.44.66.66 0 0 0-.17-.4l-.7-.7a.3.3 0 0 1-.06-.3.27.27 0 0 1 .26-.18h1.34a.25.25 0 0 0 .25-.26.27.27 0 0 0-.05-.12.3.3 0 0 0-.23-.14h-2.4a.3.3 0 0 1-.2-.08l-2.92-2.9a.3.3 0 0 1-.05-.32.27.27 0 0 1 .26-.17h4.13a.3.3 0 0 1 .2.08l1.7 1.73a.25.25 0 0 0 .2.08.3.3 0 0 0 .17-.06.25.25 0 0 0 .05-.26.17.17 0 0 0-.06-.1l-.97-.95a.3.3 0 0 1-.06-.3.27.27 0 0 1 .26-.18h1.03a.47.47 0 0 0 .17-.03.6.6 0 0 0 .42-.55.58.58 0 0 0-.6-.6h-1.02a.3.3 0 0 1-.26-.16.3.3 0 0 1 .06-.3l.95-.96a.25.25 0 0 0-.37-.36l-1.7 1.7a.28.28 0 0 1-.2.1H12a.3.3 0 0 1-.26-.18.3.3 0 0 1 .06-.32l2.9-2.9a.28.28 0 0 1 .2-.1h2.42a.26.26 0 0 0 0-.5H16a.3.3 0 0 1-.26-.17.3.3 0 0 1 .06-.3l.73-.72a.6.6 0 0 0 .17-.42.6.6 0 0 0-.17-.42.6.6 0 0 0-.84 0l-.75.73a.3.3 0 0 1-.3.06.27.27 0 0 1-.18-.26V2.5a.25.25 0 0 0-.25-.25.26.26 0 0 0-.26.25v2.4a.3.3 0 0 1-.08.2l-2.92 2.92a.3.3 0 0 1-.3.06.27.27 0 0 1-.18-.26v-4.1a.3.3 0 0 1 .08-.2l1.7-1.72a.25.25 0 1 0-.35-.36l-.94.95a.3.3 0 0 1-.3.04.27.27 0 0 1-.18-.26V1.15a.6.6 0 0 0-1.18 0V2.2a.3.3 0 0 1-.17.25.3.3 0 0 1-.3-.06l-.95-.97a.25.25 0 0 0-.36 0 .26.26 0 0 0-.07.18.25.25 0 0 0 .08.2l1.7 1.7a.28.28 0 0 1 .1.2v4.1a.3.3 0 0 1-.18.27.3.3 0 0 1-.3-.06L5.92 5.1a.28.28 0 0 1-.08-.2V2.5a.26.26 0 0 0-.52 0v1.34a.3.3 0 0 1-.17.26.28.28 0 0 1-.3-.06L4.1 3.3a.58.58 0 0 0-.4-.15.6.6 0 0 0-.5.92l.08.1.73.72a.3.3 0 0 1 .07.3.3.3 0 0 1-.27.17H2.5a.13.13 0 0 0-.07 0 .26.26 0 0 0 .06.52h2.4a.3.3 0 0 1 .2.07L8 8.87a.3.3 0 0 1 .07.3.27.27 0 0 1-.26.18H3.7a.3.3 0 0 1-.2-.08L1.8 7.55a.25.25 0 0 0-.2-.07.26.26 0 0 0-.17.07.3.3 0 0 0-.07.18.25.25 0 0 0 .08.18l.95.97a.3.3 0 0 1 .04.3.27.27 0 0 1-.26.18H1.14a.6.6 0 0 0-.34.1.58.58 0 0 0-.24.5.64.64 0 0 0 .1.32.6.6 0 0 0 .5.26h1.02a.3.3 0 0 1 .26.17.3.3 0 0 1-.06.3l-.95.95a.24.24 0 0 0-.07.18.3.3 0 0 0 .07.18c0 .03.02.04.03.04a.25.25 0 0 0 .33-.02l1.7-1.7a.28.28 0 0 1 .2-.08h4.1a.3.3 0 0 1 .26.17.3.3 0 0 1-.06.3l-2.9 2.9a.28.28 0 0 1-.2.1H2.5a.26.26 0 0 0-.27.26.26.26 0 0 0 .26.26H3.8a.3.3 0 0 1 .26.18.3.3 0 0 1-.07.3l-.72.74a.56.56 0 0 0-.17.4.6.6 0 0 0 .08.3.72.72 0 0 0 .1.14.6.6 0 0 0 .85 0l.73-.73a.27.27 0 0 1 .3-.06.27.27 0 0 1 .18.25v1.34a.26.26 0 0 0 .26.25h.03a.27.27 0 0 0 .23-.26V15a.3.3 0 0 1 .08-.2l2.9-2.93a.3.3 0 0 1 .32-.06.27.27 0 0 1 .17.26v4.1a.3.3 0 0 1-.08.2l-1.7 1.72a.25.25 0 0 0-.1.18.3.3 0 0 0 .08.18l.02.02a.26.26 0 0 0 .34-.02l.95-.95a.2.2 0 0 1 .2-.1z"/>
</svg>
