<svg xmlns="http://www.w3.org/2000/svg" viewBox="0 0 20.04 18.36">
  <path d="M19 5.6h-.46V2.1a2.1 2.1 0 0 0-2.1-2.1H2.1A2.1 2.1 0 0 0 0 2.1v14.16a2.1 2.1 0 0 0 2.1 2.1h14.35a2.1 2.1 0 0 0 2.1-2.1v-3.52H19a1.03 1.03 0 0 0 1.04-1.03V6.66A1.04 1.04 0 0 0 19 5.6zm-1.2 10.65a1.36 1.36 0 0 1-1.35 1.36H2.1a1.36 1.36 0 0 1-1.36-1.34V2.1A1.36 1.36 0 0 1 2.1.74h14.35A1.36 1.36 0 0 1 17.8 2.1v3.5h-4.2a3.2 3.2 0 0 0-3.2 3.2v.74a3.2 3.2 0 0 0 3.2 3.2h4.2zm1.5-4.55a.3.3 0 0 1-.3.3h-5.4a2.46 2.46 0 0 1-2.45-2.46V8.8a2.46 2.46 0 0 1 2.46-2.45H19a.3.3 0 0 1 .3.3zm-5.35-4.23zm0 2.67a.97.97 0 1 1 .97-.97.97.97 0 0 1-.97.97z"/>
</svg>
