<svg xmlns="http://www.w3.org/2000/svg" viewBox="0 0 19.96015 15.16309">
  <path d="M1.6 15.16a1.8 1.8 0 0 1-.8-.22c-.2-.1-.87-.48-.8-1a3.9 3.9 0 0 1 .84-1.42 5.26 5.26 0 0 0 .9-1.46 4.78 4.78 0 0 0 .08-1.3A7.85 7.85 0 0 1 1.92 8c.3-1.42 4.67-3.2 5.75-3.6l.03-.25A1.5 1.5 0 0 1 8.9 2.7 1.88 1.88 0 0 1 11.2 4a1.92 1.92 0 0 1-.16 1.43 1.9 1.9 0 0 1-1.14.9 1.9 1.9 0 0 1-1.3-.1 4.72 4.72 0 0 0 .77 1 2.54 2.54 0 0 0 1 .02 19.03 19.03 0 0 0 2.18-3.2 1.12 1.12 0 0 0 .05-.22A1.92 1.92 0 0 1 12.87 0a1.88 1.88 0 0 1 1.3.63 1.74 1.74 0 0 1 .23 1.96l-.04.1h.02a5.64 5.64 0 0 1 3.85 4.45v1.02a13.87 13.87 0 0 0 .02 2.1 12.28 12.28 0 0 0 1.6 2.95l.03.06c.22.47 0 .97-.6 1.33-.28.18-1.16.58-1.48.17a.16.16 0 0 1-.04-.08 1.74 1.74 0 0 1-.03-1.2 9.97 9.97 0 0 1-1.92-2.43 4.73 4.73 0 0 1-.25-.92l-.48.7A15.8 15.8 0 0 0 14.3 14c-.07.66-1.3.77-1.74.73-.76-.06-.8-.5-.78-.64a1.4 1.4 0 0 1 .85-1.1 10.38 10.38 0 0 1 .2-3.26 8.4 8.4 0 0 1 .7-1.23 8.27 8.27 0 0 0 .8-1.46A1.16 1.16 0 0 0 14 6.2a9.8 9.8 0 0 1-2.95 2.7 3.86 3.86 0 0 1-2.98-.05 4.43 4.43 0 0 1-1.1-.96 2.44 2.44 0 0 0-.78.5 15.38 15.38 0 0 1 1.5 1.94 13.73 13.73 0 0 1 1.05 2.85c.04.02.1.05.15.1a1.2 1.2 0 0 1 .8.93.55.55 0 0 1-.4.63c-.45.16-1.68.2-1.92-.32a18.08 18.08 0 0 0-1.7-3.08 14.95 14.95 0 0 0-1.3-1.13 9.07 9.07 0 0 1-.16.95A6.72 6.72 0 0 1 2.2 13.8a1.15 1.15 0 0 1 .15.53.8.8 0 0 1-.23.6.72.72 0 0 1-.53.2zm-.9-1.14a1.38 1.38 0 0 0 .93.44.15.15 0 0 0 0-.07.5.5 0 0 0-.16-.37.33.33 0 0 1-.1-.28.37.37 0 0 1 .14-.27 7 7 0 0 0 2.05-2.34 8.43 8.43 0 0 0 .16-1.1c.04-.35.06-.6.3-.67a.34.34 0 0 1 .34.05 20.23 20.23 0 0 1 1.9 1.6A17.97 17.97 0 0 1 8 14.25a2.06 2.06 0 0 0 1 0c-.05-.1-.17-.18-.4-.3-.2-.1-.44-.2-.5-.45l-.03-.08a13.55 13.55 0 0 0-.98-2.68 14.3 14.3 0 0 0-1.6-2 .44.44 0 0 1-.1-.45 2.44 2.44 0 0 1 1.5-1.1.57.57 0 0 1 .58.2 3.7 3.7 0 0 0 .95.85 3.18 3.18 0 0 0 2.35.02 9.3 9.3 0 0 0 2.76-2.65.37.37 0 0 1 .15-.13.65.65 0 0 1 .7.14 1.8 1.8 0 0 1 .63 1.54 7.06 7.06 0 0 1-.9 1.7 10.7 10.7 0 0 0-.65 1.12 12.64 12.64 0 0 0-.15 3.26.35.35 0 0 1-.3.36.72.72 0 0 0-.52.4 2.1 2.1 0 0 0 1.1-.16 15.32 15.32 0 0 1 .86-3.37c.23-.37.7-1.03.93-1.33-.04-.4-.05-.7-.05-.72a.34.34 0 0 1 .34-.36.35.35 0 0 1 .36.33 8.54 8.54 0 0 0 .4 2.37 9.5 9.5 0 0 0 1.94 2.37.35.35 0 0 1 .08.42.98.98 0 0 0-.1.63 1.66 1.66 0 0 0 .84-.46.2.2 0 0 0 .05-.18 12.42 12.42 0 0 1-1.7-3.2 13.25 13.25 0 0 1-.03-2.25c0-.4.02-.78 0-.96 0-.37-.8-3.2-3.35-3.8a.3.3 0 0 1-.1-.05l-.28-.16a.38.38 0 0 1-.15-.2.95.95 0 0 1 .1-.66 1.05 1.05 0 0 0-.1-1.25 1.2 1.2 0 0 0-.8-.4 1.23 1.23 0 0 0-.9.32 1.2 1.2 0 0 0-.06 1.7 1.18 1.18 0 0 0 1.05.4.34.34 0 0 1 .38.26 1.64 1.64 0 0 1-.07.9 19.88 19.88 0 0 1-2.34 3.44.97.97 0 0 1-.74.26c-.05 0-.94.06-1.23-.2A5.8 5.8 0 0 1 7.8 6.1a.36.36 0 0 1 .12-.45l.37-.24a.36.36 0 0 1 .4.04 1.18 1.18 0 0 0 1.04.22 1.14 1.14 0 0 0 .7-.56 1.17 1.17 0 0 0 .12-.9 1.1 1.1 0 0 0-.56-.72 1.2 1.2 0 0 0-.88-.1c-.6.16-.63.47-.68.87a.98.98 0 0 1-.3.73.4.4 0 0 1-.1.05c-2.18.8-5.26 2.32-5.43 3.12a6.82 6.82 0 0 0-.07 1.6 5.22 5.22 0 0 1-.1 1.5 5.5 5.5 0 0 1-1.02 1.7 4.88 4.88 0 0 0-.7 1.07z"/>
</svg>
