<svg xmlns="http://www.w3.org/2000/svg" viewBox="0 0 19.9928 18.98">
  <path d="M19.95 14.56a.38.38 0 0 0-.35-.2l-8.64.64-1.24.05v-.98h3.13c3.33 0 4.68-1.35 5.22-2.48.9-1.86.28-4.4-1.62-6.8A14.13 14.13 0 0 0 9.72.56v-.2a.36.36 0 1 0-.72 0v.88C7.47 7.12 5.85 10.62 1.28 13.4a.37.37 0 0 0-.16.42.36.36 0 0 0 .35.27H9v1l-7.78.3a.37.37 0 0 0-.26.13.34.34 0 0 0-.1.27l.23 2.3a2.02 2.02 0 0 1-.75.15.36.36 0 0 0 0 .72 2.96 2.96 0 0 0 2.36-1.22 2.9 2.9 0 0 0 4.73 0 2.9 2.9 0 0 0 4.72 0 2.9 2.9 0 0 0 4.72 0 952832.77 952832.77 0 0 1 .1.12 2.94 2.94 0 0 0 2.26 1.1.36.36 0 0 0 0-.7 2.2 2.2 0 0 1-1.53-.66L19.92 15a.4.4 0 0 0 .03-.4zm-4.07-9.3c1.7 2.16 2.3 4.46 1.54 6.03-.65 1.33-2.23 2.05-4.57 2.05h-2.78c2.27-3.28 2.3-6.54.1-11.85a12.75 12.75 0 0 1 5.7 3.77zM9.72 12.6V2.34c1.97 5.04 1.58 7.8 0 10.24zm-7.02.77c2.7-1.87 4.65-4.3 6.3-9.5v9.48zM17.26 17a.88.88 0 0 0-.06-.1.36.36 0 0 0-.66 0 2.2 2.2 0 0 1-4.06 0 .36.36 0 0 0-.66 0 2.2 2.2 0 0 1-4.06 0 .35.35 0 0 0-.32-.2.36.36 0 0 0-.33.2 2.27 2.27 0 0 1-2 1.36 2.27 2.27 0 0 1-2.04-1.36.36.36 0 0 0-.66 0 2.43 2.43 0 0 1-.62.8l-.15-1.58 9.37-.4 7.8-.57z"/>
</svg>
