<svg xmlns="http://www.w3.org/2000/svg" viewBox="0 0 17.01012 19.74">
  <path d="M16.9 8.26L15.3 7V.66a.67.67 0 0 0-.66-.66H2.36a.67.67 0 0 0-.66.66V7L.12 8.25A.3.3 0 0 0 0 8.5v10.24a1 1 0 0 0 1 1h15a1 1 0 0 0 1-1V8.5a.33.33 0 0 0-.1-.24zm-1.6-.44l.87.7-.87.68zM2.33 7.16V.66l.03-.02h12.28a.02.02 0 0 1 .02.02V9.7l-2.83 2.24H5.16L2.33 9.7zm8.7 5.42l-1.25 1a2.06 2.06 0 0 1-2.57 0l-1.22-1zM1.7 7.82V9.2l-.87-.7zM.63 18.77v-9.6l6.06 4.8zm.6.34l6-4.72s0-.02.02-.02a2.68 2.68 0 0 0 2.5 0s.02 0 .03.02l6 4.74zm15.14-.35v.02l-6.06-4.8 6.08-4.8zM4.4 3.03h2.4a.32.32 0 0 0 0-.64H4.4a.32.32 0 0 0-.3.3.32.32 0 0 0 .3.32zM4.1 4.4a.32.32 0 0 0 .3.33h3.76a.32.32 0 0 0 0-.64H4.4a.32.32 0 0 0-.3.3zm2.03 2.74a.32.32 0 0 0 .3.32h4.1a.32.32 0 0 0 0-.64H6.46a.33.33 0 0 0-.32.32zM4.4 9.17h8.2a.32.32 0 0 0 0-.64H4.4a.32.32 0 0 0 0 .64zm8.52 1.4a.32.32 0 0 0-.3-.34H4.4a.32.32 0 1 0 0 .64h8.18a.32.32 0 0 0 .32-.3z"/>
</svg>
